<svg width="55" height="148" viewBox="0 0 55 148" fill="none" xmlns="http://www.w3.org/2000/svg">
<path fill-rule="evenodd" clip-rule="evenodd" d="M18.17 95.019C6.42004 100.646 0.543372 108.774 0.540039 119.404C0.540039 120.716 0.660024 122.849 0.900024 125.804C5.78002 140.059 14.5401 147.186 27.1801 147.186H27.9301C31.8371 147.22 35.6964 146.326 39.1901 144.576C49.4701 138.831 54.6068 130.69 54.6001 120.154C54.4692 116.823 53.8319 113.532 52.7101 110.393C46.9601 99.1417 39.0801 93.516 29.0701 93.516H26.8201C23.8652 93.4289 20.9231 93.9391 18.17 95.016V95.019ZM4.65002 108.141C10.59 99.393 16.7301 95.019 23.0701 95.019H24.17V95.377C23.03 95.377 20.78 96.0103 17.42 97.277C7.67004 104.166 2.79337 110.423 2.79004 116.049H2.40002V115.298C2.40002 114.703 3.15002 112.32 4.65002 108.147V108.141ZM14.8101 106.641C23.1034 99.347 29.7301 95.592 34.6901 95.376L36.1901 95.769V96.127C35.4701 96.127 33.7167 96.7587 30.9301 98.022C17.3701 106.389 8.24004 116.4 3.54004 128.057H3.15002C3.16176 127.534 3.03774 127.017 2.79004 126.557C3.60004 120.884 7.60673 114.246 14.8101 106.641ZM44.4501 101.028C20.9167 124.198 9.03338 136.212 8.80005 137.07C8.08043 136.529 7.44075 135.89 6.90002 135.17V134.812C15.03 123.442 26.7967 111.547 42.2001 99.128C43.7001 100.011 44.4501 100.644 44.4501 101.028ZM50.4601 108.143C50.5579 108.936 50.8128 109.702 51.2101 110.396C44.2617 124.704 32.7845 136.318 18.5601 143.435C17.6342 143.39 16.7311 143.133 15.92 142.684C31.81 131.623 43.0701 120.11 49.7001 108.143H50.4601ZM2.40002 116.403V118.303H2.04004V116.403H2.40002ZM52.7101 118.656V119.8C52.7101 123.518 50.8368 128.393 47.0901 134.424C39.7501 141.695 33.6134 145.331 28.6801 145.33H26.4301V144.936C28.6001 144.936 32.3534 143.436 37.6901 140.436C47.4601 132.046 52.3468 124.788 52.3501 118.661H52.7101V118.656ZM26.03 0H28.4301V81.6H26.03V0ZM33.8701 94.591C34.5901 94.501 35.0501 93.215 35.2301 90.733C35.4398 88.9956 35.3689 87.2359 35.02 85.521C34.5604 84.228 33.6473 83.1457 32.4501 82.475C31.1084 81.6981 29.5989 81.2569 28.05 81.189C24.08 80.9183 21.6434 82.3623 20.7401 85.521C20.1101 87.8683 20.3601 90.892 21.4901 94.592C22.7901 94.457 23.3601 93.306 23.1801 91.14C22.9388 89.4138 22.8685 87.668 22.9701 85.928C23.2138 85.1049 23.7117 84.38 24.3925 83.8571C25.0732 83.3342 25.902 83.0402 26.7601 83.017C28.6143 82.8485 30.4672 83.3529 31.9801 84.438C32.6101 85.0247 32.8334 86.8073 32.65 89.786C32.52 92.539 32.9201 94.141 33.8701 94.591Z" fill="white"/>
</svg>
