<svg width="49" height="167" viewBox="0 0 49 167" fill="none" xmlns="http://www.w3.org/2000/svg">
<path fill-rule="evenodd" clip-rule="evenodd" d="M22.22 0H24.62V99.6H22.22V0ZM17.86 105.6C17.8499 105.669 17.8561 105.74 17.8782 105.806C17.9002 105.873 17.9375 105.933 17.9871 105.983C18.0366 106.032 18.097 106.07 18.1635 106.092C18.2299 106.114 18.3007 106.12 18.37 106.11H18.62C19.52 102.71 21.0533 101.01 23.22 101.01H24.24C25.4431 101.108 26.5923 101.551 27.5499 102.286C28.1068 103.624 28.7899 104.905 29.59 106.113L30.11 105.858C30.11 102.755 28.1533 100.799 24.24 99.99H23.47C20.54 99.99 18.67 101.861 17.86 105.603V105.6ZM15.0499 109.427C15.0499 111.129 16.07 112.065 18.11 112.234H30.36C31.93 112.234 32.8699 111.213 33.1699 109.172C33.1699 107.599 32.0633 106.663 29.85 106.366H18.37C16.16 106.621 15.0533 107.642 15.0499 109.427ZM17.6 112.999V118.099C16.7219 118.249 15.8654 118.506 15.0499 118.865C15.6499 120.906 16.16 121.926 16.58 121.926H19.3899C19.3899 122.182 18.54 122.863 16.84 123.968C17.0758 125.02 17.4175 126.046 17.86 127.029H17.6C16.8313 126.263 15.8599 125.732 14.7999 125.499L12.5 127.029C12.8838 126.045 13.1424 125.017 13.2699 123.968V123.713C12.7599 123.713 11.99 123.118 10.97 121.926H13.7799C14.0699 121.926 14.4999 120.992 15.0499 119.12L13.7799 119.375C4.58991 124.733 -0.00333152 131.792 1.81294e-06 140.552V142.6C0.0509274 145.033 0.479264 147.443 1.2699 149.744H4.84998C5.26998 149.744 5.78001 148.298 6.38001 145.407H6.88989C7.51989 148.299 8.03992 149.744 8.41992 149.744H12.76V150C12.41 150 11.2166 150.85 9.17993 152.551C9.4864 154.03 9.91455 155.481 10.46 156.889V157.144L6.63001 154.337L4.84998 155.613L4.33997 155.358V155.613C9.51997 162.588 16.1533 166.075 24.24 166.074C28.9201 165.989 33.4946 164.669 37.5 162.247V161.736C36.8117 161.598 36.1869 161.24 35.72 160.716H35.21L33.4199 161.992H33.1699C33.4119 161.157 33.5825 160.304 33.6799 159.44C32.8299 158.42 32.1499 157.91 31.6399 157.909V157.654H32.6599C34.3599 157.654 35.21 156.718 35.21 154.847L36.74 157.654H39.2899V157.9C38.5338 158.189 37.8412 158.623 37.25 159.176C37.25 160.876 37.5 161.727 38.01 161.727C44.82 156.285 48.2233 150.502 48.22 144.377V138.764C48.0938 135.902 47.3065 133.107 45.9199 130.6C43.0699 125.029 39.0733 121.286 33.9299 119.373C33.9299 119.883 33.4199 120.308 32.3999 120.649L33.6799 124.731V125.241L30.11 122.69H29.85L26.2799 125.241C26.5544 123.756 26.98 122.303 27.5499 120.904L23.73 117.842H28.0599C28.5699 117.842 29.1666 116.396 29.85 113.505H30.11V114.78H30.62V113C30.6228 112.932 30.6115 112.865 30.5869 112.802C30.5623 112.738 30.5247 112.681 30.4768 112.633C30.4289 112.585 30.3716 112.548 30.3085 112.523C30.2453 112.498 30.1777 112.487 30.11 112.49H18.11C18.0424 112.488 17.9749 112.499 17.912 112.524C17.849 112.549 17.7919 112.586 17.744 112.634C17.6962 112.682 17.6587 112.739 17.6339 112.802C17.6091 112.865 17.5976 112.931 17.6 112.999ZM32.3999 118.868H32.6599C32.6599 118.528 32.15 118.273 31.13 118.102H30.62C30.62 118.443 31.2099 118.702 32.3999 118.868ZM33.4199 119.378H33.9299C33.9328 119.31 33.9215 119.243 33.8969 119.18C33.8722 119.116 33.8348 119.059 33.7869 119.011C33.7389 118.963 33.6816 118.926 33.6184 118.901C33.5553 118.876 33.4877 118.865 33.4199 118.868H32.9099C32.8998 118.937 32.9062 119.008 32.9282 119.074C32.9503 119.141 32.9876 119.201 33.0371 119.251C33.0866 119.3 33.147 119.338 33.2135 119.36C33.28 119.382 33.3506 119.388 33.4199 119.378ZM12.24 129.329C12.24 130.69 13.0099 131.37 14.5399 131.37C14.2516 131.851 13.8013 132.213 13.2699 132.391C13.3015 133.017 13.476 133.628 13.7799 134.177V134.432C13.2102 134.186 12.6888 133.84 12.24 133.411H11.99L10.46 134.432C10.5896 133.826 10.76 133.229 10.97 132.646C10.4702 132.301 10.0366 131.869 9.68994 131.37C11.2199 131.37 11.99 130.69 11.99 129.329H12.24ZM28.3199 135.197C29.2999 139.11 30.06 141.066 30.62 141.066H36.23V141.321C35.97 141.321 34.36 142.427 31.38 144.638C31.8761 146.623 32.4735 148.582 33.1699 150.506H32.9099L28.3199 147.189H28.0599L23.22 150.506C23.73 148.635 24.3233 146.764 25 144.893L20.1499 141.066H25.7699C26.1899 141.066 26.9599 139.11 28.0599 135.197H28.3199ZM43.88 136.218C44.22 138.259 44.6499 139.279 45.1599 139.279H47.71V139.535C46.8463 139.882 46.0633 140.403 45.4099 141.066C45.5811 142.023 45.8389 142.962 46.1799 143.872V144.127C45.2929 143.586 44.4413 142.99 43.63 142.341C42.8518 143.033 41.996 143.632 41.08 144.127C41.2453 143.17 41.4998 142.231 41.84 141.321C40.82 140.131 40.0599 139.535 39.5499 139.535V139.279H42.1C42.65 139.279 43.07 138.259 43.37 136.218H43.88ZM3.30994 154.333H3.82996L4.07996 152.802C3.56422 152.042 2.86172 151.427 2.03992 151.016C2.27129 152.186 2.70082 153.308 3.30994 154.333ZM21.4299 156.119C21.4614 156.745 21.6359 157.356 21.9399 157.905C21.9399 158.416 22.79 158.672 24.49 158.671C24.49 158.884 23.9 159.394 22.71 160.202C22.8127 161.09 23.07 161.953 23.47 162.753H23.22L21.4299 161.477H20.9199L19.13 162.753H18.88C19.2335 162.023 19.489 161.25 19.6399 160.453C19.1564 159.757 18.5539 159.153 17.86 158.667H18.88C20.24 158.667 20.9199 157.816 20.9199 156.115H21.4299V156.119Z" fill="white"/>
</svg>
