<svg width="75" height="286" viewBox="0 0 75 286" fill="none" xmlns="http://www.w3.org/2000/svg">
<path fill-rule="evenodd" clip-rule="evenodd" d="M36.6204 0H39.0203V189.6H36.6204V0ZM26.6403 253.629C26.6403 255.345 25.2705 256.607 22.5105 257.42C21.8405 257.646 20.5904 257.961 18.7904 258.367C17.6445 258.581 16.5151 258.875 15.4104 259.247C16.654 257.437 18.3367 255.972 20.3007 254.989C22.2648 254.007 24.446 253.539 26.6403 253.629ZM52.5704 252.884C52.4804 253.697 51.3504 253.066 49.1804 250.989C50.7204 250.177 51.6004 249.432 51.8204 248.755C51.4604 248.395 51.0804 248.011 50.6704 247.604C49.2939 247.942 48.0333 248.644 47.0203 249.635C45.6203 250.764 44.4704 251.216 43.5704 250.989C44.0766 250.637 44.6198 250.342 45.1904 250.109C45.7711 249.85 46.3356 249.557 46.8805 249.229C47.4616 248.939 47.9524 248.496 48.2996 247.947C48.6469 247.398 48.8374 246.764 48.8504 246.115C47.3604 246.071 45.1237 247.132 42.1403 249.297C40.931 250.271 39.5208 250.964 38.0112 251.327C36.5016 251.69 34.9303 251.714 33.4104 251.397C34.6266 249.869 36.0121 248.484 37.5404 247.268C39.4805 246.862 41.4502 246.613 43.4304 246.523C45.8704 246.298 47.1504 245.423 47.2904 243.884C46.6604 243.433 45.5504 243.384 43.9704 243.748C42.3904 244.112 41.3804 244.154 40.9304 243.884C42.0482 243.412 43.239 243.137 44.4504 243.071C45.6692 243.011 46.8739 242.784 48.0304 242.394C48.2943 242.133 48.4447 241.778 48.4489 241.407C48.4532 241.036 48.3109 240.678 48.0531 240.411C47.7952 240.144 47.4425 239.989 47.0714 239.98C46.7002 239.972 46.3406 240.109 46.0704 240.364C45.5012 240.54 44.8998 240.586 44.3104 240.499C44.6714 239.929 45.1281 239.425 45.6604 239.01C45.9601 238.798 46.199 238.51 46.3534 238.177C46.5077 237.844 46.5722 237.476 46.5404 237.11C45.9604 236.479 45.2104 236.479 44.3104 237.11C43.4104 237.741 42.9104 237.99 42.8204 237.855C42.752 237.283 42.8205 236.703 43.0203 236.163C43.1193 235.953 43.1532 235.719 43.1175 235.489C43.0819 235.26 42.9784 235.047 42.8204 234.877C42.1977 234.741 41.553 234.741 40.9304 234.877C40.4733 236.167 40.1777 237.508 40.0504 238.87C39.9706 240.155 39.4956 241.385 38.6904 242.39C38.7768 241.815 38.914 241.249 39.1004 240.698C39.3204 239.75 39.4804 239.141 39.5704 238.87C39.9013 237.667 39.856 236.391 39.4404 235.215C37.9004 235.577 36.9504 237.021 36.5904 239.547C36.0504 243.519 35.737 245.595 35.6503 245.775C34.8224 246.331 34.0897 247.017 33.4804 247.806C32.6204 248.753 31.9703 249.206 31.5203 249.159C30.787 246.226 31.5537 243.405 33.8204 240.698C34.6209 239.797 35.3656 238.847 36.0504 237.855C36.3376 237.345 36.5217 236.784 36.592 236.203C36.6623 235.622 36.6177 235.034 36.4604 234.47C35.3704 234.516 34.4004 235.283 33.5504 236.77C32.6404 238.259 31.9703 239.004 31.5203 239.004C32.8203 232.957 33.8337 230.452 34.5604 231.49C34.2125 231.522 33.8773 231.637 33.5832 231.825C33.2891 232.014 33.0447 232.27 32.8704 232.573C32.518 233.169 32.0605 233.697 31.5203 234.13C31.3403 231.649 31.2204 230.385 31.1804 230.339H29.6904C29.4085 231.445 29.2707 232.583 29.2804 233.724C28.6994 233.364 28.2315 232.848 27.9304 232.235C27.7184 231.908 27.4059 231.658 27.0398 231.524C26.6737 231.389 26.2738 231.378 25.9003 231.49C25.4003 232.618 25.7837 233.994 27.0504 235.619C28.4004 237.289 29.0304 238.417 28.9404 239.004C24.7904 235.981 23.1438 234.356 24.0004 234.13C23.8704 235.663 24.9304 237.987 27.1804 241.102C29.3004 243.902 29.8871 246.7 28.9404 249.496C28.2626 249.335 27.6382 249.001 27.1281 248.526C26.6181 248.051 26.2398 247.452 26.0304 246.788C25.518 245.247 25.1564 243.661 24.9504 242.05C24.7184 240.504 24.3332 238.985 23.8004 237.515C23.6069 236.939 23.2308 236.442 22.7291 236.099C22.2274 235.756 21.6274 235.586 21.0203 235.615C21.014 236.887 21.2447 238.15 21.7004 239.338C21.9477 239.866 22.0817 240.44 22.0937 241.023C22.1058 241.606 21.9956 242.185 21.7703 242.723C21.3222 240.064 20.6874 237.44 19.8704 234.871C19.111 234.7 18.3149 234.82 17.6403 235.209C18.0903 237.375 18.3405 238.639 18.3805 239C17.7059 238.463 17.074 237.875 16.4904 237.24C16.2352 236.91 15.8708 236.681 15.4624 236.594C15.0539 236.507 14.6281 236.568 14.2605 236.766C14.1591 237.18 14.1746 237.615 14.3053 238.021C14.4359 238.427 14.6765 238.788 15.0004 239.066C15.6804 239.789 15.9204 240.266 15.7404 240.488C15.1857 240.552 14.6243 240.458 14.1204 240.217C13.8917 240.137 13.6458 240.121 13.4084 240.168C13.171 240.216 12.9506 240.326 12.7703 240.488V242.383C14.0473 242.879 15.3932 243.176 16.7605 243.263C18.5605 243.49 19.7404 243.94 20.2804 244.617C16.1304 243.986 13.8738 243.738 13.5105 243.873C13.3977 244.534 13.5445 245.213 13.9204 245.768C12.7004 245.678 12.0703 246.174 12.0203 247.257C12.7945 248.109 13.7117 248.82 14.7304 249.357C15.7699 249.928 16.7453 250.609 17.6403 251.387C16.7403 251.297 15.3804 250.553 13.5804 249.153C12.0904 247.98 10.6905 247.596 9.38045 248.003C9.28075 248.169 9.21725 248.355 9.19417 248.548C9.1711 248.74 9.18897 248.936 9.24654 249.121C9.30411 249.306 9.40009 249.477 9.52828 249.623C9.65647 249.768 9.81397 249.885 9.99044 249.966C11.2504 250.824 11.9303 251.297 12.0203 251.387C10.4003 251.433 9.49038 251.478 9.31038 251.523C8.94975 251.538 8.60672 251.683 8.34542 251.932C8.08411 252.181 7.92235 252.516 7.89034 252.876C8.25034 253.689 9.49044 254.076 11.6204 254.027C11.3689 254.547 10.9345 254.957 10.4003 255.178C10.1042 255.3 9.85003 255.506 9.6689 255.771C9.48778 256.035 9.3876 256.347 9.38045 256.667C10.6005 257.525 11.9338 257.39 13.3805 256.261C15.2705 254.817 16.577 254.072 17.3004 254.027C16.5433 254.729 15.727 255.365 14.8604 255.927C13.9701 256.454 13.1328 257.066 12.3604 257.754C12.3293 257.978 12.3637 258.205 12.4596 258.41C12.5554 258.614 12.7085 258.786 12.9003 258.905C13.2754 259.101 13.6191 259.353 13.9204 259.65C13.8016 259.65 13.6843 259.676 13.5764 259.725C13.4684 259.775 13.3724 259.847 13.2946 259.937C13.2169 260.026 13.1593 260.132 13.1258 260.246C13.0923 260.36 13.0837 260.479 13.1004 260.597C13.0595 260.829 13.0754 261.067 13.1468 261.291C13.2182 261.515 13.343 261.718 13.5105 261.883C15.9185 261.59 18.2972 261.092 20.6204 260.394C20.2104 261.117 18.607 261.636 15.8104 261.951C13.4704 262.267 12.3104 263.261 12.3604 264.93C12.9805 265.205 13.683 265.229 14.3204 264.997C15.0241 264.76 15.7519 264.601 16.4904 264.523C16.1076 265.117 15.6542 265.663 15.1403 266.148C14.8347 266.415 14.596 266.75 14.4432 267.126C14.2904 267.503 14.2278 267.909 14.2605 268.314C15.0205 268.947 15.8304 268.812 16.6904 267.908C17.5904 267.008 18.1605 266.622 18.3805 266.757C18.0198 267.847 17.907 269.003 18.0504 270.142C19.7604 270.409 20.7304 269.438 20.9604 267.231C21.1804 264.569 21.5904 263.031 22.1804 262.631C22.1365 263.706 21.9756 264.773 21.7004 265.813C21.3979 266.868 21.3061 267.972 21.4304 269.062C21.5606 269.194 21.724 269.289 21.9034 269.337C22.0828 269.384 22.2718 269.383 22.4504 269.332C22.6578 269.308 22.8622 269.263 23.0604 269.197C23.2498 269.114 23.4535 269.068 23.6604 269.062C23.5459 269.692 23.667 270.342 24.0004 270.889C25.1304 270.845 26.1504 269.942 27.0504 268.182C27.9104 266.467 28.6504 265.633 29.2804 265.682C26.4804 270.511 25.1103 272.882 25.1503 272.79C25.4273 272.93 25.6804 273.112 25.9003 273.331C26.0543 273.468 26.2436 273.56 26.4469 273.595C26.6501 273.631 26.8591 273.608 27.0504 273.531C29.0304 272.539 29.7804 271.795 29.2804 271.297C29.1904 273.374 29.4404 274.637 30.0304 275.088C30.9304 275.179 31.4303 274.66 31.5203 273.531C31.4912 272.634 31.6268 271.739 31.9204 270.891C32.7304 272.472 33.4804 273.351 34.1604 273.531C34.1809 273.456 34.2176 273.387 34.2679 273.328C34.3182 273.269 34.3808 273.221 34.4514 273.189C34.522 273.157 34.5988 273.14 34.6763 273.141C34.7539 273.142 34.8304 273.159 34.9003 273.193C35.3103 271.974 34.9504 270.666 33.8204 269.267C32.8294 268.231 32.0483 267.012 31.5203 265.679C32.4026 266.386 33.1367 267.26 33.6804 268.251C34.2114 269.246 35.04 270.05 36.0504 270.551C36.141 270.258 36.3347 270.007 36.5957 269.845C36.8567 269.683 37.1674 269.622 37.4704 269.671C38.1395 269.762 38.8206 269.668 39.4404 269.4C39.48 268.258 39.3417 267.116 39.0304 266.016C38.6585 265.058 38.6585 263.995 39.0304 263.037C39.2604 263.353 39.5003 264.937 39.7703 267.775C40.0003 269.762 40.8804 270.687 42.4104 270.551C42.6945 270.035 42.7698 269.429 42.6204 268.859C42.456 268.172 42.3853 267.465 42.4104 266.759C42.5004 266.805 43.0904 267.324 44.1704 268.316C44.4236 268.592 44.7622 268.776 45.132 268.837C45.5018 268.898 45.8815 268.834 46.2104 268.654C46.3605 268.231 46.3684 267.771 46.233 267.344C46.0976 266.916 45.8264 266.544 45.4604 266.285C44.7804 265.608 44.5404 265.158 44.7204 264.932C45.7456 265.444 46.9227 265.565 48.0304 265.27C48.2604 263.645 47.2904 262.698 45.1204 262.427C42.4604 262.156 40.9504 261.728 40.5904 261.141C41.8023 261.289 42.9998 261.538 44.1704 261.885C45.3071 262.299 46.5537 262.299 47.6904 261.885C47.3804 260.352 46.0205 259.404 43.6305 259.042C39.2104 258.321 37.1804 258.027 37.5404 258.162C37.3104 257.937 36.9504 257.599 36.4604 257.147C36.0206 256.825 35.6121 256.463 35.2404 256.064C34.2504 255.207 33.7704 254.53 33.8204 254.033C35.2438 253.694 36.727 253.695 38.1499 254.036C39.5728 254.377 40.8954 255.049 42.0105 255.996C44.6705 258.118 46.8137 259.088 48.4404 258.907C48.4804 257.824 47.7804 256.877 46.3404 256.064C44.9004 255.207 44.2204 254.53 44.3104 254.033C45.3518 254.575 46.3281 255.233 47.2204 255.996C48.1102 256.811 49.1737 257.413 50.3304 257.756C50.7004 257.396 51.0604 257.035 51.4204 256.673C51.4044 256.337 51.2935 256.012 51.1005 255.737C50.9076 255.461 50.6406 255.246 50.3304 255.116C49.7738 254.851 49.2719 254.483 48.8504 254.033C49.2524 253.987 49.6584 253.987 50.0604 254.033H51.2804C51.4423 254.05 51.6061 254.033 51.7611 253.983C51.9161 253.933 52.0589 253.852 52.1804 253.743C52.3019 253.635 52.3993 253.502 52.4665 253.354C52.5337 253.206 52.5691 253.045 52.5704 252.882V252.884ZM74.3704 244.284C75.4004 256.288 71.9237 266.306 63.9404 274.339C55.8204 282.507 45.5304 286.004 33.0704 284.831C26.1567 284.224 19.6036 281.48 14.3204 276.979C9.24033 272.648 5.40845 267.04 3.22042 260.733C0.893858 254.416 0.286482 247.595 1.46041 240.967C2.64276 233.993 5.92572 227.545 10.8704 222.487C13.4404 219.779 17.457 217.026 22.9204 214.229C23.3304 215.673 24.9704 216.892 27.8604 217.884C30.8742 218.884 34.0252 219.41 37.2004 219.441C40.3143 219.604 43.4324 219.214 46.4104 218.29C49.2504 217.298 50.8071 215.809 51.0804 213.822C51.3004 213.778 51.4204 213.913 51.4204 214.229C57.4653 216.684 62.8128 220.59 66.9904 225.601C71.2772 230.943 73.8497 237.455 74.3704 244.284ZM31.5203 255.927C34.5803 257.416 36.3404 261.41 36.8004 267.908C36.2243 267.053 35.5895 266.238 34.9003 265.471C34.2256 264.718 33.5946 263.927 33.0105 263.102C31.6848 260.96 31.157 258.419 31.5203 255.927ZM24.4104 267.908C24.2107 265.491 24.4616 263.058 25.1503 260.733C26.0103 258.07 27.387 256.468 29.2804 255.927C29.5752 258.305 28.9998 260.709 27.6604 262.696C25.6304 265.81 24.5404 267.547 24.4104 267.908ZM27.0504 250.985C25.8963 251.346 24.6758 251.442 23.4796 251.266C22.2833 251.09 21.142 250.647 20.1403 249.97C16.6737 247.714 14.847 246.563 14.6604 246.517C17.041 246.381 19.4265 246.679 21.7004 247.397C23.8385 247.953 25.7246 249.218 27.0504 250.985ZM49.9304 214.567C47.2704 216.283 43.097 217.095 37.4104 217.004C31.9004 216.96 27.6804 216.148 24.7504 214.567V205.158C30.8404 203.491 39.2337 203.379 49.9304 204.82V214.567ZM31.1804 202.586C30.4604 202.496 30.0004 201.21 29.8204 198.727C29.6107 196.99 29.6815 195.23 30.0304 193.515C30.49 192.222 31.4032 191.14 32.6004 190.469C33.942 189.692 35.4516 189.251 37.0004 189.183C40.9704 188.912 43.4071 190.356 44.3104 193.515C44.9404 195.862 44.6937 198.886 43.5704 202.586C42.2604 202.45 41.6904 201.3 41.8704 199.133C42.1117 197.407 42.182 195.661 42.0804 193.921C41.8382 193.097 41.3406 192.371 40.6595 191.848C39.9784 191.326 39.1488 191.032 38.2904 191.011C36.4362 190.842 34.5832 191.347 33.0704 192.432C32.4404 193.019 32.217 194.801 32.4003 197.78C32.5303 200.533 32.1304 202.135 31.1804 202.586Z" fill="#1F1F1F"/>
</svg>
