<svg width="244" height="188" viewBox="0 0 244 188" fill="none" xmlns="http://www.w3.org/2000/svg">
<mask id="mask0_601_291" style="mask-type:alpha" maskUnits="userSpaceOnUse" x="0" y="0" width="244" height="188">
<rect x="0.71582" y="0.849976" width="243.23" height="186.816" fill="#D9D9D9"/>
</mask>
<g mask="url(#mask0_601_291)">
<path d="M235.787 133.123C236.534 134.137 237.179 135.114 237.731 136.018C238.261 133.029 238.883 128.959 239.384 124.097C240.486 113.395 240.99 98.9088 238.629 83.704C236.266 68.4978 231.051 52.6572 220.781 39.1528C210.534 25.6784 195.171 14.4183 172.301 8.45984C126.453 -3.48472 84.0961 10.9522 53.2114 34.6781C37.7692 46.5409 25.2402 60.6953 16.6209 74.9562C7.98667 89.2417 3.35275 103.502 3.49923 115.598C3.86038 144.748 19.1281 170.261 43.3006 180.448C67.3969 190.603 101.036 185.796 138.668 152.824C178.081 118.292 203.503 114.618 219.389 120.539C227.268 123.475 232.52 128.688 235.787 133.123Z" fill="#C59D5F" stroke="white" stroke-width="4"/>
<path d="M176.825 99.2636C176.766 100.581 176.546 101.789 176.164 102.889C175.782 103.988 175.259 104.956 174.595 105.792C173.931 106.628 173.139 107.324 172.222 107.88C171.314 108.425 170.294 108.808 169.163 109.029C168.109 109.235 167.149 109.239 166.284 109.041C165.429 108.831 164.696 108.432 164.086 107.846C163.485 107.257 163.03 106.48 162.722 105.516C162.423 104.549 162.303 103.407 162.362 102.09C162.44 100.334 162.799 98.7841 163.439 97.4406C164.079 96.0873 164.955 94.983 166.067 94.1274C167.189 93.2603 168.502 92.6796 170.007 92.3856C171.444 92.1046 172.685 92.1861 173.729 92.63C174.783 93.072 175.58 93.8544 176.118 94.9773C176.667 96.0885 176.903 97.5173 176.825 99.2636ZM164.835 101.607C164.777 102.894 164.895 103.979 165.188 104.86C165.481 105.74 165.966 106.371 166.643 106.751C167.319 107.132 168.209 107.214 169.311 106.999C170.404 106.785 171.311 106.351 172.034 105.698C172.766 105.042 173.321 104.208 173.699 103.196C174.077 102.184 174.294 101.035 174.352 99.7468C174.409 98.4688 174.291 97.3992 173.997 96.5379C173.703 95.6669 173.218 95.0461 172.541 94.6755C171.864 94.305 170.969 94.2283 169.858 94.4456C168.219 94.7658 166.991 95.5521 166.175 96.8044C165.369 98.0547 164.922 99.6555 164.835 101.607ZM188.239 90.9986L184.314 91.7656L183.682 105.902L181.296 106.368L181.927 92.232L179.138 92.777L179.191 91.6063L182.016 90.2564L182.063 89.1881C182.123 87.8418 182.369 86.7108 182.799 85.795C183.23 84.8694 183.828 84.1336 184.594 83.5875C185.359 83.0414 186.279 82.6635 187.352 82.4537C187.956 82.3357 188.505 82.2817 188.998 82.2916C189.501 82.2997 189.941 82.3345 190.319 82.3962L189.615 84.434C189.294 84.3904 188.929 84.3649 188.521 84.3577C188.123 84.3388 187.713 84.3705 187.291 84.4529C186.381 84.6309 185.691 85.0654 185.224 85.7564C184.766 86.4358 184.508 87.4145 184.451 88.6925L184.399 89.8632L188.324 89.0962L188.239 90.9986ZM198.144 89.0629L194.219 89.8299L193.588 103.966L191.201 104.433L191.833 90.2963L189.044 90.8413L189.096 89.6706L191.921 88.3207L191.969 87.2524C192.029 85.9061 192.274 84.7751 192.705 83.8593C193.135 82.9337 193.734 82.1979 194.499 81.6518C195.265 81.1057 196.184 80.7278 197.257 80.518C197.861 80.4 198.41 80.346 198.904 80.3559C199.407 80.3639 199.847 80.3988 200.224 80.4605L199.52 82.4983C199.199 82.4547 198.835 82.4292 198.426 82.422C198.028 82.4031 197.618 82.4348 197.197 82.5172C196.286 82.6952 195.597 83.1296 195.129 83.8207C194.671 84.5001 194.414 85.4788 194.356 86.7568L194.304 87.9275L198.229 87.1605L198.144 89.0629Z" fill="#111111"/>
<path d="M164.051 65.4846C165.201 65.2598 166.05 65.5581 166.599 66.3793C167.156 67.1911 167.396 68.4478 167.32 70.1492C167.244 71.8507 166.897 73.2336 166.279 74.2982C165.662 75.3549 164.759 75.9994 163.571 76.2317C162.467 76.4475 161.641 76.1408 161.092 75.3118C160.552 74.4735 160.32 73.2037 160.396 71.5023C160.472 69.8008 160.811 68.431 161.412 67.3929C162.013 66.347 162.893 65.7109 164.051 65.4846ZM163.989 66.8777C163.368 66.9991 162.897 67.42 162.576 68.1403C162.255 68.8528 162.065 69.8686 162.006 71.1876C161.947 72.5066 162.049 73.4732 162.31 74.0875C162.571 74.7018 163.012 74.9482 163.634 74.8268C164.278 74.701 164.772 74.2717 165.116 73.5391C165.461 72.8064 165.662 71.7806 165.721 70.4616C165.78 69.1504 165.667 68.1939 165.382 67.5919C165.105 66.9884 164.64 66.7504 163.989 66.8777ZM174.69 63.6492L164.598 82.5877L162.919 82.9159L173.011 63.9774L174.69 63.6492ZM173.946 70.3514C175.088 70.1281 175.938 70.4263 176.494 71.246C177.051 72.0579 177.291 73.3146 177.215 75.016C177.139 76.7096 176.793 78.0887 176.175 79.1532C175.558 80.21 174.655 80.8545 173.466 81.0867C172.355 81.304 171.528 80.9974 170.988 80.1669C170.448 79.3286 170.215 78.0626 170.291 76.369C170.367 74.6676 170.702 73.2986 171.295 72.2619C171.897 71.216 172.781 70.5791 173.946 70.3514ZM173.883 71.7562C173.262 71.8776 172.791 72.2945 172.471 73.0071C172.15 73.7196 171.96 74.7354 171.901 76.0544C171.842 77.3734 171.944 78.34 172.205 78.9543C172.467 79.5607 172.908 79.8033 173.529 79.6819C174.173 79.556 174.667 79.1346 175.011 78.4176C175.355 77.6927 175.557 76.663 175.616 75.3284C175.675 74.0172 175.561 73.0645 175.276 72.4704C174.999 71.8669 174.535 71.6288 173.883 71.7562Z" fill="#111111"/>
<path d="M106.861 94.7574C109.718 94.1993 112.178 94.2117 114.242 94.7948C116.307 95.3583 117.872 96.4643 118.939 98.1126C120.025 99.7573 120.508 101.916 120.388 104.589C120.257 107.516 119.522 110.165 118.181 112.535C116.84 114.886 114.975 116.865 112.585 118.473C110.196 120.062 107.372 121.175 104.114 121.811C101.928 122.239 99.9052 122.44 98.0442 122.417C96.1831 122.394 94.6278 122.118 93.3784 121.588L93.585 116.964C94.9459 117.549 96.6118 117.901 98.5827 118.018C100.554 118.136 102.478 118.011 104.357 117.644C106.485 117.228 108.359 116.524 109.981 115.53C111.622 114.513 112.915 113.216 113.86 111.638C114.824 110.038 115.355 108.165 115.45 106.018C115.578 103.17 114.813 101.143 113.157 99.9388C111.521 98.7113 108.853 98.459 105.153 99.182C103.965 99.4142 102.657 99.7665 101.23 100.239C99.8025 100.711 98.6236 101.154 97.6931 101.568L95.3497 100.43L97.8569 80.0382L118.76 75.9532L118.562 80.4019L101.741 83.689L100.101 96.8039C100.836 96.5055 101.782 96.1658 102.939 95.785C104.097 95.3846 105.405 95.0421 106.861 94.7574ZM154.841 90.0522C154.686 93.5253 154.288 96.6783 153.649 99.5111C153.009 102.344 152.091 104.815 150.895 106.925C149.699 109.035 148.196 110.76 146.388 112.1C144.581 113.42 142.441 114.322 139.969 114.805C136.844 115.415 134.295 115.053 132.322 113.717C130.367 112.378 128.956 110.168 128.086 107.089C127.237 103.986 126.916 100.113 127.123 95.4689C127.327 90.9031 127.953 86.8932 129 83.4392C130.068 79.9619 131.656 77.1467 133.767 74.9935C135.878 72.8209 138.601 71.4087 141.937 70.7569C145.099 70.1388 147.667 70.5074 149.64 71.8626C151.613 73.1984 153.025 75.4176 153.874 78.5203C154.724 81.6035 155.047 85.4475 154.841 90.0522ZM131.925 94.5305C131.747 98.5109 131.896 101.77 132.372 104.307C132.847 106.845 133.717 108.648 134.98 109.716C136.264 110.761 137.988 111.072 140.154 110.649C142.32 110.225 144.094 109.231 145.475 107.665C146.875 106.096 147.932 103.926 148.644 101.156C149.376 98.3828 149.832 94.9961 150.01 90.9962C150.186 87.0743 150.035 83.8544 149.558 81.3365C149.083 78.799 148.213 76.9961 146.95 75.9277C145.687 74.8399 143.954 74.5114 141.75 74.9422C139.545 75.3729 137.752 76.3907 136.369 77.9955C134.987 79.5808 133.94 81.7583 133.227 84.528C132.534 87.2745 132.1 90.6086 131.925 94.5305Z" fill="#111111"/>
<path d="M105.084 39.3029L104.465 53.1465C104.398 54.6586 104.036 56.0639 103.379 57.3624C102.732 58.659 101.789 59.7667 100.551 60.6856C99.3137 61.5948 97.7843 62.2273 95.9633 62.5832C93.3659 63.0907 91.4188 62.7604 90.1219 61.5923C88.8346 60.4223 88.2445 58.6373 88.3518 56.2373L88.9676 42.4523L91.426 41.9718L90.8069 55.8301C90.7258 57.6447 91.1329 58.9529 92.0281 59.7547C92.9329 60.5546 94.3246 60.771 96.2032 60.4039C97.4875 60.1529 98.5474 59.7137 99.383 59.0862C100.229 58.4471 100.867 57.6648 101.298 56.7392C101.739 55.802 101.984 54.7725 102.034 53.6505L102.654 39.7777L105.084 39.3029ZM117.48 41.8995C119.445 41.5155 120.981 41.8971 122.089 43.0442C123.197 44.1912 123.689 46.1452 123.566 48.9061C123.484 50.7305 123.147 52.3146 122.555 53.6585C121.963 55.0024 121.164 56.0869 120.158 56.9121C119.162 57.7354 118.002 58.2763 116.68 58.5347C115.846 58.6977 115.118 58.7288 114.495 58.628C113.873 58.5272 113.345 58.3306 112.911 58.0382C112.478 57.7457 112.123 57.4042 111.845 57.0134L111.673 57.0472C111.685 57.422 111.698 57.874 111.712 58.4031C111.736 58.9303 111.739 59.3939 111.721 59.7939L111.427 66.3791L109.026 66.8483L110.063 43.639L112.033 43.2541L112.243 45.563L112.358 45.5405C112.687 44.9928 113.08 44.4758 113.539 43.9897C113.998 43.4938 114.549 43.067 115.192 42.7092C115.845 42.3398 116.608 42.0699 117.48 41.8995ZM116.972 44.0297C115.879 44.2432 114.988 44.6301 114.298 45.1905C113.617 45.749 113.104 46.4875 112.759 47.4059C112.415 48.3146 112.204 49.4147 112.127 50.7063L112.106 51.1745C112.046 52.5306 112.138 53.6488 112.384 54.5292C112.639 55.4077 113.091 56.0253 113.741 56.382C114.399 56.7368 115.299 56.8028 116.439 56.5799C117.417 56.3889 118.244 55.9614 118.919 55.2974C119.595 54.6335 120.112 53.7926 120.471 52.7747C120.84 51.7452 121.053 50.606 121.109 49.3573C121.193 47.4647 120.896 46.0334 120.217 45.0636C119.549 44.0821 118.467 43.7375 116.972 44.0297ZM140.188 51.968C140.581 51.8912 140.985 51.7784 141.4 51.6295C141.815 51.4807 142.155 51.3322 142.418 51.1841L142.333 53.0719C142.05 53.253 141.657 53.4362 141.154 53.6214C140.662 53.8047 140.181 53.9422 139.711 54.034C138.877 54.197 138.126 54.1986 137.459 54.0389C136.792 53.8694 136.268 53.4689 135.888 52.8372C135.517 52.2037 135.36 51.2577 135.416 49.9992L135.841 40.4872L133.599 40.9255L133.652 39.7401L135.951 38.3479L137.056 34.6796L138.493 34.3986L138.327 38.1156L142.942 37.2138L142.857 39.1162L138.242 40.018L137.821 49.4569C137.776 50.4617 137.967 51.1689 138.396 51.5784C138.833 51.9861 139.431 52.1159 140.188 51.968ZM159.463 41.9056C159.404 43.2226 159.184 44.431 158.802 45.5307C158.421 46.6304 157.898 47.5981 157.233 48.4339C156.569 49.2697 155.778 49.9658 154.86 50.5224C153.952 51.0673 152.933 51.4503 151.802 51.6713C150.747 51.8773 149.788 51.8811 148.922 51.6827C148.067 51.4726 147.334 51.0743 146.724 50.4876C146.123 49.899 145.669 49.1223 145.36 48.1575C145.062 47.1908 144.942 46.0489 145 44.7319C145.079 42.9758 145.438 41.4261 146.077 40.0826C146.717 38.7293 147.593 37.6249 148.705 36.7694C149.827 35.9022 151.14 35.3216 152.645 35.0276C154.083 34.7466 155.324 34.8281 156.368 35.272C157.422 35.714 158.218 36.4964 158.757 37.6193C159.306 38.7305 159.541 40.1593 159.463 41.9056ZM147.473 44.2487C147.416 45.5364 147.533 46.6207 147.827 47.5015C148.12 48.3823 148.605 49.0128 149.281 49.3931C149.958 49.7735 150.847 49.856 151.949 49.6406C153.042 49.427 153.95 48.9934 154.672 48.3396C155.405 47.6839 155.96 46.8502 156.337 45.8383C156.715 44.8264 156.933 43.6766 156.99 42.3888C157.047 41.1108 156.929 40.0412 156.635 39.1799C156.341 38.3089 155.856 37.6881 155.179 37.3175C154.502 36.9469 153.608 36.8703 152.496 37.0875C150.857 37.4078 149.63 38.1941 148.814 39.4463C148.007 40.6967 147.56 42.2975 147.473 44.2487Z" fill="#111111"/>
<path d="M44.1005 108.68C44.0514 109.779 43.7395 110.77 43.1649 111.654C42.5989 112.527 41.825 113.261 40.8434 113.855C39.8617 114.449 38.7188 114.874 37.4147 115.128C36.7253 115.263 36.0747 115.357 35.4631 115.409C34.8514 115.462 34.2909 115.475 33.7816 115.449C33.2723 115.422 32.8265 115.355 32.4444 115.245L32.5368 113.178C33.1481 113.318 33.8972 113.415 34.7841 113.468C35.6713 113.512 36.605 113.439 37.5852 113.247C38.4989 113.068 39.2769 112.795 39.9191 112.426C40.5617 112.049 41.0554 111.597 41.4002 111.068C41.7536 110.53 41.945 109.931 41.9745 109.271C42.0028 108.637 41.8894 108.136 41.6341 107.766C41.3793 107.389 40.9398 107.089 40.3157 106.867C39.7003 106.636 38.8532 106.428 37.7745 106.245C37.0145 106.117 36.347 105.946 35.7719 105.731C35.1973 105.508 34.7201 105.224 34.3402 104.88C33.9604 104.535 33.6792 104.104 33.4964 103.586C33.322 103.067 33.2508 102.448 33.283 101.73C33.3272 100.74 33.61 99.8469 34.1314 99.0494C34.6615 98.2418 35.371 97.5667 36.2598 97.0242C37.1572 96.4717 38.175 96.0842 39.313 95.8619C40.2848 95.6719 41.1777 95.5896 41.9918 95.6149C42.8141 95.6386 43.563 95.7395 44.2385 95.9176L43.4954 97.8984C42.8516 97.7476 42.1643 97.6514 41.4333 97.6099C40.7107 97.5667 39.9589 97.6214 39.1781 97.774C38.3973 97.9266 37.7317 98.174 37.1812 98.5162C36.6394 98.8484 36.2178 99.2535 35.9165 99.7314C35.6152 100.209 35.4515 100.74 35.4254 101.323C35.3964 101.974 35.5051 102.49 35.7516 102.869C36.0065 103.247 36.4212 103.547 36.9959 103.77C37.5792 103.983 38.3528 104.175 39.3167 104.347C40.3705 104.535 41.2612 104.78 41.9887 105.082C42.7167 105.376 43.2615 105.806 43.6232 106.372C43.9852 106.93 44.1444 107.699 44.1005 108.68ZM53.0337 97.8196C54.6618 97.5014 55.8538 97.6373 56.6096 98.2271C57.3655 98.817 57.707 99.9278 57.6341 101.56L57.2119 111.008L55.7043 111.303L55.3974 109.326L55.2977 109.346C54.893 109.928 54.4752 110.433 54.0444 110.86C53.6139 111.28 53.1206 111.632 52.5645 111.916C52.017 112.191 51.3487 112.405 50.5596 112.56C49.729 112.722 48.9963 112.718 48.3616 112.549C47.7352 112.378 47.2486 112.029 46.9016 111.502C46.5629 110.973 46.4142 110.248 46.4554 109.326C46.5173 107.939 47.1048 106.769 48.2179 105.814C49.331 104.858 50.9938 104.131 53.2063 103.632L55.5657 103.07L55.6037 102.22C55.6573 101.02 55.4416 100.228 54.9564 99.8451C54.4713 99.4622 53.7677 99.3608 52.8457 99.541C52.1313 99.6806 51.4455 99.9194 50.7881 100.257C50.1308 100.595 49.505 100.965 48.9107 101.366L48.3466 99.8922C48.9757 99.4507 49.694 99.038 50.5016 98.6539C51.3092 98.2697 52.1533 97.9916 53.0337 97.8196ZM55.4745 104.559L53.3898 105.054C51.684 105.455 50.471 105.973 49.751 106.608C49.031 107.243 48.6506 108.017 48.6098 108.93C48.5743 109.725 48.7847 110.266 49.2412 110.554C49.6977 110.842 50.3163 110.91 51.0971 110.757C52.3098 110.52 53.3178 109.984 54.1209 109.148C54.924 108.312 55.3561 107.21 55.4173 105.84L55.4745 104.559ZM64.4759 109.589L59.9137 96.7014L62.1315 96.268L64.7586 104.09C64.9406 104.624 65.1241 105.217 65.3091 105.868C65.4941 106.519 65.6186 107.048 65.6828 107.454L65.77 107.437C65.8886 106.995 66.0797 106.405 66.3432 105.666C66.6071 104.919 66.8473 104.243 67.0637 103.639L70.4421 94.6439L72.6599 94.2105L66.8432 109.126L64.4759 109.589ZM80.1221 92.5008C81.285 92.2736 82.2701 92.3409 83.0773 92.7028C83.8845 93.0647 84.4871 93.6761 84.885 94.5371C85.2833 95.3895 85.4543 96.4457 85.3981 97.7055L85.3397 99.0118L75.9077 100.855C75.8598 102.482 76.2029 103.647 76.9373 104.35C77.6716 105.053 78.7407 105.267 80.1445 104.993C81.0083 104.824 81.7761 104.594 82.4478 104.304C83.1195 104.013 83.8195 103.642 84.5478 103.19L84.4651 105.041C83.7617 105.489 83.0662 105.851 82.3787 106.128C81.6994 106.403 80.8988 106.631 79.9768 106.811C78.6644 107.067 77.5302 107.021 76.5742 106.671C75.6269 106.312 74.9069 105.656 74.4142 104.705C73.9215 103.753 73.7094 102.512 73.7777 100.982C73.8446 99.4855 74.1474 98.144 74.6862 96.9575C75.2337 95.761 75.9692 94.7791 76.8928 94.012C77.8246 93.2432 78.9011 92.7395 80.1221 92.5008ZM80.0201 94.2306C78.9154 94.4464 78.0185 94.9863 77.3294 95.8501C76.6403 96.714 76.204 97.8176 76.0205 99.1609L83.2471 97.7487C83.2758 96.9217 83.1795 96.2197 82.9583 95.6427C82.7457 95.0557 82.398 94.6375 81.9151 94.3883C81.4326 94.1305 80.8009 94.078 80.0201 94.2306Z" fill="#111111"/>
</g>
</svg>
