<svg width="28" height="20" viewBox="0 0 28 20" fill="none" xmlns="http://www.w3.org/2000/svg">
<path d="M27.8383 15.2306C27.6302 14.8765 27.2625 14.665 26.8547 14.665H26.2983C26.0286 8.84301 21.5608 4.11148 15.8904 3.49544C16.1153 3.1419 16.2464 2.7219 16.2464 2.27134C16.2464 1.0189 15.2376 0 13.9976 0C12.7576 0 11.7488 1.0189 11.7488 2.27129C11.7488 2.72185 11.88 3.14184 12.1049 3.49538C6.43446 4.11148 1.96665 8.84301 1.69693 14.665H1.14053C0.291494 14.665 -0.273245 15.6152 0.136445 16.3736L0.856729 17.707C1.60264 19.0879 3.03355 19.9457 4.591 19.9457H18.9221C19.6313 19.9457 19.6324 18.8299 18.9221 18.8299H4.591C3.43799 18.8299 2.37872 18.1948 1.82652 17.1725L1.10623 15.8391C1.09574 15.8065 1.10717 15.7871 1.14059 15.7808H26.8548C26.8881 15.7871 26.8996 15.8066 26.8891 15.8391L26.1688 17.1725C25.6165 18.1948 24.5572 18.8299 23.4042 18.8299C22.695 18.8299 22.694 19.9457 23.4042 19.9457C24.9617 19.9457 26.3926 19.0879 27.1385 17.707L27.8588 16.3736C28.0541 16.0121 28.0464 15.5848 27.8383 15.2306ZM13.9976 1.11575C14.6284 1.11575 15.1417 1.63416 15.1417 2.27129C15.1417 2.90847 14.6284 3.42682 13.9976 3.42682C13.3668 3.42682 12.8536 2.90841 12.8536 2.27129C12.8536 1.63416 13.3668 1.11575 13.9976 1.11575ZM2.80249 14.665C3.09099 9.03437 7.71722 4.54263 13.3625 4.54263H14.6327C20.278 4.54263 24.9042 9.03437 25.1927 14.665H2.80249Z" fill="#FA8507"/>
<path d="M21.6442 19.23C21.5283 18.9494 21.2013 18.8118 20.9228 18.9282C20.6446 19.0445 20.5097 19.3766 20.6245 19.6568C20.7397 19.9378 21.0671 20.0747 21.3453 19.9586C21.6244 19.8423 21.7582 19.5114 21.6442 19.23Z" fill="#FA8507"/>
</svg>
