<svg width="20" height="162" viewBox="0 0 20 162" fill="none" xmlns="http://www.w3.org/2000/svg">
<path d="M10 142L20 152L10 162L0 152L10 142Z" fill="#FA8507"/>
<path d="M10 0L13 3L10 6L7 3L10 0Z" fill="#FA8507"/>
<path d="M10 8L13 11L10 14L7 11L10 8Z" fill="#FA8507"/>
<path d="M10 16L13 19L10 22L7 19L10 16Z" fill="#FA8507"/>
<path d="M10 24L13 27L10 30L7 27L10 24Z" fill="#FA8507"/>
<path d="M10 32L13 35L10 38L7 35L10 32Z" fill="#FA8507"/>
<path d="M10 40L13 43L10 46L7 43L10 40Z" fill="#FA8507"/>
<path d="M10 48L13 51L10 54L7 51L10 48Z" fill="#FA8507"/>
<path d="M10 56L13 59L10 62L7 59L10 56Z" fill="#FA8507"/>
<path d="M10 64L13 67L10 70L7 67L10 64Z" fill="#FA8507"/>
<path d="M10 72L13 75L10 78L7 75L10 72Z" fill="#FA8507"/>
<path d="M10 80L13 83L10 86L7 83L10 80Z" fill="#FA8507"/>
<path d="M10 88L13 91L10 94L7 91L10 88Z" fill="#FA8507"/>
<path d="M10 96L13 99L10 102L7 99L10 96Z" fill="#FA8507"/>
<path d="M10 104L13 107L10 110L7 107L10 104Z" fill="#FA8507"/>
<path d="M10 112L13 115L10 118L7 115L10 112Z" fill="#FA8507"/>
<path d="M10 120L13 123L10 126L7 123L10 120Z" fill="#FA8507"/>
<path d="M10 128L13 131L10 134L7 131L10 128Z" fill="#FA8507"/>
</svg>
