<svg width="178" height="8" viewBox="0 0 178 8" fill="none" xmlns="http://www.w3.org/2000/svg">
<line y1="3.5" x2="50" y2="3.5" stroke="#FA8507"/>
<path d="M64 0L68 4L64 8L60 4L64 0Z" fill="#FA8507"/>
<path d="M74 0L78 4L74 8L70 4L74 0Z" fill="#FA8507"/>
<path d="M84 0L88 4L84 8L80 4L84 0Z" fill="#FA8507"/>
<path d="M94 0L98 4L94 8L90 4L94 0Z" fill="#FA8507"/>
<path d="M104 0L108 4L104 8L100 4L104 0Z" fill="#FA8507"/>
<path d="M114 0L118 4L114 8L110 4L114 0Z" fill="#FA8507"/>
<line x1="128" y1="3.5" x2="178" y2="3.5" stroke="#FA8507"/>
</svg>
