<svg width="278" height="8" viewBox="0 0 278 8" fill="none" xmlns="http://www.w3.org/2000/svg">
<line y1="3.5" x2="100" y2="3.5" stroke="#FA8507"/>
<path d="M114 0L118 4L114 8L110 4L114 0Z" fill="#FA8507"/>
<path d="M124 0L128 4L124 8L120 4L124 0Z" fill="#FA8507"/>
<path d="M134 0L138 4L134 8L130 4L134 0Z" fill="#FA8507"/>
<path d="M144 0L148 4L144 8L140 4L144 0Z" fill="#FA8507"/>
<path d="M154 0L158 4L154 8L150 4L154 0Z" fill="#FA8507"/>
<path d="M164 0L168 4L164 8L160 4L164 0Z" fill="#FA8507"/>
<line x1="178" y1="3.5" x2="278" y2="3.5" stroke="#FA8507"/>
</svg>
