<svg width="114" height="112" viewBox="0 0 114 112" fill="none" xmlns="http://www.w3.org/2000/svg">
<path d="M56.6103 13H52.2275V0.636363L56.6466 0.636363C57.8902 0.636363 58.9607 0.883878 59.8582 1.37891C60.7557 1.86991 61.4459 2.57623 61.9289 3.49787C62.4159 4.41951 62.6593 5.52225 62.6593 6.80611C62.6593 8.09399 62.4159 9.20076 61.9289 10.1264C61.4459 11.0521 60.7517 11.7624 59.8461 12.2575C58.9446 12.7525 57.866 13 56.6103 13ZM54.8415 10.7603H56.5017C57.2744 10.7603 57.9244 10.6235 58.4516 10.3498C58.9829 10.0721 59.3813 9.64347 59.6469 9.06392C59.9166 8.48035 60.0514 7.72775 60.0514 6.80611C60.0514 5.89252 59.9166 5.14595 59.6469 4.56641C59.3813 3.98686 58.9849 3.56025 58.4576 3.28658C57.9304 3.0129 57.2804 2.87607 56.5077 2.87607L54.8415 2.87607V10.7603Z" fill="#FA8507"/>
<path d="M70.9968 15.1784L76 3.87233L83.603 7.27814L82.7308 9.24898L77.5134 6.9118L76.3213 9.60584L81.1475 11.7678L80.2754 13.7386L75.4491 11.5767L74.2545 14.2762L79.494 16.6233L78.6219 18.5941L70.9968 15.1784Z" fill="#FA8507"/>
<path d="M86.4089 24.5166L95.5717 16.2158L97.3149 18.1637L89.7494 25.0175L93.2841 28.9672L91.6868 30.4142L86.4089 24.5166Z" fill="#FA8507"/>
<path d="M110.056 40.5502L98.304 44.392L97.5006 41.9045L109.252 38.0627L110.056 40.5502Z" fill="#FA8507"/>
<path d="M108.039 67.5126L108.314 64.8827C108.659 64.8707 108.972 64.8045 109.251 64.6844C109.535 64.5646 109.783 64.3986 109.995 64.1863C110.208 63.9741 110.38 63.7211 110.512 63.4275C110.643 63.1379 110.727 62.8169 110.764 62.4647C110.83 61.8282 110.73 61.2571 110.463 60.7513C110.201 60.246 109.783 59.8315 109.209 59.5078C108.64 59.1846 107.929 58.9779 107.077 58.8877C106.2 58.795 105.45 58.8472 104.827 59.0444C104.203 59.2455 103.714 59.5661 103.361 60.0063C103.007 60.4465 102.798 60.9768 102.733 61.5972C102.697 61.9455 102.709 62.2726 102.77 62.5785C102.831 62.8884 102.937 63.1688 103.089 63.4196C103.245 63.6708 103.443 63.886 103.683 64.0652C103.923 64.2484 104.204 64.3874 104.526 64.4821L104.239 67.1107C103.682 66.983 103.155 66.7553 102.66 66.4277C102.167 66.1045 101.739 65.6929 101.374 65.193C101.013 64.6975 100.746 64.1228 100.571 63.469C100.4 62.8196 100.356 62.1006 100.438 61.312C100.553 60.2153 100.903 59.2608 101.49 58.4487C102.076 57.6405 102.866 57.036 103.859 56.6351C104.851 56.2382 106.016 56.1105 107.352 56.2518C108.693 56.3936 109.807 56.7664 110.695 57.3702C111.583 57.9741 112.228 58.7343 112.63 59.651C113.036 60.5681 113.182 61.567 113.07 62.6478C112.995 63.3603 112.826 64.0102 112.562 64.5974C112.298 65.1887 111.949 65.7002 111.516 66.1319C111.086 66.564 110.58 66.899 109.997 67.1368C109.413 67.3786 108.761 67.5039 108.039 67.5126Z" fill="#FA8507"/>
<path d="M104.058 85.369L93.3673 79.1589L94.6683 76.8917L105.359 83.1018L104.058 85.369Z" fill="#FA8507"/>
<path d="M81.1982 99.538C80.4089 98.4449 79.9437 97.3642 79.8027 96.2958C79.6584 95.2298 79.7943 94.2356 80.2104 93.3132C80.6257 92.3965 81.2735 91.6163 82.154 90.9727C83.041 90.3243 83.9831 89.9447 84.9804 89.8339C85.9776 89.7231 86.9577 89.9014 87.9208 90.369C88.8839 90.8365 89.7589 91.6151 90.5459 92.7049C91.3352 93.7979 91.802 94.8775 91.9463 95.9435C92.0906 97.0095 91.9552 98.0009 91.5399 98.9176C91.127 99.8376 90.4771 100.622 89.5901 101.27C88.7096 101.914 87.7707 102.291 86.7735 102.402C85.7754 102.518 84.7948 102.343 83.8317 101.875C82.8654 101.41 81.9875 100.631 81.1982 99.538ZM83.3378 97.974C83.849 98.682 84.3858 99.2019 84.9481 99.5337C85.5071 99.8679 86.0674 100.022 86.6289 99.995C87.1905 99.9683 87.7263 99.7686 88.2365 99.3957C88.7466 99.0228 89.101 98.5718 89.2997 98.0427C89.4984 97.5136 89.5278 96.9287 89.388 96.2882C89.2448 95.65 88.9176 94.9769 88.4063 94.2689C87.8951 93.5608 87.3599 93.0397 86.8009 92.7056C86.2386 92.3738 85.6767 92.2212 85.1152 92.2479C84.5536 92.2745 84.0178 92.4743 83.5076 92.8472C82.9975 93.2201 82.6431 93.6711 82.4444 94.2002C82.2457 94.7293 82.2179 95.3129 82.361 95.9511C82.5009 96.5917 82.8265 97.2659 83.3378 97.974Z" fill="#FA8507"/>
<path d="M65.6136 107.509C65.7615 107.975 66.0424 108.302 66.4563 108.489C66.8702 108.676 67.3841 108.704 67.998 108.573C68.4152 108.484 68.755 108.349 69.0173 108.17C69.2805 107.994 69.4672 107.788 69.5774 107.55C69.6837 107.313 69.7094 107.065 69.6545 106.805C69.6166 106.587 69.5314 106.407 69.3989 106.267C69.2625 106.128 69.0933 106.018 68.8912 105.937C68.69 105.861 68.4641 105.804 68.2136 105.767C67.9639 105.734 67.701 105.717 67.4248 105.714L66.2837 105.686C65.7314 105.681 65.214 105.627 64.7316 105.524C64.2492 105.422 63.8163 105.261 63.4329 105.043C63.0494 104.824 62.728 104.539 62.4685 104.187C62.2051 103.836 62.0182 103.409 61.9078 102.906C61.7553 102.165 61.8086 101.482 62.0677 100.859C62.3237 100.24 62.7704 99.7066 63.4077 99.2575C64.0419 98.8132 64.851 98.4858 65.8349 98.2754C66.8109 98.0667 67.6926 98.0345 68.48 98.1789C69.2634 98.3241 69.9198 98.6468 70.4491 99.1468C70.9754 99.6516 71.3402 100.337 71.5437 101.203L69.0702 101.732C68.957 101.332 68.7693 101.019 68.5073 100.791C68.2421 100.567 67.9218 100.424 67.5464 100.36C67.1678 100.301 66.7581 100.319 66.3173 100.413C65.8844 100.506 65.5219 100.649 65.2297 100.843C64.9336 101.038 64.7207 101.267 64.591 101.529C64.4614 101.792 64.4273 102.069 64.4888 102.36C64.5462 102.632 64.6752 102.843 64.8756 102.993C65.0722 103.145 65.3376 103.253 65.6721 103.317C66.0026 103.382 66.3994 103.421 66.8627 103.433L68.249 103.482C69.3208 103.512 70.2076 103.728 70.9094 104.129C71.6112 104.53 72.0545 105.179 72.2395 106.073C72.3981 106.805 72.3385 107.486 72.0606 108.118C71.7787 108.75 71.3239 109.294 70.6961 109.749C70.0683 110.205 69.3136 110.526 68.432 110.715C67.5347 110.907 66.7191 110.921 65.9851 110.757C65.2473 110.594 64.6336 110.278 64.144 109.811C63.6545 109.343 63.3277 108.751 63.1637 108.033L65.6136 107.509Z" fill="#FA8507"/>
<path d="M51.8481 99.2285L49.2926 111.325L41.1458 109.583L41.5913 107.474L47.1818 108.67L47.7908 105.787L42.6194 104.682L43.0649 102.573L48.2363 103.679L48.8465 100.791L43.2323 99.5899L43.6778 97.4812L51.8481 99.2285Z" fill="#FA8507"/>
<path d="M21.8337 81.1408L11.1429 87.351L7.06858 80.2508L8.93216 79.1683L11.7055 84.0012L14.2529 82.5215L11.75 78.1598L13.6136 77.0773L16.1165 81.4389L20.5327 78.8736L21.8337 81.1408Z" fill="#FA8507"/>
<path d="M6.65332 55.6952C7.99409 55.5535 9.1613 55.687 10.155 56.0959C11.1482 56.5008 11.9385 57.1133 12.526 57.9335C13.109 58.75 13.4572 59.7007 13.5705 60.7855C13.6846 61.8782 13.5389 62.8852 13.1334 63.8063C12.7278 64.7274 12.0811 65.4898 11.1933 66.0936C10.3054 66.6975 9.19312 67.07 7.85635 67.2114C6.51558 67.3532 5.34858 67.2216 4.35535 66.8167C3.36212 66.4118 2.57399 65.8011 1.99097 64.9846C1.40394 64.1684 1.05335 63.214 0.939198 62.1212C0.825878 61.0364 0.971992 60.0335 1.37754 59.1124C1.77866 58.1877 2.42315 57.4235 3.31101 56.8196C4.19844 56.2118 5.31255 55.837 6.65332 55.6952ZM6.92868 58.3311C6.06018 58.4229 5.34134 58.6305 4.77218 58.9537C4.2026 59.273 3.78818 59.6831 3.52893 60.184C3.26967 60.6849 3.17287 61.2496 3.23852 61.878C3.30417 62.5065 3.51555 63.0386 3.87265 63.4743C4.22975 63.9101 4.72006 64.2265 5.34359 64.4236C5.96669 64.6167 6.7125 64.6674 7.581 64.5755C8.4495 64.4837 9.16854 64.2782 9.73812 63.9589C10.3073 63.6357 10.7215 63.2236 10.9807 62.7227C11.24 62.2217 11.3368 61.6571 11.2711 61.0286C11.2055 60.4002 10.9941 59.8681 10.637 59.4323C10.2799 58.9966 9.78982 58.6821 9.16671 58.489C8.54319 58.2919 7.79718 58.2393 6.92868 58.3311Z" fill="#FA8507"/>
<path d="M12.1582 35.4291C13.4397 35.848 14.4514 36.4477 15.1933 37.2279C15.9364 38.0044 16.4104 38.8876 16.6151 39.8776C16.8172 40.8625 16.7507 41.8739 16.4155 42.9117C16.0779 43.9573 15.5377 44.8181 14.7949 45.4941C14.0522 46.1701 13.1534 46.6025 12.0986 46.7911C11.0438 46.9798 9.87754 46.8653 8.59986 46.4476C7.31835 46.0287 6.30603 45.431 5.5629 44.6545C4.81977 43.8781 4.34714 42.9974 4.14501 42.0125C3.93905 41.0264 4.00489 40.0105 4.34255 38.965C4.67773 37.9271 5.21668 37.0701 5.95942 36.3941C6.69958 35.713 7.59706 35.2781 8.65186 35.0895C9.70791 34.897 10.8767 35.0102 12.1582 35.4291ZM11.3437 37.9511C10.5136 37.6797 9.77339 37.5753 9.12301 37.6379C8.47387 37.6967 7.92967 37.902 7.49041 38.2538C7.05114 38.6056 6.73442 39.0821 6.54024 39.6834C6.34606 40.2847 6.32389 40.8576 6.47374 41.4019C6.62359 41.9463 6.9433 42.4362 7.4329 42.8714C7.92372 43.3029 8.58419 43.6543 9.4143 43.9257C10.2444 44.197 10.984 44.3033 11.6332 44.2445C12.2836 44.1819 12.8284 43.9747 13.2676 43.6229C13.7069 43.2711 14.0236 42.7946 14.2178 42.1933C14.412 41.592 14.4342 41.0192 14.2843 40.4748C14.1345 39.9304 13.8141 39.4425 13.3233 39.011C12.8337 38.5758 12.1739 38.2224 11.3437 37.9511Z" fill="#FA8507"/>
<path d="M24.8748 27.6231L21.9521 30.8891L12.7893 22.5883L15.7362 19.2954C16.5655 18.3687 17.4629 17.7371 18.4283 17.4007C19.3907 17.0615 20.3744 17.0214 21.3795 17.2803C22.3873 17.5362 23.3669 18.0951 24.3184 18.9571C25.2729 19.8217 25.9307 20.7463 26.292 21.7306C26.6559 22.712 26.7194 23.7062 26.4824 24.7134C26.2481 25.7175 25.7122 26.6874 24.8748 27.6231ZM22.0354 27.4375L23.1425 26.2004C23.6578 25.6246 23.9899 25.0484 24.1386 24.4718C24.2871 23.8894 24.2352 23.3048 23.9828 22.7177C23.7301 22.125 23.2623 21.5192 22.5792 20.9005C21.9022 20.2871 21.259 19.8863 20.6496 19.6982C20.043 19.507 19.4625 19.516 18.908 19.7251C18.3536 19.9343 17.8188 20.3267 17.3035 20.9025L16.1923 22.1441L22.0354 27.4375Z" fill="#FA8507"/>
<path d="M38.0309 7.78339C37.7898 7.35781 37.4475 7.09659 37.0042 6.99973C36.5608 6.90287 36.0527 6.98277 35.4797 7.23944C35.0904 7.41385 34.7861 7.61631 34.5668 7.84683C34.3459 8.07367 34.2062 8.31486 34.1476 8.57041C34.0927 8.82431 34.119 9.07271 34.2265 9.31561C34.3088 9.52133 34.4292 9.67906 34.5878 9.78882C34.75 9.89694 34.9382 9.96919 35.1524 10.0056C35.3649 10.0382 35.5974 10.0465 35.85 10.0304C36.1009 10.0107 36.3616 9.97324 36.6321 9.91821L37.7533 9.70701C38.2943 9.59695 38.8113 9.54179 39.3041 9.54153C39.7969 9.54128 40.2533 9.60802 40.6734 9.74177C41.0934 9.87553 41.4667 10.0876 41.7932 10.3779C42.1234 10.6665 42.3946 11.0456 42.6067 11.515C42.9093 12.2086 42.9984 12.8875 42.8742 13.5517C42.7521 14.2105 42.426 14.8263 41.896 15.3988C41.3681 15.9661 40.645 16.4554 39.7267 16.8667C38.8158 17.2747 37.9606 17.4903 37.161 17.5133C36.3651 17.5347 35.6566 17.3559 35.0356 16.977C34.4167 16.5928 33.9181 15.9981 33.5398 15.193L35.8482 14.1589C36.0417 14.5265 36.2901 14.7944 36.5935 14.9628C36.8989 15.1259 37.2417 15.1994 37.6219 15.1835C38.0042 15.1622 38.401 15.0594 38.8124 14.8751C39.2164 14.6941 39.5411 14.4781 39.7865 14.227C40.0356 13.9744 40.1963 13.7061 40.2688 13.4223C40.3412 13.1385 40.3172 12.8604 40.1967 12.588C40.0843 12.3341 39.9146 12.1544 39.6874 12.0488C39.464 11.9417 39.1821 11.8915 38.8419 11.8984C38.5053 11.9036 38.1094 11.9487 37.654 12.0336L36.2886 12.2748C35.2347 12.4691 34.3232 12.4431 33.554 12.1967C32.7848 11.9503 32.2172 11.4086 31.8512 10.5715C31.5446 9.88859 31.4618 9.20908 31.6027 8.53298C31.7473 7.85523 32.0792 7.22804 32.5987 6.65139C33.1181 6.07475 33.7891 5.60215 34.6119 5.2336C35.4493 4.85846 36.2437 4.67458 36.9952 4.68195C37.7503 4.68767 38.4155 4.86816 38.9908 5.22343C39.5661 5.57869 40.0083 6.09061 40.3173 6.75918L38.0309 7.78339Z" fill="#FA8507"/>
</svg>
