<svg width="50" height="50" viewBox="0 0 50 50" fill="none" xmlns="http://www.w3.org/2000/svg">
<g clip-path="url(#clip0_169_288)">
<path d="M11.4389 44.1409C11.0343 44.1409 10.7064 44.4687 10.7064 44.8733V49.2678C10.7064 49.6724 11.0343 50.0002 11.4389 50.0002C11.8435 50.0002 12.1713 49.6724 12.1713 49.2678V44.8733C12.1713 44.4687 11.8434 44.1409 11.4389 44.1409ZM21.0734 46.5823C20.6689 46.5823 20.341 46.9102 20.341 47.3147C20.341 47.7192 20.6689 48.0471 21.0734 48.0471C21.4779 48.0471 21.8059 47.7192 21.8059 47.3147C21.8059 46.9102 21.4779 46.5823 21.0734 46.5823ZM25.468 46.5823C25.0635 46.5823 24.7355 46.9102 24.7355 47.3147C24.7355 47.7192 25.0635 48.0471 25.468 48.0471C25.8725 48.0471 26.2004 47.7192 26.2004 47.3147C26.2004 46.9102 25.8725 46.5823 25.468 46.5823ZM21.0734 42.1877C20.6689 42.1877 20.341 42.5157 20.341 42.9202C20.341 43.3247 20.6689 43.6526 21.0734 43.6526C21.4779 43.6526 21.8059 43.3247 21.8059 42.9202C21.8059 42.5157 21.4779 42.1877 21.0734 42.1877ZM25.468 42.1877C25.0635 42.1877 24.7355 42.5157 24.7355 42.9202C24.7355 43.3247 25.0635 43.6526 25.468 43.6526C25.8725 43.6526 26.2004 43.3247 26.2004 42.9202C26.2004 42.5157 25.8725 42.1877 25.468 42.1877ZM44.421 24.1702H35.6319C34.4204 24.1702 33.4347 25.1559 33.4347 26.3674V33.3987C33.4347 34.6102 34.4204 35.5959 35.6319 35.5959H36.5108C36.9147 35.5959 37.2433 35.9245 37.2433 36.3284V37.5939C36.7797 37.2872 36.2764 37.0398 35.7453 36.8607L27.5031 34.0874C26.9438 33.8988 26.6677 33.3699 26.7091 32.8057C29.531 31.1517 31.483 28.1675 31.6977 24.72C33.0685 24.6826 34.1724 23.5566 34.1724 22.1769C34.1724 20.8041 33.0795 19.6824 31.7182 19.6343C31.7194 19.4909 31.7264 18.3921 31.7094 18.275C31.603 17.5395 31.4578 16.4597 31.332 15.3735C31.2077 14.3 31.0791 13.1903 30.9503 12.4386C32.5706 11.1742 33.4056 9.19751 33.1851 7.1436C33.1072 6.41743 32.8957 5.72007 32.5563 5.07046C32.369 4.71186 31.9264 4.57319 31.5681 4.7604C31.2096 4.9477 31.0707 5.39009 31.258 5.74868C31.512 6.23491 31.6703 6.75669 31.7285 7.29985C31.8954 8.85474 31.2597 10.35 30.0281 11.3C29.6134 11.6197 29.4116 12.1402 29.5016 12.6584C29.6252 13.3694 29.7531 14.474 29.877 15.542C29.9558 16.2224 30.0363 16.9173 30.1175 17.5263C27.4113 17.1819 24.6665 17.0007 21.9443 16.9875C18.9978 16.9745 16.0277 17.1551 13.1003 17.5287L13.7124 12.8188C13.7986 12.2839 13.5689 11.7421 13.124 11.4338C11.8611 10.559 11.1486 9.12056 11.2181 7.58579C11.319 5.35161 13.1484 3.50034 15.3826 3.37124C15.8258 3.34575 16.2677 3.38599 16.6956 3.49106C17.2169 3.6188 17.7579 3.44282 18.1067 3.0314C18.9509 2.03608 20.1819 1.46509 21.4843 1.46509C22.7865 1.46509 24.0176 2.03608 24.8618 3.03149C25.2105 3.44282 25.7511 3.61899 26.273 3.49116C26.7958 3.36294 27.3351 3.33149 27.8763 3.39751C28.3222 3.452 28.7558 3.57456 29.1649 3.76177C29.533 3.93013 29.9674 3.76841 30.1356 3.40063C30.3041 3.03276 30.1423 2.59819 29.7745 2.42993C29.2282 2.17983 28.6494 2.01626 28.0539 1.9436C27.3482 1.85718 26.6433 1.89653 25.9586 2.06011C24.8361 0.750635 23.2072 0.000244141 21.4843 0.000244141C19.7612 0.000244141 18.1324 0.750537 17.01 2.06011C16.4509 1.92651 15.8751 1.87524 15.2981 1.90903C13.8485 1.99272 12.4833 2.61265 11.4536 3.65454C10.4236 4.69673 9.82031 6.06938 9.75479 7.51978C9.66299 9.54946 10.5994 11.4528 12.2613 12.6183C12.251 12.6765 11.5222 18.2977 11.5199 18.3528C11.5187 18.385 11.5174 19.6009 11.5185 19.6343C10.1571 19.6824 9.06426 20.8042 9.06426 22.1769C9.06426 23.5565 10.168 24.6824 11.5386 24.72C11.6042 25.7834 11.8347 26.8203 12.2275 27.8098C12.3785 28.1903 12.8104 28.3664 13.1784 28.2204C13.5545 28.0712 13.7382 27.6454 13.589 27.2695C13.1871 26.2568 12.9833 25.1856 12.9833 24.0857V19.0239C15.9449 18.632 18.9529 18.4385 21.9373 18.4525C24.7081 18.4659 27.5021 18.6594 30.2533 19.0235V24.0857C30.2533 28.847 26.3797 32.7207 21.6183 32.7207C19.2116 32.7207 16.8959 31.7047 15.2646 29.9334C14.9905 29.6359 14.5271 29.6167 14.2296 29.8908C13.932 30.1648 13.913 30.6281 14.187 30.9257C14.9447 31.7485 15.829 32.4313 16.7959 32.9563V32.9827C16.7959 33.4836 16.4768 33.9276 16.0018 34.0874L7.75947 36.8608C5.14102 37.7423 3.38184 40.1909 3.38184 42.9534V49.2678C3.38184 49.6724 3.70967 50.0002 4.11426 50.0002C4.51885 50.0002 4.84668 49.6724 4.84668 49.2678V42.9534C4.84668 40.8203 6.20508 38.9298 8.22676 38.2491L15.1372 35.9238L18.6281 38.6286C17.3368 39.3908 16.5215 40.7959 16.5215 42.3125V49.2678C16.5215 49.6724 16.8493 50.0002 17.2539 50.0002C17.6585 50.0002 17.9863 49.6724 17.9863 49.2678V42.3125C17.9863 41.2266 18.6217 40.2272 19.6049 39.7667L28.0414 35.814L35.2774 38.2489C36.0223 38.5001 36.6961 38.9258 37.2431 39.4848V40.695H37.237C36.2096 40.695 35.3736 41.531 35.3736 42.5584V48.1368C35.3736 49.1642 36.2096 50.0002 37.237 50.0002H41.2661C43.1479 50.0002 44.6788 48.4692 44.6788 46.5875V44.1078C44.6788 42.7813 43.9176 41.6298 42.8094 41.0654V36.3284C42.8094 35.9245 43.1379 35.5959 43.5418 35.5959H44.4207C45.6322 35.5959 46.618 34.6102 46.618 33.3987V26.3674C46.6183 25.1559 45.6325 24.1702 44.421 24.1702ZM31.7182 21.1006C32.2714 21.1468 32.7075 21.6119 32.7075 22.1769C32.7075 22.7419 32.2714 23.207 31.7182 23.2532V21.1006ZM11.5184 23.2531C10.9651 23.2069 10.529 22.7418 10.529 22.1768C10.529 21.6118 10.9651 21.1467 11.5184 21.1005V23.2531ZM20.1012 37.9166L16.7825 35.3453C17.4973 34.9974 18.0123 34.3478 18.1912 33.5828C19.2812 33.9766 20.4403 34.1855 21.6184 34.1855C22.9153 34.1855 24.1557 33.9391 25.2958 33.4917C25.4171 34.1078 25.7539 34.6554 26.2392 35.0408L20.1012 37.9166ZM43.2143 44.1078V46.5875C43.2143 47.6616 42.3404 48.5354 41.2664 48.5354H37.2373C37.0176 48.5354 36.8388 48.3566 36.8388 48.1368V42.5584C36.8388 42.3386 37.0176 42.1598 37.2373 42.1598H41.2664C42.3403 42.1598 43.2143 43.0336 43.2143 44.1078ZM45.1534 33.3987C45.1534 33.8026 44.8249 34.1311 44.421 34.1311H43.5421C42.3306 34.1311 41.3448 35.1168 41.3448 36.3284V40.6969C41.2741 40.6938 38.7854 40.6953 38.7081 40.6949V36.3284C38.7081 35.1168 37.7224 34.1311 36.5108 34.1311H35.6319C35.228 34.1311 34.8995 33.8026 34.8995 33.3987V26.3674C34.8995 25.9635 35.228 25.635 35.6319 25.635H44.421C44.8249 25.635 45.1534 25.9635 45.1534 26.3674V33.3987ZM20.7519 9.82681V13.3383C20.7519 13.7429 21.0797 14.0708 21.4843 14.0708C21.8889 14.0708 22.2167 13.7429 22.2167 13.3383V9.82681C22.2167 9.42222 21.8889 9.09439 21.4843 9.09439C21.0797 9.09439 20.7519 9.42222 20.7519 9.82681ZM25.1897 9.54556L23.7292 13.0571C23.5738 13.4305 23.7507 13.8592 24.1242 14.0146C24.4893 14.1665 24.9249 13.9978 25.0817 13.6196L26.5423 10.1081C26.6977 9.73462 26.5208 9.30591 26.1473 9.15054C25.7738 8.99517 25.3451 9.17202 25.1897 9.54556ZM26.6232 23.6861V22.1745C26.6232 21.7699 26.2954 21.442 25.8908 21.442C25.4862 21.442 25.1584 21.7699 25.1584 22.1745V23.6861C25.1584 24.0907 25.4862 24.4185 25.8908 24.4185C26.2954 24.4185 26.6232 24.0907 26.6232 23.6861ZM37.0968 27.0999C36.6922 27.0999 36.3644 27.4277 36.3644 27.8323V31.9338C36.3644 32.3384 36.6922 32.6663 37.0968 32.6663C37.5014 32.6663 37.8292 32.3384 37.8292 31.9338V27.8323C37.8292 27.4277 37.5014 27.0999 37.0968 27.0999ZM16.8212 9.15054C16.4477 9.30591 16.2708 9.73452 16.4262 10.1081L17.8867 13.6196C18.0436 13.9977 18.4783 14.1667 18.8442 14.0146C19.2178 13.8592 19.3946 13.4306 19.2393 13.0571L17.7787 9.54556C17.6233 9.17202 17.1946 8.99526 16.8212 9.15054ZM40.0265 27.0999C39.6219 27.0999 39.294 27.4277 39.294 27.8323V31.9338C39.294 32.3384 39.6219 32.6663 40.0265 32.6663C40.4311 32.6663 40.7589 32.3384 40.7589 31.9338V27.8323C40.7589 27.4277 40.4311 27.0999 40.0265 27.0999ZM42.9562 27.0999C42.5516 27.0999 42.2237 27.4277 42.2237 27.8323V31.9338C42.2237 32.3384 42.5516 32.6663 42.9562 32.6663C43.3607 32.6663 43.6886 32.3384 43.6886 31.9338V27.8323C43.6886 27.4277 43.3607 27.0999 42.9562 27.0999ZM21.7264 28.696C22.4689 28.6695 23.0264 28.3788 23.3632 28.1396C23.6931 27.9054 23.7706 27.4482 23.5363 27.1184C23.3023 26.7886 22.845 26.711 22.5151 26.9453C22.3729 27.0462 22.0743 27.2179 21.6738 27.2322C21.2187 27.2484 20.8823 27.0591 20.7208 26.9448C20.3905 26.7108 19.9335 26.7891 19.6998 27.1191C19.4659 27.4492 19.544 27.9064 19.8741 28.1401C20.1534 28.3378 20.9246 28.7248 21.7264 28.696ZM18.0781 23.6861V22.1745C18.0781 21.7699 17.7503 21.442 17.3457 21.442C16.9411 21.442 16.6133 21.7699 16.6133 22.1745V23.6861C16.6133 24.0907 16.9411 24.4185 17.3457 24.4185C17.7503 24.4185 18.0781 24.0907 18.0781 23.6861Z" fill="#C59D5F"/>
</g>
<defs>
<clipPath id="clip0_169_288">
<rect width="50" height="50" fill="white" transform="translate(0 0.000244141)"/>
</clipPath>
</defs>
</svg>
