<svg width="50" height="50" viewBox="0 0 50 50" fill="none" xmlns="http://www.w3.org/2000/svg">
<g clip-path="url(#clip0_169_252)">
<path d="M48.4375 14.0627H39.0625V5.93772C39.0625 5.53068 39.3844 5.18928 39.7945 5.16193L46.1937 4.73303C47.0141 4.68537 47.6562 4.00022 47.6562 3.17209V1.6174C47.6562 1.18537 47.475 0.768184 47.1594 0.473653C46.8438 0.179122 46.4164 0.0236532 45.9875 0.0572469L38.7547 0.541622C36.2984 0.699434 34.375 2.75412 34.375 5.21897V11.719C34.375 12.1502 34.725 12.5002 35.1562 12.5002C35.5875 12.5002 35.9375 12.1502 35.9375 11.719V5.21897C35.9375 3.57522 37.2188 2.20568 38.857 2.09943L46.0938 1.6174L46.0961 3.17443L39.6898 3.60412C38.4617 3.68537 37.5 4.71115 37.5 5.93772V14.0627H25C24.1383 14.0627 23.4375 14.7635 23.4375 15.6252V17.1877C23.4375 18.0494 24.1383 18.7502 25 18.7502H25.0383L25.2336 22.6565H10.9375C6.09687 22.6565 2.08594 26.2838 1.60859 31.0932C1.56563 31.5315 1.71016 31.9697 2.00703 32.2971C2.30391 32.6244 2.72734 32.8127 3.16875 32.8127H3.39922C3.22891 33.169 3.125 33.5635 3.125 33.9846C3.125 34.5041 3.27891 34.9854 3.53125 35.3994C3.36172 35.4276 3.18906 35.4424 3.02187 35.476L1.85781 35.7041C0.78125 35.926 0 36.8822 0 37.9768C0 38.6705 0.307031 39.3205 0.841406 39.7604C1.36641 40.1916 2.04922 40.3658 2.72031 40.2471C2.48672 40.7166 2.34375 41.2385 2.34375 41.7971V42.5783C2.34375 43.3744 2.61953 44.101 3.06719 44.6908C2.76328 44.8072 2.48672 44.9815 2.25937 45.2143C1.81016 45.6526 1.5625 46.2416 1.5625 46.8752C1.5625 48.5987 2.96406 50.0002 4.6875 50.0002H30.6641H45.5406C46.3789 50.0002 47.0648 49.344 47.1016 48.5057L48.4039 18.7502H48.4375C49.2992 18.7502 50 18.0494 50 17.1877V15.6252C50 14.7635 49.2992 14.0627 48.4375 14.0627ZM3.16328 31.2471C3.56172 27.2408 6.90312 24.219 10.9375 24.219H26.5625C28.6516 24.219 30.6141 25.0315 32.0883 26.5065C32.4602 26.8776 32.8047 27.3041 33.1125 27.7729C33.7898 28.8041 34.2125 30.0033 34.3312 31.2502L3.16328 31.2471ZM5.85938 35.1565C5.21328 35.1565 4.6875 34.6307 4.6875 33.9846C4.6875 33.3385 5.21328 32.8127 5.85938 32.8127H31.6406C32.2867 32.8127 32.8125 33.3385 32.8125 33.9846C32.8125 34.6307 32.2867 35.1565 31.6406 35.1565H31.2656H6.23438H5.85938ZM1.83359 38.5533C1.73203 38.4697 1.5625 38.2846 1.5625 37.9768C1.5625 37.6143 1.81406 37.3088 2.16563 37.2362L3.32578 37.0088C4.27812 36.8166 5.25703 36.719 6.23438 36.719H31.2656C32.243 36.719 33.2219 36.8166 34.1781 37.0096L35.3266 37.2346C35.6859 37.308 35.9375 37.6143 35.9375 37.9768C35.9375 38.4447 35.5133 38.819 35.0359 38.7104L32.9656 38.2963C32.9148 38.2862 32.8641 38.2815 32.8125 38.2815H31.6406H30.4688C30.3062 38.2815 30.1477 38.3322 30.0156 38.4268L25.8641 41.3838L25.818 41.4205C25.3031 41.7901 24.6227 41.8127 24.0898 41.4807L19.1648 38.4002C19.0398 38.3229 18.8969 38.2815 18.75 38.2815H5.85938H4.6875C4.63594 38.2815 4.58516 38.2862 4.53437 38.2971L2.46641 38.7104C2.24219 38.7557 2.00937 38.6979 1.83359 38.5533ZM5.85938 44.5315C4.78281 44.5315 3.90625 43.6549 3.90625 42.5783V41.7971C3.90625 40.8541 4.57812 40.0651 5.46875 39.8838V40.2346C5.46875 41.3112 6.34531 42.1877 7.42188 42.1877C7.56797 42.1877 7.70937 42.169 7.84687 42.1377C8.00937 43.0526 8.80547 43.7502 9.76562 43.7502C10.5859 43.7502 11.2867 43.2408 11.5758 42.5229C12.7102 43.1471 14.3055 43.0799 15.3187 42.3135C15.5023 42.1768 15.7484 42.1768 15.9281 42.3112C16.4898 42.7354 17.2148 42.969 17.9688 42.969C18.7266 42.969 19.4633 42.7268 20.043 42.2862C20.3859 42.0252 20.4531 41.5354 20.1922 41.1916C19.9312 40.8494 19.4422 40.7815 19.0977 41.0424C18.4812 41.5112 17.4602 41.5104 16.8656 41.0612C16.1234 40.508 15.1273 40.508 14.3805 41.0635C13.7805 41.5166 12.7039 41.4994 12.125 41.0166C11.8633 40.7987 11.7188 40.5205 11.7188 40.2346V39.844H18.5258L23.2594 42.8049C24.3375 43.4737 25.6992 43.4299 26.7531 42.6721L30.7188 39.844H31.6406C32.1523 39.844 32.6336 40.0424 32.9945 40.4041C33.0164 40.426 33.0398 40.4463 33.0641 40.4658C33.1883 40.5947 33.2852 40.7448 33.3672 40.9049C33.2969 40.9479 33.2266 40.9908 33.1602 41.0432C32.5438 41.5119 31.5187 41.5088 30.932 41.0651C30.5859 40.8049 30.0977 40.8737 29.8375 41.2182C29.5773 41.5627 29.6461 42.0526 29.9906 42.3127C30.5523 42.7354 31.2773 42.969 32.0312 42.969C32.5789 42.969 33.1141 42.8385 33.5914 42.5994C33.5805 43.6666 32.7102 44.5315 31.6406 44.5315H5.85938ZM10.1562 41.7971C10.1562 42.0127 9.98125 42.1877 9.76562 42.1877C9.55 42.1877 9.375 42.0127 9.375 41.7971V40.2346V39.844H10.1562V41.7971ZM7.42188 40.6252C7.20625 40.6252 7.03125 40.4502 7.03125 40.2346V39.844H7.8125V40.2346C7.8125 40.4502 7.6375 40.6252 7.42188 40.6252ZM4.6875 48.4377C3.82578 48.4377 3.125 47.7369 3.125 46.8752C3.125 46.6666 3.20469 46.4744 3.36406 46.319C3.50547 46.1737 3.69766 46.094 3.90625 46.094H5.85938H31.6406H33.5938C34.0242 46.094 34.375 46.4447 34.375 46.8752C34.375 47.2916 34.2125 47.6838 33.9164 47.9791C33.6203 48.2744 33.2289 48.4377 32.8125 48.4377H30.6641H4.6875ZM35.5039 48.4377C35.7789 47.9658 35.9375 47.4346 35.9375 46.8752C35.9375 45.8783 35.3102 45.0315 34.4312 44.6932C34.8797 44.1026 35.1562 43.3752 35.1562 42.5783V41.7971C35.1562 41.6151 35.1437 41.433 35.1172 41.2971C35.0844 41.0643 35.0227 40.8416 34.9469 40.6252H45.8828L45.5406 48.4377H35.5039ZM46.4984 26.5627H36.7188C36.2875 26.5627 35.9375 26.9127 35.9375 27.344C35.9375 27.7752 36.2875 28.1252 36.7188 28.1252H46.4297L45.9508 39.0627H37.2164C37.3914 38.7377 37.5 38.3713 37.5 37.9768C37.5 36.8822 36.7188 35.926 35.6344 35.7026L34.482 35.4768C34.3125 35.4424 34.1391 35.4283 33.968 35.3994C34.2211 34.9854 34.375 34.5041 34.375 33.9846C34.375 33.5635 34.2711 33.169 34.1008 32.8127H34.3312C34.7719 32.8127 35.1945 32.6252 35.4906 32.2979C35.7883 31.969 35.9336 31.5268 35.8898 31.0862C35.7422 29.5994 35.2336 28.1565 34.418 26.9158C34.0516 26.358 33.6391 25.8479 33.1922 25.4018C31.4789 23.6877 29.2148 22.7283 26.7977 22.669L26.6023 18.7502H46.8398L46.4984 26.5627ZM48.4375 17.1877H25V15.6252H48.4375V17.1877Z" fill="#C59D5F"/>
<path d="M16.4062 25.0002H15.625C15.1938 25.0002 14.8438 25.3502 14.8438 25.7815C14.8438 26.2127 15.1938 26.5627 15.625 26.5627H16.4062C16.8375 26.5627 17.1875 26.2127 17.1875 25.7815C17.1875 25.3502 16.8375 25.0002 16.4062 25.0002Z" fill="#C59D5F"/>
<path d="M21.0938 25.0002H20.3125C19.8813 25.0002 19.5312 25.3502 19.5312 25.7815C19.5312 26.2127 19.8813 26.5627 20.3125 26.5627H21.0938C21.525 26.5627 21.875 26.2127 21.875 25.7815C21.875 25.3502 21.525 25.0002 21.0938 25.0002Z" fill="#C59D5F"/>
<path d="M25.7812 25.7815H25C24.5688 25.7815 24.2188 26.1315 24.2188 26.5627C24.2188 26.994 24.5688 27.344 25 27.344H25.7812C26.2125 27.344 26.5625 26.994 26.5625 26.5627C26.5625 26.1315 26.2125 25.7815 25.7812 25.7815Z" fill="#C59D5F"/>
<path d="M13.2812 27.344H12.5C12.0688 27.344 11.7188 27.694 11.7188 28.1252C11.7188 28.5565 12.0688 28.9065 12.5 28.9065H13.2812C13.7125 28.9065 14.0625 28.5565 14.0625 28.1252C14.0625 27.694 13.7125 27.344 13.2812 27.344Z" fill="#C59D5F"/>
<path d="M19.5312 27.344H18.75C18.3188 27.344 17.9688 27.694 17.9688 28.1252C17.9688 28.5565 18.3188 28.9065 18.75 28.9065H19.5312C19.9625 28.9065 20.3125 28.5565 20.3125 28.1252C20.3125 27.694 19.9625 27.344 19.5312 27.344Z" fill="#C59D5F"/>
<path d="M10.9375 25.0002H10.1562C9.725 25.0002 9.375 25.3502 9.375 25.7815C9.375 26.2127 9.725 26.5627 10.1562 26.5627H10.9375C11.3687 26.5627 11.7188 26.2127 11.7188 25.7815C11.7188 25.3502 11.3687 25.0002 10.9375 25.0002Z" fill="#C59D5F"/>
</g>
<defs>
<clipPath id="clip0_169_252">
<rect width="50" height="50" fill="white" transform="translate(0 0.000244141)"/>
</clipPath>
</defs>
</svg>
