<svg width="46" height="46" viewBox="0 0 46 46" fill="none" xmlns="http://www.w3.org/2000/svg">
<g clip-path="url(#clip0_218_64182)">
<path d="M45.1691 9.26287C44.7894 8.7436 44.2913 8.32244 43.7161 8.03442C43.1409 7.7464 42.5053 7.59982 41.8621 7.60687H9.51355L8.17012 2.59314C8.10869 2.3639 7.97334 2.16133 7.78505 2.01686C7.59677 1.87238 7.36607 1.79407 7.12874 1.79407H1.07812C0.792188 1.79407 0.517963 1.90766 0.315775 2.10984C0.113588 2.31203 0 2.58626 0 2.87219C0 3.15813 0.113588 3.43235 0.315775 3.63454C0.517963 3.83673 0.792188 3.95032 1.07812 3.95032H6.30146L7.644 8.96081L12.7503 28.2511C11.8179 29.0858 11.4196 30.3624 11.534 31.5281C11.7293 33.5185 13.2688 34.9087 15.2779 34.9087H38.5187C38.8046 34.9087 39.0789 34.7951 39.2811 34.5929C39.4832 34.3907 39.5968 34.1165 39.5968 33.8306C39.5968 33.5446 39.4832 33.2704 39.2811 33.0682C39.0789 32.866 38.8046 32.7524 38.5187 32.7524H15.278C13.9259 32.7524 13.713 31.6542 13.6801 31.3175C13.6262 30.7682 13.8058 29.7977 14.7905 29.5536H37.8714C38.754 29.5583 39.614 29.2747 40.3208 28.7459C41.0275 28.2172 41.5423 27.4722 41.787 26.6241L45.8244 12.9027C46.0126 12.2876 46.0514 11.6365 45.9374 11.0035C45.8235 10.3704 45.5601 9.77367 45.1691 9.26287ZM43.7558 12.2942L39.7184 26.0159C39.6065 26.4179 39.3646 26.7716 39.0304 27.0216C38.6962 27.2717 38.2886 27.404 37.8713 27.3978H14.7545L10.0869 9.76348H41.8621C42.1689 9.76349 42.4715 9.83503 42.7459 9.97242C43.0202 10.1098 43.2588 10.3093 43.4426 10.5549C43.6264 10.8006 43.7504 11.0858 43.8048 11.3877C43.8591 11.6897 43.8424 12.0002 43.7558 12.2946V12.2942ZM19.6334 35.6209C18.7844 35.6209 17.9545 35.8726 17.2486 36.3443C16.5426 36.816 15.9925 37.4864 15.6676 38.2708C15.3427 39.0551 15.2577 39.9182 15.4233 40.7509C15.5889 41.5836 15.9978 42.3484 16.5981 42.9488C17.1984 43.5491 17.9633 43.9579 18.796 44.1235C19.6287 44.2891 20.4918 44.2041 21.2761 43.8792C22.0605 43.5543 22.7309 43.0041 23.2025 42.2982C23.6742 41.5923 23.9259 40.7623 23.9259 39.9133C23.9246 38.7753 23.4719 37.6842 22.6672 36.8795C21.8625 36.0748 20.7714 35.6222 19.6334 35.6209ZM19.6334 42.0496C19.2109 42.0496 18.7978 41.9244 18.4465 41.6896C18.0952 41.4549 17.8214 41.1212 17.6597 40.7309C17.498 40.3405 17.4557 39.911 17.5381 39.4966C17.6205 39.0822 17.824 38.7015 18.1228 38.4027C18.4215 38.104 18.8022 37.9005 19.2166 37.8181C19.631 37.7356 20.0605 37.778 20.4509 37.9396C20.8413 38.1013 21.1749 38.3752 21.4096 38.7265C21.6444 39.0778 21.7697 39.4908 21.7697 39.9133C21.769 40.4797 21.5438 41.0227 21.1433 41.4232C20.7428 41.8237 20.1998 42.049 19.6334 42.0496ZM34.0406 35.6209C33.1916 35.6209 32.3617 35.8726 31.6558 36.3443C30.9499 36.8159 30.3997 37.4863 30.0748 38.2707C29.7498 39.0551 29.6648 39.9182 29.8305 40.7508C29.9961 41.5835 30.4049 42.3484 31.0052 42.9487C31.6056 43.549 32.3704 43.9579 33.2031 44.1235C34.0358 44.2891 34.8989 44.2041 35.6833 43.8792C36.4676 43.5543 37.138 43.0041 37.6097 42.2982C38.0814 41.5923 38.3331 40.7623 38.3331 39.9133C38.3318 38.7753 37.8791 37.6843 37.0744 36.8796C36.2697 36.0749 35.1787 35.6222 34.0406 35.6209ZM34.0406 42.0496C33.6181 42.0497 33.2051 41.9244 32.8537 41.6897C32.5024 41.4549 32.2286 41.1213 32.0669 40.7309C31.9052 40.3406 31.8629 39.911 31.9453 39.4966C32.0277 39.0822 32.2311 38.7015 32.5299 38.4028C32.8287 38.104 33.2093 37.9005 33.6237 37.8181C34.0381 37.7356 34.4677 37.778 34.858 37.9396C35.2484 38.1013 35.5821 38.3751 35.8168 38.7265C36.0515 39.0778 36.1768 39.4908 36.1768 39.9133C36.1762 40.4797 35.9509 41.0227 35.5505 41.4232C35.15 41.8237 34.607 42.049 34.0406 42.0496Z" fill="#FA8507"/>
</g>
<defs>
<clipPath id="clip0_218_64182">
<rect width="46" height="46" fill="white"/>
</clipPath>
</defs>
</svg>
