<svg width="50" height="50" viewBox="0 0 50 50" fill="none" xmlns="http://www.w3.org/2000/svg">
<path d="M44.2625 44.1386H15.6152C13.83 44.1386 12.3779 42.6861 12.3779 40.9009C12.3779 39.1157 13.83 37.6636 15.6152 37.6636H44.2625C46.0477 37.6636 47.5 39.1157 47.5 40.9009C47.5 42.6861 46.0477 44.1386 44.2625 44.1386ZM15.6152 39.1526C14.6513 39.1526 13.8669 39.937 13.8669 40.9009C13.8669 41.8651 14.6513 42.6495 15.6152 42.6495H44.2625C45.2264 42.6495 46.0108 41.8651 46.0108 40.9009C46.0108 39.937 45.2264 39.1526 44.2625 39.1526H15.6152Z" fill="#C59D5F"/>
<path d="M44.5673 39.1525C44.1561 39.1525 43.8228 38.8192 43.8228 38.408C43.8228 31.7972 39.1222 26.07 32.6461 24.7902C32.2578 24.7137 31.9972 24.3464 32.0534 23.9546C32.0723 23.8232 32.0874 23.7362 32.0874 23.646C32.0874 22.4615 31.1238 21.4978 29.9392 21.4978C28.7546 21.4978 27.791 22.4614 27.791 23.646C27.791 23.7362 27.806 23.8232 27.8186 23.9101C27.8755 24.3025 27.6211 24.7134 27.2322 24.7902C20.756 26.07 16.0554 31.7969 16.0554 38.408C16.0554 38.8192 15.7221 39.1525 15.3109 39.1525C14.8997 39.1525 14.5664 38.8192 14.5664 38.408C14.5664 31.3068 19.4657 25.1268 26.3062 23.4695C26.3984 21.5456 27.9925 20.0088 29.9392 20.0088C31.8858 20.0088 33.4799 21.5456 33.5721 23.4695C40.4127 25.1268 45.3119 31.3068 45.3119 38.408C45.3118 38.8192 44.9785 39.1525 44.5673 39.1525Z" fill="#C59D5F"/>
<path d="M20.4151 28.0522C20.3345 28.0522 20.2525 28.0388 20.172 28.0112C15.5863 26.427 12.5054 22.1013 12.5054 17.2468C12.5054 10.9687 17.6132 5.86133 23.8913 5.86133C30.1695 5.86133 35.2769 10.9688 35.2769 17.2468C35.2769 17.9481 35.2127 18.6499 35.0861 19.3325C35.0113 19.7368 34.6222 20.0022 34.2182 19.9287C33.8139 19.8537 33.5469 19.4651 33.6219 19.0609C33.7318 18.4675 33.7878 17.8574 33.7878 17.2468C33.7878 11.7898 29.3484 7.35043 23.8913 7.35043C18.4343 7.35043 13.9945 11.7898 13.9945 17.2468C13.9945 21.4666 16.6726 25.2266 20.6583 26.6035C21.0469 26.7379 21.253 27.162 21.1189 27.5505C21.0125 27.8585 20.7237 28.0522 20.4151 28.0522Z" fill="#C59D5F"/>
<path d="M31.5957 17.9916C31.1845 17.9916 30.8512 17.6583 30.8512 17.247C30.8512 13.4091 27.7291 10.2866 23.891 10.2866C23.4798 10.2866 23.1465 9.95331 23.1465 9.54211C23.1465 9.13091 23.4798 8.79761 23.891 8.79761C28.55 8.79761 32.3402 12.5881 32.3402 17.2471C32.3402 17.6583 32.0069 17.9916 31.5957 17.9916Z" fill="#C59D5F"/>
<path d="M21.0147 20.8683C20.8241 20.8683 20.6337 20.7956 20.4882 20.6502C20.1973 20.3594 20.1973 19.8882 20.4882 19.5973L23.1468 16.9387V12.5348C23.1468 12.1236 23.4801 11.7903 23.8913 11.7903C24.3025 11.7903 24.6358 12.1236 24.6358 12.5348V17.247C24.6358 17.4445 24.5573 17.6339 24.4177 17.7735L21.5409 20.6502C21.3956 20.7956 21.2051 20.8683 21.0147 20.8683Z" fill="#C59D5F"/>
<path d="M10.1366 19.8407H3.2445C2.8333 19.8407 2.5 19.5074 2.5 19.0961C2.5 18.6849 2.8333 18.3516 3.2445 18.3516H10.1366C10.5478 18.3516 10.8811 18.6849 10.8811 19.0961C10.8812 19.5074 10.5479 19.8407 10.1366 19.8407Z" fill="#C59D5F"/>
<path d="M11.7167 24.2239H4.82458C4.41338 24.2239 4.08008 23.8906 4.08008 23.4794C4.08008 23.0682 4.41338 22.7349 4.82458 22.7349H11.7167C12.1279 22.7349 12.4612 23.0682 12.4612 23.4794C12.4612 23.8906 12.1279 24.2239 11.7167 24.2239Z" fill="#C59D5F"/>
<path d="M13.2966 28.6072H6.40466C5.99346 28.6072 5.66016 28.2739 5.66016 27.8627C5.66016 27.4515 5.99346 27.1182 6.40466 27.1182H13.2966C13.7078 27.1182 14.0411 27.4515 14.0411 27.8627C14.0411 28.2739 13.7078 28.6072 13.2966 28.6072Z" fill="#C59D5F"/>
</svg>
