<svg width="50" height="50" viewBox="0 0 50 50" fill="none" xmlns="http://www.w3.org/2000/svg">
<path d="M19.7827 10.915C19.3508 10.915 19.0014 11.2648 19.0014 11.6963V18.5826C19.0014 19.5942 18.179 20.4174 17.1673 20.4174H15.4621V11.6963C15.4621 11.2648 15.1127 10.915 14.6809 10.915C14.2491 10.915 13.8996 11.2648 13.8996 11.6963V20.4174H12.1952C11.1836 20.4174 10.3604 19.5942 10.3604 18.5826V11.6963C10.3604 11.2648 10.0109 10.915 9.5791 10.915C9.14728 10.915 8.79785 11.2648 8.79785 11.6963V18.5826C8.79785 20.456 10.3222 21.9799 12.1952 21.9799H12.3089L10.8265 34.7542C10.6983 35.8536 11.0462 36.958 11.7817 37.7842C12.5179 38.6113 13.5754 39.0854 14.6839 39.0854C15.7887 39.0854 16.8438 38.6116 17.5793 37.7858C18.3155 36.9587 18.6634 35.854 18.5352 34.7546L17.0529 21.9799H17.1673C19.0403 21.9799 20.5639 20.456 20.5639 18.5826V11.6963C20.5639 11.2648 20.2145 10.915 19.7827 10.915ZM16.9834 34.935C17.0597 35.5923 16.8522 36.2526 16.412 36.7466C15.9733 37.2399 15.3431 37.5229 14.6839 37.5229C14.0209 37.5229 13.3885 37.2395 12.949 36.7455C12.5096 36.2519 12.302 35.5923 12.3783 34.9347L13.8816 21.9799H15.4802L16.9834 34.935Z" fill="#FA8507"/>
<path d="M40.9142 25.0804V9.78128C40.9142 7.32576 38.913 5.328 36.4532 5.328H6.02341C3.56369 5.328 1.5625 7.32576 1.5625 9.78128V40.2188C1.5625 42.6743 3.56369 44.672 6.02341 44.672H36.4532C37.1467 44.672 37.8188 44.5059 38.4206 44.2058L38.7421 44.2108C44.088 44.2108 48.4375 39.8651 48.4375 34.5234C48.4375 29.9414 45.3109 26.0761 40.9142 25.0804ZM6.02341 6.8905H36.4532C37.6008 6.8905 38.5857 7.56423 39.055 8.5312H3.42169C3.89094 7.56423 4.87585 6.8905 6.02341 6.8905ZM6.02341 43.1095C4.42505 43.1095 3.125 41.8129 3.125 40.2188V10.0937H39.3517V24.8478C39.0804 24.8301 38.8113 24.8239 38.5444 24.828C38.5199 24.8284 38.496 24.8314 38.4716 24.8319C38.2226 24.8377 37.9756 24.8513 37.7312 24.8755C37.6617 24.8824 37.5938 24.8948 37.5247 24.9032C37.327 24.9271 37.13 24.953 36.936 24.9886C36.8546 25.0035 36.7752 25.0239 36.6945 25.0409C36.5155 25.0785 36.3372 25.1176 36.1618 25.165C36.0763 25.1882 35.9929 25.216 35.9083 25.2415C35.7411 25.2918 35.5748 25.3437 35.4114 25.4028C35.3251 25.434 35.2408 25.4689 35.1556 25.5026C34.998 25.5648 34.8416 25.6292 34.688 25.6995C34.6025 25.7387 34.5187 25.7806 34.4345 25.8222C34.286 25.8956 34.1392 25.9716 33.995 26.0525C33.9108 26.0998 33.828 26.1489 33.7453 26.1986C33.6066 26.2822 33.4701 26.3687 33.3358 26.4591C33.2535 26.5146 33.1722 26.5711 33.0916 26.629C32.9622 26.7222 32.8357 26.819 32.7111 26.9185C32.6322 26.9815 32.5537 27.0448 32.4768 27.1104C32.3568 27.2126 32.2405 27.3188 32.1255 27.4271C32.0503 27.4978 31.9749 27.5681 31.9018 27.6414C31.7914 27.7523 31.6854 27.8677 31.5801 27.9843C31.5098 28.062 31.4387 28.1385 31.3708 28.2187C31.2691 28.3389 31.1729 28.464 31.0768 28.5896C31.0381 28.64 30.9961 28.6875 30.9584 28.7389L30.2804 22.8869C32.0154 21.8133 33.1535 19.5422 33.1535 17.0052C33.1535 13.3938 30.8777 10.4557 28.08 10.4557C25.2823 10.4557 23.0064 13.3938 23.0064 17.0052C23.0064 19.5473 24.1493 21.8221 25.8833 22.8901L24.4194 35.4431C24.3004 36.4857 24.6338 37.5332 25.3334 38.3171C26.0315 39.0988 27.0317 39.547 28.0785 39.547C28.8106 39.547 29.5186 39.3235 30.1136 38.9253C30.1933 39.0813 30.2762 39.2348 30.3637 39.3854C30.4099 39.4651 30.4566 39.5441 30.5049 39.6221C30.6081 39.7886 30.7167 39.9506 30.8292 40.1097C30.8753 40.1751 30.9192 40.2421 30.9668 40.3062C31.1244 40.5178 31.289 40.7235 31.4626 40.9207C31.5111 40.9759 31.5638 41.0266 31.6135 41.0806C31.7424 41.2205 31.8736 41.3579 32.0103 41.4897C32.0947 41.5713 32.1821 41.649 32.2694 41.7274C32.3764 41.8233 32.4851 41.9171 32.5963 42.0081C32.6981 42.0917 32.8004 42.1741 32.9055 42.2534C33.0047 42.3281 33.1067 42.3985 33.2087 42.4694C33.542 42.7015 33.8846 42.9205 34.2453 43.1095H6.02341ZM29.4975 37.4306C29.1161 37.7823 28.6079 37.9845 28.0785 37.9845C27.4673 37.9845 26.9066 37.7331 26.4992 37.2765C26.0956 36.8244 25.9033 36.2206 25.9712 35.6217L27.3865 23.4875C27.4021 23.4902 27.4183 23.489 27.434 23.4915C27.6466 23.5261 27.8614 23.5493 28.08 23.5493C28.2996 23.5493 28.5152 23.526 28.7283 23.4913C28.7445 23.4887 28.7612 23.4899 28.7773 23.4871L29.6631 31.1321C29.618 31.2521 29.5846 31.3757 29.5445 31.4973C29.5026 31.6243 29.4571 31.7502 29.4206 31.879C29.3741 32.0432 29.3385 32.2105 29.3009 32.3773C29.2737 32.4981 29.2413 32.6175 29.2188 32.7397C29.1835 32.9306 29.1609 33.1246 29.1371 33.3183C29.1247 33.4198 29.1059 33.5197 29.0967 33.6219C29.0697 33.9196 29.055 34.2201 29.055 34.5234C29.055 34.7922 29.0682 35.0596 29.0901 35.3258C29.0972 35.4126 29.1101 35.4985 29.1195 35.585C29.1392 35.7649 29.1609 35.9442 29.1905 36.1225C29.2072 36.2228 29.228 36.3223 29.2478 36.422C29.2803 36.5858 29.3158 36.7488 29.3567 36.9109C29.3828 37.0145 29.411 37.1176 29.4406 37.2205C29.4607 37.2903 29.4759 37.3612 29.4975 37.4306ZM29.1145 21.7583C29.0082 21.8076 28.8962 21.8362 28.7855 21.8696C28.2716 22.0217 27.7325 22.0053 27.2218 21.8172C27.1603 21.7943 27.0967 21.7824 27.0363 21.7545C25.5836 21.1037 24.5689 19.1509 24.5689 17.0052C24.5689 14.2555 26.1436 12.0182 28.08 12.0182C30.0163 12.0182 31.591 14.2555 31.591 17.0052C31.591 19.1509 30.5763 21.1037 29.1145 21.7583ZM38.7421 42.6483L38.2935 42.6418C35.0555 42.4599 32.238 40.3782 31.1165 37.3413C30.7854 36.4353 30.6175 35.487 30.6175 34.5234C30.6175 34.2616 30.6295 34.0022 30.6533 33.7456C30.7249 32.9759 30.9034 32.2316 31.1867 31.5247C31.1872 31.5235 31.1872 31.5222 31.1876 31.521C31.2693 31.3161 31.3595 31.1168 31.4554 30.9216C31.4991 30.8331 31.5478 30.7482 31.5943 30.6618C31.6485 30.5607 31.7019 30.4591 31.7599 30.361C31.8277 30.2466 31.9 30.1359 31.9728 30.0257C32.0126 29.9651 32.0518 29.904 32.093 29.8446C32.1853 29.7127 32.2813 29.5841 32.3806 29.4587C32.4028 29.4305 32.4247 29.4023 32.4472 29.3745C33.8284 27.6763 35.8481 26.5952 38.0865 26.4176C38.1264 26.4146 38.1667 26.413 38.2068 26.4106C38.3657 26.4003 38.5255 26.3936 38.6864 26.3926C38.8008 26.3924 38.9162 26.3975 39.0316 26.402C39.1312 26.4057 39.2301 26.4065 39.3308 26.414C39.5506 26.4304 39.7718 26.4546 39.9944 26.4887C40.0004 26.4896 40.0064 26.4898 40.0124 26.4908C43.9247 27.1008 46.875 30.5542 46.875 34.5234C46.875 39.0034 43.2266 42.6483 38.7421 42.6483Z" fill="#FA8507"/>
<path d="M42.7286 30.8105L36.9677 36.5711L34.7643 34.3678C34.4591 34.0626 33.9647 34.0626 33.6595 34.3678C33.3544 34.6729 33.3544 35.1673 33.6595 35.4725L36.4153 38.2282C36.5679 38.3808 36.7678 38.4571 36.9677 38.4571C37.1675 38.4571 37.3674 38.3808 37.52 38.2282L43.8333 31.9153C44.1385 31.6101 44.1385 31.1157 43.8333 30.8105C43.5282 30.5054 43.0338 30.5054 42.7286 30.8105Z" fill="#FA8507"/>
<path d="M5.92285 20.8668C5.49103 20.8668 5.1416 21.2166 5.1416 21.6481V29.0574C5.1416 29.4888 5.49103 29.8386 5.92285 29.8386C6.35468 29.8386 6.7041 29.4888 6.7041 29.0574V21.6481C6.7041 21.2166 6.35468 20.8668 5.92285 20.8668Z" fill="#FA8507"/>
<path d="M5.92285 31.6783C5.49103 31.6783 5.1416 32.0282 5.1416 32.4596V32.6866C5.1416 33.118 5.49103 33.4678 5.92285 33.4678C6.35468 33.4678 6.7041 33.118 6.7041 32.6866V32.4596C6.7041 32.0282 6.35468 31.6783 5.92285 31.6783Z" fill="#FA8507"/>
</svg>
