<svg width="50" height="50" viewBox="0 0 50 50" fill="none" xmlns="http://www.w3.org/2000/svg">
<g clip-path="url(#clip0_218_64168)">
<path d="M26.9531 22.0703C26.4141 22.0703 25.9766 22.5079 25.9766 23.0469C25.9766 23.5859 26.4141 24.0234 26.9531 24.0234C27.4921 24.0234 27.9297 23.5859 27.9297 23.0469C27.9297 22.5079 27.4921 22.0703 26.9531 22.0703Z" fill="#FA8507"/>
<path d="M47.0703 39.6484C47.0703 28.8223 38.6127 19.944 28.2322 18.4021C28.6572 17.7769 28.9062 17.0223 28.9062 16.2109C28.9062 14.0572 27.1538 12.3047 25 12.3047C22.8462 12.3047 21.0938 14.0572 21.0938 16.2109C21.0938 17.0223 21.3428 17.7769 21.7678 18.4021C11.4285 19.9379 2.92969 28.7857 2.92969 39.6484C1.31111 39.6484 0 40.9595 0 42.5781C0 44.1936 1.31416 45.5078 2.92969 45.5078H47.0703C48.6889 45.5078 50 44.1967 50 42.5781C50 40.9626 48.6858 39.6484 47.0703 39.6484ZM23.0469 16.2109C23.0469 15.134 23.9231 14.2578 25 14.2578C26.0769 14.2578 26.9531 15.134 26.9531 16.2109C26.9531 17.2878 26.0769 18.1641 25 18.1641C23.9231 18.1641 23.0469 17.2878 23.0469 16.2109ZM25 20.1172C35.7555 20.1172 45.1172 28.8166 45.1172 39.6484H4.88281C4.88281 29.0615 14.0953 20.1172 25 20.1172ZM47.0703 43.5547H2.92969C2.39105 43.5547 1.95312 43.1168 1.95312 42.5781C1.95312 42.0391 2.39067 41.6016 2.92969 41.6016H47.0703C47.6089 41.6016 48.0469 42.0395 48.0469 42.5781C48.0469 43.1171 47.6093 43.5547 47.0703 43.5547Z" fill="#FA8507"/>
<path d="M41.6032 32.4089C39.7691 28.3665 35.8286 24.9042 31.0625 23.1479C30.5566 22.9614 29.9951 23.2208 29.8086 23.727C29.622 24.2328 29.8811 24.7944 30.3873 24.9809C34.6098 26.5365 38.2261 29.6921 39.8248 33.2161C40.048 33.7074 40.6271 33.9245 41.1176 33.7017C41.6086 33.4789 41.8264 32.9002 41.6032 32.4089Z" fill="#FA8507"/>
<path d="M49.4602 16.1186L47.147 14.9624L45.9908 12.6492C45.8252 12.3184 45.4872 12.1094 45.1172 12.1094C44.7472 12.1094 44.4092 12.3184 44.2436 12.6492L43.0874 14.9624L40.7742 16.1186C40.4434 16.2842 40.2344 16.6222 40.2344 16.9922C40.2344 17.3622 40.4434 17.7002 40.7742 17.8658L43.0874 19.022L44.2436 21.3352C44.4092 21.666 44.7472 21.875 45.1172 21.875C45.4872 21.875 45.8252 21.666 45.9908 21.3352L47.147 19.022L49.4602 17.8658C49.791 17.7002 50 17.3622 50 16.9922C50 16.6222 49.791 16.2842 49.4602 16.1186ZM45.9824 17.4206C45.7932 17.5148 45.6398 17.6682 45.5452 17.8574L45.1172 18.7141L44.6888 17.8574C44.5946 17.6682 44.4412 17.5148 44.252 17.4206L43.3952 16.9922L44.252 16.5638C44.4412 16.4696 44.5946 16.3162 44.6888 16.127L45.1172 15.2702L45.5456 16.127C45.6398 16.3162 45.7932 16.4696 45.9824 16.5638L46.8391 16.9922L45.9824 17.4206Z" fill="#FA8507"/>
<path d="M4.599 13.5651L5.90935 17.4961C6.04248 17.8951 6.41556 18.1641 6.83594 18.1641C7.25632 18.1641 7.62939 17.8951 7.76253 17.4961L9.07288 13.5651L13.0039 12.2547C13.4029 12.1216 13.6719 11.7485 13.6719 11.3281C13.6719 10.9077 13.4029 10.5347 13.0039 10.4015L9.07288 9.09119L7.76253 5.16014C7.62939 4.76112 7.25632 4.49219 6.83594 4.49219C6.41556 4.49219 6.04248 4.76112 5.90935 5.16014L4.599 9.09119L0.667954 10.4015C0.268936 10.5347 0 10.9077 0 11.3281C0 11.7485 0.268936 12.1216 0.667954 12.2547L4.599 13.5651ZM5.6797 10.7899C5.97153 10.6926 6.20041 10.4637 6.29768 10.1719L6.83594 8.55675L7.37419 10.1719C7.47147 10.4637 7.70035 10.6926 7.99217 10.7899L9.60732 11.3281L7.99217 11.8664C7.70035 11.9637 7.47147 12.1925 7.37419 12.4844L6.83594 14.0995L6.29768 12.4844C6.20041 12.1925 5.97153 11.9637 5.6797 11.8664L4.06456 11.3281L5.6797 10.7899Z" fill="#FA8507"/>
</g>
<defs>
<clipPath id="clip0_218_64168">
<rect width="50" height="50" fill="white"/>
</clipPath>
</defs>
</svg>
