<svg width="46" height="46" viewBox="0 0 46 46" fill="none" xmlns="http://www.w3.org/2000/svg">
<path d="M44.5625 12.9375H35.9375V5.46249C35.9375 5.08802 36.2336 4.77393 36.611 4.74877L42.4982 4.35418C43.2529 4.31034 43.8438 3.67999 43.8438 2.91812V1.4878C43.8438 1.09034 43.677 0.706523 43.3866 0.435555C43.0962 0.164586 42.7031 0.0215546 42.3085 0.0524609L35.6543 0.498086C33.3946 0.643273 31.625 2.53359 31.625 4.80124V10.7812C31.625 11.178 31.947 11.5 32.3438 11.5C32.7405 11.5 33.0625 11.178 33.0625 10.7812V4.80124C33.0625 3.28899 34.2412 2.02902 35.7485 1.93127L42.4062 1.4878L42.4084 2.92027L36.5147 3.31559C35.3848 3.39034 34.5 4.33405 34.5 5.46249V12.9375H23C22.2072 12.9375 21.5625 13.5822 21.5625 14.375V15.8125C21.5625 16.6053 22.2072 17.25 23 17.25H23.0352L23.2149 20.8437H10.0625C5.60913 20.8437 1.91906 24.1809 1.47991 28.6055C1.44037 29.0087 1.57334 29.412 1.84647 29.7131C2.11959 30.0143 2.50916 30.1875 2.91525 30.1875H3.12728C2.97059 30.5152 2.875 30.8782 2.875 31.2656C2.875 31.7436 3.01659 32.1863 3.24875 32.5673C3.09278 32.5931 2.93394 32.6068 2.78013 32.6377L1.70919 32.8476C0.71875 33.0517 0 33.9315 0 34.9384C0 35.5767 0.282469 36.1747 0.774094 36.5793C1.25709 36.9761 1.88528 37.1364 2.50269 37.0271C2.28778 37.4591 2.15625 37.9392 2.15625 38.4531V39.1719C2.15625 39.9043 2.40997 40.5727 2.82181 41.1154C2.54222 41.2225 2.28778 41.3827 2.07862 41.5969C1.66534 42.0001 1.4375 42.5421 1.4375 43.125C1.4375 44.7106 2.72694 46 4.3125 46H28.2109H41.8974C42.6686 46 43.2997 45.3962 43.3334 44.625L44.5316 17.25H44.5625C45.3553 17.25 46 16.6053 46 15.8125V14.375C46 13.5822 45.3553 12.9375 44.5625 12.9375ZM2.91022 28.7471C3.27678 25.0614 6.35087 22.2812 10.0625 22.2812H24.4375C26.3594 22.2812 28.1649 23.0287 29.5212 24.3857C29.8633 24.7271 30.1803 25.1196 30.4635 25.5508C31.0867 26.4996 31.4755 27.6029 31.5848 28.75L2.91022 28.7471ZM5.39062 32.3437C4.79622 32.3437 4.3125 31.86 4.3125 31.2656C4.3125 30.6712 4.79622 30.1875 5.39062 30.1875H29.1094C29.7038 30.1875 30.1875 30.6712 30.1875 31.2656C30.1875 31.86 29.7038 32.3437 29.1094 32.3437H28.7644H5.73562H5.39062ZM1.68691 35.4689C1.59347 35.392 1.4375 35.2216 1.4375 34.9384C1.4375 34.6049 1.66894 34.3239 1.99238 34.2571L3.05972 34.0479C3.93587 33.8711 4.83647 33.7812 5.73562 33.7812H28.7644C29.6635 33.7812 30.5641 33.8711 31.4439 34.0486L32.5004 34.2556C32.8311 34.3232 33.0625 34.6049 33.0625 34.9384C33.0625 35.369 32.6722 35.7132 32.2331 35.6133L30.3284 35.2324C30.2817 35.2231 30.2349 35.2187 30.1875 35.2187H29.1094H28.0312C27.8818 35.2187 27.7358 35.2655 27.6144 35.3524L23.7949 38.0729L23.7525 38.1067C23.2789 38.4466 22.6528 38.4675 22.1627 38.162L17.6317 35.328C17.5167 35.2568 17.3851 35.2187 17.25 35.2187H5.39062H4.3125C4.26506 35.2187 4.21834 35.2231 4.17163 35.2331L2.26909 35.6133C2.06281 35.655 1.84862 35.6018 1.68691 35.4689ZM5.39062 40.9687C4.40019 40.9687 3.59375 40.1623 3.59375 39.1719V38.4531C3.59375 37.5856 4.21187 36.8596 5.03125 36.6929V37.0156C5.03125 38.0061 5.83769 38.8125 6.82812 38.8125C6.96253 38.8125 7.09262 38.7952 7.21912 38.7665C7.36862 39.6081 8.10103 40.25 8.98438 40.25C9.73906 40.25 10.3838 39.7814 10.6497 39.1208C11.6933 39.6951 13.161 39.6333 14.0933 38.9282C14.2622 38.8024 14.4886 38.8024 14.6539 38.9261C15.1707 39.3163 15.8377 39.5312 16.5312 39.5312C17.2284 39.5312 17.9062 39.3084 18.4395 38.9031C18.7551 38.663 18.8169 38.2123 18.5768 37.8961C18.3368 37.5813 17.8868 37.5187 17.5698 37.7588C17.0028 38.1901 16.0633 38.1893 15.5164 37.7761C14.8336 37.2672 13.9172 37.2672 13.23 37.7782C12.678 38.1951 11.6876 38.1793 11.155 37.7351C10.9142 37.5346 10.7812 37.2787 10.7812 37.0156V36.6562H17.0437L21.3986 39.3803C22.3905 39.9956 23.6433 39.9553 24.6129 39.2581L28.2612 36.6562H29.1094C29.5802 36.6562 30.0229 36.8388 30.355 37.1716C30.3751 37.1917 30.3967 37.2104 30.4189 37.2284C30.5332 37.347 30.6223 37.485 30.6978 37.6323C30.6331 37.6718 30.5684 37.7114 30.5073 37.7595C29.9403 38.1908 28.9972 38.1879 28.4575 37.7796C28.1391 37.5403 27.6898 37.6035 27.4505 37.9205C27.2112 38.2375 27.2744 38.6881 27.5914 38.9275C28.1082 39.3163 28.7752 39.5312 29.4688 39.5312C29.9726 39.5312 30.4649 39.4112 30.9041 39.1913C30.894 40.1731 30.0933 40.9687 29.1094 40.9687H5.39062ZM9.34375 38.4531C9.34375 38.6515 9.18275 38.8125 8.98438 38.8125C8.786 38.8125 8.625 38.6515 8.625 38.4531V37.0156V36.6562H9.34375V38.4531ZM6.82812 37.375C6.62975 37.375 6.46875 37.214 6.46875 37.0156V36.6562H7.1875V37.0156C7.1875 37.214 7.0265 37.375 6.82812 37.375ZM4.3125 44.5625C3.51972 44.5625 2.875 43.9178 2.875 43.125C2.875 42.9331 2.94831 42.7563 3.09494 42.6132C3.22503 42.4795 3.40184 42.4062 3.59375 42.4062H5.39062H29.1094H30.9062C31.3023 42.4062 31.625 42.729 31.625 43.125C31.625 43.5081 31.4755 43.8689 31.2031 44.1406C30.9307 44.4123 30.5706 44.5625 30.1875 44.5625H28.2109H4.3125ZM32.6636 44.5625C32.9166 44.1284 33.0625 43.6396 33.0625 43.125C33.0625 42.2079 32.4853 41.4287 31.6767 41.1175C32.0893 40.5741 32.3438 39.905 32.3438 39.1719V38.4531C32.3438 38.2856 32.3322 38.1182 32.3078 37.9931C32.2776 37.7789 32.2208 37.5741 32.1511 37.375H42.2122L41.8974 44.5625H32.6636ZM42.7786 24.4375H33.7812C33.3845 24.4375 33.0625 24.7595 33.0625 25.1562C33.0625 25.553 33.3845 25.875 33.7812 25.875H42.7153L42.2747 35.9375H34.2391C34.4001 35.6385 34.5 35.3014 34.5 34.9384C34.5 33.9315 33.7812 33.0517 32.7836 32.8461L31.7235 32.6384C31.5675 32.6068 31.4079 32.5939 31.2505 32.5673C31.4834 32.1863 31.625 31.7436 31.625 31.2656C31.625 30.8782 31.5294 30.5152 31.3727 30.1875H31.5848C31.9901 30.1875 32.379 30.015 32.6514 29.7138C32.9252 29.4112 33.0589 29.0044 33.0187 28.5991C32.8828 27.2313 32.4149 25.9037 31.6645 24.7624C31.3274 24.2492 30.9479 23.7798 30.5368 23.3694C28.9606 21.7925 26.8777 20.9099 24.6538 20.8552L24.4742 17.25H43.0927L42.7786 24.4375ZM44.5625 15.8125H23V14.375H44.5625V15.8125Z" fill="#FA8507"/>
<path d="M15.0938 23H14.375C13.9782 23 13.6562 23.322 13.6562 23.7188C13.6562 24.1155 13.9782 24.4375 14.375 24.4375H15.0938C15.4905 24.4375 15.8125 24.1155 15.8125 23.7188C15.8125 23.322 15.4905 23 15.0938 23Z" fill="#FA8507"/>
<path d="M19.4062 23H18.6875C18.2907 23 17.9688 23.322 17.9688 23.7188C17.9688 24.1155 18.2907 24.4375 18.6875 24.4375H19.4062C19.803 24.4375 20.125 24.1155 20.125 23.7188C20.125 23.322 19.803 23 19.4062 23Z" fill="#FA8507"/>
<path d="M23.7188 23.7188H23C22.6032 23.7188 22.2812 24.0407 22.2812 24.4375C22.2812 24.8342 22.6032 25.1562 23 25.1562H23.7188C24.1155 25.1562 24.4375 24.8342 24.4375 24.4375C24.4375 24.0407 24.1155 23.7188 23.7188 23.7188Z" fill="#FA8507"/>
<path d="M12.2188 25.1562H11.5C11.1032 25.1562 10.7812 25.4782 10.7812 25.875C10.7812 26.2717 11.1032 26.5938 11.5 26.5938H12.2188C12.6155 26.5938 12.9375 26.2717 12.9375 25.875C12.9375 25.4782 12.6155 25.1562 12.2188 25.1562Z" fill="#FA8507"/>
<path d="M17.9688 25.1562H17.25C16.8532 25.1562 16.5312 25.4782 16.5312 25.875C16.5312 26.2717 16.8532 26.5938 17.25 26.5938H17.9688C18.3655 26.5938 18.6875 26.2717 18.6875 25.875C18.6875 25.4782 18.3655 25.1562 17.9688 25.1562Z" fill="#FA8507"/>
<path d="M10.0625 23H9.34375C8.947 23 8.625 23.322 8.625 23.7188C8.625 24.1155 8.947 24.4375 9.34375 24.4375H10.0625C10.4592 24.4375 10.7812 24.1155 10.7812 23.7188C10.7812 23.322 10.4592 23 10.0625 23Z" fill="#FA8507"/>
</svg>
