<svg width="50" height="50" viewBox="0 0 50 50" fill="none" xmlns="http://www.w3.org/2000/svg">
<path d="M20.9434 21.3806V22.5525C20.9434 22.957 21.2713 23.2849 21.6758 23.2849C22.0803 23.2849 22.4082 22.957 22.4082 22.5525V21.3806C22.4082 20.9761 22.0803 20.6482 21.6758 20.6482C21.2713 20.6482 20.9434 20.9761 20.9434 21.3806Z" fill="#FA8507"/>
<path d="M33.1406 21.3806V22.5525C33.1406 22.957 33.4686 23.2849 33.873 23.2849C34.2775 23.2849 34.6055 22.957 34.6055 22.5525V21.3806C34.6055 20.9761 34.2775 20.6482 33.873 20.6482C33.4686 20.6482 33.1406 20.9761 33.1406 21.3806Z" fill="#FA8507"/>
<path d="M28.8296 22.0364C28.5631 22.3423 28.1783 22.5176 27.7739 22.5176C27.3695 22.5176 26.9847 22.3423 26.7182 22.0364C26.4525 21.7314 25.9897 21.6997 25.6848 21.9654C25.3799 22.2311 25.3481 22.6938 25.6138 22.9988C26.1586 23.624 26.9459 23.9825 27.7738 23.9825C28.6018 23.9825 29.3891 23.624 29.9339 22.9988C30.1996 22.6938 30.1678 22.2312 29.8629 21.9654C29.5579 21.6997 29.0953 21.7314 28.8296 22.0364Z" fill="#FA8507"/>
<path d="M45.8303 31.8104C45.3026 31.2827 44.6788 30.8999 44.0116 30.6654V26.7091C44.0116 26.3046 43.6837 25.9767 43.2792 25.9767C42.8747 25.9767 42.5468 26.3046 42.5468 26.7091V30.3933C41.5433 30.3631 40.5266 30.6425 39.6494 31.2476L30.2646 37.72L25.2909 37.1722L27.1568 36.2944C28.2789 35.7665 29.1356 34.8358 29.5692 33.6738C30.0034 32.5101 29.9645 31.2434 29.4597 30.107C28.4762 27.893 25.8778 26.7858 23.5444 27.586L19.4146 29.0027C16.9472 29.8491 14.7372 31.3195 13.0018 33.2406V21.4067C13.0018 19.7373 14.3599 18.3792 16.0293 18.3792H39.519C41.1885 18.3792 42.5466 19.7373 42.5466 21.4067V23.2911C42.5466 23.6956 42.8745 24.0235 43.279 24.0235C43.6835 24.0235 44.0114 23.6956 44.0114 23.2911V21.4067C44.0114 19.1791 42.3812 17.3259 40.2515 16.975V13.3218C40.2515 11.4908 39.6389 9.68145 38.5265 8.22695C37.7928 7.26768 37.3304 6.15156 37.1686 4.96699C38.237 4.67119 39.024 3.69082 39.024 2.52949C39.0241 1.13467 37.8895 0 36.4947 0H32.2723C30.8775 0 29.7429 1.13467 29.7429 2.52939C29.7429 3.69072 30.5299 4.67109 31.5983 4.96699C31.4365 6.15146 30.9741 7.26768 30.2404 8.22695C29.7595 8.85576 29.3724 9.55127 29.0874 10.2858C27.0962 8.04033 24.4599 5.80322 22.2778 4.67275C19.537 3.21738 17.2271 3.03643 15.5977 4.14951C14.1386 5.14629 13.441 7.05928 13.5806 9.68193C13.6936 11.8071 14.3474 14.3021 15.4781 16.9493C13.2604 17.2222 11.5371 19.1163 11.5371 21.4066V35.1434C11.457 35.2625 10.6934 36.4805 10.5979 36.631H6.0791C4.24346 36.631 2.75 38.1244 2.75 39.9601V46.6618C2.75 48.4975 4.24346 49.9908 6.0791 49.9908H7.7459C8.15039 49.9908 8.47832 49.6629 8.47832 49.2584C8.47832 48.8539 8.15039 48.526 7.7459 48.526H6.0791C5.05117 48.526 4.21484 47.6896 4.21484 46.6618V39.9601C4.21484 38.9321 5.05107 38.0958 6.0791 38.0958H11.0022C11.254 38.0958 11.488 37.9666 11.6221 37.7535C13.4488 34.4383 16.2205 31.5713 19.8899 30.3882L24.0198 28.9715C25.6416 28.4152 27.443 29.1752 28.1211 30.7016C28.8344 32.307 28.1221 34.2213 26.5334 34.9687L22.3159 36.9526C22.0191 37.0923 21.8514 37.4122 21.9052 37.7357C21.959 38.0593 22.2214 38.3075 22.5475 38.3435L30.3756 39.2058C30.551 39.2247 30.7268 39.1807 30.8717 39.0807L40.4812 32.4533C41.8255 31.5259 43.6395 31.6911 44.7945 32.8461C45.4684 33.5199 45.8194 34.4155 45.783 35.3678C45.7466 36.32 45.3282 37.1861 44.6049 37.8066L36.7542 44.5411C35.49 45.6256 33.8302 46.3487 31.5305 46.8169C25.52 48.0405 18.9942 48.6162 12.1263 48.526H11.164C10.7595 48.526 10.4315 48.8539 10.4315 49.2584C10.4315 49.6629 10.7595 49.9908 11.164 49.9908C11.9029 49.9869 12.7872 50 13.5177 49.9999C19.9695 49.9999 26.1216 49.4129 31.8227 48.2522C34.3767 47.7322 36.2468 46.9063 37.708 45.6528L45.5587 38.9184C46.5801 38.0422 47.1954 36.7685 47.2468 35.4237C47.2981 34.079 46.7818 32.762 45.8303 31.8104ZM31.2076 2.52939C31.2076 1.94238 31.6852 1.46484 32.2722 1.46484H36.4946C37.0816 1.46484 37.5592 1.94238 37.5592 2.52939C37.5592 3.11641 37.0816 3.59395 36.4946 3.59395H32.2722C31.6852 3.59404 31.2076 3.1165 31.2076 2.52939ZM31.4039 9.11689C32.3152 7.92539 32.8817 6.53428 33.064 5.05889H35.703C35.8852 6.53438 36.4518 7.92539 37.3631 9.11689C38.2811 10.3173 38.7868 11.8106 38.7868 13.3218V16.9144H29.9803V13.3218C29.9802 11.8105 30.4858 10.3173 31.4039 9.11689ZM28.5331 12.8086L23.9863 12.4112C23.6959 12.3858 23.4327 12.2489 23.2453 12.0256C23.0579 11.8022 22.9687 11.5193 22.994 11.2289C23.0464 10.6293 23.5762 10.1839 24.1764 10.2366L27.2969 10.5094C27.7431 10.9759 28.1867 11.4672 28.6248 11.9817C28.5803 12.2553 28.5504 12.5313 28.5331 12.8086ZM16.4238 5.35908C18.3002 4.07754 21.9272 5.56504 25.6323 8.89336L24.3039 8.77725C22.8991 8.6543 21.6575 9.69707 21.5347 11.1013C21.4753 11.7814 21.6843 12.4441 22.1232 12.9672C22.5622 13.4902 23.1785 13.811 23.8588 13.8705L28.5152 14.2774V16.9143H17.0619C14.6284 11.4882 14.3552 6.77227 16.4238 5.35908Z" fill="#FA8507"/>
</svg>
