<svg width="44" height="44" viewBox="0 0 44 44" fill="none" xmlns="http://www.w3.org/2000/svg">
<path d="M43.1191 31.7217H33.5079C33.9005 31.124 34.1296 30.41 34.1296 29.643C34.1296 28.4241 33.5517 27.3383 32.6562 26.6429V23.827L33.0867 24.2576C33.2545 24.4253 33.4745 24.5093 33.6944 24.5093C33.9143 24.5093 34.1342 24.4253 34.302 24.2576L37.6801 20.8796C37.8412 20.7184 37.9318 20.4999 37.9318 20.272C37.9318 20.0441 37.8412 19.8255 37.6801 19.6643L34.302 16.2863C34.1408 16.1251 33.9223 16.0346 33.6944 16.0346C33.4665 16.0346 33.2478 16.1251 33.0867 16.2863L32.6562 16.7168V4.64062C32.6562 4.16608 32.2713 3.78125 31.7968 3.78125H29.0531V3.10011C29.0532 1.39073 27.6626 0 25.9531 0C24.2437 0 22.853 1.39073 22.853 3.10011V3.78125H19.4282V3.10011C19.4282 1.39073 18.0376 0 16.3281 0C14.6187 0 13.228 1.39073 13.228 3.10011V3.78125H9.80323V3.10011C9.80323 1.39073 8.41259 0 6.70312 0C4.99366 0 3.60302 1.39073 3.60302 3.10011V3.78125H0.859375C0.384828 3.78125 0 4.16608 0 4.64062V43.1406C0 43.6152 0.384828 44 0.859375 44H12.4612C12.9357 44 13.3206 43.6152 13.3206 43.1406C13.3206 42.6661 12.9357 42.2812 12.4612 42.2812H1.71875V5.5H8.08448V6.18114C8.08448 6.9428 7.46479 7.5625 6.70312 7.5625C6.22858 7.5625 5.84375 7.94733 5.84375 8.42188C5.84375 8.89642 6.22858 9.28125 6.70312 9.28125C8.41259 9.28125 9.80323 7.89052 9.80323 6.18114V5.5H17.7095V6.18114C17.7095 6.9428 17.0898 7.5625 16.3281 7.5625C15.8536 7.5625 15.4688 7.94733 15.4688 8.42188C15.4688 8.89642 15.8536 9.28125 16.3281 9.28125C18.0376 9.28125 19.4282 7.89052 19.4282 6.18114V5.5H27.3345V6.18114C27.3345 6.9428 26.7148 7.5625 25.9531 7.5625C25.4786 7.5625 25.0938 7.94733 25.0938 8.42188C25.0938 8.89642 25.4786 9.28125 25.9531 9.28125C27.6626 9.28125 29.0532 7.89052 29.0532 6.18114V5.5H30.9375V18.4357L29.7089 19.6643C29.3733 19.9999 29.3733 20.544 29.7089 20.8797L30.9375 22.1084V25.8945C30.7404 25.8628 30.5383 25.8457 30.3323 25.8457C28.2385 25.8457 26.5349 27.5492 26.5349 29.6431C26.5349 30.41 26.7641 31.1241 27.1567 31.7218H22C21.5255 31.7218 21.1406 32.1066 21.1406 32.5811C21.1406 36.6706 23.3019 40.2641 26.5417 42.2813H20.1953C19.7208 42.2813 19.3359 42.6662 19.3359 43.1407C19.3359 43.6153 19.7208 44.0001 20.1953 44.0001H32.5596C38.856 44.0001 43.9785 38.8776 43.9785 32.5811C43.9785 32.1065 43.5937 31.7217 43.1191 31.7217ZM5.32177 3.78125V3.10011C5.32177 2.33845 5.94146 1.71875 6.70312 1.71875C7.46479 1.71875 8.08448 2.33845 8.08448 3.10011V3.78125H5.32177ZM14.9468 3.78125V3.10011C14.9468 2.33845 15.5665 1.71875 16.3281 1.71875C17.0898 1.71875 17.7095 2.33845 17.7095 3.10011V3.78125H14.9468ZM24.5718 3.78125V3.10011C24.5718 2.33845 25.1915 1.71875 25.9531 1.71875C26.7148 1.71875 27.3345 2.33845 27.3345 3.10011V3.78125H24.5718ZM33.6945 18.1094L35.8571 20.2721L33.6945 22.4347L31.5318 20.2721L33.6945 18.1094ZM28.2538 29.6431C28.2538 28.497 29.1863 27.5645 30.3324 27.5645C31.4786 27.5645 32.4111 28.497 32.4111 29.6431C32.4111 30.7893 31.4786 31.7218 30.3324 31.7218C29.1863 31.7218 28.2538 30.7892 28.2538 29.6431ZM32.5596 42.2812C27.5004 42.2812 23.3335 38.3881 22.8971 33.4404H42.222C41.7856 38.3881 37.6187 42.2812 32.5596 42.2812Z" fill="#FA8507"/>
<path d="M36.0086 28.6319C36.8927 29.516 38.0684 30.0029 39.3187 30.0029C40.5691 30.0029 41.7447 29.516 42.6289 28.6319C43.5131 27.7478 43.9998 26.5721 43.9998 25.3217C43.9998 24.0714 43.5129 22.8958 42.6288 22.0116C42.2931 21.6761 41.7491 21.6761 41.4134 22.0116L36.0085 27.4165C35.6729 27.7521 35.6729 28.2963 36.0086 28.6319ZM41.9312 23.9246C42.53 25.0453 42.3573 26.4727 41.4135 27.4166C40.4698 28.3604 39.0422 28.5331 37.9215 27.9343L41.9312 23.9246Z" fill="#FA8507"/>
<path d="M23.7036 16.5109C23.2291 16.5109 22.8442 16.8958 22.8442 17.3703V17.7096C22.2746 17.8776 21.7616 18.2108 21.3724 18.6793C20.7949 19.3747 20.5588 20.2832 20.7248 21.1717L21.5789 25.7461C21.7699 26.7687 22.6633 27.5108 23.7036 27.5108C24.7439 27.5108 25.6374 26.7687 25.8283 25.7462L26.6825 21.1717C26.8484 20.2832 26.6123 19.3747 26.0349 18.6793C25.6456 18.2107 25.1327 17.8775 24.563 17.7096V17.3703C24.563 16.8957 24.1783 16.5109 23.7036 16.5109ZM24.7126 19.7775C24.9625 20.0784 25.0648 20.4717 24.9929 20.8563L24.1388 25.4308C24.0997 25.6402 23.9167 25.7922 23.7037 25.7922C23.4908 25.7922 23.3077 25.6402 23.2686 25.4307L22.4145 20.8563C22.3426 20.4716 22.4449 20.0784 22.6948 19.7775C22.9448 19.4765 23.3125 19.3039 23.7038 19.3039C24.0951 19.3039 24.4626 19.4765 24.7126 19.7775Z" fill="#FA8507"/>
<path d="M6.96687 13.9734C6.80711 13.8127 6.58539 13.7216 6.35938 13.7216C6.13336 13.7216 5.91164 13.8127 5.7518 13.9734C5.59195 14.1333 5.5 14.355 5.5 14.581C5.5 14.807 5.59187 15.0279 5.7518 15.1886C5.91164 15.3484 6.13336 15.4404 6.35938 15.4404C6.58539 15.4404 6.80711 15.3484 6.96687 15.1886C7.12671 15.0279 7.21875 14.807 7.21875 14.581C7.21875 14.355 7.1268 14.1333 6.96687 13.9734Z" fill="#FA8507"/>
<path d="M18.2249 13.7214H10.6274C10.1529 13.7214 9.76807 14.1062 9.76807 14.5807C9.76807 15.0553 10.1529 15.4401 10.6274 15.4401H18.2249C18.6995 15.4401 19.0843 15.0553 19.0843 14.5807C19.0843 14.1062 18.6995 13.7214 18.2249 13.7214Z" fill="#FA8507"/>
<path d="M6.96687 20.1128C6.80711 19.953 6.58539 19.8609 6.35938 19.8609C6.13336 19.8609 5.91164 19.9529 5.7518 20.1128C5.59195 20.2726 5.5 20.4943 5.5 20.7203C5.5 20.9464 5.59187 21.168 5.7518 21.3279C5.91173 21.4877 6.13336 21.5797 6.35938 21.5797C6.58539 21.5797 6.80711 21.4878 6.96687 21.3279C7.12671 21.168 7.21875 20.9464 7.21875 20.7203C7.21875 20.4943 7.1268 20.2726 6.96687 20.1128Z" fill="#FA8507"/>
<path d="M18.2249 19.8611H10.6274C10.1529 19.8611 9.76807 20.2459 9.76807 20.7205C9.76807 21.195 10.1529 21.5798 10.6274 21.5798H18.2249C18.6995 21.5798 19.0843 21.195 19.0843 20.7205C19.0843 20.2459 18.6995 19.8611 18.2249 19.8611Z" fill="#FA8507"/>
<path d="M6.96687 26.2521C6.80711 26.0923 6.58539 26.0012 6.35938 26.0012C6.13336 26.0012 5.91164 26.0923 5.7518 26.2521C5.59195 26.4128 5.5 26.6345 5.5 26.8605C5.5 27.0866 5.59187 27.3074 5.7518 27.4673C5.91164 27.628 6.13336 27.7199 6.35938 27.7199C6.58539 27.7199 6.80711 27.628 6.96687 27.4673C7.12671 27.3075 7.21875 27.0866 7.21875 26.8605C7.21875 26.6345 7.1268 26.4129 6.96687 26.2521Z" fill="#FA8507"/>
<path d="M18.2249 26.0009H10.6274C10.1529 26.0009 9.76807 26.3857 9.76807 26.8603C9.76807 27.3348 10.1529 27.7197 10.6274 27.7197H18.2249C18.6995 27.7197 19.0843 27.3348 19.0843 26.8603C19.0843 26.3857 18.6995 26.0009 18.2249 26.0009Z" fill="#FA8507"/>
<path d="M6.35938 32.1406C6.13336 32.1406 5.91164 32.2325 5.7518 32.3924C5.59195 32.5524 5.5 32.774 5.5 33C5.5 33.226 5.59187 33.4477 5.7518 33.6075C5.91164 33.7674 6.13336 33.8594 6.35938 33.8594C6.58539 33.8594 6.80711 33.7674 6.96687 33.6075C7.1268 33.4477 7.21875 33.226 7.21875 33C7.21875 32.774 7.1268 32.5523 6.96687 32.3924C6.80711 32.2325 6.58539 32.1406 6.35938 32.1406Z" fill="#FA8507"/>
<path d="M18.2249 32.1406H10.6274C10.1529 32.1406 9.76807 32.5255 9.76807 33C9.76807 33.4745 10.1529 33.8594 10.6274 33.8594H18.2249C18.6995 33.8594 19.0843 33.4745 19.0843 33C19.0843 32.5255 18.6995 32.1406 18.2249 32.1406Z" fill="#FA8507"/>
<path d="M16.3281 42.2812C16.1021 42.2812 15.8804 42.3731 15.7205 42.533C15.5607 42.693 15.4688 42.9146 15.4688 43.1406C15.4688 43.3666 15.5606 43.5884 15.7205 43.7481C15.8804 43.908 16.1021 44 16.3281 44C16.5541 44 16.7759 43.908 16.9356 43.7481C17.0955 43.5884 17.1875 43.3666 17.1875 43.1406C17.1875 42.9146 17.0955 42.6929 16.9356 42.533C16.7759 42.3731 16.5541 42.2812 16.3281 42.2812Z" fill="#FA8507"/>
</svg>
