<svg width="50" height="50" viewBox="0 0 50 50" fill="none" xmlns="http://www.w3.org/2000/svg">
<path fill-rule="evenodd" clip-rule="evenodd" d="M19.4611 43.1138H20.0599C21.2575 43.4132 22.1557 44.6108 23.0539 45.8084C23.6527 46.4072 24.5509 47.6048 24.8503 47.6048C25.4491 47.6048 26.3473 46.4072 26.9461 45.8084C27.8443 44.6108 28.7425 43.4132 29.9401 43.1138C31.1377 42.8144 32.3353 43.4132 33.8323 44.012C34.7305 44.3114 35.9281 44.9102 36.2275 44.6108C36.8263 44.3114 36.8263 43.1138 37.1257 42.2156C37.1257 40.7186 37.4251 39.2216 38.3234 38.3234C39.2216 37.4251 40.7186 37.1257 42.2156 37.1257C43.1138 36.8263 44.3114 36.8263 44.6108 36.2275C44.9102 35.9281 44.3114 34.7305 44.012 33.8323C43.4132 32.3353 42.8144 31.1377 43.1138 29.9401C43.4132 28.7425 44.6108 27.8443 45.8084 26.9461C46.4072 26.3473 47.6048 25.4491 47.6048 24.8503C47.6048 24.5509 46.4072 23.6527 45.8084 23.0539C44.6108 22.1557 43.4132 21.2575 43.1138 20.0599C42.8144 18.8623 43.4132 17.3653 44.012 16.1677C44.3114 15.2695 44.9102 14.0719 44.6108 13.4731C44.3114 13.1737 43.1138 12.8743 42.2156 12.8743C40.7186 12.5749 39.2216 12.5749 38.3234 11.6766C37.4251 10.7784 37.1257 9.28144 37.1257 7.78443C36.8263 6.88623 36.8263 5.38922 36.2275 5.08982C35.9281 5.08982 34.7305 5.68862 33.8323 5.98802C32.3353 6.58683 31.1377 7.18563 29.9401 6.88623C28.7425 6.58683 27.8443 5.38922 26.9461 4.19162C26.3473 3.29341 25.4491 2.09581 24.8503 2.09581C24.5509 2.09581 23.6527 3.29341 23.0539 4.19162C22.1557 5.38922 21.2575 6.58683 20.0599 6.88623C18.8623 7.18563 17.3653 6.58683 16.1677 5.98802C15.2695 5.68862 14.0719 5.08982 13.4731 5.08982C13.1737 5.38922 12.8743 6.88623 12.8743 7.78443C12.5749 9.28144 12.5749 10.7784 11.6766 11.6766C10.7784 12.5749 9.28144 12.5749 7.78443 12.8743C6.88623 12.8743 5.38922 13.1737 5.08982 13.4731C5.08982 14.0719 5.68862 15.2695 5.98802 16.1677C6.58683 17.3653 7.18563 18.8623 6.88623 20.0599C6.58683 21.2575 5.38922 22.1557 4.19162 23.0539C3.29341 23.6527 2.09581 24.5509 2.09581 24.8503C2.09581 25.4491 3.29341 26.3473 4.19162 26.9461C5.38922 27.8443 6.58683 28.7425 6.88623 29.9401C7.18563 31.1377 6.58683 32.3353 5.98802 33.8323C5.68862 34.7305 5.08982 35.9281 5.08982 36.2275C5.38922 36.8263 6.88623 36.8263 7.78443 37.1257C9.28144 37.1257 10.7784 37.4251 11.6766 38.3234C12.5749 39.2216 12.5749 40.7186 12.8743 42.2156C12.8743 43.1138 13.1737 44.3114 13.4731 44.6108C14.0719 44.9102 15.2695 44.3114 16.1677 44.012C17.0659 43.4132 18.2635 43.1138 19.4611 43.1138ZM24.8503 50C23.3533 50 22.1557 48.503 21.2575 47.006C20.6587 46.4072 20.0599 45.2096 19.4611 45.2096C18.8623 45.2096 17.9641 45.509 17.0659 46.1078C15.2695 46.7066 13.7725 47.3054 12.5749 46.7066C11.0778 45.8084 10.7784 44.012 10.7784 42.2156C10.479 41.3174 10.479 40.1198 10.1796 39.8204C9.88024 39.521 8.68263 39.2216 7.48503 39.2216C5.98802 38.9222 4.19162 38.9222 3.29341 37.4251C2.69461 36.2275 3.29341 34.4311 3.89222 32.9341C4.19162 32.0359 4.79042 30.8383 4.79042 30.2395C4.49102 29.9401 3.59281 29.3413 2.69461 28.7425C1.49701 27.5449 0 26.6467 0 24.8503C0 23.3533 1.49701 22.1557 2.69461 21.2575C3.59281 20.6587 4.49102 20.0599 4.79042 19.4611C4.79042 18.8623 4.19162 17.9641 3.89222 17.0659C3.29341 15.2695 2.69461 13.7725 3.29341 12.5749C4.19162 11.0778 5.98802 10.7784 7.48503 10.7784C8.68263 10.479 9.88024 10.479 10.1796 10.1796C10.479 9.88024 10.479 8.68263 10.7784 7.48503C10.7784 5.98802 11.0778 4.19162 12.5749 3.29341C13.7725 2.69461 15.5689 3.29341 17.0659 3.89222C17.9641 4.19162 18.8623 4.79042 19.4611 4.79042C20.0599 4.49102 20.6587 3.59281 21.2575 2.69461C22.1557 1.49701 23.3533 0 24.8503 0C26.6467 0 27.5449 1.49701 28.7425 2.69461C29.3413 3.59281 29.9401 4.49102 30.2395 4.79042C30.8383 4.79042 32.0359 4.19162 32.9341 3.89222C34.4311 3.29341 36.2275 2.69461 37.4251 3.29341C38.9222 4.19162 38.9222 5.98802 39.2216 7.48503C39.2216 8.68263 39.521 9.88024 39.8204 10.1796C40.1198 10.479 41.3174 10.479 42.2156 10.7784C44.012 10.7784 45.8084 11.0778 46.7066 12.5749C47.3054 13.7725 46.7066 15.2695 46.1078 17.0659C45.509 17.9641 45.2096 18.8623 45.2096 19.4611C45.2096 20.0599 46.4072 20.6587 47.006 21.2575C48.503 22.1557 50 23.3533 50 24.8503C50 26.6467 48.503 27.5449 47.006 28.7425C46.4072 29.3413 45.2096 29.9401 45.2096 30.2395C45.2096 30.8383 45.509 32.0359 46.1078 32.9341C46.7066 34.4311 47.3054 36.2275 46.7066 37.4251C45.8084 38.9222 44.012 38.9222 42.2156 39.2216C41.3174 39.2216 40.1198 39.521 39.8204 39.8204C39.521 40.1198 39.2216 41.3174 39.2216 42.2156C38.9222 44.012 38.9222 45.8084 37.4251 46.7066C36.2275 47.3054 34.4311 46.7066 32.9341 46.1078C32.0359 45.509 30.8383 45.2096 30.2395 45.2096C29.9401 45.2096 29.3413 46.4072 28.7425 47.006C27.5449 48.503 26.6467 50 24.8503 50Z" fill="#FA8507"/>
<path fill-rule="evenodd" clip-rule="evenodd" d="M20.3595 11.6767C21.8565 11.6767 23.3535 12.2755 24.5511 13.1737C25.4493 14.3713 26.0481 15.8683 26.0481 17.3653C26.0481 18.8623 25.4493 20.3593 24.5511 21.2575C23.3535 22.4551 21.8565 23.0539 20.3595 23.0539C18.8625 23.0539 17.3655 22.4551 16.4673 21.2575C15.2697 20.3593 14.6709 18.8623 14.6709 17.3653C14.6709 15.8683 15.2697 14.3713 16.4673 13.1737C17.3655 12.2755 18.8625 11.6767 20.3595 11.6767ZM22.7547 14.9701C22.1559 14.0719 21.2577 13.7725 20.3595 13.7725C19.4613 13.7725 18.5631 14.0719 17.9643 14.9701C17.3655 15.5689 17.0661 16.4671 17.0661 17.3653C17.0661 18.2635 17.3655 19.1617 17.9643 19.7605C18.5631 20.3593 19.4613 20.6587 20.3595 20.6587C21.2577 20.6587 22.1559 20.3593 22.7547 19.7605C23.3535 19.1617 23.9523 18.2635 23.9523 17.3653C23.9523 16.4671 23.3535 15.5689 22.7547 14.9701ZM29.3416 28.1437C31.138 28.1437 32.3356 28.7425 33.5332 29.6407C34.7308 30.8383 35.3296 32.3353 35.3296 33.8323C35.3296 35.3293 34.7308 36.8264 33.5332 37.7246C32.3356 38.9222 31.138 39.521 29.3416 39.521C27.8446 39.521 26.6469 38.9222 25.4493 37.7246C24.2517 36.8264 23.6529 35.3293 23.6529 33.8323C23.6529 32.3353 24.2517 30.8383 25.4493 29.6407C26.6469 28.7425 27.8446 28.1437 29.3416 28.1437ZM32.0362 31.4371C31.138 30.8383 30.5392 30.5389 29.3416 30.5389C28.4434 30.5389 27.8446 30.8383 26.9463 31.4371C26.3475 32.0359 26.0481 32.9341 26.0481 33.8323C26.0481 34.7305 26.3475 35.6287 26.9463 36.2275C27.8446 36.8264 28.4434 37.1258 29.3416 37.1258C30.5392 37.1258 31.138 36.8264 32.0362 36.2275C32.635 35.6287 32.9344 34.7305 32.9344 33.8323C32.9344 32.9341 32.635 32.0359 32.0362 31.4371ZM32.635 10.479C32.9344 9.88024 33.5332 9.58084 34.132 9.88024C34.7308 10.1796 35.0302 10.7784 34.4314 11.3772L17.6649 39.521C17.3655 40.1198 16.4673 40.4192 15.8685 40.1198C15.2697 39.8204 15.2697 38.9222 15.5691 38.3234L32.635 10.479Z" fill="#FA8507"/>
</svg>
