<svg width="50" height="50" viewBox="0 0 50 50" fill="none" xmlns="http://www.w3.org/2000/svg">
<path fill-rule="evenodd" clip-rule="evenodd" d="M19.4611 43.1138H20.0599C21.2575 43.4132 22.1557 44.6108 23.0539 45.8084C23.6527 46.4072 24.5509 47.6048 24.8503 47.6048C25.4491 47.6048 26.3473 46.4072 26.9461 45.8084C27.8443 44.6108 28.7425 43.4132 29.9401 43.1138C31.1377 42.8144 32.3353 43.4132 33.8323 44.012C34.7305 44.3114 35.9281 44.9102 36.2275 44.6108C36.8263 44.3114 36.8263 43.1138 37.1257 42.2156C37.1257 40.7186 37.4251 39.2216 38.3234 38.3234C39.2216 37.4251 40.7186 37.1257 42.2156 37.1257C43.1138 36.8263 44.3114 36.8263 44.6108 36.2275C44.9102 35.9281 44.3114 34.7305 44.012 33.8323C43.4132 32.3353 42.8144 31.1377 43.1138 29.9401C43.4132 28.7425 44.6108 27.8443 45.8084 26.9461C46.4072 26.3473 47.6048 25.4491 47.6048 24.8503C47.6048 24.5509 46.4072 23.6527 45.8084 23.0539C44.6108 22.1557 43.4132 21.2575 43.1138 20.0599C42.8144 18.8623 43.4132 17.3653 44.012 16.1677C44.3114 15.2695 44.9102 14.0719 44.6108 13.4731C44.3114 13.1737 43.1138 12.8743 42.2156 12.8743C40.7186 12.5749 39.2216 12.5749 38.3234 11.6766C37.4251 10.7784 37.1257 9.28144 37.1257 7.78443C36.8263 6.88623 36.8263 5.38922 36.2275 5.08982C35.9281 5.08982 34.7305 5.68862 33.8323 5.98802C32.3353 6.58683 31.1377 7.18563 29.9401 6.88623C28.7425 6.58683 27.8443 5.38922 26.9461 4.19162C26.3473 3.29341 25.4491 2.09581 24.8503 2.09581C24.5509 2.09581 23.6527 3.29341 23.0539 4.19162C22.1557 5.38922 21.2575 6.58683 20.0599 6.88623C18.8623 7.18563 17.3653 6.58683 16.1677 5.98802C15.2695 5.68862 14.0719 5.08982 13.4731 5.08982C13.1737 5.38922 12.8743 6.88623 12.8743 7.78443C12.5749 9.28144 12.5749 10.7784 11.6766 11.6766C10.7784 12.5749 9.28144 12.5749 7.78443 12.8743C6.88623 12.8743 5.38922 13.1737 5.08982 13.4731C5.08982 14.0719 5.68862 15.2695 5.98802 16.1677C6.58683 17.3653 7.18563 18.8623 6.88623 20.0599C6.58683 21.2575 5.38922 22.1557 4.19162 23.0539C3.29341 23.6527 2.09581 24.5509 2.09581 24.8503C2.09581 25.4491 3.29341 26.3473 4.19162 26.9461C5.38922 27.8443 6.58683 28.7425 6.88623 29.9401C7.18563 31.1377 6.58683 32.3353 5.98802 33.8323C5.68862 34.7305 5.08982 35.9281 5.08982 36.2275C5.38922 36.8263 6.88623 36.8263 7.78443 37.1257C9.28144 37.1257 10.7784 37.4251 11.6766 38.3234C12.5749 39.2216 12.5749 40.7186 12.8743 42.2156C12.8743 43.1138 13.1737 44.3114 13.4731 44.6108C14.0719 44.9102 15.2695 44.3114 16.1677 44.012C17.0659 43.4132 18.2635 43.1138 19.4611 43.1138ZM24.8503 50C23.3533 50 22.1557 48.503 21.2575 47.006C20.6587 46.4072 20.0599 45.2096 19.4611 45.2096C18.8623 45.2096 17.9641 45.509 17.0659 46.1078C15.2695 46.7066 13.7725 47.3054 12.5749 46.7066C11.0778 45.8084 10.7784 44.012 10.7784 42.2156C10.479 41.3174 10.479 40.1198 10.1796 39.8204C9.88024 39.521 8.68263 39.2216 7.48503 39.2216C5.98802 38.9222 4.19162 38.9222 3.29341 37.4251C2.69461 36.2275 3.29341 34.4311 3.89222 32.9341C4.19162 32.0359 4.79042 30.8383 4.79042 30.2395C4.49102 29.9401 3.59281 29.3413 2.69461 28.7425C1.49701 27.5449 0 26.6467 0 24.8503C0 23.3533 1.49701 22.1557 2.69461 21.2575C3.59281 20.6587 4.49102 20.0599 4.79042 19.4611C4.79042 18.8623 4.19162 17.9641 3.89222 17.0659C3.29341 15.2695 2.69461 13.7725 3.29341 12.5749C4.19162 11.0778 5.98802 10.7784 7.48503 10.7784C8.68263 10.479 9.88024 10.479 10.1796 10.1796C10.479 9.88024 10.479 8.68263 10.7784 7.48503C10.7784 5.98802 11.0778 4.19162 12.5749 3.29341C13.7725 2.69461 15.5689 3.29341 17.0659 3.89222C17.9641 4.19162 18.8623 4.79042 19.4611 4.79042C20.0599 4.49102 20.6587 3.59281 21.2575 2.69461C22.1557 1.49701 23.3533 0 24.8503 0C26.6467 0 27.5449 1.49701 28.7425 2.69461C29.3413 3.59281 29.9401 4.49102 30.2395 4.79042C30.8383 4.79042 32.0359 4.19162 32.9341 3.89222C34.4311 3.29341 36.2275 2.69461 37.4251 3.29341C38.9222 4.19162 38.9222 5.98802 39.2216 7.48503C39.2216 8.68263 39.521 9.88024 39.8204 10.1796C40.1198 10.479 41.3174 10.479 42.2156 10.7784C44.012 10.7784 45.8084 11.0778 46.7066 12.5749C47.3054 13.7725 46.7066 15.2695 46.1078 17.0659C45.509 17.9641 45.2096 18.8623 45.2096 19.4611C45.2096 20.0599 46.4072 20.6587 47.006 21.2575C48.503 22.1557 50 23.3533 50 24.8503C50 26.6467 48.503 27.5449 47.006 28.7425C46.4072 29.3413 45.2096 29.9401 45.2096 30.2395C45.2096 30.8383 45.509 32.0359 46.1078 32.9341C46.7066 34.4311 47.3054 36.2275 46.7066 37.4251C45.8084 38.9222 44.012 38.9222 42.2156 39.2216C41.3174 39.2216 40.1198 39.521 39.8204 39.8204C39.521 40.1198 39.2216 41.3174 39.2216 42.2156C38.9222 44.012 38.9222 45.8084 37.4251 46.7066C36.2275 47.3054 34.4311 46.7066 32.9341 46.1078C32.0359 45.509 30.8383 45.2096 30.2395 45.2096C29.9401 45.2096 29.3413 46.4072 28.7425 47.006C27.5449 48.503 26.6467 50 24.8503 50Z" fill="#C59D5F"/>
<path fill-rule="evenodd" clip-rule="evenodd" d="M20.3593 11.6766C21.8563 11.6766 23.3533 12.2754 24.5509 13.1736C25.4491 14.3712 26.0479 15.8682 26.0479 17.3652C26.0479 18.8622 25.4491 20.3592 24.5509 21.2574C23.3533 22.455 21.8563 23.0538 20.3593 23.0538C18.8623 23.0538 17.3653 22.455 16.4671 21.2574C15.2695 20.3592 14.6707 18.8622 14.6707 17.3652C14.6707 15.8682 15.2695 14.3712 16.4671 13.1736C17.3653 12.2754 18.8623 11.6766 20.3593 11.6766ZM22.7545 14.97C22.1557 14.0718 21.2575 13.7724 20.3593 13.7724C19.4611 13.7724 18.5629 14.0718 17.9641 14.97C17.3653 15.5688 17.0659 16.467 17.0659 17.3652C17.0659 18.2634 17.3653 19.1616 17.9641 19.7604C18.5629 20.3592 19.4611 20.6586 20.3593 20.6586C21.2575 20.6586 22.1557 20.3592 22.7545 19.7604C23.3533 19.1616 23.9521 18.2634 23.9521 17.3652C23.9521 16.467 23.3533 15.5688 22.7545 14.97ZM29.3413 28.1436C31.1377 28.1436 32.3353 28.7424 33.5329 29.6406C34.7305 30.8382 35.3293 32.3352 35.3293 33.8322C35.3293 35.3293 34.7305 36.8263 33.5329 37.7245C32.3353 38.9221 31.1377 39.5209 29.3413 39.5209C27.8443 39.5209 26.6467 38.9221 25.4491 37.7245C24.2515 36.8263 23.6527 35.3293 23.6527 33.8322C23.6527 32.3352 24.2515 30.8382 25.4491 29.6406C26.6467 28.7424 27.8443 28.1436 29.3413 28.1436ZM32.0359 31.437C31.1377 30.8382 30.5389 30.5388 29.3413 30.5388C28.4431 30.5388 27.8443 30.8382 26.9461 31.437C26.3473 32.0358 26.0479 32.934 26.0479 33.8322C26.0479 34.7304 26.3473 35.6287 26.9461 36.2275C27.8443 36.8263 28.4431 37.1257 29.3413 37.1257C30.5389 37.1257 31.1377 36.8263 32.0359 36.2275C32.6347 35.6287 32.9341 34.7304 32.9341 33.8322C32.9341 32.934 32.6347 32.0358 32.0359 31.437ZM32.6347 10.479C32.9341 9.88015 33.5329 9.58075 34.1317 9.88015C34.7305 10.1796 35.0299 10.7784 34.4311 11.3772L17.6647 39.5209C17.3653 40.1197 16.4671 40.4191 15.8683 40.1197C15.2695 39.8203 15.2695 38.9221 15.5689 38.3233L32.6347 10.479Z" fill="#C59D5F"/>
</svg>
