<svg width="46" height="40" viewBox="0 0 46 40" fill="none" xmlns="http://www.w3.org/2000/svg">
<path d="M42.2625 39.1386H13.6152C11.83 39.1386 10.3779 37.6861 10.3779 35.9009C10.3779 34.1157 11.83 32.6636 13.6152 32.6636H42.2625C44.0477 32.6636 45.5 34.1157 45.5 35.9009C45.5 37.6861 44.0477 39.1386 42.2625 39.1386ZM13.6152 34.1526C12.6513 34.1526 11.8669 34.937 11.8669 35.9009C11.8669 36.8651 12.6513 37.6495 13.6152 37.6495H42.2625C43.2264 37.6495 44.0108 36.8651 44.0108 35.9009C44.0108 34.937 43.2264 34.1526 42.2625 34.1526H13.6152Z" fill="#FA8507"/>
<path d="M42.5673 34.1526C42.1561 34.1526 41.8228 33.8193 41.8228 33.4081C41.8228 26.7973 37.1222 21.0701 30.6461 19.7903C30.2578 19.7138 29.9972 19.3465 30.0534 18.9547C30.0723 18.8233 30.0874 18.7363 30.0874 18.6461C30.0874 17.4616 29.1238 16.4979 27.9392 16.4979C26.7546 16.4979 25.791 17.4615 25.791 18.6461C25.791 18.7363 25.806 18.8233 25.8186 18.9102C25.8755 19.3026 25.6211 19.7135 25.2322 19.7903C18.756 21.0701 14.0554 26.797 14.0554 33.4081C14.0554 33.8193 13.7221 34.1526 13.3109 34.1526C12.8997 34.1526 12.5664 33.8193 12.5664 33.4081C12.5664 26.3069 17.4657 20.1269 24.3062 18.4696C24.3984 16.5457 25.9925 15.0089 27.9392 15.0089C29.8858 15.0089 31.4799 16.5457 31.5721 18.4696C38.4127 20.1269 43.3119 26.3069 43.3119 33.4081C43.3118 33.8193 42.9785 34.1526 42.5673 34.1526Z" fill="#FA8507"/>
<path d="M18.4151 23.0523C18.3345 23.0523 18.2525 23.0389 18.172 23.0113C13.5863 21.4271 10.5054 17.1014 10.5054 12.2469C10.5054 5.96879 15.6132 0.861389 21.8913 0.861389C28.1695 0.861389 33.2769 5.96889 33.2769 12.2469C33.2769 12.9482 33.2127 13.65 33.0861 14.3326C33.0113 14.7369 32.6222 15.0023 32.2182 14.9288C31.8139 14.8538 31.5469 14.4652 31.6219 14.061C31.7318 13.4676 31.7878 12.8575 31.7878 12.2469C31.7878 6.78989 27.3484 2.35049 21.8913 2.35049C16.4343 2.35049 11.9945 6.78989 11.9945 12.2469C11.9945 16.4667 14.6726 20.2267 18.6583 21.6036C19.0469 21.738 19.253 22.1621 19.1189 22.5506C19.0125 22.8586 18.7237 23.0523 18.4151 23.0523Z" fill="#FA8507"/>
<path d="M29.5957 12.9916C29.1845 12.9916 28.8512 12.6583 28.8512 12.247C28.8512 8.40908 25.7291 5.28658 21.891 5.28658C21.4798 5.28658 21.1465 4.95328 21.1465 4.54208C21.1465 4.13088 21.4798 3.79758 21.891 3.79758C26.55 3.79758 30.3402 7.58808 30.3402 12.2471C30.3402 12.6583 30.0069 12.9916 29.5957 12.9916Z" fill="#FA8507"/>
<path d="M19.0147 15.8683C18.8241 15.8683 18.6337 15.7956 18.4882 15.6502C18.1973 15.3594 18.1973 14.8882 18.4882 14.5973L21.1468 11.9387V7.53478C21.1468 7.12358 21.4801 6.79028 21.8913 6.79028C22.3025 6.79028 22.6358 7.12358 22.6358 7.53478V12.247C22.6358 12.4445 22.5573 12.6339 22.4177 12.7735L19.5409 15.6502C19.3956 15.7956 19.2051 15.8683 19.0147 15.8683Z" fill="#FA8507"/>
<path d="M8.1366 14.8407H1.2445C0.8333 14.8407 0.5 14.5074 0.5 14.0961C0.5 13.6849 0.8333 13.3516 1.2445 13.3516H8.1366C8.5478 13.3516 8.8811 13.6849 8.8811 14.0961C8.8812 14.5074 8.5479 14.8407 8.1366 14.8407Z" fill="#FA8507"/>
<path d="M9.71668 19.224H2.82458C2.41338 19.224 2.08008 18.8907 2.08008 18.4795C2.08008 18.0683 2.41338 17.735 2.82458 17.735H9.71668C10.1279 17.735 10.4612 18.0683 10.4612 18.4795C10.4612 18.8907 10.1279 19.224 9.71668 19.224Z" fill="#FA8507"/>
<path d="M11.2966 23.6073H4.40466C3.99346 23.6073 3.66016 23.274 3.66016 22.8628C3.66016 22.4516 3.99346 22.1183 4.40466 22.1183H11.2966C11.7078 22.1183 12.0411 22.4516 12.0411 22.8628C12.0411 23.274 11.7078 23.6073 11.2966 23.6073Z" fill="#FA8507"/>
</svg>
