<svg width="50" height="50" viewBox="0 0 50 50" fill="none" xmlns="http://www.w3.org/2000/svg">
<path d="M47.4795 25.1231H38.7222L36.2892 21.9006C39.2853 18.9703 39.9194 15.9798 40.0448 14.601H40.144C41.2621 14.601 42.1718 13.6913 42.1718 12.5732C42.1718 11.4552 41.2621 10.5455 40.144 10.5455H39.8877C39.6009 9.70088 38.8947 8.05215 37.3641 6.40518C34.053 2.84248 29.3453 1.9126 25.7339 1.80703V0.733887C25.7339 0.328516 25.4054 0 25 0C24.5946 0 24.2661 0.328516 24.2661 0.733887V1.80742C21.1666 1.89424 18.4526 2.53398 16.1912 3.71436C15.8319 3.90186 15.6927 4.34521 15.8803 4.70449C16.0678 5.06377 16.5111 5.20293 16.8704 5.01543C19.097 3.85322 21.8321 3.26396 25 3.26396C29.9005 3.26396 33.6802 4.6374 36.2344 7.346C37.3639 8.54395 37.9926 9.75488 38.3182 10.5455H11.6828C12.0844 9.57187 12.9465 7.96006 14.6403 6.51387C14.9485 6.25068 14.9851 5.7875 14.722 5.4792C14.4588 5.171 13.9958 5.13438 13.6873 5.39756C11.4116 7.34033 10.4571 9.52676 10.1118 10.5454H9.85596C8.73789 10.5454 7.82822 11.4551 7.82822 12.5731C7.82822 13.6912 8.73789 14.6009 9.85596 14.6009H9.95518C10.0806 15.9797 10.7146 18.9702 13.7108 21.9005L11.2778 25.123H2.52051C1.13066 25.1231 0 26.254 0 27.6437C0 29.0336 1.13066 30.1643 2.52051 30.1643H2.90166V39.2563C2.90166 39.4871 3.01025 39.7045 3.19492 39.8432C3.88418 40.3605 4.55625 40.8907 5.34121 41.2607V47.2739C5.34121 48.7771 6.57188 50 8.08447 50C9.59707 50 10.8276 48.7771 10.8276 47.2739V41.6465C11.6425 41.3962 12.4228 41.0075 13.1288 40.4775C14.2614 39.6273 15.668 39.1974 17.0872 39.265C17.4938 39.285 17.8359 38.9721 17.8555 38.5673C17.875 38.1624 17.5626 37.8186 17.1577 37.799C15.3968 37.7142 13.6533 38.2487 12.2477 39.3037C10.091 40.9228 7.07822 40.9229 4.92119 39.3037L4.36934 38.8895V30.1643H45.6306V38.8895L45.0787 39.3037C42.922 40.9227 39.9093 40.9229 37.7521 39.3037C35.0765 37.2951 31.339 37.2951 28.6632 39.3037C26.5064 40.9227 23.4937 40.9229 21.3366 39.3037C21.0053 39.0549 20.6512 38.8321 20.2844 38.6415C19.9249 38.4546 19.4817 38.5946 19.2948 38.9544C19.1079 39.3141 19.2479 39.757 19.6077 39.9439C19.9031 40.0975 20.1885 40.2771 20.4557 40.4775C23.1314 42.4861 26.8689 42.4861 29.5443 40.4775C31.7013 38.8586 34.714 38.8584 36.8711 40.4775C37.5771 41.0076 38.3574 41.3963 39.1723 41.6466V47.2739C39.1723 48.7771 40.4028 50 41.9154 50C43.428 50 44.6587 48.7771 44.6587 47.2739V41.2606C45.4436 40.8907 46.1157 40.3605 46.805 39.8433C46.9896 39.7047 47.0983 39.4872 47.0983 39.2563V30.1643H47.4795C48.8693 30.1643 50 29.0336 50 27.6437C50 26.254 48.8693 25.1231 47.4795 25.1231ZM9.35996 41.9432V47.2739C9.35996 47.9678 8.78779 48.5322 8.08447 48.5322C7.38115 48.5322 6.80889 47.9677 6.80889 47.2739V41.7752C7.64316 41.974 8.50713 42.0298 9.35996 41.9432ZM43.191 47.2739C43.191 47.9678 42.6188 48.5322 41.9154 48.5322C41.2121 48.5322 40.6399 47.9677 40.6399 47.2739V41.9433C41.4929 42.0298 42.3568 41.974 43.1909 41.7751V47.2739H43.191ZM9.85606 13.1333C9.54727 13.1333 9.296 12.8821 9.296 12.5732C9.296 12.2645 9.54717 12.0132 9.85606 12.0132H40.144C40.4528 12.0132 40.7041 12.2644 40.7041 12.5732C40.7041 12.882 40.4529 13.1333 40.144 13.1333H9.85606ZM15.0592 22.5508H28.5243C28.9297 22.5508 29.2582 22.2223 29.2582 21.8169C29.2582 21.4115 28.9297 21.083 28.5243 21.083H14.9791C13.0622 19.2922 12.19 17.4766 11.7951 16.2508C11.5792 15.5805 11.4788 15.0106 11.4325 14.6011H38.5672C38.521 15.0111 38.4209 15.5803 38.2049 16.2508C37.5079 18.4138 36.1287 20.0466 35.0207 21.083H31.4596C31.0542 21.083 30.7257 21.4115 30.7257 21.8169C30.7257 22.2223 31.0542 22.5508 31.4596 22.5508H34.9408L36.883 25.1231H13.117L15.0592 22.5508ZM47.4795 28.6966H2.52051C1.94004 28.6966 1.46768 28.2242 1.46768 27.6437C1.46768 27.0632 1.94004 26.5908 2.52051 26.5908H47.4795C48.06 26.5908 48.5323 27.0632 48.5323 27.6437C48.5323 28.2243 48.06 28.6966 47.4795 28.6966Z" fill="#FA8507"/>
</svg>
