<svg width="50" height="50" viewBox="0 0 50 50" fill="none" xmlns="http://www.w3.org/2000/svg">
<g clip-path="url(#clip0_218_64174)">
<path d="M33.5775 21.0371C34.432 21.0371 35.2756 20.7047 35.9056 20.075C36.2171 19.7635 36.2173 19.2583 35.9057 18.9467C35.5943 18.6352 35.0891 18.6351 34.7774 18.9466C34.2713 19.4526 33.4976 19.5855 32.8518 19.2773C32.4543 19.0874 31.9779 19.2557 31.788 19.6533C31.5981 20.0508 31.7665 20.5272 32.1641 20.7171C32.615 20.9324 33.098 21.0371 33.5775 21.0371Z" fill="#FA8507"/>
<path d="M49.7661 9.59864C49.4545 9.28727 48.9495 9.28706 48.6378 9.59864L39.854 18.3823L38.3044 16.8327L47.0882 8.04894C47.3998 7.73725 47.3998 7.23217 47.0882 6.92059C46.7765 6.60912 46.2714 6.60912 45.9598 6.92059L37.1761 15.7044L35.6265 14.1548L44.4102 5.371C44.7218 5.05931 44.7218 4.55424 44.4102 4.24266C44.0986 3.93118 43.5935 3.93118 43.2819 4.24266L34.4981 13.0264L32.9485 11.4768L41.7322 2.69306C42.0438 2.38138 42.0438 1.8763 41.7322 1.56472C41.4205 1.25325 40.9154 1.25325 40.6039 1.56472L31.2566 10.9121C31.2553 10.9134 28.9995 13.1693 28.9995 13.1693C27.2065 14.9622 26.6372 17.6331 27.4977 19.981L25.6794 21.5949C25.3498 21.8874 25.3198 22.3917 25.6122 22.7212C25.7699 22.8989 25.989 22.9894 26.2092 22.9894C26.3976 22.9894 26.5867 22.9231 26.7386 22.7882L28.9835 20.7956C29.2495 20.5594 29.327 20.1759 29.1738 19.855C28.2839 17.9913 28.6671 15.758 30.1277 14.2976L31.8201 12.6053L36.6112 17.3963C36.6126 17.3977 38.7257 19.5106 38.7257 19.5106L37.0332 21.2031C35.5729 22.6636 33.3396 23.0471 31.4758 22.157C31.1548 22.0037 30.7714 22.0812 30.5353 22.3473L28.7061 24.4081C28.4137 24.7377 28.4437 25.2419 28.7732 25.5345C28.9251 25.6693 29.1142 25.7356 29.3026 25.7356C29.5227 25.7356 29.7419 25.645 29.8996 25.4674L31.3499 23.8335C32.0725 24.0983 32.8253 24.2276 33.5741 24.2276C35.2583 24.2274 36.9205 23.5727 38.1616 22.3317L40.4175 20.0758C40.4191 20.0741 49.7662 10.7272 49.7662 10.7272C50.0777 10.4154 50.0777 9.91032 49.7661 9.59864Z" fill="#FA8507"/>
<path d="M22.2009 32.9389C21.8715 32.6464 21.3671 32.6764 21.0746 33.006L9.541 46.0005C9.53706 46.0049 9.53312 46.0094 9.52929 46.014C9.47206 46.0815 9.41696 46.1415 9.36079 46.1977C8.79614 46.7625 8.04555 47.0733 7.24697 47.0733C6.44851 47.0733 5.69791 46.7624 5.13326 46.1977C3.96769 45.0322 3.96769 43.1356 5.13326 41.9702C5.18932 41.914 5.24942 41.8589 5.31697 41.8017C5.32155 41.7978 5.32602 41.7939 5.33048 41.79L18.5687 30.0399C18.8982 29.7473 18.9282 29.2431 18.6358 28.9136C18.3432 28.5839 17.8389 28.5538 17.5095 28.8464L4.27746 40.5908C4.17927 40.6743 4.09002 40.7565 4.00481 40.8416C2.21715 42.6294 2.21715 45.5382 4.00481 47.3259C4.87093 48.192 6.02225 48.6688 7.24697 48.6688C8.4718 48.6688 9.62312 48.192 10.4892 47.3259C10.5744 47.2406 10.6566 47.1513 10.7402 47.0532L22.2681 34.0652C22.5605 33.7356 22.5305 33.2314 22.2009 32.9389Z" fill="#FA8507"/>
<path d="M43.3329 40.5908L20.2442 20.0976C22.0441 16.6319 21.4139 12.4016 18.6111 9.59873C14.9321 5.91957 10.512 3.72321 6.78718 3.72321C4.78049 3.72321 3.07718 4.36583 1.86118 5.58172C0.0942549 7.34875 -0.437418 10.0752 0.364134 13.2588C1.13643 16.3259 3.09473 19.5481 5.87819 22.3316C7.57788 24.0313 9.83776 24.9672 12.2415 24.9672C13.6877 24.9672 15.104 24.6222 16.3767 23.9642L36.8703 47.0534C36.9538 47.1515 37.036 47.2408 37.121 47.326C37.9872 48.192 39.1385 48.6689 40.3632 48.6689C41.588 48.6689 42.7393 48.192 43.6055 47.326C45.3931 45.5382 45.3931 42.6295 43.6055 40.8417C43.5204 40.7566 43.4311 40.6744 43.3329 40.5908ZM42.4771 46.1976C41.9125 46.7622 41.1619 47.0731 40.3633 47.0731C39.5648 47.0731 38.8141 46.7621 38.2496 46.1976C38.1934 46.1415 38.1383 46.0814 38.0811 46.0138C38.0773 46.0093 38.0733 46.0048 38.0694 46.0003L17.1424 22.4229C16.9862 22.2471 16.7672 22.1547 16.5453 22.1547C16.4015 22.1547 16.2566 22.1935 16.1269 22.2735C14.9619 22.9918 13.6184 23.3715 12.2416 23.3715C10.264 23.3715 8.40486 22.6014 7.00664 21.2031C4.42402 18.6205 2.61454 15.6606 1.9116 12.869C1.25249 10.2515 1.63534 8.06414 2.98963 6.70996C3.89958 5.7999 5.2128 5.31886 6.78718 5.31886C10.0981 5.31886 14.0965 7.34056 17.4828 10.7271C19.9209 13.1651 20.361 16.9156 18.5531 19.8473C18.3497 20.1772 18.4128 20.6055 18.7026 20.8628L42.28 41.7898C42.2845 41.7938 42.2889 41.7977 42.2935 41.8015C42.3611 41.8588 42.4211 41.9139 42.4772 41.97C43.6427 43.1355 43.6427 45.0321 42.4771 46.1976Z" fill="#FA8507"/>
<path d="M15.226 11.8551C14.9143 12.1667 14.9143 12.6718 15.2259 12.9833C16.6135 14.3711 16.8645 16.5048 15.8364 18.1722C15.6051 18.5472 15.7217 19.0387 16.0967 19.27C16.2273 19.3505 16.3719 19.3888 16.5147 19.3888C16.7824 19.3888 17.0438 19.2541 17.1946 19.0097C18.6126 16.7101 18.2671 13.7681 16.3543 11.8551C16.0427 11.5437 15.5375 11.5436 15.226 11.8551Z" fill="#FA8507"/>
<path d="M12.2416 20.1802C11.1164 20.1802 10.0586 19.7421 9.2631 18.9466C7.08216 16.7656 5.57043 14.3304 5.00621 12.0899C4.64846 10.6691 4.74037 9.47236 5.24609 8.96654C5.55767 8.65496 5.55767 8.14978 5.24598 7.83831C4.9343 7.52683 4.42932 7.52673 4.11775 7.83841C3.17631 8.77996 2.94228 10.4283 3.45885 12.4795C4.09243 14.9957 5.75297 17.6931 8.13486 20.075C9.23182 21.1718 10.6903 21.7758 12.2416 21.7758C12.6823 21.7758 13.0394 21.4187 13.0394 20.978C13.0394 20.5373 12.6823 20.1802 12.2416 20.1802Z" fill="#FA8507"/>
</g>
<defs>
<clipPath id="clip0_218_64174">
<rect width="50" height="50" fill="white"/>
</clipPath>
</defs>
</svg>
