<svg width="50" height="50" viewBox="0 0 50 50" fill="none" xmlns="http://www.w3.org/2000/svg">
<g clip-path="url(#clip0_218_64133)">
<path d="M35.4067 16.8517L34.8717 15.0908C34.1921 13.0906 32.0198 12.0201 30.0195 12.6997C28.8943 13.082 28.0107 13.9656 27.6284 15.0908L27.0934 16.8517C26.6432 18.3367 26.5487 19.9068 26.8176 21.435C27.0628 22.7217 27.8796 23.8271 29.0376 24.4392L28.4384 37.8333C28.3582 38.5809 28.6007 39.3273 29.1051 39.885C30.1897 41.0714 32.031 41.1539 33.2175 40.0693C33.2816 40.0106 33.3431 39.9492 33.4017 39.885C33.8949 39.3431 34.1369 38.6186 34.0684 37.8892L33.4659 24.4375C34.6223 23.8251 35.4378 22.7204 35.6826 21.435C35.9514 19.9068 35.8569 18.3367 35.4067 16.8517ZM34.0409 21.145C33.8605 22.0694 33.2017 22.8278 32.3117 23.1358C31.9739 23.2628 31.7563 23.5928 31.7726 23.9533L32.4059 38.0208C32.4351 38.2968 32.344 38.5719 32.1559 38.7758C31.6541 39.2726 30.846 39.2726 30.3442 38.7758C30.1467 38.5554 30.057 38.2587 30.0992 37.9658L30.7276 23.9533C30.7438 23.5928 30.5262 23.2628 30.1884 23.1358C29.2984 22.8278 28.6396 22.0694 28.4592 21.145C28.2363 19.8762 28.3149 18.5728 28.6884 17.34L29.2234 15.5783C29.6374 14.459 30.8803 13.8873 31.9996 14.3012C32.5914 14.5201 33.0579 14.9867 33.2767 15.5783L33.8117 17.34C34.1849 18.5729 34.2634 19.8762 34.0409 21.145Z" fill="#FA8507"/>
<path d="M22.5003 12.5C22.0401 12.5 21.667 12.8731 21.667 13.3333V20.4883L19.4112 22.7442C19.2443 22.9104 19.1555 23.1397 19.167 23.375L19.8962 37.9583C19.9136 38.2728 19.7994 38.5804 19.5812 38.8075C19.125 39.2677 18.3821 39.271 17.9218 38.8148C17.9193 38.8124 17.9169 38.8099 17.9145 38.8075C17.6962 38.5804 17.5821 38.2728 17.5995 37.9583L18.3337 23.375C18.3453 23.1398 18.2569 22.9106 18.0903 22.7442L15.8337 20.4883V13.3333C15.8337 12.8731 15.4605 12.5 15.0003 12.5C14.5401 12.5 14.167 12.8731 14.167 13.3333V20.8333C14.167 21.0544 14.2549 21.2663 14.4112 21.4225L16.6495 23.6617L15.9387 37.8775C15.863 39.4303 17.0605 40.7505 18.6133 40.8261C20.1662 40.9018 21.4864 39.7043 21.562 38.1515C21.5665 38.0602 21.5665 37.9689 21.562 37.8776L20.8512 23.6618L23.0895 21.4226C23.2457 21.2664 23.3337 21.0545 23.3337 20.8334V13.3334C23.3337 12.8731 22.9605 12.5 22.5003 12.5Z" fill="#FA8507"/>
<path d="M17.5003 12.5C17.0401 12.5 16.667 12.8731 16.667 13.3333V20C16.667 20.4602 17.0401 20.8333 17.5003 20.8333C17.9605 20.8333 18.3337 20.4602 18.3337 20V13.3333C18.3337 12.8731 17.9605 12.5 17.5003 12.5Z" fill="#FA8507"/>
<path d="M20.0003 12.5C19.5401 12.5 19.167 12.8731 19.167 13.3333V20C19.167 20.4602 19.5401 20.8333 20.0003 20.8333C20.4605 20.8333 20.8337 20.4602 20.8337 20V13.3333C20.8337 12.8731 20.4605 12.5 20.0003 12.5Z" fill="#FA8507"/>
<path d="M25 0C11.1929 0 0 11.1929 0 25C0 38.8071 11.1929 50 25 50C38.8071 50 50 38.8071 50 25C49.9844 11.1994 38.8006 0.015625 25 0ZM25 48.3333C12.1133 48.3333 1.66667 37.8867 1.66667 25C1.66667 12.1133 12.1133 1.66667 25 1.66667C37.8867 1.66667 48.3333 12.1133 48.3333 25C48.3186 37.8805 37.8805 48.3186 25 48.3333Z" fill="#FA8507"/>
<path d="M27.7054 40.6429C27.6607 40.1849 27.2531 39.8498 26.795 39.8945C26.7843 39.8955 26.7735 39.8968 26.7628 39.8983L26.7661 39.8974C25.5929 40.0337 24.4077 40.0337 23.2345 39.8974C22.7772 39.8438 22.3631 40.171 22.3095 40.6283C22.2558 41.0855 22.583 41.4996 23.0403 41.5533C24.3414 41.7052 25.6558 41.7052 26.957 41.5533C27.415 41.5087 27.7501 41.1011 27.7054 40.6429Z" fill="#FA8507"/>
<path d="M37.7496 14.2617C37.4539 13.9091 36.9282 13.8629 36.5756 14.1588C36.5745 14.1597 36.5733 14.1608 36.5721 14.1617C36.2203 14.4584 36.1755 14.984 36.4721 15.3359C41.4966 21.3004 41.1122 30.1201 35.5879 35.625C35.2619 35.9499 35.2609 36.4777 35.5858 36.8038C35.9107 37.1298 36.4385 37.1308 36.7646 36.8059C42.9039 30.6899 43.332 20.8897 37.7496 14.2617Z" fill="#FA8507"/>
<path d="M19.4153 11.015C19.4148 11.015 19.4143 11.0149 19.4137 11.0149C19.4129 11.0149 19.4121 11.015 19.4111 11.015H19.4153Z" fill="#FA8507"/>
<path d="M28.9304 8.79916C25.6737 8.01864 22.258 8.22843 19.1213 9.40166C18.6904 9.56364 18.4726 10.0443 18.6346 10.475C18.7567 10.7997 19.0671 11.0146 19.4139 11.0149C19.5136 11.0144 19.6123 10.9961 19.7054 10.9608C22.5302 9.90447 25.6061 9.71582 28.5388 10.4192C28.9862 10.5273 29.4365 10.2524 29.5446 9.80499C29.6527 9.3576 29.3778 8.90728 28.9304 8.79916Z" fill="#FA8507"/>
<path d="M14.374 35.5833C11.5648 32.7789 9.99029 28.9696 9.99987 25C9.99164 21.8285 10.9962 18.7373 12.8674 16.1767C13.1439 15.8088 13.0699 15.2864 12.702 15.0098C12.334 14.7332 11.8116 14.8073 11.5351 15.1752C11.5302 15.1818 11.5254 15.1883 11.5207 15.195C6.70269 21.8188 7.41164 30.9616 13.1932 36.7633C13.519 37.0894 14.0476 37.0896 14.3736 36.7638C14.6997 36.4379 14.6999 35.9094 14.374 35.5833Z" fill="#FA8507"/>
</g>
<defs>
<clipPath id="clip0_218_64133">
<rect width="50" height="50" fill="white"/>
</clipPath>
</defs>
</svg>
