<svg width="50" height="50" viewBox="0 0 50 50" fill="none" xmlns="http://www.w3.org/2000/svg">
<path d="M42.1878 32.0312H41.9299L39.1096 25.4531C39.5878 25.6627 40.1032 25.7742 40.6253 25.7812C40.8325 25.7812 41.0312 25.6989 41.1777 25.5524C41.3242 25.4059 41.4065 25.2072 41.4065 25V18.75C41.4065 18.5428 41.3242 18.3441 41.1777 18.1976C41.0312 18.051 40.8325 17.9687 40.6253 17.9687C39.8117 17.9731 39.0198 18.2315 38.3601 18.7077C37.7004 19.1839 37.2059 19.8542 36.9456 20.625C36.7157 20.304 36.4223 20.0337 36.0837 19.8308C35.745 19.6278 35.3683 19.4966 34.9768 19.4453C34.4806 19.3812 33.9767 19.413 33.4924 19.539H32.8128C31.4924 19.539 30.9065 18.7578 29.9846 17.4844L29.5237 16.8359C29.9965 16.8118 30.4545 16.6636 30.8518 16.4062C31.1533 16.1874 31.4085 15.9112 31.6029 15.5935C31.7973 15.2757 31.927 14.9227 31.9846 14.5547C32.2386 14.4084 32.4606 14.2127 32.6377 13.9793C32.8148 13.7458 32.9434 13.4792 33.0159 13.1953C33.0489 12.9713 33.027 12.7427 32.9522 12.5291C32.8773 12.3154 32.7517 12.1231 32.5862 11.9687C32.2672 11.4226 32.0924 10.8042 32.0784 10.1719C32.2801 10.1598 32.4693 10.07 32.6062 9.92144C32.7431 9.77285 32.8172 9.57699 32.8128 9.37498C32.8128 8.54694 32.6484 7.72713 32.3289 6.96319C32.0095 6.19925 31.5414 5.5064 30.9519 4.9249C30.3624 4.3434 29.6632 3.88483 28.895 3.57584C28.1268 3.26685 27.3048 3.11359 26.4768 3.12498C24.852 3.15697 23.3027 3.81666 22.1536 4.96579C21.0044 6.11491 20.3447 7.66425 20.3128 9.28904C20.2981 10.1174 20.4496 10.9403 20.7582 11.7091C21.0669 12.478 21.5264 13.1772 22.1096 13.7656C22.2825 13.9374 22.4651 14.0991 22.6565 14.25C19.6409 14.9844 18.0549 17.8125 17.2424 20.2656C16.7908 19.8101 16.1805 19.547 15.5393 19.5312C15.5948 19.3062 15.6236 19.0755 15.6253 18.8437V13.8906C15.615 13.1038 15.2952 12.3527 14.7352 11.8C14.1751 11.2473 13.4199 10.9374 12.6331 10.9375H12.5003V8.20311C12.5003 7.0635 12.0476 5.97058 11.2417 5.16476C10.4359 4.35894 9.34298 3.90623 8.20338 3.90623C7.06378 3.90623 5.97085 4.35894 5.16503 5.16476C4.35921 5.97058 3.90651 7.0635 3.90651 8.20311V10.9375H2.99244C2.20559 10.9374 1.45037 11.2473 0.890338 11.8C0.330304 12.3527 0.0105273 13.1038 0.000255008 13.8906V18.8437C-0.00491795 19.2399 0.0686577 19.6332 0.216711 20.0008C0.364765 20.3683 0.584348 20.7028 0.862715 20.9848C1.14108 21.2668 1.47269 21.4907 1.83829 21.6435C2.20389 21.7963 2.59619 21.875 2.99244 21.875H4.68776V27.9765C4.68776 28.6375 4.95032 29.2714 5.4177 29.7388C5.88508 30.2062 6.51897 30.4687 7.17994 30.4687H11.0862C10.7191 30.8222 10.4059 31.2275 10.1565 31.6719C9.11322 33.7178 8.57732 35.9847 8.594 38.2812C8.594 38.4884 8.67632 38.6871 8.82283 38.8337C8.96934 38.9802 9.16805 39.0625 9.37525 39.0625H11.7737C11.9736 40.5639 12.712 41.9417 13.8516 42.9395C14.9911 43.9374 16.4543 44.4875 17.969 44.4875C19.4837 44.4875 20.9469 43.9374 22.0864 42.9395C23.226 41.9417 23.9644 40.5639 24.1643 39.0625H35.9924C36.1428 40.2561 36.6345 41.3809 37.4084 42.302C38.1824 43.223 39.2057 43.9011 40.3555 44.2549C41.5054 44.6087 42.7329 44.6231 43.8907 44.2964C45.0485 43.9696 46.0875 43.3157 46.8828 42.4131C47.6781 41.5104 48.196 40.3974 48.3744 39.2077C48.5527 38.018 48.3839 36.802 47.8882 35.7059C47.3924 34.6097 46.5909 33.6799 45.5797 33.0281C44.5686 32.3763 43.3908 32.0301 42.1878 32.0312ZM39.844 19.664V24.0859C39.3862 23.9249 38.9897 23.6257 38.7092 23.2297C38.4287 22.8336 38.278 22.3603 38.278 21.875C38.278 21.3897 38.4287 20.9163 38.7092 20.5203C38.9897 20.1243 39.3862 19.8251 39.844 19.664ZM34.7503 20.9844C35.0565 21.0302 35.3411 21.1697 35.5649 21.3837C35.7887 21.5977 35.9408 21.8758 36.0003 22.1797L36.2034 22.6562C35.1157 23.2154 33.9021 23.4845 32.6799 23.4375C32.5723 22.9734 32.6287 22.4863 32.8395 22.0591C33.0503 21.6319 33.4024 21.2907 33.8362 21.0937C34.1308 20.9982 34.4418 20.9636 34.7503 20.9922V20.9844ZM30.8987 13.3594C30.7687 13.4249 30.6595 13.5254 30.5836 13.6497C30.5077 13.7739 30.468 13.9169 30.469 14.0625C30.4632 14.2592 30.4165 14.4525 30.3317 14.63C30.247 14.8076 30.1261 14.9655 29.9768 15.0937C29.5315 15.3906 28.7034 15.3203 27.6331 14.8984C27.576 14.8921 27.5183 14.8921 27.4612 14.8984L27.344 14.7969V11.8047C27.344 11.3675 27.5177 10.9482 27.8268 10.639C28.136 10.3299 28.5553 10.1562 28.9924 10.1562H30.469C30.4936 11.1675 30.8111 12.15 31.3831 12.9844C31.2417 13.1355 31.0784 13.2646 30.8987 13.3672V13.3594ZM21.8753 9.30467C21.9143 8.09251 22.4133 6.94068 23.2709 6.08311C24.1285 5.22554 25.2803 4.72655 26.4924 4.68748H26.5628C27.671 4.68676 28.7437 5.07874 29.5904 5.79385C30.4371 6.50897 31.003 7.50095 31.1878 8.59373H28.9924C28.1415 8.59579 27.326 8.93475 26.7242 9.53647C26.1225 10.1382 25.7836 10.9537 25.7815 11.8047V14C24.678 13.8136 23.6777 13.2385 22.9613 12.3788C22.2448 11.5191 21.8596 10.4315 21.8753 9.31248V9.30467ZM24.219 15.625C26.7737 15.625 27.7112 16.9609 28.7034 18.3672C29.4221 19.3984 30.2659 20.5234 31.6721 20.9219C31.2298 21.6366 31.0298 22.475 31.1018 23.3125C30.1322 23.1007 29.2176 22.6881 28.417 22.1015C27.6164 21.5148 26.9475 20.767 26.4534 19.9062C26.4108 19.803 26.3466 19.71 26.2651 19.6337C26.1836 19.5574 26.0866 19.4994 25.9808 19.4637C25.875 19.428 25.7627 19.4154 25.6516 19.4268C25.5405 19.4381 25.4331 19.4732 25.3367 19.5296C25.2403 19.5859 25.1571 19.6623 25.0927 19.7536C25.0283 19.8449 24.9843 19.9489 24.9635 20.0586C24.9427 20.1683 24.9457 20.2813 24.9722 20.3897C24.9988 20.4982 25.0483 20.5998 25.1174 20.6875C25.4007 21.1627 25.7248 21.6124 26.0862 22.0312L26.0159 22.0781C25.2876 22.9158 24.7753 23.9189 24.5237 25H17.969V24.2187C18.0237 23.7422 18.9143 15.625 24.219 15.625ZM28.9065 34.375H25.7815V32.8125C25.8013 32.2942 25.7137 31.7774 25.5244 31.2946C25.3351 30.8117 25.048 30.3732 24.6813 30.0064C24.3146 29.6397 23.876 29.3527 23.3932 29.1633C22.9103 28.974 22.3935 28.8865 21.8753 28.9062H17.7893C17.9086 28.6108 17.9697 28.2951 17.969 27.9765V26.5625H25.0003C25.1565 26.5625 28.9065 26.6094 28.9065 30.4687V34.375ZM5.46901 8.20311C5.46901 7.4779 5.75709 6.78241 6.26989 6.26961C6.78268 5.75682 7.47818 5.46873 8.20338 5.46873C8.92858 5.46873 9.62408 5.75682 10.1369 6.26961C10.6497 6.78241 10.9378 7.4779 10.9378 8.20311V10.9375H5.46901V8.20311ZM1.56275 18.8515V17.4765L2.89869 16.1406C3.02668 15.9912 3.09356 15.7989 3.08597 15.6023C3.07837 15.4057 2.99686 15.2191 2.85773 15.08C2.71859 14.9409 2.53207 14.8594 2.33545 14.8518C2.13883 14.8442 1.94658 14.9111 1.79713 15.039L1.56275 15.2656V13.8906C1.57293 13.5182 1.72804 13.1645 1.99506 12.9048C2.26209 12.6451 2.61994 12.4998 2.99244 12.5H12.6331C13.0056 12.4998 13.3634 12.6451 13.6304 12.9048C13.8975 13.1645 14.0526 13.5182 14.0628 13.8906V15.2656L12.7268 16.6015C12.645 16.6716 12.5786 16.7578 12.5317 16.8547C12.4848 16.9516 12.4585 17.0572 12.4543 17.1648C12.4502 17.2724 12.4683 17.3797 12.5076 17.4799C12.5468 17.5802 12.6064 17.6712 12.6826 17.7474C12.7587 17.8235 12.8497 17.8831 12.95 17.9224C13.0503 17.9616 13.1575 17.9798 13.2651 17.9756C13.3727 17.9714 13.4783 17.9451 13.5752 17.8982C13.6722 17.8513 13.7583 17.7849 13.8284 17.7031L14.0549 17.4765V18.8515C14.0591 19.0413 14.0254 19.2299 13.9559 19.4065C13.8864 19.583 13.7825 19.744 13.6501 19.88C13.5178 20.0159 13.3597 20.1242 13.1851 20.1985C13.0105 20.2727 12.8228 20.3115 12.6331 20.3125H2.99244C2.80203 20.3125 2.61354 20.2745 2.43801 20.2007C2.26248 20.1269 2.10347 20.0188 1.97029 19.8827C1.83711 19.7467 1.73246 19.5853 1.66248 19.4083C1.5925 19.2312 1.55859 19.0419 1.56275 18.8515ZM10.1565 21.875H12.5003V22.6562H10.1565V21.875ZM7.18775 28.9062C7.06501 28.9073 6.94328 28.884 6.82958 28.8377C6.71588 28.7915 6.61247 28.7231 6.52531 28.6367C6.43815 28.5503 6.36897 28.4474 6.32176 28.3341C6.27455 28.2208 6.25025 28.0993 6.25025 27.9765V21.875H8.594V23.4375C8.594 23.6447 8.67632 23.8434 8.82283 23.9899C8.96934 24.1364 9.16805 24.2187 9.37525 24.2187H13.2815C13.4887 24.2187 13.6874 24.1364 13.8339 23.9899C13.9804 23.8434 14.0628 23.6447 14.0628 23.4375V21.875C14.0585 21.7487 14.0236 21.6254 13.9612 21.5156C14.2079 21.3939 14.4366 21.2388 14.6409 21.0547C14.7066 21.0766 14.7749 21.0898 14.844 21.0937H15.4768C15.5989 21.0937 15.7198 21.1178 15.8326 21.1645C15.9454 21.2112 16.0479 21.2797 16.1342 21.366C16.2205 21.4524 16.289 21.5548 16.3357 21.6676C16.3825 21.7804 16.4065 21.9013 16.4065 22.0234V27.9844C16.4044 28.2296 16.3056 28.464 16.1315 28.6367C15.9573 28.8094 15.722 28.9062 15.4768 28.9062H7.17994H7.18775ZM17.969 42.9687C16.8621 42.9676 15.7912 42.5748 14.9462 41.8598C14.1011 41.1449 13.5363 40.1539 13.3518 39.0625H14.9534C15.1333 39.7245 15.526 40.3089 16.071 40.7256C16.616 41.1422 17.283 41.368 17.969 41.368C18.655 41.368 19.322 41.1422 19.867 40.7256C20.412 40.3089 20.8047 39.7245 20.9846 39.0625H22.5862C22.4017 40.1539 21.8369 41.1449 20.9918 41.8598C20.1468 42.5748 19.0759 42.9676 17.969 42.9687ZM16.6253 39.0625H19.3128C19.1744 39.2956 18.9778 39.4888 18.7422 39.6229C18.5066 39.7571 18.2401 39.8276 17.969 39.8276C17.6979 39.8276 17.4314 39.7571 17.1958 39.6229C16.9602 39.4888 16.7636 39.2956 16.6253 39.0625ZM10.1565 37.5C10.2562 35.7018 10.7411 33.946 11.5784 32.3515C11.8893 31.7733 12.3534 31.2918 12.9197 30.9597C13.4861 30.6277 14.1329 30.4578 14.7893 30.4687H21.8753C22.1875 30.4518 22.4998 30.5009 22.7918 30.6127C23.0838 30.7245 23.349 30.8965 23.5701 31.1176C23.7912 31.3387 23.9633 31.6039 24.0751 31.8959C24.1869 32.188 24.2359 32.5002 24.219 32.8125V35.1562C24.219 36.0014 24.4931 36.8238 25.0003 37.5H10.1565ZM28.1253 37.5C27.6417 37.4986 27.1704 37.3477 26.776 37.068C26.3816 36.7883 26.0833 36.3934 25.9221 35.9375H29.6878C29.8917 35.9244 30.0962 35.9539 30.288 36.0243C30.4799 36.0947 30.6549 36.2044 30.802 36.3463C30.9491 36.4882 31.0649 36.6593 31.1421 36.8485C31.2193 37.0377 31.2561 37.241 31.2503 37.4453C30.9912 37.4798 30.7303 37.4981 30.469 37.5H28.1253ZM33.1331 36.5859C33.0202 36.7136 32.8916 36.8265 32.7503 36.9219C32.6645 36.3312 32.3999 35.781 31.992 35.3452C31.5842 34.9094 31.0527 34.609 30.469 34.4844V30.4687C30.5395 29.194 30.1316 27.9389 29.3253 26.949C28.519 25.9592 27.3723 25.3059 26.1096 25.1172C26.3099 24.4164 26.653 23.7648 27.1174 23.2031C27.1376 23.1758 27.1559 23.147 27.1721 23.1172C28.3848 24.1008 29.8439 24.7331 31.3909 24.9453L33.594 34.5234C33.7177 35.2448 33.5521 35.9858 33.1331 36.5859ZM35.1565 34.2031L33.0081 25C34.33 25.0122 35.6362 24.7124 36.8206 24.125L40.5081 32.7187L37.1018 37.5H34.3753C34.7181 37.03 34.9638 36.4963 35.098 35.9302C35.2321 35.3641 35.252 34.777 35.1565 34.2031ZM42.1878 37.5H40.844C41.016 37.2021 41.2815 36.9693 41.5992 36.8377C41.917 36.706 42.2693 36.6829 42.6016 36.772C42.9338 36.861 43.2274 37.0572 43.4368 37.33C43.6462 37.6029 43.7597 37.9373 43.7597 38.2812C43.7597 38.6252 43.6462 38.9595 43.4368 39.2324C43.2274 39.5053 42.9338 39.7015 42.6016 39.7905C42.2693 39.8795 41.917 39.8564 41.5992 39.7248C41.2815 39.5932 41.016 39.3604 40.844 39.0625H42.1878C42.395 39.0625 42.5937 38.9802 42.7402 38.8337C42.8867 38.6871 42.969 38.4884 42.969 38.2812C42.969 38.074 42.8867 37.8753 42.7402 37.7288C42.5937 37.5823 42.395 37.5 42.1878 37.5ZM39.0159 37.5L39.2893 37.1172C39.2421 37.2421 39.203 37.37 39.1721 37.5H39.0159ZM42.1878 42.9687C41.0808 42.9676 40.01 42.5748 39.1649 41.8598C38.3199 41.1449 37.7551 40.1539 37.5706 39.0625H39.1721C39.3432 39.7215 39.7249 40.3066 40.259 40.7288C40.7931 41.151 41.4505 41.3872 42.1312 41.4015C42.8119 41.4158 43.4786 41.2074 44.03 40.808C44.5814 40.4086 44.9873 39.8401 45.1859 39.1888C45.3845 38.5376 45.365 37.8393 45.1304 37.2002C44.8958 36.5611 44.4588 36.016 43.886 35.648C43.3132 35.28 42.6359 35.1091 41.957 35.1614C41.2782 35.2136 40.635 35.4861 40.1253 35.9375L41.7893 33.5937C41.9221 33.5937 42.0549 33.5937 42.1878 33.5937C43.431 33.5937 44.6232 34.0876 45.5023 34.9667C46.3814 35.8457 46.8753 37.038 46.8753 38.2812C46.8753 39.5244 46.3814 40.7167 45.5023 41.5958C44.6232 42.4749 43.431 42.9687 42.1878 42.9687Z" fill="#FA8507"/>
<path d="M6.02308 15.0391C5.8767 14.8936 5.67869 14.8119 5.4723 14.8119C5.2659 14.8119 5.0679 14.8936 4.92152 15.0391L3.35902 16.6016C3.27724 16.6716 3.21081 16.7578 3.16392 16.8547C3.11703 16.9516 3.09068 17.0572 3.08652 17.1648C3.08236 17.2724 3.10049 17.3797 3.13977 17.4799C3.17905 17.5802 3.23862 17.6713 3.31476 17.7474C3.3909 17.8235 3.48195 17.8831 3.5822 17.9224C3.68246 17.9617 3.78975 17.9798 3.89734 17.9756C4.00493 17.9715 4.11051 17.9451 4.20743 17.8982C4.30436 17.8513 4.39054 17.7849 4.46058 17.7031L6.02308 16.1406C6.16859 15.9943 6.25026 15.7962 6.25026 15.5899C6.25026 15.3835 6.16859 15.1854 6.02308 15.0391Z" fill="#FA8507"/>
<path d="M9.14808 15.0391C9.0017 14.8936 8.80369 14.8119 8.5973 14.8119C8.3909 14.8119 8.1929 14.8936 8.04652 15.0391L6.48402 16.6016C6.40224 16.6716 6.33581 16.7578 6.28892 16.8547C6.24203 16.9516 6.21568 17.0572 6.21152 17.1648C6.20736 17.2724 6.22549 17.3797 6.26477 17.4799C6.30405 17.5802 6.36362 17.6713 6.43976 17.7474C6.5159 17.8235 6.60695 17.8831 6.7072 17.9224C6.80746 17.9617 6.91475 17.9798 7.02234 17.9756C7.12993 17.9715 7.23551 17.9451 7.33243 17.8982C7.42936 17.8513 7.51554 17.7849 7.58558 17.7031L9.14808 16.1406C9.29359 15.9943 9.37526 15.7962 9.37526 15.5899C9.37526 15.3835 9.29359 15.1854 9.14808 15.0391Z" fill="#FA8507"/>
<path d="M12.2731 15.0391C12.1267 14.8936 11.9287 14.8119 11.7223 14.8119C11.5159 14.8119 11.3179 14.8936 11.1715 15.0391L9.60902 16.6016C9.52724 16.6716 9.46081 16.7578 9.41392 16.8547C9.36703 16.9516 9.34068 17.0572 9.33652 17.1648C9.33236 17.2724 9.35049 17.3797 9.38977 17.4799C9.42905 17.5802 9.48862 17.6713 9.56476 17.7474C9.6409 17.8235 9.73195 17.8831 9.8322 17.9224C9.93246 17.9617 10.0397 17.9798 10.1473 17.9756C10.2549 17.9715 10.3605 17.9451 10.4574 17.8982C10.5544 17.8513 10.6405 17.7849 10.7106 17.7031L12.2731 16.1406C12.4186 15.9943 12.5003 15.7962 12.5003 15.5899C12.5003 15.3835 12.4186 15.1854 12.2731 15.0391Z" fill="#FA8507"/>
</svg>
