<svg width="132" height="100" viewBox="0 0 132 100" fill="none" xmlns="http://www.w3.org/2000/svg">
<path fill-rule="evenodd" clip-rule="evenodd" d="M15.9771 35.0925H48.1878L22.8812 9.791L22.5347 16.7322L17.0422 2.46484L31.3125 7.95626L24.357 8.30267L51.1394 35.0797H79.2565L106.039 8.30267L99.0963 7.95626L113.367 2.46484L107.874 16.7322L107.528 9.791L82.2209 35.0925H114.444V36.4012H80.9119H77.9603H52.4612H49.5096H15.9771V35.0925ZM83.4528 67.3738L97.9669 81.8849L104.922 81.5385L114.611 91.2254L106.257 91.636L105.834 99.9886L96.1447 90.3016L96.4912 83.3476L80.5013 67.3609H49.9331L33.9432 83.3604L34.2897 90.3145L24.6008 100.001L24.1773 91.6488L15.8231 91.2383L25.512 81.5513L32.4674 81.8977L46.9687 67.3866H15.9771V66.0779H48.2777H51.2292H79.1666H82.1182H114.419V67.3866H83.4528V67.3738Z" fill="#FA8507"/>
<path fill-rule="evenodd" clip-rule="evenodd" d="M130.524 49.7588C129.716 49.7588 129.048 50.4132 129.048 51.2343C129.048 52.0426 129.703 52.697 130.524 52.697C131.333 52.697 132 52.0426 132 51.2343C132 50.426 131.333 49.7588 130.524 49.7588ZM1.47579 49.7588C0.667314 49.7588 0 50.4132 0 51.2343C0 52.0426 0.654481 52.697 1.47579 52.697C2.28427 52.697 2.95158 52.0426 2.95158 51.2343C2.95158 50.426 2.2971 49.7588 1.47579 49.7588Z" fill="#FA8507"/>
<path fill-rule="evenodd" clip-rule="evenodd" d="M65.2044 23.5072H54.245L45.3004 8.00812L56.7731 14.6286L65.2172 0.00195312L73.6613 14.6286L85.134 8.00812L76.1766 23.5072H65.2044ZM54.245 28.6009H76.1766V25.5344H54.245V28.6009Z" fill="#FA8507"/>
<path d="M20.2376 45.0234L17.1833 57.4561H13.2308L10.1765 45.0234H12.2811L14.7451 55.6726H15.6562L18.1201 45.0234H20.2376Z" fill="#FA8507"/>
<path d="M29.2977 45.0234H31.3121V57.4561H29.2977V45.0234Z" fill="#FA8507"/>
<path d="M41.4504 45.0234H44.9795L48.7524 55.6726H49.0219V45.0234H51.0367V57.4561H47.5846L43.7219 46.7812H43.4652V57.4561H41.4504V45.0234Z" fill="#FA8507"/>
<path d="M59.9813 45.0234H69.0542V46.8197H65.5508V57.4561H63.5232V46.8197H59.9813V45.0234Z" fill="#FA8507"/>
<path d="M79.2308 45.0234H83.2475L86.3274 57.4561H84.2998L83.6325 54.7874H78.8586L78.1913 57.4561H76.1637L79.2308 45.0234ZM79.2436 53.0039H83.2218L81.6947 46.7042H80.7836L79.2436 53.0039Z" fill="#FA8507"/>
<path d="M100.251 50.9129H103.793V57.2255C103.626 57.264 101.137 57.6489 99.6352 57.6489C95.6826 57.6489 94.656 55.3651 94.656 51.2337C94.656 46.8842 95.8495 44.8057 99.5582 44.8057C101.47 44.8057 103.793 45.2932 103.793 45.2932L103.716 46.8842C103.716 46.8842 101.522 46.5891 99.8662 46.5891C97.3766 46.5891 96.7478 47.7182 96.7478 51.2209C96.7478 54.5952 97.2739 55.8655 99.8149 55.8655C100.636 55.8655 101.573 55.7628 101.791 55.6987V52.6707H100.251V50.9129Z" fill="#FA8507"/>
<path d="M113.585 45.0234H121.426V46.7812H115.599V50.3095H120.335V52.0545H115.599V55.6855H121.426V57.4689H113.585V45.0234Z" fill="#FA8507"/>
<path d="M54.9504 80.667H55.8357V86.415H54.8734V81.7576L53.5262 82.63L53.0771 81.9115L54.9504 80.667Z" fill="#FA8507"/>
<path d="M63.8047 82.1041C63.8047 82.8226 63.5994 83.0792 63.0349 83.4384C63.561 83.772 63.8817 84.0928 63.8817 84.8626C63.8817 86.0943 62.8938 86.5177 61.7005 86.5177C60.5202 86.5177 59.545 86.1585 59.545 84.9524C59.545 84.1185 59.8658 83.7977 60.379 83.4384C59.8401 83.0792 59.6349 82.7585 59.6349 82.0913C59.6349 81.1033 60.4432 80.5645 61.7005 80.5645C62.9451 80.5773 63.8047 81.0905 63.8047 82.1041ZM62.8553 84.7215C62.8553 84.2724 62.573 84.0286 62.124 83.9003H61.29C60.8281 84.0543 60.5843 84.3109 60.5843 84.7472C60.5843 85.3887 61.0205 85.6453 61.7134 85.6453C62.4062 85.6453 62.8553 85.3887 62.8553 84.7215ZM60.6741 82.2452C60.6741 82.6301 60.8794 82.8739 61.29 83.0664H62.124C62.5345 82.8739 62.7655 82.6301 62.7655 82.2452C62.7655 81.7064 62.3806 81.4369 61.7134 81.4369C61.059 81.4497 60.6741 81.6935 60.6741 82.2452Z" fill="#FA8507"/>
<path d="M70.773 82.1041C70.773 82.8226 70.5677 83.0792 70.0032 83.4384C70.5292 83.772 70.8628 84.0928 70.8628 84.8626C70.8628 86.0943 69.8749 86.5177 68.6816 86.5177C67.5012 86.5177 66.5261 86.1585 66.5261 84.9524C66.5261 84.1185 66.8469 83.7977 67.3601 83.4384C66.8212 83.0792 66.6159 82.7585 66.6159 82.0913C66.6159 81.1033 67.4243 80.5645 68.6816 80.5645C69.9133 80.5773 70.773 81.0905 70.773 82.1041ZM69.8235 84.7215C69.8235 84.2724 69.5413 84.0286 69.0922 83.9003H68.2582C67.7963 84.0543 67.5526 84.3109 67.5526 84.7472C67.5526 85.3887 67.9888 85.6453 68.6816 85.6453C69.3873 85.6453 69.8235 85.3887 69.8235 84.7215ZM67.6552 82.2452C67.6552 82.6301 67.8605 82.8739 68.2582 83.0664H69.0922C69.5028 82.8739 69.7337 82.6301 69.7337 82.2452C69.7337 81.7064 69.3488 81.4369 68.6816 81.4369C68.0401 81.4497 67.6552 81.6935 67.6552 82.2452Z" fill="#FA8507"/>
<path d="M77.4975 81.5396C77.4975 81.5396 76.6507 81.4113 75.9194 81.4113C75.0341 81.4113 74.5978 82.0271 74.585 83.0279C74.585 83.0407 75.3292 82.7584 75.8424 82.7584C77.1254 82.7584 77.7926 83.3358 77.7926 84.5932C77.7926 85.8634 77.0228 86.5049 75.7269 86.5049C74.2386 86.5049 73.5842 85.3758 73.5842 83.5283C73.5842 81.3856 74.4952 80.5645 75.9194 80.5645C76.6507 80.5645 77.5873 80.7697 77.5873 80.7697L77.4975 81.5396ZM74.585 83.8747C74.5978 84.8883 74.8929 85.6709 75.7397 85.6709C76.4326 85.6709 76.8047 85.286 76.8047 84.606C76.8047 83.9517 76.4197 83.6309 75.7654 83.6309C75.2009 83.6181 74.585 83.8747 74.585 83.8747Z" fill="#FA8507"/>
</svg>
