<svg width="184" height="100" viewBox="0 0 184 100" fill="none" xmlns="http://www.w3.org/2000/svg">
<path fill-rule="evenodd" clip-rule="evenodd" d="M28.1072 64.2362C28.8138 64.2362 29.3791 63.5602 29.3791 62.727C29.3791 61.8938 28.8138 61.2178 28.1072 61.2178C27.4006 61.2178 26.8353 61.8938 26.8353 62.727C26.8353 63.5444 27.4163 64.2362 28.1072 64.2362Z" fill="#1F1F1F"/>
<path d="M28.1072 64.2362C28.8138 64.2362 29.3791 63.5602 29.3791 62.727C29.3791 61.8938 28.8138 61.2178 28.1072 61.2178C27.4006 61.2178 26.8353 61.8938 26.8353 62.727C26.8353 63.5444 27.4163 64.2362 28.1072 64.2362Z" stroke="white" stroke-width="0.3737" stroke-miterlimit="22.9256"/>
<path d="M92.2041 0.0471605L154.008 19.0536L154.495 19.1951V19.6982V48.5772H153.113V20.2012L91.9843 1.39917L30.8551 20.2012V48.5772H29.4733V19.7139V19.2108L29.96 19.0693L91.7801 0.0628966L91.9843 0L92.2041 0.0471605ZM154.495 76.8275V80.2861V80.7892L154.008 80.9307L92.1884 99.9371L91.9843 100L91.7801 99.9371L29.9914 80.7106L29.5047 80.5691V80.066V76.8275H30.8865V79.5472L92.0157 98.5694L153.145 79.7673V76.8118H154.495V76.8275Z" fill="#1F1F1F"/>
<path d="M91.9999 3.19178L32.5509 21.4751V48.6092H31.86V21.2235V20.972L32.1112 20.8934L91.89 2.5158L91.9842 2.48438L92.0785 2.5158L151.873 20.8934L152.108 20.972V21.2235V48.6092H151.418V21.4751L91.9999 3.19178ZM32.5666 76.828V78.3057L92.0156 96.8091L151.465 78.5259V76.828H152.156V78.7931V79.0446L151.92 79.1233L92.1413 97.5008L92.0313 97.5323L91.9371 97.5008L32.1426 78.9031L31.8914 78.8246V78.573V76.828H32.5666Z" fill="#1F1F1F"/>
<path fill-rule="evenodd" clip-rule="evenodd" d="M20.4445 74.8304H163.556V50.5889H20.4445V74.8304Z" fill="#1F1F1F"/>
<path fill-rule="evenodd" clip-rule="evenodd" d="M155.312 61.4521C154.605 61.4521 154.04 62.0181 154.04 62.7098C154.04 63.4173 154.605 63.9832 155.312 63.9832C156.018 63.9832 156.584 63.4173 156.584 62.7098C156.568 62.0181 156.003 61.4521 155.312 61.4521ZM28.6882 61.4521C27.9815 61.4521 27.4163 62.0181 27.4163 62.7098C27.4163 63.4173 27.9815 63.9832 28.6882 63.9832C29.3948 63.9832 29.96 63.4173 29.96 62.7098C29.96 62.0181 29.3948 61.4521 28.6882 61.4521Z" fill="white"/>
<path fill-rule="evenodd" clip-rule="evenodd" d="M92 81.3398L93.0364 83.9338L95.8471 84.1381L93.7116 85.9303L94.3711 88.6657L92.0157 87.1723L89.629 88.6657L90.3042 85.9461L88.153 84.1381L90.9323 83.9495L92 81.3398Z" fill="#1F1F1F"/>
<path fill-rule="evenodd" clip-rule="evenodd" d="M27.4791 38.4854H0L10.2222 50.6061L0 62.7268H18.4188V61.422H3.70575H2.59089L3.31319 60.5573L11.7139 50.5903L3.31319 40.6234L2.59089 39.7744H3.70575H27.4791V38.4854ZM27.4791 40.812H4.82062L12.7974 50.2602L13.08 50.5903L12.7974 50.9205L4.82062 60.3687H18.4188V48.5624H27.4634V40.812H27.4791ZM156.521 39.7744H180.294H181.409L180.687 40.6234L172.286 50.5903L180.687 60.5573L181.409 61.422H180.294H165.581V62.7268H184L173.778 50.6061L184 38.4854H156.537V39.7744H156.521ZM179.179 40.812H156.521V48.5624H165.565V60.3687H179.164L171.187 50.9205L170.904 50.5903L171.187 50.2602L179.179 40.812Z" fill="#1F1F1F"/>
<path fill-rule="evenodd" clip-rule="evenodd" d="M92 11.8838C82.8299 11.8838 75.387 19.3355 75.387 28.5164C75.387 37.6974 82.8299 45.149 92 45.149C101.17 45.149 108.613 37.6974 108.613 28.5164C108.613 19.3355 101.186 11.8838 92 11.8838Z" fill="#1F1F1F"/>
<path fill-rule="evenodd" clip-rule="evenodd" d="M69.7812 41.0322H40.0095V40.3405H69.7812V41.0322ZM69.7812 29.2259H40.0095V28.5342H69.7812V29.2259Z" fill="#1F1F1F"/>
<path fill-rule="evenodd" clip-rule="evenodd" d="M143.99 41.0322H114.219V40.3405H143.99V41.0322ZM143.99 29.2259H114.219V28.5342H143.99V29.2259Z" fill="#1F1F1F"/>
<path d="M41.1558 58.0254C42.2707 58.0254 43.2913 58.0254 44.1235 58.7957C44.6417 59.283 44.9872 60.0219 44.9872 60.918C44.9872 62.1442 44.3434 63.0718 43.4641 63.4805L45.1285 67.4107H43.9979L42.4748 63.7635C42.1608 63.8106 41.8467 63.8106 41.1558 63.8106H40.3236V67.4421H39.2872V58.0411H41.1558V58.0254ZM40.3236 62.8202H41.1558C42.2079 62.8202 42.8517 62.8203 43.4012 62.3172C43.7624 61.987 43.9508 61.4525 43.9508 60.9023C43.9508 60.352 43.7624 59.8333 43.4012 59.4874C42.8674 59.0001 42.2236 59.0001 41.1558 59.0001H40.3236V62.8202Z" fill="white"/>
<path d="M55.7747 58.0254V59.0158H51.5979V62.0971H54.9268V63.0875H51.5979V66.4517H55.7747V67.4421H50.5615V58.0568H55.7747V58.0254Z" fill="white"/>
<path d="M67.3944 58.0254V59.0158H64.7407V67.4264H63.7044V59.0158H61.0507V58.0254H67.3944Z" fill="white"/>
<path d="M74.5861 58.0254C75.701 58.0254 76.7216 58.0254 77.5539 58.7957C78.072 59.283 78.4175 60.0219 78.4175 60.918C78.4175 62.1442 77.7737 63.0718 76.8943 63.4805L78.5588 67.4107H77.4282L75.9051 63.7635C75.5911 63.8106 75.277 63.8106 74.5861 63.8106H73.7539V67.4421H72.7175V58.0411H74.5861V58.0254ZM73.7539 62.8202H74.5861C75.6382 62.8202 76.282 62.8203 76.8315 62.3172C77.1927 61.987 77.3811 61.4525 77.3811 60.9023C77.3811 60.352 77.1927 59.8333 76.8315 59.4874C76.2977 59.0001 75.6539 59.0001 74.5861 59.0001H73.7539V62.8202Z" fill="white"/>
<path d="M84.2116 59.3298C84.7298 58.4651 85.719 57.9307 86.8967 57.9307C88.0744 57.9307 89.0636 58.4651 89.5818 59.3298C90.0843 60.163 90.0843 61.0434 90.0843 62.7098C90.0843 64.3762 90.0843 65.2723 89.5818 66.0898C89.0636 66.9544 88.0744 67.4889 86.8967 67.4889C85.719 67.4889 84.7298 66.9544 84.2116 66.0898C83.7091 65.2566 83.7091 64.3762 83.7091 62.7098C83.6934 61.0591 83.6934 60.163 84.2116 59.3298ZM85.1067 65.6024C85.4364 66.1684 86.1116 66.4985 86.8967 66.4985C87.6818 66.4985 88.3413 66.1526 88.6868 65.6024C89.0479 65.005 89.0479 64.1561 89.0479 62.7098C89.0479 61.2792 89.0479 60.4302 88.6868 59.8171C88.357 59.2512 87.6818 58.9053 86.8967 58.9053C86.1116 58.9053 85.4521 59.2512 85.1067 59.8171C84.7455 60.4145 84.7455 61.2635 84.7455 62.7098C84.7455 64.1561 84.7455 65.005 85.1067 65.6024Z" fill="white"/>
<path d="M100.683 58.7326L100.15 59.5815C99.6471 59.1727 98.8933 58.9369 98.1553 58.9369C96.8991 58.9369 96.4124 59.6601 96.4124 60.3361C96.4124 60.7605 96.6165 61.1693 96.9776 61.4522C97.3231 61.7352 97.8727 61.9081 98.3281 62.0496C98.9404 62.2383 99.6313 62.4269 100.228 62.93C100.715 63.3545 101.154 64.0776 101.154 64.8951C101.154 66.1842 100.165 67.5205 98.1553 67.5205C97.1661 67.5205 96.1768 67.206 95.3446 66.5615L95.9413 65.7598C96.5851 66.2943 97.3702 66.5301 98.1553 66.5301C99.5842 66.5301 100.118 65.6497 100.118 64.8951C100.118 64.4549 99.8983 63.9676 99.5057 63.6375C99.1289 63.3073 98.5479 63.1501 97.9041 62.9457C97.3859 62.7885 96.8363 62.6313 96.2553 62.1597C95.7686 61.7667 95.376 61.0907 95.376 60.3675C95.376 59.0312 96.4124 57.9622 98.171 57.9622C99.0818 57.9308 100.024 58.2295 100.683 58.7326Z" fill="white"/>
<path d="M111.879 58.0254V59.0158H109.225V67.4264H108.173V59.0158H105.535V58.0254H111.879Z" fill="white"/>
<path d="M117.799 58.0254L119.966 62.7416L122.133 58.0254H123.279L120.484 63.8893V67.4107H119.448V63.8893L116.653 58.0254H117.799Z" fill="white"/>
<path d="M129.356 58.0254V66.436H133.25V67.4264H128.319V58.0411H129.356V58.0254Z" fill="white"/>
<path d="M143.928 58.0254V59.0158H139.751V62.0971H143.08V63.0875H139.751V66.4517H143.928V67.4421H138.714V58.0568H143.928V58.0254Z" fill="white"/>
<path d="M47.0442 32.8574H49.4781V33.4077H47.6723V34.5081H49.1483V35.0583H47.6723V36.1902H49.4781V36.7405H47.0442V32.8574Z" fill="#1F1F1F"/>
<path d="M53.859 33.422C53.859 33.422 53.0739 33.3277 52.7441 33.3277C52.273 33.3277 52.0218 33.5006 52.0218 33.8307C52.0218 34.1923 52.2259 34.2709 52.8854 34.4596C53.702 34.6797 53.9846 34.8997 53.9846 35.56C53.9846 36.4089 53.4507 36.7706 52.697 36.7706C52.1945 36.7706 51.4408 36.6133 51.4408 36.6133L51.5036 36.1103C51.5036 36.1103 52.2573 36.2046 52.6656 36.2046C53.1367 36.2046 53.3722 35.9845 53.3722 35.5915C53.3722 35.2614 53.1995 35.1513 52.6028 35.0098C51.7706 34.7897 51.4094 34.5382 51.4094 33.8622C51.4094 33.0919 51.9276 32.7617 52.697 32.7617C53.1838 32.7617 53.9218 32.9032 53.9218 32.9032L53.859 33.422Z" fill="#1F1F1F"/>
<path d="M55.7747 32.8574H58.5854V33.4234H57.5019V36.7248H56.8738V33.4234H55.7747V32.8574Z" fill="#1F1F1F"/>
<path d="M60.5953 36.7071V32.8398H61.93C63.1705 32.8398 63.4689 33.5001 63.4689 34.7106C63.4689 35.9368 63.2019 36.7071 61.93 36.7071H60.5953ZM61.93 33.39H61.2234V36.1569H61.93C62.7151 36.1569 62.8251 35.5595 62.8251 34.7106C62.8251 33.8774 62.6994 33.39 61.93 33.39Z" fill="#1F1F1F"/>
<path d="M121.222 36.7086V36.1741L122.148 35.2309C122.635 34.7435 122.902 34.4448 122.902 34.0518C122.902 33.6274 122.682 33.4858 122.196 33.4858C121.803 33.4858 121.285 33.5802 121.285 33.5802L121.253 33.0771C121.253 33.0771 121.803 32.9199 122.353 32.9199C123.169 32.9199 123.546 33.2501 123.546 33.9575C123.546 34.5234 123.31 34.8536 122.729 35.3881L121.929 36.1584H123.609V36.7086H121.222Z" fill="#1F1F1F"/>
<path d="M128.445 34.9006C128.445 36.3155 127.927 36.7871 127.048 36.7871C126.168 36.7871 125.634 36.3312 125.634 34.9006C125.634 33.4386 126.153 32.9355 127.048 32.9355C127.943 32.9355 128.445 33.4229 128.445 34.9006ZM126.278 34.9006C126.278 35.9225 126.529 36.2369 127.048 36.2369C127.55 36.2369 127.801 35.9225 127.801 34.9006C127.801 33.8002 127.566 33.4857 127.048 33.4857C126.529 33.47 126.278 33.7845 126.278 34.9006Z" fill="#1F1F1F"/>
<path d="M133.093 34.9006C133.093 36.3155 132.575 36.7871 131.695 36.7871C130.8 36.7871 130.282 36.3312 130.282 34.9006C130.282 33.4386 130.8 32.9355 131.695 32.9355C132.59 32.9355 133.093 33.4229 133.093 34.9006ZM130.926 34.9006C130.926 35.9225 131.177 36.2369 131.695 36.2369C132.198 36.2369 132.449 35.9225 132.449 34.9006C132.449 33.8002 132.214 33.4857 131.695 33.4857C131.177 33.47 130.926 33.7845 130.926 34.9006Z" fill="#1F1F1F"/>
<path d="M135.087 36.7086V36.1741L135.998 35.2309C136.485 34.7435 136.752 34.4448 136.752 34.0518C136.752 33.6274 136.532 33.4858 136.045 33.4858C135.652 33.4858 135.134 33.5802 135.134 33.5802L135.103 33.0771C135.103 33.0771 135.652 32.9199 136.202 32.9199C137.019 32.9199 137.395 33.2501 137.395 33.9575C137.395 34.5234 137.16 34.8536 136.579 35.3881L135.778 36.1584H137.458V36.7086H135.087Z" fill="#1F1F1F"/>
<path d="M105.787 28.7529C104.829 31.001 102.897 32.6202 101.123 34.0823C99.2544 35.6386 96.6478 37.2579 96.6478 38.3112C96.6478 36.5347 98.7362 34.9469 100.573 33.422C102.615 31.7242 104.719 29.9634 105.331 27.3538C105.363 27.228 105.394 27.0865 105.41 26.945C105.473 26.5677 105.504 26.1904 105.504 25.7817C105.504 22.9205 104.562 21.4113 103.84 20.9869C103.855 21.1441 103.855 21.317 103.855 21.4899C103.855 27.511 101.421 30.0735 99.2701 32.3215C97.6999 33.9722 95.2032 36.5347 95.2032 37.7452C95.2032 35.1041 97.0718 33.4063 98.6577 31.7399C100.793 29.4918 102.992 27.1808 102.992 21.5056C102.992 18.8488 101.563 17.2139 100.338 16.6165C100.212 16.5536 100.102 16.5064 99.9924 16.475C100.385 17.3554 100.621 18.5187 100.621 20.0593C100.621 25.3415 98.9718 27.904 97.3858 30.3722C96.0982 32.3687 93.7586 36.1574 93.7586 37.3836C93.7586 34.0037 95.3916 31.8971 96.6635 29.9005C98.1867 27.5267 99.7569 25.0743 99.7569 20.0436C99.7569 17.3396 98.9404 15.5632 97.3701 14.9186C96.5379 14.5727 95.69 14.6356 95.1875 14.7929C96.0197 16.0505 96.6792 18.1257 96.6792 21.4899C96.6792 25.7031 95.847 27.621 94.952 29.6647C94.1512 31.504 92.314 36.1732 92.2826 37.2579C92.2826 33.312 93.3346 31.2368 94.1669 29.3189C95.0148 27.3695 95.8156 25.5302 95.8156 21.4899C95.8156 15.7361 93.7429 13.6924 91.9528 13.6924C90.1785 13.6924 88.0901 15.7361 88.0901 21.4899C88.0901 25.5302 88.8909 27.3695 89.7388 29.3189C90.571 31.2211 91.6231 33.312 91.6231 37.2579C91.6231 36.1732 89.7545 31.504 88.9537 29.6647C88.0743 27.6367 87.2421 25.7188 87.2421 21.4899C87.2421 18.1257 87.9016 16.0505 88.7338 14.7929C88.2314 14.6514 87.3834 14.5885 86.5512 14.9186C84.9967 15.5632 84.1645 17.3396 84.1645 20.0436C84.1645 25.0743 85.7347 27.5267 87.2578 29.9005C88.5297 31.8813 90.1628 34.0037 90.1628 37.3836C90.1628 36.1574 87.8231 32.3687 86.5355 30.3722C84.9496 27.8883 83.3008 25.3258 83.3008 20.0593C83.3008 18.503 83.5521 17.3554 83.9446 16.475C83.8504 16.5064 83.7248 16.5536 83.5992 16.6165C82.3744 17.2139 80.9455 18.8488 80.9455 21.5056C80.9455 27.1808 83.1438 29.5075 85.2793 31.7399C86.8653 33.4063 88.7338 35.1041 88.7338 37.7452C88.7338 36.5347 86.2372 33.9879 84.6669 32.3215C82.5314 30.0735 80.0976 27.511 80.0976 21.4899C80.0976 21.317 80.1133 21.1441 80.1133 20.9869C79.391 21.427 78.4488 22.9362 78.4488 25.7817C78.4488 26.1904 78.4802 26.5677 78.543 26.945C78.5587 27.0865 78.6058 27.2123 78.6216 27.3538C79.2339 29.9634 81.338 31.7242 83.3951 33.422C85.2322 34.9312 87.3206 36.5347 87.3206 38.3112C87.3206 37.2579 84.7298 35.6386 82.8455 34.0823C81.0711 32.6202 79.124 31.001 78.1819 28.7529C77.491 32.1958 80.3331 34.0823 82.8926 35.7801C84.5413 36.8649 85.9545 37.8081 85.9545 39.05C85.9545 39.0658 85.9545 39.0815 85.9545 39.0972C85.9545 40.3077 85.719 40.685 85.295 40.9522C85.2793 40.968 85.2636 40.968 85.2479 40.9837C85.2636 40.9837 85.2322 41.0466 85.2322 41.2038C85.2322 41.6754 85.7504 42.2099 86.2372 42.2099C86.4099 42.2099 86.8339 42.0841 87.2735 41.9427C88.0115 41.7226 89.0008 41.4239 90.1942 41.2509C90.2099 41.2509 90.2099 41.2509 90.2256 41.2509C90.2413 41.2981 90.2413 41.3453 90.257 41.3925C90.4925 42.0999 91.1677 42.6187 91.9528 42.6187C92.7379 42.6187 93.4132 42.0999 93.6487 41.3925C93.6644 41.3453 93.6801 41.2981 93.6801 41.2509C93.6958 41.2509 93.6958 41.2509 93.7115 41.2509C94.8892 41.4239 95.8941 41.7226 96.6321 41.9427C97.0718 42.0841 97.4958 42.2099 97.6685 42.2099C98.1553 42.2099 98.6734 41.6754 98.6734 41.2038C98.6734 41.0308 98.642 40.968 98.642 40.968C98.642 40.968 98.6263 40.968 98.5949 40.9522C98.1867 40.7007 97.9511 40.3234 97.9511 39.0972C97.9511 39.0815 97.9511 39.0658 97.9511 39.05C97.9511 37.8081 99.3643 36.8806 101.013 35.7801C103.62 34.0823 106.477 32.1958 105.787 28.7529Z" fill="white"/>
</svg>
