<svg width="154" height="103" viewBox="0 0 154 103" fill="none" xmlns="http://www.w3.org/2000/svg">
<path d="M63.8898 16.5511C53.3589 17.9803 45.0338 26.8861 43.8064 38.0874H52.7007C53.5724 31.0843 56.6053 24.5904 61.3282 19.615L64.0054 16.7834C64.0854 16.703 64.0054 16.5422 63.8898 16.5511Z" fill="#1F1F1F"/>
<path d="M40.4266 43.0195H113.929C118.252 43.0195 122.29 45.1901 124.682 48.8078H29.6733C32.0659 45.1901 36.1039 43.0195 40.4266 43.0195Z" stroke="#1F1F1F" stroke-width="3" stroke-miterlimit="10" stroke-linecap="round" stroke-linejoin="round"/>
<path d="M85.254 10.9785H69.1108C51.5534 10.9785 37.3225 25.2705 37.3225 42.9033H117.033C117.042 25.2705 102.811 10.9785 85.254 10.9785Z" stroke="#1F1F1F" stroke-width="3" stroke-miterlimit="10" stroke-linecap="round"/>
<path d="M81.9451 6.16259C81.9451 8.46717 80.2196 10.3251 78.0939 10.3251C75.9682 10.3251 74.2427 8.45824 74.2427 6.16259C74.2427 3.858 75.9682 2.00003 78.0939 2.00003C80.2196 1.9911 81.9451 3.858 81.9451 6.16259Z" stroke="#1F1F1F" stroke-width="3" stroke-miterlimit="10" stroke-linecap="round"/>
<path d="M119.817 57.738H34.5474C31.8524 57.738 29.6733 55.5496 29.6733 52.843H124.691C124.691 55.5496 122.512 57.738 119.817 57.738Z" stroke="#1F1F1F" stroke-width="3" stroke-miterlimit="10" stroke-linecap="round" stroke-linejoin="round"/>
<path d="M8.85172 20.697L9.94572 22.9212L12.3917 23.2785L10.6217 25.0114L11.0397 27.45L8.85172 26.2977L6.67261 27.45L7.09065 25.0114L5.32068 23.2785L7.76662 22.9212L8.85172 20.697Z" fill="#1F1F1F"/>
<path d="M145.148 20.697L146.242 22.9212L148.688 23.2785L146.918 25.0114L147.336 27.45L145.148 26.2977L142.96 27.45L143.378 25.0114L141.617 23.2785L144.054 22.9212L145.148 20.697Z" fill="#1F1F1F"/>
<path d="M8.85172 51.1912L9.94572 53.4153L12.3917 53.7727L10.6217 55.5056L11.0397 57.9441L8.85172 56.7918L6.67261 57.9441L7.09065 55.5056L5.32068 53.7727L7.76662 53.4153L8.85172 51.1912Z" fill="#1F1F1F"/>
<path d="M145.148 51.1912L146.242 53.4153L148.688 53.7727L146.918 55.5056L147.336 57.9441L145.148 56.7918L142.96 57.9441L143.378 55.5056L141.617 53.7727L144.054 53.4153L145.148 51.1912Z" fill="#1F1F1F"/>
<path d="M139.068 37.5159V43.2866H138.369V38.2485H138.335L136.927 39.184V38.4739L138.369 37.5159H139.068ZM142.565 37.437C142.802 37.4388 143.038 37.4839 143.275 37.5722C143.512 37.6605 143.728 37.807 143.923 38.0118C144.118 38.2147 144.275 38.4917 144.394 38.843C144.512 39.1943 144.571 39.6348 144.571 40.1645C144.571 40.6774 144.522 41.1329 144.425 41.5312C144.329 41.9275 144.19 42.2619 144.008 42.5343C143.827 42.8067 143.607 43.0133 143.348 43.1542C143.091 43.2951 142.8 43.3655 142.475 43.3655C142.152 43.3655 141.863 43.3016 141.61 43.1739C141.358 43.0443 141.151 42.8649 140.99 42.6357C140.83 42.4047 140.728 42.137 140.683 41.8327H141.37C141.432 42.0975 141.555 42.3164 141.739 42.4892C141.925 42.6601 142.17 42.7456 142.475 42.7456C142.92 42.7456 143.271 42.5512 143.529 42.1623C143.788 41.7735 143.917 41.224 143.917 40.5139H143.872C143.767 40.6717 143.642 40.8079 143.498 40.9225C143.353 41.0371 143.192 41.1254 143.016 41.1874C142.839 41.2494 142.651 41.2804 142.452 41.2804C142.122 41.2804 141.818 41.1987 141.542 41.0352C141.268 40.8699 141.048 40.6436 140.883 40.3562C140.719 40.0669 140.638 39.7362 140.638 39.3643C140.638 39.0111 140.716 38.688 140.874 38.395C141.034 38.1001 141.257 37.8653 141.545 37.6906C141.834 37.5159 142.174 37.4313 142.565 37.437ZM142.565 38.0569C142.328 38.0569 142.115 38.116 141.925 38.2344C141.737 38.3509 141.588 38.5086 141.477 38.7078C141.368 38.905 141.314 39.1239 141.314 39.3643C141.314 39.6048 141.366 39.8236 141.472 40.0208C141.579 40.2162 141.724 40.3721 141.908 40.4886C142.094 40.6032 142.306 40.6605 142.542 40.6605C142.721 40.6605 142.887 40.6257 143.041 40.5562C143.195 40.4848 143.329 40.3881 143.444 40.266C143.56 40.142 143.652 40.0021 143.717 39.8461C143.783 39.6883 143.816 39.524 143.816 39.353C143.816 39.1276 143.761 38.9163 143.653 38.719C143.545 38.5218 143.397 38.3621 143.207 38.24C143.019 38.1179 142.805 38.0569 142.565 38.0569ZM145.544 42.1032V41.5283L148.08 37.5159H148.497V38.4063H148.215L146.299 41.4382V41.4833H149.714V42.1032H145.544ZM148.26 43.2866V41.9285V41.6608V37.5159H148.925V43.2866H148.26ZM138.843 53.3655C138.512 53.3655 138.214 53.2998 137.949 53.1683C137.685 53.0368 137.472 52.8564 137.313 52.6273C137.153 52.3981 137.066 52.137 137.051 51.8439H137.727C137.753 52.105 137.871 52.3211 138.082 52.492C138.294 52.6611 138.548 52.7456 138.843 52.7456C139.079 52.7456 139.29 52.6902 139.474 52.5794C139.66 52.4685 139.805 52.3164 139.911 52.1229C140.018 51.9275 140.071 51.7068 140.071 51.4607C140.071 51.209 140.016 50.9845 139.905 50.7873C139.796 50.5882 139.646 50.4313 139.454 50.3167C139.262 50.2021 139.044 50.1439 138.798 50.142C138.621 50.1401 138.44 50.1674 138.254 50.2237C138.068 50.2782 137.915 50.3486 137.794 50.4351L137.141 50.3562L137.49 47.5159H140.488V48.1358H138.076L137.873 49.8377H137.907C138.025 49.7438 138.174 49.6658 138.352 49.6038C138.531 49.5418 138.717 49.5108 138.91 49.5108C139.263 49.5108 139.578 49.5954 139.854 49.7644C140.132 49.9316 140.35 50.1608 140.508 50.452C140.668 50.7431 140.747 51.0756 140.747 51.4494C140.747 51.8176 140.665 52.1464 140.499 52.4357C140.336 52.7231 140.111 52.9504 139.823 53.1176C139.536 53.2829 139.209 53.3655 138.843 53.3655Z" fill="#1F1F1F"/>
<path d="M136.796 32.6316H153.5" stroke="#1F1F1F" stroke-miterlimit="10"/>
<path d="M136.796 46.8171H153.5" stroke="#1F1F1F" stroke-miterlimit="10"/>
<path d="M2.11353 43.7732V37.4253H5.94456V38.1072H2.88222V40.2521H5.74619V40.934H2.88222V43.0913H5.99416V43.7732H2.11353ZM10.8015 39.0123C10.7643 38.6982 10.6135 38.4544 10.349 38.2808C10.0845 38.1072 9.7601 38.0204 9.37575 38.0204C9.09473 38.0204 8.84883 38.0659 8.63806 38.1568C8.42936 38.2477 8.26612 38.3728 8.14834 38.5319C8.03262 38.691 7.97476 38.8718 7.97476 39.0743C7.97476 39.2437 8.01506 39.3894 8.09564 39.5113C8.1783 39.6312 8.28368 39.7314 8.4118 39.812C8.53991 39.8905 8.67422 39.9556 8.81474 40.0073C8.95525 40.0568 9.0844 40.0971 9.20218 40.1281L9.84688 40.3017C10.0122 40.3451 10.1961 40.405 10.3986 40.4815C10.6032 40.5579 10.7984 40.6623 10.9844 40.7945C11.1725 40.9247 11.3274 41.0921 11.4493 41.2967C11.5713 41.5012 11.6322 41.7523 11.6322 42.0498C11.6322 42.3929 11.5423 42.7028 11.3626 42.9797C11.1849 43.2566 10.9245 43.4767 10.5815 43.6399C10.2405 43.8032 9.82622 43.8848 9.33856 43.8848C8.88396 43.8848 8.49032 43.8114 8.15763 43.6647C7.82702 43.518 7.56666 43.3134 7.37655 43.051C7.18851 42.7886 7.08209 42.4838 7.0573 42.1366H7.85078C7.87144 42.3763 7.95203 42.5747 8.09254 42.7317C8.23512 42.8867 8.4149 43.0024 8.63186 43.0789C8.8509 43.1533 9.08646 43.1905 9.33856 43.1905C9.63198 43.1905 9.89544 43.143 10.1289 43.0479C10.3624 42.9508 10.5474 42.8165 10.6838 42.645C10.8201 42.4714 10.8883 42.2689 10.8883 42.0375C10.8883 41.8267 10.8294 41.6552 10.7117 41.5229C10.5939 41.3907 10.4389 41.2832 10.2467 41.2006C10.0546 41.1179 9.84688 41.0456 9.62372 40.9836L8.84263 40.7604C8.34671 40.6179 7.9541 40.4143 7.66481 40.1498C7.37552 39.8853 7.23087 39.5392 7.23087 39.1115C7.23087 38.7561 7.32696 38.4461 7.51913 38.1816C7.71337 37.9151 7.97373 37.7084 8.30021 37.5617C8.62876 37.4129 8.99554 37.3386 9.40055 37.3386C9.80969 37.3386 10.1734 37.4119 10.4916 37.5586C10.8098 37.7033 11.0619 37.9016 11.2479 38.1537C11.4359 38.4058 11.5351 38.692 11.5454 39.0123H10.8015ZM1.76639 49.1072V48.4253H6.52728V49.1072H4.53117V54.7732H3.76249V49.1072H1.76639Z" fill="#1F1F1F"/>
<path d="M0.5 32.6316H17.2035" stroke="#1F1F1F" stroke-miterlimit="10"/>
<path d="M0.5 46.8171H17.2035" stroke="#1F1F1F" stroke-miterlimit="10"/>
<path d="M33.893 72.0488C35.0492 72.3257 36.2144 72.5937 37.3707 72.8528C37.3173 73.085 37.2728 73.3173 37.2195 73.5495C36.33 73.353 35.4495 73.1475 34.5601 72.9421C34.3911 73.6477 34.231 74.3624 34.062 75.068C34.8891 75.2645 35.7163 75.4521 36.5435 75.6397C36.4901 75.8719 36.4456 76.0953 36.3923 76.3275C35.5562 76.1399 34.729 75.9523 33.9019 75.7558C33.6795 76.7205 33.4483 77.6852 33.2259 78.65C32.9413 78.5785 32.6478 78.516 32.3632 78.4445C32.8701 76.3007 33.3771 74.1748 33.893 72.0488Z" fill="#1F1F1F"/>
<path d="M45.5089 77.7202C45.1354 79.9533 43.5166 80.8912 41.8 80.5696C40.0122 80.2302 39.0339 78.6581 39.443 76.7108C39.861 74.6652 41.4176 73.6023 43.1431 73.9238C44.913 74.2544 45.8291 75.7997 45.5089 77.7202ZM40.3502 76.8716C40.0745 78.2472 40.6082 79.6407 41.969 79.8997C43.3476 80.1587 44.3349 79.069 44.5928 77.604C44.8152 76.3178 44.3705 74.8528 42.9741 74.5938C41.5865 74.3258 40.6349 75.4602 40.3502 76.8716Z" fill="#1F1F1F"/>
<path d="M54.2787 79.0159C54.0118 81.258 52.4464 82.2763 50.712 82.0351C48.9154 81.785 47.8659 80.2486 48.1772 78.2924C48.5063 76.229 50.0005 75.0946 51.7438 75.3357C53.5227 75.5769 54.5099 77.0776 54.2787 79.0159ZM49.1022 78.4085C48.8887 79.7931 49.4846 81.1597 50.8633 81.3562C52.2508 81.5528 53.1847 80.4183 53.3715 78.9445C53.5315 77.6492 53.0246 76.2111 51.6104 76.0146C50.2051 75.8092 49.3156 76.9882 49.1022 78.4085Z" fill="#1F1F1F"/>
<path d="M57.712 76.2661C58.2367 76.2483 58.8593 76.2483 59.5264 76.3108C60.7449 76.4269 61.5899 76.7842 62.1235 77.3648C62.6661 77.9454 62.9507 78.7315 62.8707 79.7945C62.7906 80.8664 62.3815 81.715 61.6966 82.2599C61.0118 82.8226 59.9355 83.0638 58.6103 82.9298C57.9877 82.8673 57.4629 82.7869 57.0271 82.6886C57.2584 80.5448 57.4807 78.401 57.712 76.2661ZM57.9699 82.1348C58.1834 82.1973 58.5036 82.242 58.8504 82.2688C60.7271 82.4474 61.8211 81.5185 61.9634 79.7498C62.0969 78.2045 61.2964 77.1594 59.4997 76.9807C59.0639 76.9361 58.7259 76.945 58.4947 76.9718C58.3168 78.6958 58.1478 80.4108 57.9699 82.1348Z" fill="#1F1F1F"/>
<path d="M74.202 83.7679C74.0152 83.5803 73.8373 83.3927 73.5794 83.1158C72.9834 83.6339 72.3164 83.8393 71.5692 83.8125C70.244 83.7678 69.5058 82.8835 69.5502 81.892C69.5858 80.9988 70.1639 80.4092 70.9378 80.0251C70.9378 80.0162 70.9378 80.0073 70.9378 79.9983C70.6087 79.5606 70.413 79.0694 70.4308 78.6049C70.4575 77.8099 71.0712 77.0149 72.1652 77.0417C72.9834 77.0685 73.606 77.6223 73.5883 78.4709C73.5705 79.1587 73.1613 79.7036 72.0851 80.1859C72.0851 80.1948 72.0851 80.2038 72.0851 80.2127C72.6366 80.8737 73.2592 81.6062 73.6772 82.0796C73.9974 81.6241 74.2197 80.9988 74.3621 80.1681C74.6289 80.1681 74.8957 80.177 75.1536 80.177C74.958 81.2042 74.6645 82.026 74.1486 82.5888C74.5044 82.9639 74.8512 83.3391 75.2515 83.7679C74.9046 83.7768 74.5577 83.7768 74.202 83.7679ZM73.1524 82.6156C72.7611 82.1779 72.0229 81.3561 71.3113 80.4986C70.9466 80.7129 70.4219 81.1149 70.3952 81.8027C70.3685 82.553 70.92 83.1515 71.7382 83.1783C72.3253 83.1962 72.8233 82.9461 73.1524 82.6156ZM71.2224 78.5602C71.2046 79.0247 71.4091 79.3909 71.6849 79.7572C72.3697 79.3999 72.8144 79.0604 72.8233 78.4977C72.8322 78.0957 72.6188 77.6491 72.0762 77.6312C71.5426 77.6133 71.2401 78.051 71.2224 78.5602Z" fill="#1F1F1F"/>
<path d="M82.0913 77.2553C82.6072 77.166 83.2209 77.0856 83.8969 77.0677C85.1154 77.0231 85.9959 77.2643 86.6007 77.7734C87.2144 78.2826 87.5969 79.024 87.6592 80.078C87.7125 81.1499 87.4279 82.0432 86.8231 82.6774C86.2183 83.3205 85.1776 83.7046 83.8524 83.7493C83.2209 83.7671 82.6961 83.7582 82.2514 83.7135C82.198 81.5608 82.1447 79.4081 82.0913 77.2553ZM83.1142 83.0436C83.3365 83.0793 83.6567 83.0793 84.0036 83.0615C85.8803 82.9989 86.8498 81.927 86.7608 80.1584C86.6897 78.6131 85.7647 77.6752 83.9591 77.7377C83.5144 77.7555 83.1853 77.8002 82.963 77.8538C83.0074 79.5867 83.0608 81.3107 83.1142 83.0436Z" fill="#1F1F1F"/>
<path d="M90.5586 76.8535C90.9855 76.7374 91.5903 76.6391 92.1774 76.5945C93.0846 76.523 93.6805 76.6391 94.1252 76.9696C94.481 77.2287 94.7122 77.6574 94.7567 78.1666C94.8368 79.033 94.3387 79.6583 93.6449 79.9441C93.6449 79.9531 93.6449 79.962 93.6449 79.9709C94.1786 80.1049 94.5255 80.5426 94.7478 81.2036C95.0502 82.0969 95.2726 82.7132 95.4327 82.9544C95.1303 82.9812 94.8279 83.008 94.5255 83.0348C94.4009 82.8561 94.1964 82.3113 93.9384 81.5073C93.6627 80.623 93.2714 80.3104 92.4887 80.3461C92.2129 80.364 91.9461 80.3908 91.6704 80.4086C91.7415 81.3555 91.8127 82.3023 91.8839 83.2492C91.5903 83.267 91.2968 83.2938 91.0033 83.3117C90.861 81.1679 90.7098 79.0062 90.5586 76.8535ZM91.6259 79.7744C91.9194 79.7566 92.2129 79.7298 92.5065 79.703C93.4315 79.6315 93.974 79.0777 93.9029 78.3363C93.8317 77.4877 93.1824 77.1751 92.2841 77.2376C91.875 77.2733 91.5814 77.3269 91.448 77.3805C91.5103 78.1844 91.5725 78.9794 91.6259 79.7744Z" fill="#1F1F1F"/>
<path d="M98.5902 76.0244C98.8392 78.2039 99.0794 80.3746 99.3284 82.5541C99.0349 82.5898 98.7414 82.6166 98.4479 82.6524C98.2077 80.4728 97.9765 78.3022 97.7363 76.1227C98.0298 76.0869 98.3056 76.0601 98.5902 76.0244Z" fill="#1F1F1F"/>
<path d="M102.877 82.116C102.593 79.9454 102.308 77.7749 102.014 75.6043C102.326 75.5596 102.628 75.5239 102.939 75.4792C103.784 76.4796 104.647 77.4711 105.528 78.4627C106.132 79.1505 106.631 79.7757 107.049 80.3921C107.057 80.3921 107.057 80.3831 107.066 80.3831C106.853 79.5256 106.711 78.7396 106.55 77.7302C106.408 76.828 106.275 75.9169 106.132 75.0147C106.399 74.97 106.666 74.9343 106.924 74.8896C107.271 77.0513 107.609 79.213 107.956 81.3746C107.662 81.4193 107.369 81.464 107.075 81.5176C106.195 80.535 105.314 79.5346 104.46 78.543C103.891 77.891 103.349 77.2032 102.922 76.5422C102.913 76.5511 102.904 76.5511 102.895 76.56C103.055 77.3729 103.18 78.15 103.331 79.2309C103.455 80.1598 103.58 81.0888 103.713 82.0089C103.42 82.0357 103.153 82.0803 102.877 82.116Z" fill="#1F1F1F"/>
<path d="M110.331 74.2996C110.615 74.246 110.891 74.2014 111.167 74.1478C111.354 75.1839 111.549 76.229 111.736 77.2652C111.745 77.2652 111.754 77.2652 111.763 77.2563C111.896 76.9704 112.03 76.7114 112.154 76.4702C112.679 75.5323 113.186 74.6033 113.693 73.6654C114.04 73.5939 114.387 73.5225 114.733 73.46C114.138 74.5319 113.524 75.5948 112.901 76.6667C113.995 77.7386 115.107 78.8016 116.228 79.8646C115.89 79.936 115.543 80.0075 115.205 80.07C114.262 79.1589 113.319 78.2478 112.403 77.3277C112.234 77.6046 112.074 77.8816 111.905 78.1585C112.056 78.9803 112.208 79.802 112.359 80.6238C112.065 80.6774 111.781 80.731 111.487 80.7846C111.096 78.614 110.713 76.4613 110.331 74.2996Z" fill="#1F1F1F"/>
<path d="M118.54 78.311C118.976 78.454 119.581 78.5165 120.177 78.3825C121.057 78.177 121.466 77.6143 121.315 76.9712C121.173 76.3727 120.746 76.1136 119.776 75.9886C118.62 75.8635 117.837 75.4615 117.642 74.5594C117.428 73.5589 118.104 72.6389 119.358 72.3441C120.017 72.1923 120.532 72.228 120.861 72.3173C120.835 72.5585 120.817 72.7997 120.79 73.0498C120.55 72.9873 120.079 72.8979 119.492 73.0319C118.611 73.2374 118.389 73.8358 118.487 74.2735C118.62 74.872 119.083 75.0775 120.07 75.2114C121.28 75.3722 121.964 75.7563 122.196 76.6942C122.436 77.6768 121.875 78.7219 120.292 79.0792C119.643 79.2311 118.896 79.2043 118.496 79.0524C118.496 78.8023 118.522 78.5522 118.54 78.311Z" fill="#1F1F1F"/>
<path d="M146.929 80.8286C101.016 91.7352 53.2003 91.7352 7.27895 80.8286C6.49625 80.641 6.21163 79.7388 6.75418 79.2029C8.54194 77.4521 10.2941 75.6835 12.0285 73.897C12.2776 73.6379 12.3576 73.2717 12.242 72.9412C11.4415 70.583 10.6766 68.2248 9.93835 65.8666C9.71599 65.152 10.3653 64.4732 11.0946 64.6429C54.5078 74.951 99.7087 74.951 143.122 64.6429C143.86 64.4642 144.5 65.152 144.278 65.8666C143.54 68.2248 142.766 70.583 141.974 72.9412C141.859 73.2806 141.939 73.6469 142.188 73.897C143.922 75.6835 145.674 77.4521 147.462 79.2029C147.996 79.7388 147.702 80.641 146.929 80.8286Z" stroke="#1F1F1F" stroke-width="2" stroke-miterlimit="10"/>
<path d="M43.9261 101.854V96.8169H45.6279C46.023 96.8169 46.346 96.8882 46.5969 97.0308C46.8494 97.1718 47.0363 97.3628 47.1576 97.6038C47.2789 97.8449 47.3396 98.1137 47.3396 98.4105C47.3396 98.7072 47.2789 98.9769 47.1576 99.2196C47.0379 99.4623 46.8526 99.6557 46.6018 99.8C46.3509 99.9426 46.0296 100.014 45.6377 100.014H44.4179V99.4729H45.6181C45.8886 99.4729 46.1058 99.4262 46.2698 99.3327C46.4337 99.2393 46.5526 99.113 46.6264 98.954C46.7018 98.7933 46.7395 98.6122 46.7395 98.4105C46.7395 98.2088 46.7018 98.0285 46.6264 97.8694C46.5526 97.7104 46.4329 97.5858 46.2673 97.4956C46.1017 97.4038 45.882 97.3579 45.6082 97.3579H44.536V101.854H43.9261ZM48.3221 101.854V96.8169H50.0239C50.4174 96.8169 50.7404 96.8841 50.9929 97.0185C51.2454 97.1513 51.4323 97.3341 51.5536 97.5669C51.6749 97.7998 51.7356 98.0645 51.7356 98.3613C51.7356 98.6581 51.6749 98.9212 51.5536 99.1507C51.4323 99.3803 51.2462 99.5606 50.9953 99.6918C50.7445 99.8213 50.424 99.8861 50.0338 99.8861H48.6565V99.3352H50.0141C50.283 99.3352 50.4994 99.2958 50.6633 99.2171C50.8289 99.1384 50.9486 99.027 51.0224 98.8827C51.0978 98.7368 51.1355 98.563 51.1355 98.3613C51.1355 98.1596 51.0978 97.9834 51.0224 97.8326C50.947 97.6817 50.8265 97.5653 50.6609 97.4833C50.4953 97.3997 50.2764 97.3579 50.0042 97.3579H48.932V101.854H48.3221ZM50.6928 99.591L51.9323 101.854H51.2241L50.0042 99.591H50.6928ZM52.7519 101.854V96.8169H55.7916V97.3579H53.3618V99.0597H55.6342V99.6008H53.3618V101.312H55.8309V101.854H52.7519ZM56.8909 96.8169H57.6189L59.3305 100.998H59.3896L61.1012 96.8169H61.8292V101.854H61.2586V98.0268H61.2094L59.6355 101.854H59.0846L57.5106 98.0268H57.4615V101.854H56.8909V96.8169ZM63.662 96.8169V101.854H63.0521V96.8169H63.662ZM68.1902 96.8169H68.8001V100.152C68.8001 100.496 68.7189 100.803 68.5566 101.074C68.3959 101.343 68.1689 101.555 67.8754 101.711C67.5819 101.865 67.2376 101.942 66.8425 101.942C66.4474 101.942 66.103 101.865 65.8096 101.711C65.5161 101.555 65.2882 101.343 65.1259 101.074C64.9652 100.803 64.8849 100.496 64.8849 100.152V96.8169H65.4948V100.102C65.4948 100.348 65.5489 100.567 65.6571 100.759C65.7653 100.949 65.9194 101.099 66.1194 101.209C66.3211 101.317 66.5621 101.371 66.8425 101.371C67.1228 101.371 67.3639 101.317 67.5655 101.209C67.7672 101.099 67.9213 100.949 68.0279 100.759C68.1361 100.567 68.1902 100.348 68.1902 100.102V96.8169ZM70.0181 96.8169H70.746L72.4577 100.998H72.5167L74.2284 96.8169H74.9563V101.854H74.3858V98.0268H74.3366L72.7626 101.854H72.2118L70.6378 98.0268H70.5886V101.854H70.0181V96.8169ZM79.9567 100.28H80.6256L81.1864 101.017L81.3339 101.214L82.1701 102.326H81.5012L80.9503 101.588L80.8126 101.401L79.9567 100.28ZM82.3767 99.3352C82.3767 99.8664 82.2808 100.325 82.0889 100.712C81.8971 101.099 81.634 101.398 81.2995 101.608C80.965 101.817 80.583 101.922 80.1535 101.922C79.7239 101.922 79.3419 101.817 79.0074 101.608C78.673 101.398 78.4098 101.099 78.218 100.712C78.0262 100.325 77.9302 99.8664 77.9302 99.3352C77.9302 98.804 78.0262 98.3449 78.218 97.958C78.4098 97.571 78.673 97.2727 79.0074 97.0628C79.3419 96.8529 79.7239 96.748 80.1535 96.748C80.583 96.748 80.965 96.8529 81.2995 97.0628C81.634 97.2727 81.8971 97.571 82.0889 97.958C82.2808 98.3449 82.3767 98.804 82.3767 99.3352ZM81.7864 99.3352C81.7864 98.8991 81.7135 98.531 81.5676 98.231C81.4233 97.9309 81.2274 97.7039 80.9798 97.5497C80.7339 97.3956 80.4584 97.3186 80.1535 97.3186C79.8485 97.3186 79.5722 97.3956 79.3247 97.5497C79.0787 97.7039 78.8828 97.9309 78.7369 98.231C78.5926 98.531 78.5205 98.8991 78.5205 99.3352C78.5205 99.7713 78.5926 100.139 78.7369 100.439C78.8828 100.739 79.0787 100.967 79.3247 101.121C79.5722 101.275 79.8485 101.352 80.1535 101.352C80.4584 101.352 80.7339 101.275 80.9798 101.121C81.2274 100.967 81.4233 100.739 81.5676 100.439C81.7135 100.139 81.7864 99.7713 81.7864 99.3352ZM86.7075 96.8169H87.3174V100.152C87.3174 100.496 87.2363 100.803 87.0739 101.074C86.9133 101.343 86.6862 101.555 86.3927 101.711C86.0992 101.865 85.7549 101.942 85.3598 101.942C84.9647 101.942 84.6204 101.865 84.3269 101.711C84.0334 101.555 83.8055 101.343 83.6432 101.074C83.4825 100.803 83.4022 100.496 83.4022 100.152V96.8169H84.0121V100.102C84.0121 100.348 84.0662 100.567 84.1744 100.759C84.2826 100.949 84.4367 101.099 84.6368 101.209C84.8384 101.317 85.0794 101.371 85.3598 101.371C85.6402 101.371 85.8812 101.317 86.0828 101.209C86.2845 101.099 86.4386 100.949 86.5452 100.759C86.6534 100.567 86.7075 100.348 86.7075 100.102V96.8169ZM88.742 101.854H88.1025L89.9519 96.8169H90.5815L92.4309 101.854H91.7915L90.2864 97.6137H90.2471L88.742 101.854ZM88.9781 99.8861H91.5554V100.427H88.9781V99.8861ZM93.2154 101.854V96.8169H93.8253V101.312H96.1666V101.854H93.2154ZM97.7209 96.8169V101.854H97.111V96.8169H97.7209ZM98.6683 97.3579V96.8169H102.446V97.3579H100.862V101.854H100.252V97.3579H98.6683ZM102.954 96.8169H103.653L105.05 99.168H105.109L106.506 96.8169H107.204L105.384 99.7779V101.854H104.774V99.7779L102.954 96.8169Z" fill="#1F1F1F"/>
</svg>
