<svg width="174" height="104" viewBox="0 0 174 104" fill="none" xmlns="http://www.w3.org/2000/svg">
<path d="M163.878 80.3594L97.8124 100.396C90.7583 102.536 83.2417 102.536 76.1876 100.396L10.1215 80.3594C5.3002 78.8966 2 74.3999 2 69.2982V18.2271C2 9.26074 9.16082 2.00098 17.9851 2.00098H156.015C164.848 2.00098 172 9.26976 172 18.2271V69.2982C171.991 74.3999 168.691 78.8966 163.878 80.3594Z" stroke="#FA8507" stroke-width="3" stroke-miterlimit="10"/>
<path d="M86.9867 95.98C83.9 95.98 80.8311 95.5285 77.8689 94.6256L11.8027 74.589C9.50773 73.8937 7.90656 71.7176 7.90656 69.2887V18.2175C7.90656 12.5831 12.4254 7.99609 17.9762 7.99609H156.006C161.557 7.99609 166.076 12.5831 166.076 18.2175V69.2887C166.076 71.7176 164.474 73.8937 162.179 74.589L96.1133 94.6256C93.1511 95.5285 90.0823 95.98 86.9867 95.98Z" stroke="#FA8507" stroke-width="2" stroke-miterlimit="10"/>
<path d="M16.9818 52.3255C17.9911 53.1161 19.4612 53.6566 21.0188 53.463C23.3234 53.1726 24.6665 51.4301 24.6665 49.1311C24.6665 46.9853 23.7367 45.8237 21.3765 44.6218C18.5315 43.2988 16.7752 41.1289 16.7752 37.5714C16.7752 33.6106 19.0242 31.0454 22.4095 31.5455C24.1976 31.7956 25.493 32.5055 26.2638 33.1589C26.0572 33.9252 25.8506 34.6996 25.6439 35.4741C25.0718 35.0223 23.9115 34.2237 22.3301 34.0543C19.946 33.78 19.048 35.6757 19.048 37.3617C19.048 39.6526 20.1049 40.8385 22.5129 42.1291C25.4612 43.7022 26.9632 45.4688 26.9632 48.7439C26.9632 52.1561 24.9685 55.3828 20.852 56.0443C19.1672 56.3025 17.3315 55.8991 16.4017 55.1247C16.6003 54.189 16.7911 53.2532 16.9818 52.3255Z" fill="#FA8507"/>
<path d="M29.975 43.1538C29.975 41.5565 29.9512 40.2417 29.8717 38.951C30.5392 38.9832 31.1988 39.0155 31.8664 39.0478C31.8982 39.8625 31.9379 40.6773 31.9697 41.492C31.9935 41.492 32.0174 41.492 32.0492 41.492C32.7485 40.0642 33.9167 38.7977 35.9908 38.9026C37.7074 38.9913 39.0027 40.2175 39.5511 41.8631C39.5669 41.8631 39.5828 41.8631 39.6067 41.8631C39.9961 41.0887 40.4888 40.4998 41.0054 40.0884C41.7603 39.4834 42.5868 39.1849 43.7868 39.2333C45.4477 39.314 47.9192 40.5321 47.9192 44.9768C47.9192 47.5017 47.9192 50.0347 47.9192 52.5596C47.1722 52.6242 46.4252 52.6887 45.6861 52.7532C45.6861 50.2686 45.6861 47.7922 45.6861 45.3076C45.6861 42.7908 44.804 41.25 42.9603 41.2016C41.665 41.1693 40.6477 42.2019 40.2583 43.4361C40.155 43.783 40.0756 44.2428 40.0756 44.7026C40.0756 47.5663 40.0756 50.43 40.0756 53.2937C39.3286 53.3663 38.5895 53.447 37.8425 53.5276C37.8425 50.6881 37.8425 47.8486 37.8425 45.001C37.8425 42.7423 36.9603 41.0806 35.22 41.0322C33.7895 40.9919 32.7564 42.3229 32.3909 43.7023C32.2637 44.1056 32.2081 44.5816 32.2081 45.0494C32.2081 48.0906 32.2081 51.1318 32.2081 54.1649C31.4611 54.2536 30.722 54.3424 29.975 54.4392C29.975 50.6881 29.975 46.9209 29.975 43.1538Z" fill="#FA8507"/>
<path d="M63.0422 45.7099C63.0422 49.9126 59.8157 51.9374 56.7641 52.1633C53.3549 52.4214 50.7244 50.1547 50.7244 46.1535C50.7244 41.9104 53.482 39.5469 56.9707 39.6759C60.5945 39.7969 63.0422 42.2331 63.0422 45.7099ZM53.0449 46.0245C53.0449 48.7349 54.6343 50.6709 56.8753 50.5338C59.0607 50.4047 60.7058 48.4284 60.7058 45.8228C60.7058 43.8626 59.6409 41.3619 56.931 41.3054C54.2131 41.2489 53.0449 43.677 53.0449 46.0245Z" fill="#FA8507"/>
<path d="M68.2076 45.2752C68.2235 45.2752 68.2394 45.2752 68.2633 45.2752C68.5732 44.88 69.0182 44.396 69.3838 44.0087C70.6156 42.7342 71.8553 41.4838 73.0871 40.2496C74.0089 40.2577 74.9307 40.2738 75.8526 40.2819C74.2314 41.742 72.6023 43.2182 70.9811 44.7348C72.8327 46.8724 74.6844 48.9617 76.536 51.0349C75.6062 51.0591 74.6765 51.0833 73.7467 51.1075C72.2924 49.4135 70.846 47.7033 69.3917 45.9609C69.0023 46.3481 68.6129 46.7353 68.2156 47.1225C68.2156 48.5181 68.2156 49.9056 68.2156 51.3011C67.4606 51.3334 66.7057 51.3656 65.9507 51.3979C65.9507 45.8964 65.9507 40.4029 65.9507 34.9014C66.7057 34.9336 67.4606 34.974 68.2156 35.0062C68.2076 38.4185 68.2076 41.8469 68.2076 45.2752Z" fill="#FA8507"/>
<path d="M79.4446 45.9851C79.5002 48.6068 81.479 49.6555 83.7757 49.6474C85.4207 49.6394 86.4061 49.3974 87.2723 49.0908C87.3994 49.5506 87.5346 50.0104 87.6617 50.4702C86.8511 50.7768 85.4684 51.1237 83.4657 51.1398C79.5797 51.1801 77.2592 49.0666 77.2592 45.8238C77.2592 42.5809 79.5002 40.0561 83.1797 40.0803C87.3041 40.0883 88.3928 43.1214 88.3928 45.0736C88.3928 45.4689 88.3451 45.7754 88.3133 45.969C85.3491 45.9609 82.3929 45.969 79.4446 45.9851ZM86.1677 44.5896C86.1915 43.3634 85.5717 41.4677 82.9889 41.4597C80.6684 41.4516 79.6512 43.2505 79.4684 44.5976C81.7015 44.5896 83.9346 44.5896 86.1677 44.5896Z" fill="#FA8507"/>
<path d="M93.5742 36.1275C93.5742 38.1926 93.5742 40.2658 93.5742 42.3309C96.4113 42.3228 99.2404 42.3147 102.077 42.3067C102.077 40.1851 102.077 38.0636 102.077 35.9339C102.84 35.9097 103.603 35.8855 104.374 35.8613C104.374 40.9918 104.374 46.1142 104.374 51.2447C103.611 51.2124 102.848 51.1882 102.077 51.164C102.077 48.7843 102.077 46.4046 102.077 44.0249C99.2484 44.0168 96.4113 44.0088 93.5742 44.0088C93.5742 46.3239 93.5742 48.6472 93.5742 50.9623C92.8193 50.9543 92.0643 50.9381 91.3094 50.9381C91.3094 46.0093 91.3094 41.0886 91.3094 36.1598C92.0643 36.1437 92.8193 36.1356 93.5742 36.1275Z" fill="#FA8507"/>
<path d="M119.632 45.8796C119.632 50.4293 116.406 52.1475 113.354 51.9458C109.945 51.7199 107.306 49.3806 107.306 45.8554C107.306 42.1205 110.072 39.8699 113.561 39.765C117.184 39.644 119.632 42.1124 119.632 45.8796ZM109.635 45.8151C109.635 48.2996 111.224 50.2357 113.465 50.3567C115.651 50.4777 117.296 48.6142 117.296 45.9038C117.296 43.8629 116.231 41.2977 113.521 41.3542C110.811 41.3945 109.635 43.6612 109.635 45.8151Z" fill="#FA8507"/>
<path d="M133.055 49.4779C133.055 50.9058 133.078 52.1642 133.158 53.2613C132.482 53.1887 131.807 53.1241 131.131 53.0596C131.092 52.3175 131.044 51.5753 131.004 50.8332C130.988 50.8332 130.972 50.8332 130.957 50.8332C130.361 51.8899 129.033 53.1645 126.8 52.9547C124.822 52.7611 122.453 51.4785 122.453 47.1063C122.453 44.6702 122.453 42.234 122.453 39.7978C123.216 39.7736 123.979 39.7494 124.742 39.7252C124.742 42.0807 124.742 44.4362 124.742 46.7917C124.742 49.2117 125.473 50.8896 127.547 51.051C129.081 51.172 130.146 50.1233 130.559 49.0504C130.686 48.6955 130.766 48.2518 130.766 47.8081C130.766 45.0412 130.766 42.2824 130.766 39.5155C131.529 39.4832 132.292 39.459 133.055 39.4268C133.055 42.7745 133.055 46.1302 133.055 49.4779Z" fill="#FA8507"/>
<path d="M136.535 50.9547C137.211 51.5113 138.403 52.1647 139.547 52.2777C141.208 52.4471 141.987 51.5194 141.987 50.261C141.987 48.938 141.335 48.1717 139.65 47.3569C137.394 46.3083 136.329 44.8805 136.329 43.1703C136.329 40.8793 137.966 38.9191 140.66 38.7658C141.931 38.7013 143.044 39.0885 143.743 39.5725C143.552 40.2663 143.362 40.9519 143.171 41.6295C142.678 41.2585 141.772 40.7745 140.604 40.8067C139.253 40.8471 138.506 41.7748 138.506 42.8557C138.506 44.0657 139.261 44.6062 140.89 45.3887C143.068 46.4293 144.18 47.849 144.18 50.1642C144.18 52.923 142.472 54.6251 139.484 54.246C138.109 54.0846 136.837 53.5442 135.955 52.8666C136.154 52.2373 136.345 51.6001 136.535 50.9547Z" fill="#FA8507"/>
<path d="M148.384 47.4375C148.44 51.4305 150.403 53.3182 152.683 53.6166C154.313 53.8183 155.298 53.544 156.148 53.1246C156.276 53.9151 156.403 54.7137 156.538 55.5123C155.735 55.9237 154.368 56.2867 152.374 55.9883C148.519 55.3591 146.215 51.842 146.215 47.0745C146.215 42.3151 148.44 38.4188 152.087 38.1446C156.172 37.83 157.261 43.0008 157.261 46.3646C157.261 47.0422 157.213 47.5585 157.181 47.8973C154.249 47.7279 151.317 47.5746 148.384 47.4375ZM155.06 45.4773C155.083 43.4202 154.464 40.2581 151.905 40.3629C149.6 40.4597 148.591 43.267 148.408 45.3079C150.625 45.3643 152.842 45.4208 155.06 45.4773Z" fill="#FA8507"/>
<path d="M64.1494 78.7881C64.3807 78.8061 64.6832 78.8423 65.0568 78.9325C65.5193 79.0409 65.8307 79.2215 65.9997 79.4653C66.1598 79.682 66.2221 79.971 66.1598 80.296C66.0886 80.6211 65.9374 80.8649 65.715 81.0093C65.4037 81.217 64.9678 81.2622 64.5053 81.1448C64.3629 81.1087 64.2295 81.0726 64.1316 81.0184C64.016 81.497 63.9093 81.9845 63.7936 82.4631C63.6335 82.427 63.4734 82.3818 63.3132 82.3457C63.589 81.1629 63.8737 79.971 64.1494 78.7881ZM64.2117 80.6391C64.3095 80.6933 64.4341 80.7294 64.5942 80.7656C65.1635 80.901 65.5727 80.7023 65.6883 80.2057C65.795 79.7272 65.5015 79.4201 64.9856 79.3028C64.781 79.2576 64.6209 79.2305 64.5408 79.2396C64.4341 79.7001 64.3273 80.1696 64.2117 80.6391Z" fill="#FA8507"/>
<path d="M68.0812 79.6641C68.3303 79.6641 68.6683 79.7002 68.9974 79.7634C69.4956 79.8627 69.8069 80.0072 69.9937 80.251C70.1538 80.4496 70.2072 80.7115 70.1627 80.9914C70.0827 81.47 69.7179 81.7409 69.3088 81.795C69.3088 81.8041 69.3088 81.8041 69.3088 81.8131C69.5756 81.9666 69.7002 82.2555 69.7269 82.6438C69.7624 83.1765 69.7891 83.5468 69.8425 83.7003C69.6735 83.6732 69.5045 83.6371 69.3355 83.61C69.291 83.4926 69.2643 83.1675 69.2376 82.689C69.2109 82.1652 69.0508 81.9395 68.6149 81.8402C68.4637 81.8131 68.3125 81.786 68.1613 81.7499C68.0634 82.2736 67.9655 82.7973 67.8677 83.3301C67.7076 83.303 67.5475 83.2668 67.3785 83.2307C67.6186 82.0569 67.8499 80.856 68.0812 79.6641ZM68.2324 81.4158C68.3926 81.4519 68.5616 81.479 68.7217 81.5061C69.2287 81.6054 69.6023 81.3797 69.6735 80.9643C69.7536 80.4948 69.4511 80.2239 68.953 80.1246C68.7306 80.0794 68.5615 80.0704 68.4815 80.0794C68.4014 80.5219 68.3214 80.9643 68.2324 81.4158Z" fill="#FA8507"/>
<path d="M73.703 82.5447C73.2227 82.4815 72.7334 82.4093 72.2531 82.3371C72.1908 82.7795 72.1197 83.222 72.0574 83.6554C72.6 83.7366 73.1426 83.8179 73.6941 83.8901C73.6764 84.0256 73.6586 84.152 73.6408 84.2874C72.9291 84.1881 72.2176 84.0888 71.5148 83.9804C71.7016 82.7615 71.8884 81.5425 72.0663 80.3145C72.7246 80.4138 73.3828 80.5131 74.0322 80.6034C74.0144 80.7388 73.9966 80.8653 73.9788 81.0007C73.4807 80.9285 72.9736 80.8652 72.4755 80.784C72.4221 81.1723 72.3598 81.5605 72.3065 81.9398C72.7868 82.012 73.2672 82.0842 73.7476 82.1475C73.7387 82.2829 73.7208 82.4183 73.703 82.5447Z" fill="#FA8507"/>
<path d="M78.7468 83.2129C78.7646 82.6982 78.7734 82.0752 78.8179 81.6147C78.809 81.6147 78.8091 81.6147 78.8002 81.6147C78.64 82.0391 78.4443 82.4815 78.213 82.9782C77.9462 83.5561 77.6704 84.1339 77.3858 84.7028C77.2612 84.6938 77.1367 84.6757 77.0122 84.6667C76.861 84.0617 76.7186 83.4567 76.5763 82.8517C76.4518 82.31 76.3539 81.8224 76.3006 81.3709H76.2917C76.2294 81.8314 76.1404 82.4454 76.0426 82.9962C75.9536 83.5199 75.8647 84.0436 75.7757 84.5674C75.6156 84.5493 75.4644 84.5312 75.3043 84.5132C75.5356 83.2942 75.7579 82.0752 75.9803 80.8652C76.1849 80.8923 76.3806 80.9104 76.5852 80.9284C76.7275 81.5425 76.8787 82.1655 77.0388 82.7795C77.1456 83.249 77.2435 83.6644 77.2968 84.0617C77.3057 84.0617 77.3057 84.0617 77.3146 84.0617C77.448 83.7005 77.617 83.3032 77.8216 82.8608C78.0974 82.2829 78.3643 81.714 78.6311 81.1361C78.8357 81.1542 79.0314 81.1722 79.236 81.1903C79.2182 82.4273 79.2005 83.6644 79.1916 84.9014C79.0314 84.8924 78.8713 84.8744 78.7112 84.8653C78.7201 84.2965 78.729 83.7547 78.7468 83.2129Z" fill="#FA8507"/>
<path d="M81.7623 81.3347C81.7001 82.5718 81.6378 83.7998 81.5756 85.0368C81.4154 85.0278 81.2464 85.0188 81.0863 85.0097C81.1575 83.7727 81.2286 82.5447 81.2909 81.3076C81.4421 81.3166 81.6022 81.3257 81.7623 81.3347Z" fill="#FA8507"/>
<path d="M84.1552 81.4253C84.1374 82.1567 84.1196 82.8881 84.0929 83.6195C84.0662 84.4502 84.4399 84.8114 84.9469 84.8204C85.5073 84.8294 85.872 84.4682 85.8809 83.6556C85.8898 82.9242 85.8987 82.1928 85.8987 81.4614C86.0588 81.4614 86.2189 81.4614 86.3791 81.4614C86.3791 82.1838 86.3701 82.9061 86.3701 83.6195C86.3701 84.7572 85.7475 85.2267 84.9202 85.2087C84.1375 85.1906 83.5592 84.7391 83.6037 83.5924C83.6304 82.861 83.6482 82.1386 83.6749 81.4072C83.835 81.4163 83.9951 81.4253 84.1552 81.4253Z" fill="#FA8507"/>
<path d="M91.5028 83.4293C91.4494 82.9147 91.3871 82.2916 91.3694 81.8311C91.3605 81.8311 91.3604 81.8311 91.3515 81.8311C91.2448 82.2736 91.1114 82.7431 90.9423 83.2578C90.7466 83.8628 90.551 84.4768 90.3464 85.0817C90.2218 85.0817 90.0973 85.0908 89.9728 85.0908C89.7504 84.5129 89.528 83.926 89.3145 83.3481C89.1277 82.8334 88.9676 82.3548 88.8519 81.9214H88.843C88.843 82.3819 88.8253 83.0049 88.8075 83.5648C88.7808 84.0975 88.763 84.6212 88.7363 85.154C88.5762 85.154 88.4249 85.163 88.2648 85.163C88.336 83.926 88.4072 82.6889 88.4694 81.4519C88.674 81.4519 88.8697 81.4428 89.0743 81.4428C89.2967 82.0388 89.528 82.6257 89.7504 83.2216C89.9194 83.6731 90.0617 84.0795 90.1684 84.4587C90.1773 84.4587 90.1774 84.4587 90.1863 84.4587C90.2663 84.0795 90.3908 83.6731 90.542 83.1946C90.7377 82.5896 90.9335 81.9846 91.1292 81.3796C91.3338 81.3706 91.5294 81.3616 91.734 81.3525C91.8764 82.5806 92.0098 83.8086 92.161 85.0366C92.0009 85.0456 91.8408 85.0547 91.6807 85.0637C91.6095 84.5129 91.5561 83.9711 91.5028 83.4293Z" fill="#FA8507"/>
<path d="M96.0305 81.0726C96.2351 81.0094 96.5553 80.9462 96.8845 80.9101C97.3559 80.8559 97.6673 80.9101 97.9164 81.0636C98.121 81.181 98.2633 81.3887 98.2989 81.6776C98.3433 82.0298 98.1388 82.3729 97.7652 82.5625V82.5716C98.1299 82.6167 98.5746 82.8605 98.6369 83.4023C98.6725 83.7183 98.5746 83.9711 98.4056 84.1788C98.1654 84.4407 97.7562 84.6032 97.1336 84.6664C96.7955 84.7025 96.5376 84.7025 96.3686 84.7025C96.2529 83.4835 96.1462 82.2736 96.0305 81.0726ZM96.6532 82.5354C96.7956 82.5174 96.9468 82.5083 97.0891 82.4903C97.5961 82.4361 97.863 82.1381 97.8274 81.786C97.7829 81.3526 97.436 81.2262 96.9557 81.2713C96.7422 81.2984 96.6177 81.3255 96.5376 81.3435C96.5732 81.7408 96.6088 82.1381 96.6532 82.5354ZM96.8222 84.2962C96.92 84.3052 97.0624 84.2962 97.2314 84.2781C97.7384 84.224 98.1832 83.9892 98.1209 83.4564C98.0676 82.9508 97.605 82.7973 97.0802 82.8515C96.9468 82.8695 96.8133 82.8785 96.6799 82.8966C96.7333 83.3571 96.7777 83.8267 96.8222 84.2962Z" fill="#FA8507"/>
<path d="M102.24 82.2018C101.759 82.2831 101.279 82.3553 100.79 82.4185C100.852 82.861 100.914 83.3034 100.976 83.7369C101.519 83.6556 102.062 83.5743 102.613 83.484C102.631 83.6195 102.658 83.7459 102.675 83.8813C101.964 83.9987 101.261 84.1071 100.549 84.2064C100.38 82.9784 100.22 81.7594 100.051 80.5314C100.71 80.4411 101.368 80.3418 102.017 80.2334C102.035 80.3688 102.062 80.4953 102.079 80.6307C101.581 80.712 101.074 80.7842 100.576 80.8564C100.629 81.2447 100.683 81.633 100.736 82.0122C101.217 81.94 101.697 81.8678 102.177 81.7955C102.204 81.94 102.222 82.0754 102.24 82.2018Z" fill="#FA8507"/>
<path d="M106.056 81.5156C105.575 81.6149 105.095 81.7052 104.615 81.7955C104.695 82.2379 104.775 82.6714 104.855 83.1138C105.397 83.0145 105.94 82.9061 106.483 82.7978C106.509 82.9332 106.536 83.0596 106.563 83.1951C105.86 83.3395 105.148 83.475 104.446 83.6014C104.232 82.3824 104.019 81.1724 103.805 79.9535C104.463 79.8361 105.113 79.7097 105.762 79.5742C105.789 79.7097 105.816 79.8361 105.842 79.9715C105.344 80.0708 104.846 80.1702 104.348 80.2605C104.419 80.6487 104.49 81.028 104.552 81.4162C105.033 81.3259 105.504 81.2357 105.985 81.1363C106.002 81.2537 106.029 81.3892 106.056 81.5156Z" fill="#FA8507"/>
<path d="M107.515 79.1946C108.164 79.0502 108.813 78.8967 109.454 78.7432C109.48 78.8696 109.516 79.005 109.543 79.1314C109.053 79.2488 108.555 79.3662 108.057 79.4836C108.146 79.8809 108.235 80.2872 108.324 80.6845C108.787 80.5762 109.249 80.4678 109.712 80.3594C109.738 80.4859 109.774 80.6123 109.801 80.7477C109.338 80.8561 108.876 80.9735 108.404 81.0728C108.529 81.6146 108.644 82.1654 108.769 82.7071C108.609 82.7433 108.449 82.7794 108.288 82.8155C108.039 81.6055 107.781 80.4046 107.515 79.1946Z" fill="#FA8507"/>
<path d="M92.6245 72.3597L88.0523 67.9804C88.0789 67.9623 88.0968 67.9352 88.1234 67.9171L92.0908 63.89C92.4199 63.5559 92.5978 63.0954 92.5889 62.6168L92.5533 61.6055C92.5444 61.4249 92.4377 61.2714 92.2776 61.2082C92.1175 61.145 91.9307 61.1811 91.8062 61.3075L86.5934 66.5988L86.3266 66.346C86.5311 65.7501 86.4066 65.0638 85.9352 64.5852L84.7521 63.3843L82.7239 61.3256C82.5994 61.1992 82.4126 61.1992 82.2881 61.3256C82.1635 61.452 82.1635 61.6416 82.2881 61.768L84.3162 63.8268L83.7914 64.3595L81.7632 62.3008C81.6387 62.1744 81.4519 62.1744 81.3273 62.3008C81.2028 62.4272 81.2028 62.6168 81.3273 62.7432L83.3555 64.802L82.8307 65.3347L80.8025 63.276C80.678 63.1495 80.4912 63.1495 80.3666 63.276C80.2421 63.4024 80.2421 63.592 80.3666 63.7184L82.3948 65.7771L83.5779 66.9781C83.907 67.3122 84.334 67.4747 84.761 67.4747C84.9833 67.4747 85.1969 67.4296 85.4015 67.3483L85.6238 67.5921L85.5171 67.7004L80.9004 72.3868C80.509 72.7841 80.509 73.4252 80.9004 73.8225C81.0961 74.0211 81.354 74.1205 81.612 74.1205C81.87 74.1205 82.1279 74.0211 82.3236 73.8225L85.9085 70.1836C86.2109 69.8766 86.38 69.4522 86.3622 69.0188L86.3444 68.3777L91.2635 73.7864C91.4503 73.976 91.6905 74.0753 91.9574 74.0753C92.2153 74.0753 92.4644 73.976 92.6512 73.7864C93.007 73.38 93.007 72.757 92.6245 72.3597ZM91.9485 62.0389L91.9663 62.6349C91.9752 62.9328 91.8595 63.2308 91.6549 63.4475L87.6876 67.4747C87.483 67.6824 87.2161 67.7907 86.9226 67.7907C86.7447 67.7907 86.5668 67.7456 86.4066 67.6553L86.8247 67.2309L91.9485 62.0389ZM84.0049 66.5266L83.2576 65.7681L84.7521 64.2512L85.4993 65.0096C85.8373 65.3528 85.8907 65.8765 85.6772 66.2828L85.2591 66.7072C84.8499 66.9329 84.3429 66.8697 84.0049 66.5266ZM85.9085 66.9871C85.9174 66.9781 85.9174 66.9781 85.9263 66.969C85.9529 66.942 85.9796 66.9149 85.9974 66.8878L86.1486 67.0323L86.0419 67.1406L85.9085 66.9871ZM85.4548 69.7321L81.87 73.371C81.7187 73.5245 81.4786 73.5245 81.3273 73.371C81.2562 73.2988 81.2117 73.1994 81.2117 73.0911C81.2117 72.9827 81.2473 72.8924 81.3273 72.8112L85.7128 68.3596L85.7306 69.0188C85.7395 69.2896 85.6327 69.5515 85.4548 69.7321ZM92.1886 73.3259C92.1175 73.3981 92.0285 73.4342 91.9306 73.4342C91.8328 73.4342 91.7439 73.3981 91.6816 73.3349L87.1805 68.3957C87.2873 68.3777 87.3851 68.3506 87.4829 68.3144L92.1797 72.8112C92.331 72.9556 92.331 73.1814 92.1886 73.3259Z" fill="#FA8507"/>
<path d="M118.323 65.3076L119.071 66.8426L120.743 67.0864L119.533 68.2874L119.818 69.9759L118.323 69.1813L116.829 69.9759L117.114 68.2874L115.904 67.0864L117.576 66.8426L118.323 65.3076Z" fill="#FA8507"/>
<path d="M107.747 65.3076L108.494 66.8426L110.166 67.0864L108.956 68.2874L109.241 69.9759L107.747 69.1813L106.252 69.9759L106.537 68.2874L105.327 67.0864L106.999 66.8426L107.747 65.3076Z" fill="#FA8507"/>
<path d="M97.1701 65.3076L97.9173 66.8426L99.5896 67.0864L98.3798 68.2874L98.6645 69.9759L97.1701 69.1813L95.6756 69.9759L95.9603 68.2874L94.7505 67.0864L96.4229 66.8426L97.1701 65.3076Z" fill="#FA8507"/>
<path d="M76.008 65.3076L76.7551 66.8426L78.4275 67.0864L77.2177 68.2874L77.5024 69.9759L76.008 69.1813L74.5135 69.9759L74.7982 68.2874L73.5884 67.0864L75.2607 66.8426L76.008 65.3076Z" fill="#FA8507"/>
<path d="M65.4313 65.3076L66.1785 66.8426L67.8509 67.0864L66.6411 68.2874L66.9257 69.9759L65.4313 69.1813L63.9369 69.9759L64.2215 68.2874L63.0118 67.0864L64.6841 66.8426L65.4313 65.3076Z" fill="#FA8507"/>
<path d="M54.8546 65.3076L55.6019 66.8426L57.2742 67.0864L56.0644 68.2874L56.349 69.9759L54.8546 69.1813L53.3602 69.9759L53.6449 68.2874L52.4351 67.0864L54.1074 66.8426L54.8546 65.3076Z" fill="#FA8507"/>
<path d="M70.7925 22.666V17.1585H74.1164V17.7501H71.4594V19.611H73.9442V20.2027H71.4594V22.0744H74.1594V22.666H70.7925ZM78.3304 18.5353C78.2981 18.2628 78.1672 18.0513 77.9378 17.9007C77.7083 17.7501 77.4268 17.6748 77.0933 17.6748C76.8495 17.6748 76.6362 17.7142 76.4533 17.7931C76.2722 17.872 76.1306 17.9805 76.0284 18.1185C75.928 18.2566 75.8778 18.4134 75.8778 18.5891C75.8778 18.7361 75.9128 18.8625 75.9827 18.9683C76.0544 19.0723 76.1458 19.1592 76.257 19.2292C76.3681 19.2973 76.4847 19.3538 76.6066 19.3986C76.7285 19.4416 76.8406 19.4766 76.9427 19.5035L77.5021 19.6541C77.6455 19.6917 77.8051 19.7437 77.9808 19.81C78.1583 19.8764 78.3277 19.9669 78.4891 20.0817C78.6522 20.1946 78.7867 20.3398 78.8924 20.5173C78.9982 20.6948 79.0511 20.9126 79.0511 21.1708C79.0511 21.4684 78.9731 21.7373 78.8171 21.9776C78.663 22.2178 78.4371 22.4087 78.1395 22.5504C77.8436 22.692 77.4842 22.7628 77.0611 22.7628C76.6666 22.7628 76.3251 22.6992 76.0365 22.5719C75.7496 22.4446 75.5237 22.2671 75.3588 22.0394C75.1956 21.8117 75.1033 21.5473 75.0818 21.2461H75.7702C75.7882 21.4541 75.8581 21.6262 75.98 21.7624C76.1037 21.8969 76.2597 21.9973 76.4479 22.0636C76.638 22.1282 76.8423 22.1604 77.0611 22.1604C77.3157 22.1604 77.5442 22.1192 77.7468 22.0367C77.9494 21.9525 78.1099 21.8359 78.2282 21.6871C78.3465 21.5365 78.4057 21.3608 78.4057 21.16C78.4057 20.9772 78.3546 20.8284 78.2524 20.7136C78.1502 20.5989 78.0157 20.5057 77.849 20.4339C77.6823 20.3622 77.5021 20.2995 77.3085 20.2457L76.6308 20.0521C76.2005 19.9284 75.8599 19.7518 75.6089 19.5223C75.3579 19.2928 75.2324 18.9925 75.2324 18.6214C75.2324 18.313 75.3158 18.0441 75.4825 17.8146C75.651 17.5834 75.8769 17.4041 76.1602 17.2768C76.4452 17.1477 76.7635 17.0832 77.1149 17.0832C77.4698 17.0832 77.7854 17.1468 78.0615 17.2741C78.3376 17.3996 78.5563 17.5717 78.7176 17.7904C78.8808 18.0091 78.9668 18.2575 78.9758 18.5353H78.3304ZM79.8464 17.7501V17.1585H83.9771V17.7501H82.2453V22.666H81.5783V17.7501H79.8464ZM88.9757 17.1585V22.666H88.3088V17.8577H88.2765L86.9319 18.7505V18.0728L88.3088 17.1585H88.9757ZM92.3131 17.0832C92.539 17.0849 92.7649 17.128 92.9908 17.2122C93.2167 17.2965 93.4229 17.4363 93.6093 17.6318C93.7958 17.8254 93.9455 18.0898 94.0584 18.4251C94.1714 18.7603 94.2278 19.1808 94.2278 19.6863C94.2278 20.1758 94.1812 20.6105 94.088 20.9906C93.9966 21.3689 93.8639 21.688 93.69 21.948C93.5179 22.2079 93.3081 22.4052 93.0607 22.5396C92.8151 22.6741 92.5372 22.7413 92.227 22.7413C91.9187 22.7413 91.6435 22.6804 91.4014 22.5584C91.1612 22.4347 90.964 22.2635 90.8098 22.0448C90.6574 21.8243 90.5597 21.5688 90.5167 21.2784H91.1729C91.232 21.5312 91.3494 21.74 91.5251 21.905C91.7026 22.0681 91.9366 22.1497 92.227 22.1497C92.6519 22.1497 92.9872 21.9641 93.2328 21.593C93.4802 21.2219 93.6039 20.6975 93.6039 20.0198H93.5609C93.4605 20.1704 93.3413 20.3004 93.2032 20.4097C93.0652 20.5191 92.9119 20.6034 92.7434 20.6625C92.5748 20.7217 92.3956 20.7513 92.2055 20.7513C91.89 20.7513 91.6004 20.6733 91.3369 20.5173C91.0751 20.3595 90.8654 20.1435 90.7076 19.8692C90.5516 19.5931 90.4737 19.2776 90.4737 18.9226C90.4737 18.5855 90.549 18.2772 90.6995 17.9975C90.8519 17.716 91.0653 17.4919 91.3396 17.3252C91.6157 17.1585 91.9402 17.0778 92.3131 17.0832ZM92.3131 17.6748C92.0872 17.6748 91.8837 17.7313 91.7026 17.8442C91.5234 17.9554 91.3808 18.106 91.275 18.296C91.1711 18.4842 91.1191 18.6931 91.1191 18.9226C91.1191 19.1521 91.1693 19.3609 91.2697 19.5492C91.3719 19.7356 91.5108 19.8844 91.6865 19.9956C91.864 20.105 92.0657 20.1596 92.2916 20.1596C92.4619 20.1596 92.6206 20.1265 92.7676 20.0601C92.9146 19.992 93.0428 19.8997 93.1521 19.7832C93.2633 19.6648 93.3502 19.5313 93.413 19.3825C93.4757 19.2319 93.5071 19.075 93.5071 18.9118C93.5071 18.6967 93.4551 18.495 93.3511 18.3068C93.2489 18.1185 93.1073 17.9661 92.9262 17.8496C92.747 17.7331 92.5426 17.6748 92.3131 17.6748ZM95.2854 22.666V22.182L97.1033 20.1919C97.3166 19.9588 97.4923 19.7563 97.6304 19.5841C97.7684 19.4102 97.8706 19.2471 97.937 19.0947C98.0051 18.9405 98.0392 18.7792 98.0392 18.6106C98.0392 18.417 97.9925 18.2494 97.8993 18.1078C97.8079 17.9661 97.6824 17.8568 97.5228 17.7797C97.3633 17.7026 97.184 17.664 96.985 17.664C96.7734 17.664 96.5888 17.708 96.431 17.7958C96.275 17.8819 96.154 18.0029 96.0679 18.1588C95.9837 18.3148 95.9415 18.4977 95.9415 18.7075H95.3069C95.3069 18.3847 95.3813 18.1015 95.5301 17.8577C95.6789 17.6138 95.8815 17.4238 96.1379 17.2875C96.396 17.1513 96.6856 17.0832 97.0065 17.0832C97.3292 17.0832 97.6152 17.1513 97.8644 17.2875C98.1136 17.4238 98.309 17.6076 98.4506 17.8388C98.5922 18.0701 98.6631 18.3274 98.6631 18.6106C98.6631 18.8132 98.6263 19.0113 98.5528 19.205C98.4811 19.3968 98.3556 19.611 98.1763 19.8477C97.9988 20.0826 97.7523 20.3694 97.4368 20.7082L96.1997 22.0314V22.0744H98.7599V22.666H95.2854ZM100.043 22.666L102.506 17.7931V17.7501H99.6661V17.1585H103.194V17.7824L100.742 22.666H100.043Z" fill="#FA8507"/>
<path d="M122.307 20.2496C122.307 20.2496 113.385 21.297 112.815 21.297C112.246 21.297 111.784 20.8275 111.784 20.2496C111.784 19.6717 112.246 19.2021 112.815 19.2021C113.385 19.2021 122.307 20.2496 122.307 20.2496Z" fill="#FA8507"/>
<path d="M61.9694 20.2496C61.9694 20.8275 61.5068 21.297 60.9375 21.297C60.3682 21.297 51.4461 20.2496 51.4461 20.2496C51.4461 20.2496 60.3682 19.2021 60.9375 19.2021C61.5157 19.2021 61.9694 19.6717 61.9694 20.2496Z" fill="#FA8507"/>
</svg>
