<svg width="190" height="100" viewBox="0 0 190 100" fill="none" xmlns="http://www.w3.org/2000/svg">
<path fill-rule="evenodd" clip-rule="evenodd" d="M0 61.8292H64.132V62.4609H0V61.8292ZM0 43.1426H64.132V43.7743H0V43.1426Z" fill="#FA8507"/>
<path fill-rule="evenodd" clip-rule="evenodd" d="M125.868 61.8292H190V62.4609H125.868V61.8292ZM125.868 43.1426H190V43.7743H125.868V43.1426Z" fill="#FA8507"/>
<path d="M39.279 28.0625L39.5433 28.4282C38.9485 28.8438 38.271 29.3093 37.6761 29.725L37.4117 29.3426L37.6926 28.6776C36.0732 26.3168 34.4372 23.9394 32.8178 21.562L32.1238 21.5787L31.8759 21.2295C32.5039 20.7807 32.9996 20.4482 33.6441 19.9993C34.0902 19.6834 34.3216 19.6834 34.7347 20.0658C36.8003 22.1439 38.1718 23.5404 40.0721 25.7183L40.0887 25.7017L36.7837 18.5862C36.5689 18.0708 36.6681 17.8879 37.1308 17.572C37.8083 17.0899 38.1718 16.8239 38.8658 16.3584L39.0972 16.7075L38.8493 17.3393C40.4687 19.7 42.0881 22.0608 43.7075 24.4216H44.4842L44.7321 24.7707C44.0546 25.2528 43.1292 25.8846 42.4351 26.3667L42.1873 26.0176L42.4682 25.2861C41.1628 23.3908 39.8738 21.4956 38.5684 19.6003L37.7752 18.37L37.7256 18.4033L41.5428 26.799L40.5513 27.4972C40.3035 27.6801 40.1052 27.6468 39.9069 27.4473C37.8578 25.3193 35.9245 23.3243 33.8423 21.2295L33.7763 21.2628L34.8999 22.7757C36.1062 24.538 37.3125 26.2836 38.5188 28.0458L39.279 28.0625Z" fill="#FA8507"/>
<path d="M54.6634 16.5594C55.3905 18.039 54.8617 19.5186 53.2588 20.3333C51.6725 21.1313 50.1522 20.6492 49.4416 19.1861L47.1778 14.6142C46.4507 13.1512 46.9795 11.655 48.5824 10.8569C50.1852 10.0589 51.689 10.5245 52.4161 12.0041L54.6634 16.5594ZM50.7801 18.4879C51.2924 19.5186 51.9534 19.8678 52.8127 19.4355C53.6885 19.0033 53.738 18.0722 53.3084 17.2244L51.061 12.6525C50.6314 11.788 49.8713 11.2726 48.9955 11.7215C48.1362 12.1537 48.004 12.8852 48.5163 13.916L50.7801 18.4879Z" fill="#FA8507"/>
<path d="M64.4956 13.5823L63.6693 5.58561L63.0579 5.51912L62.9092 5.08688L64.793 4.43848L64.9417 4.87075L64.5451 5.30299L65.487 15.1284L64.0824 15.6105L58.778 7.33125L58.1666 7.19825L58.0179 6.76601L60.5297 5.90149L60.6453 6.26725L60.2487 6.81588L64.4956 13.5823Z" fill="#FA8507"/>
<path d="M75.7819 11.3374L76.509 11.62L76.6081 12.0357C75.7984 12.2185 74.7243 12.4513 73.8981 12.6342L73.799 12.2185L74.3443 11.6533C73.7329 8.84365 73.1049 6.05063 72.4935 3.25761L71.8656 3.00824L71.7664 2.59262L74.2782 2.02734L74.3773 2.44297L73.9146 2.94173C74.5591 5.73475 75.1705 8.52777 75.7819 11.3374Z" fill="#FA8507"/>
<path d="M83.0362 10.9069L82.9867 10.4913L83.5981 9.97586C83.2841 7.09972 82.9701 4.2402 82.6727 1.38069L82.0778 1.06481L82.0282 0.682435C83.7964 0.482934 85.4158 0.316689 87.1839 0.117188L87.4318 2.41146L86.7047 2.49457L86.1429 1.11468L84.1764 1.33081C84.3086 2.59432 84.4574 3.87445 84.5895 5.17121L85.9776 5.02159L86.2751 4.17372L86.7047 4.12384C86.7873 4.83872 86.903 5.86947 86.9691 6.58435L86.5394 6.63423L86.0768 5.90272L84.6887 6.05234C84.8044 7.13297 84.92 8.19698 85.0357 9.27761C85.0688 9.51036 85.0192 9.64338 84.7878 9.75975V9.82624C85.6141 9.74312 86.4238 9.64336 87.25 9.56023L87.597 8.11386L88.2415 8.04737L88.4894 10.3416C86.6717 10.5079 84.8539 10.7074 83.0362 10.9069Z" fill="#FA8507"/>
<path d="M104.303 0.415628L104.353 0L106.914 0.266008L106.865 0.681635L106.27 0.997516L105.873 4.78804L108.22 5.0374L108.616 1.24688L108.104 0.814639L108.154 0.399012L110.715 0.665019L110.665 1.08065L110.07 1.39653L109.178 10.0416L109.79 10.4572L109.74 10.8728L106.98 10.5902L107.03 10.1746L107.707 9.89196L108.121 5.86866L105.774 5.61929L105.361 9.64257L105.972 10.0582L105.923 10.4738L103.147 10.1912L103.196 9.77557L103.89 9.49295L104.783 0.847897L104.303 0.415628Z" fill="#FA8507"/>
<path d="M122.662 10.8893C122.282 12.5019 120.911 13.2833 119.175 12.8677C117.44 12.452 116.598 11.1054 116.978 9.50939L118.167 4.5385C118.548 2.94249 119.903 2.14448 121.638 2.56011C123.389 2.97574 124.232 4.30575 123.852 5.91839L122.662 10.8893ZM118.448 9.87515C118.184 10.989 118.465 11.6873 119.407 11.92C120.365 12.1528 120.977 11.4712 121.208 10.5402L122.398 5.58587C122.629 4.63823 122.365 3.77374 121.423 3.54098C120.481 3.30823 119.919 3.79036 119.655 4.92087L118.448 9.87515Z" fill="#FA8507"/>
<path d="M134.015 14.7637L136.46 8.39633L136.08 7.83108L136.245 7.39884L138.245 8.1802L138.08 8.59582L137.419 8.74547L134.956 15.1295C134.246 16.9583 132.858 17.2409 131.437 16.7089C130.016 16.1603 129.189 14.9134 129.867 13.1511L132.313 6.78369L131.866 6.13531L132.015 5.73633L134.643 6.75046L134.494 7.14945L133.734 7.33232L131.288 13.6997C130.858 14.8302 131.189 15.4786 132.015 15.8111C132.957 16.1935 133.568 15.9109 134.015 14.7637Z" fill="#FA8507"/>
<path d="M143.087 21.0644C143.764 21.4301 144.309 21.1475 144.656 20.4991L145.251 19.4019C146.16 17.7061 142.558 16.6255 143.764 14.3645L144.359 13.2672C145.086 11.9206 146.342 11.9538 147.383 12.5191C147.895 12.8017 148.358 13.1841 148.523 13.899L148.573 13.9322L148.936 13.5L149.812 13.9821C149.383 14.7801 148.936 15.5947 148.507 16.4094L147.185 15.6945L147.532 15.0461C147.879 14.3977 147.714 13.8657 147.119 13.5332C146.524 13.2007 146.012 13.4168 145.681 14.032L145.086 15.1292C144.243 16.692 147.895 17.7726 146.606 20.1666L146.012 21.2805C145.235 22.7103 143.764 22.6105 142.558 21.9455C141.319 21.2805 140.591 20.0835 141.335 18.7036L141.715 17.9887L143.169 18.7867L142.773 19.5016C142.343 20.2498 142.508 20.7485 143.087 21.0644Z" fill="#FA8507"/>
<path d="M150.605 26.5665L150.853 26.2174L151.646 26.234C153.315 23.8898 154.984 21.5291 156.637 19.1849L156.406 18.5532L156.62 18.2373C158.075 19.2681 159.397 20.2323 160.851 21.2631L159.529 23.1417L158.934 22.7261L159.43 21.313L157.81 20.1492C157.067 21.1966 156.323 22.244 155.579 23.2914L156.72 24.106L157.496 23.6737L157.86 23.9231C157.447 24.505 156.852 25.3529 156.422 25.9347L156.059 25.6854L156.191 24.8375L155.051 24.0229C154.423 24.904 153.811 25.7851 153.183 26.6662C153.051 26.8657 152.919 26.9322 152.671 26.8657L152.621 26.9323C153.299 27.4144 153.96 27.8965 154.637 28.3786L155.86 27.5141L156.389 27.8965L155.067 29.7751C153.58 28.7111 152.093 27.6471 150.605 26.5665Z" fill="#FA8507"/>
<path d="M47.1448 79.6178C47.3431 79.0692 47.2935 78.8365 46.8473 78.4375C46.4342 78.9362 45.7567 79.7342 45.3271 80.233L45.4758 80.765L45.2775 80.9977C44.8313 80.6153 44.253 80.1166 43.8068 79.7342L44.0051 79.5015L44.5504 79.568C45.8393 78.0551 47.1613 76.4923 48.4337 74.9794L48.318 74.5306L48.5163 74.3145L50.1027 75.6611C50.9454 76.376 51.3585 77.2903 50.5488 78.238L49.9374 78.9528C49.3756 79.6178 48.6816 79.6844 48.0867 79.3519C48.2189 79.6844 48.1858 79.9171 48.0701 80.233L47.5744 81.563C47.4753 81.8456 47.3596 82.2612 47.657 82.4275L47.3926 82.7268C47.1778 82.6769 46.9134 82.494 46.7317 82.3444C46.2359 81.9287 46.5003 81.5297 46.6821 80.9811L47.1448 79.6178ZM49.1608 75.6777C48.4337 76.5256 47.938 77.1241 47.2274 77.972L47.7231 78.4042C48.2519 78.8531 48.6981 78.7367 49.1112 78.238L49.7226 77.5231C50.1522 77.0243 50.2183 76.5755 49.673 76.1266L49.1608 75.6777Z" fill="#FA8507"/>
<path d="M51.4576 85.819L51.6229 85.5696H52.1682C53.2753 83.8738 54.3825 82.1947 55.4897 80.5156L55.3079 80.0833L55.4566 79.8672C56.4976 80.5654 57.4561 81.1972 58.4806 81.8788L57.5883 83.2255L57.1586 82.9428L57.4726 81.9453L56.3159 81.1806C55.8201 81.9287 55.3244 82.6768 54.8287 83.4416L55.6384 83.9902L56.1672 83.6743L56.4315 83.8406C56.1506 84.2562 55.754 84.8713 55.4731 85.287L55.2253 85.1207L55.3079 84.5222L54.4982 83.9736C54.085 84.6053 53.6719 85.2371 53.2588 85.8689C53.1762 86.0019 53.0771 86.0517 52.9118 86.0185L52.8788 86.0683C53.358 86.3842 53.8372 86.7001 54.3329 87.0326L55.1592 86.4008L55.5392 86.6502L54.6469 87.9969C53.6058 87.2487 52.5317 86.5339 51.4576 85.819Z" fill="#FA8507"/>
<path d="M64.413 85.9195C63.5372 87.6652 62.6614 89.4274 61.7691 91.1731L62.0334 91.6552L61.8847 91.9711C61.3559 91.7051 60.6454 91.3393 60.1331 91.0733L60.2818 90.7574L60.8271 90.6743C61.703 88.9287 62.5788 87.1664 63.4711 85.4208L62.7936 85.0716L61.9674 85.9694L61.5377 85.7533L62.397 84.1406L66.115 86.0193L65.3384 87.6652L64.9087 87.449L65.1236 86.2354L64.413 85.9195Z" fill="#FA8507"/>
<path d="M70.7584 93.2841C70.7584 92.6856 70.6262 92.5027 70.0644 92.2866C69.8496 92.9017 69.486 93.8826 69.2712 94.4978L69.5852 94.9466L69.4861 95.2292C68.9242 95.0297 68.2136 94.7637 67.6683 94.5642L67.7675 94.2816L68.2963 94.1486C68.9738 92.27 69.6513 90.3415 70.3288 88.4794L70.0644 88.0971L70.1636 87.8145L72.1135 88.5293C73.1545 88.9117 73.8486 89.61 73.4354 90.7903L73.1215 91.6715C72.824 92.5027 72.1961 92.802 71.5186 92.7022C71.7499 92.9682 71.816 93.1844 71.816 93.5335V94.9466C71.816 95.2459 71.8491 95.6781 72.1961 95.728L72.0639 96.1104C71.8325 96.1436 71.5351 96.0605 71.3203 95.9774C70.7089 95.7613 70.808 95.2957 70.808 94.7139L70.7584 93.2841ZM71.2707 88.8951C70.8906 89.9425 70.6262 90.674 70.2462 91.7213L70.8576 91.9375C71.5021 92.1702 71.8821 91.9042 72.0969 91.2891L72.4109 90.408C72.6257 89.7928 72.5431 89.344 71.8821 89.1112L71.2707 88.8951Z" fill="#FA8507"/>
<path d="M81.5159 96.7412C81.268 97.8717 80.3261 98.4369 79.1033 98.1543C77.8805 97.8883 77.2691 96.9573 77.5335 95.8268L78.3101 92.3356C78.558 91.205 79.4999 90.6398 80.7227 90.9058C81.9455 91.1884 82.5569 92.1028 82.3091 93.2333L81.5159 96.7412ZM78.558 96.0762C78.3762 96.8576 78.5911 97.3563 79.252 97.506C79.913 97.6556 80.3592 97.1735 80.4914 96.5251L81.268 93.0338C81.4167 92.3688 81.235 91.7537 80.5575 91.604C79.8965 91.4544 79.5164 91.8035 79.3346 92.5849L78.558 96.0762Z" fill="#FA8507"/>
<path d="M88.5884 99.0025C89.1337 99.0524 89.3981 98.7199 89.4477 98.2045L89.5303 97.34C89.6625 96.01 87.0351 96.2927 87.2169 94.4972L87.2995 93.6326C87.3987 92.552 88.2249 92.2361 89.0511 92.3192C89.4642 92.3525 89.8608 92.4855 90.1583 92.9011H90.1913L90.307 92.5188L91.001 92.5853C90.9349 93.217 90.8688 93.8654 90.8027 94.4972L89.7617 94.3974L89.8113 93.882C89.8608 93.3666 89.613 93.0674 89.1337 93.0175C88.6545 92.9676 88.3736 93.2336 88.3406 93.7324L88.2579 94.5969C88.1423 95.8272 90.7862 95.5445 90.6044 97.4398L90.5218 98.3209C90.4061 99.4514 89.4312 99.8006 88.4727 99.7008C87.4978 99.6011 86.7046 99.0358 86.8038 97.9386L86.8533 97.3733L87.9935 97.4897L87.944 98.0549C87.8944 98.6867 88.1423 98.9693 88.5884 99.0025Z" fill="#FA8507"/>
<path d="M99.9079 95.6785C99.9244 96.9586 99.032 97.3243 97.9084 97.341L97.2804 97.3576C97.2969 98.006 97.297 98.7209 97.3135 99.3692L97.7762 99.6685V99.9678C97.1978 99.9844 96.4212 100.001 95.8428 100.001V99.7018L96.289 99.3859C96.2559 97.3909 96.2229 95.346 96.1733 93.351L95.7767 93.0849V92.7857L97.8423 92.7524C98.9494 92.7358 99.8583 93.1348 99.8913 94.3817L99.9079 95.6785ZM97.1978 93.4174C97.2143 94.5313 97.2474 95.6618 97.2639 96.7757L97.9249 96.7591C98.6024 96.7425 98.8668 96.3767 98.8503 95.7117L98.8337 94.4316C98.8172 93.7666 98.5693 93.4008 97.8753 93.4008L97.1978 93.4174Z" fill="#FA8507"/>
<path d="M105.311 99.501L105.262 99.2018L105.675 98.8361C105.394 96.8244 105.13 94.8294 104.849 92.8344L104.436 92.6183L104.403 92.3523C105.642 92.186 106.766 92.0198 108.005 91.8535L108.22 93.4495L107.707 93.516L107.294 92.5684L105.923 92.7513C106.038 93.6324 106.171 94.5302 106.286 95.4279L107.261 95.2949L107.443 94.6964L107.741 94.6465C107.807 95.1453 107.906 95.8602 107.972 96.3589L107.674 96.4088L107.344 95.91L106.369 96.043C106.468 96.7912 106.567 97.5393 106.683 98.2874C106.699 98.4537 106.683 98.5534 106.518 98.6366V98.6864C107.096 98.6033 107.658 98.5202 108.236 98.4537L108.451 97.4229L108.897 97.3564L109.112 98.9524C107.856 99.1519 106.584 99.3182 105.311 99.501Z" fill="#FA8507"/>
<path d="M117.093 91.8201L116.069 92.0861L116.019 91.9032C115.854 91.2715 115.54 90.806 114.813 90.9889C114.35 91.1053 114.003 91.5375 114.235 92.4186C114.35 92.8343 115.028 95.4444 115.127 95.86C115.342 96.6913 115.772 96.9739 116.35 96.8077C117.077 96.6082 117.176 96.1426 116.978 95.4444L116.879 95.0786L117.903 94.8126L118.002 95.195C118.316 96.4253 117.622 97.1901 116.515 97.4727C115.408 97.7719 114.4 97.4062 114.069 96.1426C113.954 95.727 113.276 93.1169 113.177 92.7013C112.863 91.5209 113.408 90.6564 114.582 90.3571C115.011 90.2407 115.474 90.2241 115.854 90.4735L115.887 90.4569L115.871 90.0579L116.548 89.875L117.093 91.8201Z" fill="#FA8507"/>
<path d="M123.422 88.1638C124.133 89.9925 124.86 91.8213 125.571 93.6334L126.099 93.7664L126.232 94.0989C125.686 94.3151 124.943 94.6143 124.397 94.8304L124.265 94.498L124.563 94.0325C123.852 92.2037 123.125 90.3749 122.414 88.5628L121.704 88.8454L121.836 90.059L121.373 90.2419L120.745 88.5295L124.612 86.9834L125.323 88.6625L124.86 88.8454L124.1 87.8811L123.422 88.1638Z" fill="#FA8507"/>
<path d="M133.007 90.2068L133.552 90.2733L133.684 90.5393C133.172 90.8053 132.494 91.171 131.966 91.437L131.833 91.171L132.098 90.6889C131.172 88.91 130.247 87.1311 129.322 85.3523L128.859 85.3024L128.727 85.0364L130.33 84.1885L130.462 84.4545L130.247 84.8701C131.139 86.649 132.065 88.4279 133.007 90.2068Z" fill="#FA8507"/>
<path d="M139.567 85.5372L137.584 80.267L137.154 80.3335L136.972 80.0675L138.129 79.2861L138.311 79.5521L138.129 79.9179L140.509 86.4017L139.649 86.9836L134.576 82.3285L134.13 82.3618L133.948 82.0958L135.502 81.0484L135.651 81.2645L135.485 81.7134L139.567 85.5372Z" fill="#FA8507"/>
<path d="M146.094 82.1947L145.896 81.9786L146.045 81.4466C144.739 79.9171 143.417 78.371 142.128 76.8415L141.666 76.8913L141.5 76.6918C142.442 75.8772 143.318 75.1291 144.26 74.3145L145.301 75.5281L144.921 75.8606L144.045 75.2787L142.988 76.1931C143.566 76.8747 144.161 77.5563 144.739 78.238L145.483 77.5896L145.317 76.9911L145.549 76.7916C145.879 77.174 146.342 77.7226 146.672 78.105L146.441 78.3045L145.879 78.0717L145.136 78.7201C145.631 79.302 146.111 79.8672 146.606 80.4491C146.706 80.5655 146.739 80.6652 146.656 80.8315L146.689 80.8647C147.135 80.4823 147.565 80.1166 148.011 79.7342L147.631 78.7534L147.978 78.4541L149.019 79.6844C148.044 80.5156 147.069 81.3635 146.094 82.1947Z" fill="#FA8507"/>
<path fill-rule="evenodd" clip-rule="evenodd" d="M97.1317 68.496V72.7686H92.8849V68.496H97.1317ZM111.31 42.8102V62.7769C111.31 64.3563 110.037 65.6365 108.468 65.6365H81.5325C79.9792 65.6365 78.7068 64.3563 78.7068 62.7769V42.8102C78.7068 41.2474 79.9792 39.9506 81.5325 39.9506H108.468C110.021 39.9506 111.31 41.2474 111.31 42.8102ZM117.688 65.6365V68.4793H114.417V72.752H117.688V75.5949H72.3283V72.752H75.6002V68.4793H72.3283V65.6365C73.8816 65.6365 75.1705 64.3563 75.1705 62.7769V42.8102C75.1705 41.2474 73.8981 39.9506 72.3283 39.9506V37.1078H75.6002V32.8351H72.3283V29.9756H117.688V32.8351H114.417V37.1078H117.688V39.9506C116.135 39.9506 114.863 41.2308 114.863 42.8102V62.7769C114.846 64.3563 116.119 65.6365 117.688 65.6365ZM97.1317 32.8351V37.1078H92.8849V32.8351H97.1317ZM78.6903 32.8351V37.1078H82.9371V32.8351H78.6903ZM85.7793 32.8351V37.1078H90.0427V32.8351H85.7793ZM111.31 32.8351V37.1078H107.063V32.8351H111.31ZM104.221 32.8351V37.1078H99.974V32.8351H104.221ZM78.6903 68.496V72.7686H82.9371V68.496H78.6903ZM85.7793 68.496V72.7686H90.0427V68.496H85.7793ZM111.31 68.496V72.7686H107.063V68.496H111.31ZM104.221 68.496V72.7686H99.974V68.496H104.221Z" fill="#FA8507"/>
<path d="M6.60982 53.7496H6.54374H4.97388V56.0605H2.89178V47.8477H6.54374C8.70846 47.8477 9.93126 48.8784 9.93126 50.7072C9.93126 51.9707 9.40248 52.8685 8.44406 53.3506L10.1626 56.0605H7.7996L6.60982 53.7496ZM6.56025 52.1037C7.45258 52.1037 7.98137 51.6382 7.98137 50.7737C7.98137 49.9092 7.45258 49.4769 6.56025 49.4769H4.99042V52.0871H6.56025V52.1037Z" fill="#FA8507"/>
<path d="M18.0944 49.4936V51.1228H21.9943V52.7687H18.0944V54.4146H22.5396V56.0605H16.0289V47.8477H22.4239V49.4936H18.0944Z" fill="#FA8507"/>
<path d="M32.3386 49.5258V56.0595H30.2565V49.5258H27.8274V47.8301H34.8008V49.5258H32.3386Z" fill="#FA8507"/>
<path d="M44.0546 53.7496H43.9885H42.4187V56.0605H40.3366V47.8477H43.9885C46.1533 47.8477 47.3761 48.8784 47.3761 50.7072C47.3761 51.9707 46.8473 52.8685 45.9054 53.3506L47.6239 56.0605H45.2775L44.0546 53.7496ZM44.0051 52.1037C44.8974 52.1037 45.4262 51.6382 45.4262 50.7737C45.4262 49.9092 44.8974 49.4769 44.0051 49.4769H42.4352V52.0871H44.0051V52.1037Z" fill="#FA8507"/>
<path d="M61.7525 51.9375C61.7525 54.3315 59.8687 56.1603 57.3404 56.1603C54.8287 56.1603 52.9284 54.3482 52.9284 51.9375C52.9284 49.5435 54.8122 47.7812 57.3404 47.7812C59.8687 47.7812 61.7525 49.5601 61.7525 51.9375ZM55.0435 51.9541C55.0435 53.334 56.1011 54.4147 57.357 54.4147C58.6129 54.4147 59.6209 53.3507 59.6209 51.9541C59.6209 50.5743 58.6129 49.5269 57.357 49.5269C56.1011 49.5269 55.0435 50.5743 55.0435 51.9541Z" fill="#FA8507"/>
<path d="M133.783 49.4936V51.3888H137.452V53.0347H133.783V56.0605H131.701V47.8477H137.749V49.4936H133.783Z" fill="#FA8507"/>
<path d="M143.417 56.0605V47.8477H145.499V56.0605H143.417Z" fill="#FA8507"/>
<path d="M157.331 54.3148V56.0605H151.795V47.8477H153.877V54.3148H157.331Z" fill="#FA8507"/>
<path d="M170.137 56.0595L170.121 50.7229L168.155 55.2449H166.799L164.833 50.7229V56.0595H162.982V47.8301H165.263L167.477 52.7179L169.691 47.8301H171.955V56.0595H170.137Z" fill="#FA8507"/>
<path d="M184.63 48.6615L183.853 50.2907C182.994 49.792 181.903 49.4262 181.242 49.4262C180.713 49.4262 180.35 49.6257 180.35 50.0247C180.35 51.4379 184.663 50.6399 184.663 53.5991C184.663 55.245 183.208 56.1095 181.391 56.1095C180.019 56.1095 178.631 55.5941 177.656 54.7961L178.466 53.1835C179.309 53.915 180.565 54.4138 181.424 54.4138C182.068 54.4138 182.481 54.1644 182.481 53.6989C182.481 52.2525 178.168 53.117 178.168 50.2076C178.168 48.6947 179.457 47.7305 181.424 47.7305C182.597 47.7471 183.803 48.1128 184.63 48.6615Z" fill="#FA8507"/>
</svg>
