<svg width="196" height="62" viewBox="0 0 196 62" fill="none" xmlns="http://www.w3.org/2000/svg">
<path d="M65.1549 4.06827C65.4843 3.92973 65.9135 3.78129 66.4825 3.65264C67.1812 3.49431 67.7202 3.53392 68.1095 3.74173C68.4589 3.91985 68.7184 4.25629 68.8182 4.72139C68.918 5.18648 68.8581 5.58232 68.6385 5.90887C68.359 6.36407 67.8001 6.6807 67.1313 6.83903C66.9217 6.88851 66.732 6.91821 66.5623 6.91821C66.722 7.60101 66.8917 8.2838 67.0514 8.97649C66.8218 9.02597 66.6022 9.08534 66.3727 9.13482C65.9634 7.44267 65.5641 5.76042 65.1549 4.06827ZM66.4425 6.37394C66.6022 6.37394 66.7919 6.34426 67.0315 6.29479C67.8599 6.10677 68.2892 5.60208 68.1295 4.88959C67.9797 4.2068 67.4008 3.98911 66.6222 4.16723C66.3128 4.2365 66.0832 4.31566 65.9734 4.37503C66.1231 5.04794 66.2828 5.71093 66.4425 6.37394Z" fill="#FA8507"/>
<path d="M71.0841 2.79152C71.4235 2.65298 71.9325 2.51445 72.4216 2.42538C73.1803 2.28685 73.6893 2.32644 74.0886 2.56394C74.408 2.75195 74.6176 3.07849 74.6875 3.47432C74.8073 4.15711 74.438 4.6915 73.8989 4.97847C73.8989 4.98837 73.8989 4.99825 73.8989 4.99825C74.3381 5.06752 74.6576 5.39409 74.8772 5.90866C75.1766 6.60135 75.3962 7.08623 75.536 7.26435C75.2964 7.30394 75.0668 7.34351 74.8273 7.3831C74.7175 7.25445 74.5178 6.82894 74.2483 6.20552C73.9588 5.51282 73.6195 5.29511 72.9906 5.39407C72.771 5.43365 72.5514 5.47323 72.3418 5.51281C72.4815 6.26488 72.6313 7.00707 72.771 7.75914C72.5414 7.79872 72.3118 7.8482 72.0922 7.88778C71.7529 6.19563 71.4235 4.49356 71.0841 2.79152ZM72.242 5.01803C72.4815 4.96855 72.7211 4.92897 72.9507 4.88938C73.6993 4.75084 74.0986 4.27588 73.9888 3.68215C73.869 3.00925 73.31 2.81133 72.5614 2.93998C72.222 2.99935 71.9824 3.07849 71.8726 3.12796C72.0024 3.75139 72.1222 4.38471 72.242 5.01803Z" fill="#FA8507"/>
<path d="M80.3172 4.04852C79.6185 4.13758 78.9098 4.23653 78.2111 4.34538C78.3009 4.9688 78.4007 5.60212 78.4906 6.22554C79.2592 6.11669 80.0278 6.00785 80.8063 5.899C80.8363 6.08701 80.8563 6.27504 80.8862 6.46306C79.888 6.5917 78.8898 6.73023 77.8917 6.88856C77.6221 5.14693 77.3526 3.41518 77.0831 1.67355C78.0713 1.52512 79.0695 1.37669 80.0677 1.24805C80.0976 1.43606 80.1176 1.62409 80.1476 1.8121C79.3889 1.91106 78.6403 2.01992 77.8917 2.12877C77.9715 2.68293 78.0613 3.22717 78.1412 3.78132C78.8399 3.68237 79.5486 3.58342 80.2574 3.48447C80.2673 3.67248 80.2973 3.86051 80.3172 4.04852Z" fill="#FA8507"/>
<path d="M87.6738 3.42415C87.574 2.69188 87.4542 1.82105 87.4043 1.15805C87.3943 1.15805 87.3844 1.15805 87.3844 1.15805C87.2446 1.79137 87.0749 2.46428 86.8653 3.20645C86.6158 4.08716 86.3762 4.95797 86.1466 5.83868C85.9769 5.85847 85.7972 5.86836 85.6276 5.88815C85.2582 5.0866 84.8789 4.27516 84.4996 3.47362C84.1602 2.76113 83.8708 2.10803 83.6512 1.5044C83.6412 1.5044 83.6412 1.5044 83.6312 1.5044C83.6911 2.15751 83.741 3.03823 83.7809 3.82988C83.8109 4.58194 83.8508 5.33399 83.8907 6.09595C83.6711 6.11574 83.4515 6.14543 83.2319 6.16523C83.1521 4.40381 83.0822 2.64239 83.0123 0.880971C83.3118 0.851284 83.6212 0.811696 83.9207 0.782009C84.3299 1.59345 84.7292 2.40489 85.1185 3.22623C85.408 3.84965 85.6475 4.40382 85.8372 4.93818C85.8472 4.93818 85.8571 4.93818 85.8571 4.93818C85.947 4.39392 86.0767 3.80019 86.2564 3.11739C86.506 2.24658 86.7555 1.36587 87.0051 0.495058C87.3045 0.465371 87.6139 0.445572 87.9234 0.425781C88.1729 2.16741 88.4225 3.90905 88.672 5.66057C88.4424 5.68036 88.2228 5.69024 87.9933 5.71004C87.8835 4.94807 87.7736 4.18611 87.6738 3.42415Z" fill="#FA8507"/>
<path d="M91.7364 0.189453C91.8263 1.94098 91.9161 3.7024 92.0159 5.45393C91.7863 5.46382 91.5568 5.47373 91.3272 5.49352C91.2274 3.74199 91.1275 1.98057 91.0277 0.229044C91.2573 0.219148 91.4969 0.199349 91.7364 0.189453Z" fill="#FA8507"/>
<path d="M95.3498 0.0504426C95.3798 1.08948 95.4097 2.12852 95.4397 3.16755C95.4696 4.34513 96.0186 4.83003 96.7373 4.82014C97.5359 4.81024 98.0349 4.28577 98.025 3.11809C98.015 2.07905 98.005 1.04002 97.995 0.000976562C98.2346 0.000976562 98.4741 0.000976562 98.7237 0.000976562C98.7237 1.03012 98.7337 2.04935 98.7337 3.0785C98.7337 4.70138 97.8752 5.36437 96.7173 5.38416C95.6193 5.40395 94.7809 4.82013 94.721 3.17746C94.691 2.13842 94.6511 1.10926 94.6212 0.0702229C94.8707 0.0603273 95.1103 0.0504426 95.3498 0.0504426Z" fill="#FA8507"/>
<path d="M106.16 3.10807C106.15 2.3758 106.15 1.48521 106.19 0.832095C106.18 0.832095 106.17 0.832095 106.17 0.832095C105.951 1.43573 105.691 2.08883 105.392 2.80131C105.032 3.64244 104.683 4.48356 104.333 5.32468C104.154 5.31479 103.984 5.3148 103.804 5.3049C103.545 4.46377 103.275 3.61275 103.006 2.77163C102.766 2.01956 102.557 1.33677 102.417 0.703447C102.407 0.703447 102.407 0.703447 102.397 0.703447C102.367 1.35656 102.307 2.24717 102.247 3.02892C102.187 3.78099 102.117 4.53305 102.058 5.28512C101.838 5.28512 101.618 5.27522 101.399 5.27522C101.549 3.52369 101.708 1.76227 101.868 0.0107422C102.177 0.0206378 102.477 0.0206571 102.786 0.0305527C103.086 0.891471 103.375 1.74247 103.655 2.60339C103.864 3.2565 104.024 3.84034 104.144 4.39449C104.154 4.39449 104.164 4.39449 104.164 4.39449C104.313 3.87002 104.533 3.29609 104.803 2.64298C105.162 1.80185 105.521 0.970622 105.891 0.13939C106.2 0.149286 106.5 0.169085 106.809 0.178981C106.839 1.9404 106.859 3.70182 106.869 5.46324C106.639 5.45334 106.42 5.44345 106.19 5.43355C106.18 4.6518 106.17 3.87993 106.16 3.10807Z" fill="#FA8507"/>
<path d="M113.277 0.723377C113.597 0.69369 114.096 0.69371 114.595 0.743188C115.313 0.822353 115.753 0.990566 116.072 1.28743C116.332 1.52493 116.471 1.85147 116.421 2.26709C116.362 2.77177 115.962 3.17748 115.363 3.31602C115.363 3.32592 115.363 3.32594 115.363 3.33583C115.862 3.51396 116.421 3.99883 116.332 4.78059C116.282 5.22589 116.052 5.55245 115.753 5.78005C115.343 6.06703 114.725 6.15606 113.856 6.067C113.377 6.01753 113.018 5.94827 112.788 5.89879C112.948 4.15717 113.117 2.43532 113.277 0.723377ZM113.776 2.94002C113.986 2.95981 114.205 2.97958 114.415 3.00926C115.164 3.08843 115.643 2.76189 115.693 2.25722C115.763 1.64369 115.303 1.34682 114.575 1.26765C114.245 1.23797 114.056 1.23795 113.936 1.24784C113.896 1.81189 113.836 2.37597 113.776 2.94002ZM113.527 5.45348C113.656 5.49306 113.856 5.51285 114.106 5.54254C114.824 5.61181 115.513 5.43371 115.593 4.67175C115.673 3.95926 115.074 3.59311 114.305 3.51395C114.116 3.49416 113.916 3.47437 113.726 3.45458C113.656 4.11758 113.587 4.78058 113.527 5.45348Z" fill="#FA8507"/>
<path d="M121.792 4.53321C121.093 4.42436 120.394 4.3155 119.685 4.21654C119.596 4.83997 119.506 5.47328 119.416 6.0967C120.185 6.20555 120.953 6.32431 121.722 6.44305C121.692 6.63107 121.662 6.8191 121.632 7.00711C120.634 6.84878 119.646 6.70034 118.647 6.5618C118.887 4.82017 119.126 3.07854 119.376 1.33691C120.374 1.47545 121.362 1.61399 122.351 1.77232C122.321 1.96034 122.291 2.14836 122.261 2.33638C121.512 2.21763 120.754 2.10879 120.005 1.99993C119.925 2.55409 119.845 3.09833 119.765 3.65248C120.474 3.75144 121.173 3.8603 121.871 3.96915C121.852 4.16706 121.822 4.35509 121.792 4.53321Z" fill="#FA8507"/>
<path d="M127.322 5.51261C126.623 5.37407 125.924 5.24544 125.225 5.11679C125.106 5.74022 124.996 6.36365 124.876 6.98708C125.645 7.12562 126.413 7.27405 127.172 7.42249C127.132 7.6105 127.092 7.7985 127.062 7.98651C126.074 7.7886 125.086 7.60059 124.087 7.43236C124.397 5.70063 124.706 3.96891 125.016 2.24707C126.004 2.42519 126.992 2.60331 127.98 2.80122C127.94 2.98924 127.901 3.17726 127.871 3.36528C127.122 3.21685 126.373 3.07831 125.625 2.93978C125.525 3.48403 125.425 4.02827 125.325 4.58242C126.024 4.71106 126.723 4.83973 127.421 4.97827C127.401 5.14649 127.361 5.32459 127.322 5.51261Z" fill="#FA8507"/>
<path d="M130.655 3.33594C131.634 3.54375 132.612 3.77133 133.59 3.99893C133.55 4.18694 133.5 4.36506 133.46 4.55308C132.722 4.37496 131.983 4.20674 131.234 4.03852C131.105 4.61246 130.975 5.17652 130.845 5.75047C131.524 5.8989 132.203 6.05723 132.871 6.21556C132.831 6.39369 132.782 6.58169 132.742 6.75981C132.073 6.60148 131.394 6.44315 130.725 6.29472C130.546 7.06657 130.376 7.84833 130.196 8.62019C129.967 8.57071 129.747 8.52124 129.518 8.47176C129.907 6.76972 130.276 5.05777 130.655 3.33594Z" fill="#FA8507"/>
<path d="M22.2521 25.911C22.164 25.1672 21.8068 24.5898 21.1804 24.1787C20.554 23.7677 19.7858 23.5621 18.8756 23.5621C18.2101 23.5621 17.6277 23.6698 17.1286 23.8851C16.6344 24.1004 16.2478 24.3965 15.9689 24.7733C15.6948 25.1501 15.5578 25.5782 15.5578 26.0578C15.5578 26.4591 15.6532 26.8041 15.8441 27.0928C16.0398 27.3766 16.2894 27.6139 16.5928 27.8048C16.8962 27.9907 17.2142 28.1449 17.547 28.2672C17.8798 28.3846 18.1856 28.4801 18.4645 28.5535L19.9913 28.9645C20.3828 29.0673 20.8183 29.2092 21.2978 29.3903C21.7823 29.5713 22.2447 29.8184 22.6851 30.1316C23.1304 30.4399 23.4975 30.8363 23.7862 31.3207C24.0749 31.8052 24.2192 32.3997 24.2192 33.1044C24.2192 33.9167 24.0064 34.6507 23.5806 35.3065C23.1598 35.9622 22.5432 36.4833 21.7309 36.8699C20.9235 37.2565 19.9424 37.4498 18.7875 37.4498C17.7109 37.4498 16.7787 37.2761 15.9909 36.9286C15.2079 36.5812 14.5913 36.0968 14.1412 35.4753C13.6958 34.8538 13.4438 34.132 13.3851 33.3099H15.2642C15.3131 33.8776 15.504 34.3473 15.8367 34.7192C16.1744 35.0862 16.6001 35.3603 17.1139 35.5413C17.6326 35.7175 18.1905 35.8056 18.7875 35.8056C19.4824 35.8056 20.1063 35.693 20.6592 35.4679C21.2122 35.2379 21.6502 34.9199 21.9731 34.5137C22.2961 34.1027 22.4576 33.6231 22.4576 33.075C22.4576 32.5759 22.3181 32.1697 22.0392 31.8566C21.7603 31.5434 21.3933 31.2889 20.9382 31.0932C20.4831 30.8974 19.9913 30.7262 19.4628 30.5794L17.6131 30.0509C16.4386 29.7132 15.5089 29.2312 14.8238 28.6049C14.1387 27.9785 13.7962 27.1588 13.7962 26.1459C13.7962 25.3042 14.0237 24.5702 14.4788 23.9438C14.9388 23.3126 15.5554 22.8232 16.3285 22.4758C17.1066 22.1235 17.9752 21.9473 18.9343 21.9473C19.9032 21.9473 20.7645 22.121 21.5181 22.4684C22.2716 22.811 22.8686 23.2808 23.3091 23.8778C23.7544 24.4748 23.9893 25.1525 24.0137 25.911H22.2521ZM26.9773 37.1855V25.911H28.6509V27.6726H28.7977C29.0326 27.0708 29.4118 26.6034 29.9354 26.2707C30.459 25.933 31.0878 25.7642 31.8219 25.7642C32.5657 25.7642 33.1847 25.933 33.6789 26.2707C34.1781 26.6034 34.5671 27.0708 34.846 27.6726H34.9635C35.2522 27.0903 35.6852 26.6279 36.2627 26.2854C36.8401 25.9379 37.5325 25.7642 38.34 25.7642C39.348 25.7642 40.1726 26.0798 40.8136 26.7111C41.4546 27.3374 41.7752 28.3137 41.7752 29.6398V37.1855H40.0429V29.6398C40.0429 28.8079 39.8153 28.2134 39.3602 27.8562C38.9051 27.4989 38.3693 27.3203 37.7527 27.3203C36.96 27.3203 36.3459 27.5601 35.9103 28.0397C35.4748 28.5143 35.2571 29.1162 35.2571 29.8453V37.1855H33.4954V29.4637C33.4954 28.8226 33.2874 28.3064 32.8715 27.9149C32.4556 27.5185 31.9197 27.3203 31.264 27.3203C30.8138 27.3203 30.393 27.4402 30.0015 27.68C29.6149 27.9198 29.3017 28.2525 29.0619 28.6783C28.8271 29.0991 28.7096 29.586 28.7096 30.139V37.1855H26.9773ZM49.5227 37.4204C48.5049 37.4204 47.6118 37.1782 46.8436 36.6938C46.0802 36.2093 45.4832 35.5316 45.0526 34.6605C44.6268 33.7895 44.414 32.7716 44.414 31.607C44.414 30.4326 44.6268 29.4074 45.0526 28.5315C45.4832 27.6555 46.0802 26.9753 46.8436 26.4909C47.6118 26.0064 48.5049 25.7642 49.5227 25.7642C50.5406 25.7642 51.4312 26.0064 52.1946 26.4909C52.9629 26.9753 53.5599 27.6555 53.9856 28.5315C54.4162 29.4074 54.6315 30.4326 54.6315 31.607C54.6315 32.7716 54.4162 33.7895 53.9856 34.6605C53.5599 35.5316 52.9629 36.2093 52.1946 36.6938C51.4312 37.1782 50.5406 37.4204 49.5227 37.4204ZM49.5227 35.8643C50.2959 35.8643 50.9321 35.6661 51.4312 35.2698C51.9303 34.8734 52.2998 34.3522 52.5396 33.7063C52.7793 33.0604 52.8992 32.3606 52.8992 31.607C52.8992 30.8534 52.7793 30.1512 52.5396 29.5004C52.2998 28.8495 51.9303 28.3235 51.4312 27.9222C50.9321 27.521 50.2959 27.3203 49.5227 27.3203C48.7496 27.3203 48.1134 27.521 47.6143 27.9222C47.1152 28.3235 46.7457 28.8495 46.5059 29.5004C46.2661 30.1512 46.1463 30.8534 46.1463 31.607C46.1463 32.3606 46.2661 33.0604 46.5059 33.7063C46.7457 34.3522 47.1152 34.8734 47.6143 35.2698C48.1134 35.6661 48.7496 35.8643 49.5227 35.8643ZM58.8907 33.075L58.8613 30.9317H59.2136L64.1463 25.911H66.2896L61.034 31.2253H60.8872L58.8907 33.075ZM57.2758 37.1855V22.1528H59.0081V37.1855H57.2758ZM64.4399 37.1855L60.0357 31.607L61.2689 30.4032L66.6419 37.1855H64.4399ZM72.782 37.4204C71.6957 37.4204 70.7586 37.1807 69.9707 36.7011C69.1877 36.2166 68.5834 35.5413 68.1577 34.6752C67.7368 33.8042 67.5264 32.7912 67.5264 31.6364C67.5264 30.4815 67.7368 29.4637 68.1577 28.5828C68.5834 27.6971 69.1755 27.0071 69.934 26.5129C70.6974 26.0138 71.588 25.7642 72.6058 25.7642C73.1931 25.7642 73.7729 25.8621 74.3455 26.0578C74.918 26.2535 75.4392 26.5716 75.9089 27.012C76.3787 27.4475 76.753 28.025 77.032 28.7443C77.3109 29.4637 77.4504 30.3494 77.4504 31.4015V32.1355H68.7596V30.6381H75.6887C75.6887 30.0019 75.5615 29.4343 75.307 28.9352C75.0575 28.436 74.7002 28.0421 74.2354 27.7534C73.7754 27.4647 73.2322 27.3203 72.6058 27.3203C71.9159 27.3203 71.3189 27.4916 70.8148 27.8341C70.3157 28.1718 69.9316 28.6122 69.6624 29.1554C69.3933 29.6985 69.2587 30.2809 69.2587 30.9023V31.9006C69.2587 32.7521 69.4055 33.4739 69.6991 34.066C69.9976 34.6532 70.4111 35.1009 70.9396 35.4092C71.4681 35.7126 72.0822 35.8643 72.782 35.8643C73.2371 35.8643 73.6481 35.8007 74.0152 35.6735C74.3871 35.5413 74.7076 35.3456 74.9767 35.0862C75.2459 34.822 75.4538 34.4941 75.6006 34.1027L77.2742 34.5724C77.098 35.1401 76.802 35.6392 76.386 36.0698C75.9701 36.4956 75.4563 36.8283 74.8446 37.0681C74.2329 37.303 73.5454 37.4204 72.782 37.4204Z" fill="#FA8507"/>
<path d="M122.061 37.1855V22.1528H123.881V28.8471H131.897V22.1528H133.717V37.1855H131.897V30.4619H123.881V37.1855H122.061ZM141.707 37.4204C140.689 37.4204 139.796 37.1782 139.028 36.6938C138.264 36.2093 137.667 35.5316 137.237 34.6605C136.811 33.7895 136.598 32.7716 136.598 31.607C136.598 30.4326 136.811 29.4074 137.237 28.5315C137.667 27.6555 138.264 26.9753 139.028 26.4909C139.796 26.0064 140.689 25.7642 141.707 25.7642C142.725 25.7642 143.615 26.0064 144.379 26.4909C145.147 26.9753 145.744 27.6555 146.17 28.5315C146.6 29.4074 146.816 30.4326 146.816 31.607C146.816 32.7716 146.6 33.7895 146.17 34.6605C145.744 35.5316 145.147 36.2093 144.379 36.6938C143.615 37.1782 142.725 37.4204 141.707 37.4204ZM141.707 35.8643C142.48 35.8643 143.116 35.6661 143.615 35.2698C144.114 34.8734 144.484 34.3522 144.724 33.7063C144.963 33.0604 145.083 32.3606 145.083 31.607C145.083 30.8534 144.963 30.1512 144.724 29.5004C144.484 28.8495 144.114 28.3235 143.615 27.9222C143.116 27.521 142.48 27.3203 141.707 27.3203C140.934 27.3203 140.297 27.521 139.798 27.9222C139.299 28.3235 138.93 28.8495 138.69 29.5004C138.45 30.1512 138.33 30.8534 138.33 31.607C138.33 32.3606 138.45 33.0604 138.69 33.7063C138.93 34.3522 139.299 34.8734 139.798 35.2698C140.297 35.6661 140.934 35.8643 141.707 35.8643ZM156.565 32.5759V25.911H158.297V37.1855H156.565V35.2771H156.448C156.183 35.8496 155.772 36.3365 155.215 36.7378C154.657 37.1342 153.952 37.3324 153.101 37.3324C152.396 37.3324 151.77 37.1782 151.222 36.8699C150.673 36.5567 150.243 36.087 149.93 35.4606C149.616 34.8293 149.46 34.0342 149.46 33.075V25.911H151.192V32.9576C151.192 33.7797 151.422 34.4354 151.882 34.9248C152.347 35.4141 152.939 35.6588 153.658 35.6588C154.089 35.6588 154.527 35.5487 154.972 35.3285C155.423 35.1083 155.799 34.7706 156.103 34.3155C156.411 33.8604 156.565 33.2806 156.565 32.5759ZM169.456 28.436L167.9 28.8764C167.802 28.6171 167.658 28.3651 167.467 28.1204C167.281 27.8708 167.027 27.6653 166.704 27.5038C166.381 27.3423 165.967 27.2616 165.463 27.2616C164.773 27.2616 164.198 27.4206 163.738 27.7387C163.283 28.0519 163.056 28.4507 163.056 28.9352C163.056 29.3658 163.212 29.7059 163.526 29.9555C163.839 30.205 164.328 30.413 164.994 30.5794L166.667 30.9904C167.675 31.2351 168.426 31.6094 168.921 32.1135C169.415 32.6126 169.662 33.2561 169.662 34.0439C169.662 34.6899 169.476 35.2673 169.104 35.7762C168.737 36.2851 168.223 36.6864 167.563 36.98C166.902 37.2736 166.134 37.4204 165.258 37.4204C164.108 37.4204 163.156 37.1709 162.402 36.6717C161.649 36.1726 161.172 35.4435 160.971 34.4844L162.615 34.0733C162.772 34.6801 163.068 35.1352 163.503 35.4386C163.944 35.742 164.519 35.8937 165.228 35.8937C166.036 35.8937 166.677 35.7224 167.152 35.3799C167.631 35.0324 167.871 34.6165 167.871 34.132C167.871 33.7405 167.734 33.4127 167.46 33.1484C167.186 32.8793 166.765 32.6787 166.197 32.5465L164.318 32.1061C163.286 31.8615 162.527 31.4822 162.043 30.9684C161.563 30.4497 161.323 29.8013 161.323 29.0232C161.323 28.3871 161.502 27.8243 161.859 27.335C162.221 26.8457 162.713 26.4615 163.335 26.1826C163.961 25.9037 164.671 25.7642 165.463 25.7642C166.579 25.7642 167.455 26.0089 168.091 26.4982C168.732 26.9876 169.187 27.6335 169.456 28.436ZM176.997 37.4204C175.91 37.4204 174.973 37.1807 174.185 36.7011C173.402 36.2166 172.798 35.5413 172.372 34.6752C171.951 33.8042 171.741 32.7912 171.741 31.6364C171.741 30.4815 171.951 29.4637 172.372 28.5828C172.798 27.6971 173.39 27.0071 174.149 26.5129C174.912 26.0138 175.803 25.7642 176.82 25.7642C177.408 25.7642 177.988 25.8621 178.56 26.0578C179.133 26.2535 179.654 26.5716 180.124 27.012C180.593 27.4475 180.968 28.025 181.247 28.7443C181.526 29.4637 181.665 30.3494 181.665 31.4015V32.1355H172.974V30.6381H179.903C179.903 30.0019 179.776 29.4343 179.522 28.9352C179.272 28.436 178.915 28.0421 178.45 27.7534C177.99 27.4647 177.447 27.3203 176.82 27.3203C176.13 27.3203 175.533 27.4916 175.029 27.8341C174.53 28.1718 174.146 28.6122 173.877 29.1554C173.608 29.6985 173.473 30.2809 173.473 30.9023V31.9006C173.473 32.7521 173.62 33.4739 173.914 34.066C174.212 34.6532 174.626 35.1009 175.154 35.4092C175.683 35.7126 176.297 35.8643 176.997 35.8643C177.452 35.8643 177.863 35.8007 178.23 35.6735C178.602 35.5413 178.922 35.3456 179.191 35.0862C179.46 34.822 179.668 34.4941 179.815 34.1027L181.489 34.5724C181.313 35.1401 181.017 35.6392 180.601 36.0698C180.185 36.4956 179.671 36.8283 179.059 37.0681C178.448 37.303 177.76 37.4204 176.997 37.4204Z" fill="#FA8507"/>
<path d="M116.491 43.0571L104.583 31.9345C104.643 31.8751 104.713 31.8256 104.773 31.7662L115.104 21.5243C115.962 20.6733 116.431 19.4957 116.391 18.2983L116.312 15.7155C116.302 15.2603 116.012 14.8645 115.593 14.6963C115.174 14.5281 114.685 14.627 114.365 14.9437L100.81 28.3819L100.111 27.7288C100.65 26.2148 100.311 24.4633 99.093 23.256L96.0186 20.2082L90.7382 14.9734C90.4288 14.6666 89.9197 14.6666 89.6003 14.9734C89.2909 15.2801 89.2909 15.7848 89.6003 16.1015L94.8807 21.3363L93.5032 22.7018L88.2228 17.4671C87.9134 17.1603 87.4043 17.1603 87.0849 17.4671C86.7755 17.7738 86.7755 18.2785 87.0849 18.5952L92.3653 23.83L90.9878 25.1956L85.7074 19.9608C85.398 19.654 84.8889 19.654 84.5695 19.9608C84.26 20.2675 84.26 20.7722 84.5695 21.0889L89.8499 26.3236L92.9243 29.3715C93.7727 30.2126 94.8807 30.6282 95.9986 30.6282C96.5676 30.6282 97.1366 30.5194 97.6656 30.3017L98.2445 30.9251L97.9551 31.2121L85.9569 43.1066C84.9388 44.116 84.9388 45.7488 85.9569 46.7581C86.466 47.2628 87.1348 47.5102 87.8036 47.5102C88.4724 47.5102 89.1411 47.2628 89.6502 46.7581L98.9732 37.5156C99.7618 36.7338 100.191 35.6453 100.161 34.5469L100.111 32.9042L112.918 46.6393C113.397 47.1143 114.036 47.3815 114.715 47.3815C115.393 47.3815 116.032 47.1143 116.511 46.6393C117.499 45.6597 117.499 44.0665 116.491 43.0571ZM114.734 16.8337L114.784 18.3478C114.804 19.1097 114.515 19.8618 113.966 20.4061L103.635 30.648C103.106 31.1725 102.397 31.4595 101.648 31.4595C101.179 31.4595 100.72 31.3407 100.311 31.123L101.389 30.0543L114.734 16.8337ZM94.0722 28.2533L92.1357 26.3335L96.0186 22.4842L97.9551 24.4039C98.8335 25.2747 98.9832 26.6007 98.4043 27.6299L97.3262 28.6986C96.2781 29.2627 94.9506 29.1241 94.0722 28.2533ZM99.0331 29.421C99.0531 29.4012 99.0631 29.3913 99.083 29.3814C99.1529 29.3121 99.2128 29.2428 99.2727 29.1736L99.662 29.5397L99.3825 29.8168L99.0331 29.421ZM97.8353 36.3974L88.5123 45.6399C88.123 46.0258 87.4842 46.0258 87.0949 45.6399C86.9052 45.4519 86.8054 45.2045 86.8054 44.9373C86.8054 44.6701 86.9052 44.4227 87.0949 44.2347L98.4941 32.9339L98.544 34.6063C98.5739 35.2693 98.3144 35.9224 97.8353 36.3974ZM115.373 45.5212C115.194 45.6993 114.954 45.7982 114.705 45.7982C114.455 45.7982 114.215 45.6993 114.066 45.5508L102.367 33.0032C102.637 32.9636 102.896 32.8943 103.156 32.7954L115.373 44.205C115.733 44.5613 115.733 45.155 115.373 45.5212Z" fill="#FA8507"/>
<path d="M77.9915 59.0882C77.4225 59.0387 76.8536 58.9793 76.2946 58.9298C76.2447 59.4444 76.1948 59.9491 76.1448 60.4636C76.7837 60.523 77.4225 60.5824 78.0514 60.6418C78.0414 60.8001 78.0214 60.9485 78.0114 61.1069C77.183 61.0277 76.3545 60.9485 75.526 60.8694C75.6757 59.4543 75.8154 58.0392 75.9652 56.6143C76.7438 56.6934 77.5223 56.7726 78.3009 56.8418C78.2909 57.0002 78.271 57.1486 78.261 57.3069C77.6621 57.2575 77.0732 57.1981 76.4742 57.1387C76.4243 57.584 76.3844 58.0392 76.3345 58.4845C76.9035 58.5439 77.4624 58.5934 78.0314 58.6428C78.0214 58.7814 78.0015 58.9397 77.9915 59.0882Z" fill="#FA8507"/>
<path d="M80.0378 60.6019C80.2773 60.7701 80.6466 60.9284 81.0359 60.9581C81.6149 60.9977 81.9842 60.7306 82.0141 60.2951C82.0441 59.8993 81.8245 59.6519 81.2455 59.3847C80.5468 59.0879 80.1376 58.6821 80.1875 58.0884C80.2474 57.4254 80.8463 56.9801 81.6847 57.0395C82.1239 57.0692 82.4434 57.1978 82.633 57.3166C82.5731 57.465 82.5132 57.6134 82.4434 57.752C82.3036 57.6629 82.0241 57.5145 81.6348 57.4848C81.0459 57.4452 80.7864 57.7718 80.7664 58.0587C80.7365 58.4546 80.986 58.6722 81.5749 58.9493C82.2936 59.2858 82.643 59.6519 82.6031 60.2852C82.5532 60.9383 82.0141 61.4826 80.9661 61.4034C80.5368 61.3738 80.0877 61.2154 79.8581 61.0373C79.918 60.8988 79.9779 60.7503 80.0378 60.6019Z" fill="#FA8507"/>
<path d="M85.6675 57.8509C85.2283 57.8311 84.7891 57.8014 84.3399 57.7717C84.3499 57.6134 84.3599 57.4551 84.3699 57.3066C85.4379 57.3759 86.5159 57.4353 87.584 57.4848C87.574 57.6431 87.574 57.8014 87.564 57.9499C87.1248 57.9301 86.6756 57.9103 86.2364 57.8806C86.1666 59.1472 86.0967 60.4139 86.0268 61.6805C85.8372 61.6706 85.6375 61.6607 85.4479 61.6508C85.5277 60.3743 85.5976 59.1077 85.6675 57.8509Z" fill="#FA8507"/>
<path d="M89.3608 57.6038C89.7001 57.5642 90.1094 57.5444 90.5586 57.5543C91.3671 57.584 91.9361 57.7819 92.3054 58.1381C92.6847 58.4944 92.9043 58.9991 92.8843 59.6819C92.8644 60.3746 92.6348 60.9485 92.2156 61.3245C91.7963 61.7105 91.1076 61.9084 90.2392 61.8787C89.8299 61.8688 89.4905 61.8292 89.201 61.7896C89.251 60.4042 89.3009 59.009 89.3608 57.6038ZM89.78 61.4037C89.9197 61.4334 90.1294 61.4433 90.3589 61.4532C91.5767 61.4927 92.2555 60.8495 92.2854 59.6917C92.3154 58.6824 91.7464 58.0293 90.5686 57.9897C90.2791 57.9798 90.0595 57.9996 89.9098 58.0194C89.8598 59.1574 89.8199 60.2855 89.78 61.4037Z" fill="#FA8507"/>
<path d="M98.6338 58.376H98.6239C98.3843 58.5047 98.1348 58.6333 97.8952 58.7619C97.8553 58.6234 97.8253 58.475 97.7854 58.3364C98.0948 58.1781 98.3943 58.0099 98.7037 57.8516C98.8634 57.8516 99.0231 57.8516 99.1828 57.8516C99.1928 59.2271 99.2028 60.6025 99.2128 61.978C99.0231 61.978 98.8435 61.978 98.6538 61.978C98.6538 60.7806 98.6438 59.5833 98.6338 58.376Z" fill="#FA8507"/>
<path d="M102.417 61.5418C102.547 61.5517 102.686 61.5319 102.886 61.5121C103.216 61.4626 103.535 61.3142 103.764 61.0866C104.034 60.8293 104.234 60.4632 104.294 59.9783C104.284 59.9783 104.284 59.9783 104.274 59.9783C104.044 60.2653 103.715 60.4434 103.285 60.4533C102.517 60.4731 102.018 59.9288 102.008 59.2164C101.988 58.4346 102.557 57.7419 103.405 57.7221C104.264 57.7023 104.813 58.3653 104.853 59.4143C104.882 60.3246 104.593 60.9679 104.184 61.3736C103.864 61.6903 103.415 61.8981 102.956 61.9574C102.746 61.997 102.567 62.0069 102.427 61.997C102.427 61.8387 102.417 61.6902 102.417 61.5418ZM102.577 59.1669C102.587 59.6814 102.916 60.0377 103.415 60.0179C103.804 60.008 104.094 59.82 104.234 59.5627C104.264 59.5132 104.284 59.4439 104.284 59.3549C104.264 58.6523 103.984 58.1179 103.385 58.1377C102.896 58.1575 102.557 58.583 102.577 59.1669Z" fill="#FA8507"/>
<path d="M106.779 61.7902C106.779 61.6715 106.769 61.5626 106.769 61.4439C106.919 61.2955 107.058 61.147 107.198 60.9986C108.236 59.9496 108.696 59.3856 108.666 58.7721C108.646 58.3564 108.416 57.9804 107.787 58.0101C107.408 58.0299 107.098 58.2278 106.909 58.396C106.839 58.2674 106.779 58.1388 106.709 58.0101C106.989 57.7528 107.398 57.5648 107.877 57.5351C108.775 57.4955 109.195 58.0794 109.225 58.6632C109.264 59.4252 108.735 60.0684 107.877 60.9491C107.767 61.058 107.657 61.1668 107.548 61.2657V61.2756C108.186 61.246 108.825 61.2163 109.464 61.1767C109.474 61.335 109.484 61.4835 109.494 61.6418C108.596 61.7111 107.687 61.7605 106.779 61.7902Z" fill="#FA8507"/>
<path d="M113.916 57.248C113.926 57.3668 113.936 57.4955 113.946 57.6142C113.437 58.9105 112.908 60.1969 112.379 61.4933C112.179 61.5032 111.98 61.523 111.78 61.5329C112.319 60.2761 112.848 59.0293 113.357 57.7725V57.7626C112.668 57.8121 111.989 57.8616 111.301 57.9012C111.291 57.7428 111.281 57.5944 111.271 57.4361C112.159 57.3767 113.038 57.3074 113.916 57.248Z" fill="#FA8507"/>
<path d="M70.0859 55.8311C70.2556 56.3258 70.4353 56.8305 70.6149 57.3253C71.134 57.4638 71.653 57.6123 72.1821 57.7508C71.7529 58.0675 71.3236 58.394 70.8944 58.7107C70.9244 59.2351 70.9443 59.7695 70.9743 60.294C70.5251 59.9872 70.0759 59.6903 69.6267 59.3836C69.1177 59.5617 68.5986 59.7398 68.0895 59.9179C68.2493 59.4133 68.4189 58.9086 68.5786 58.4138C68.2393 57.9982 67.9099 57.5826 67.5805 57.1571C68.1195 57.1571 68.6585 57.1571 69.1975 57.1472C69.487 56.7019 69.7864 56.2665 70.0859 55.8311Z" fill="#FA8507"/>
<path d="M60.1141 54.2979C60.2638 54.8025 60.4135 55.3072 60.5732 55.8218C61.0923 55.99 61.6014 56.1483 62.1204 56.3165C61.6812 56.6134 61.232 56.9103 60.7829 57.2072C60.7829 57.7316 60.7829 58.266 60.7928 58.7904C60.3536 58.4639 59.9244 58.1373 59.4852 57.8207C58.9662 57.979 58.4471 58.1373 57.9181 58.2858C58.1077 57.791 58.2874 57.2962 58.4771 56.8014C58.1576 56.366 57.8482 55.9405 57.5388 55.5051C58.0778 55.5348 58.6168 55.5546 59.1658 55.5744C59.4852 55.1489 59.8046 54.7234 60.1141 54.2979Z" fill="#FA8507"/>
<path d="M50.2121 52.2988C50.3419 52.8134 50.4617 53.328 50.5914 53.8425C51.1005 54.0306 51.6096 54.2186 52.1186 54.4066C51.6595 54.6837 51.2003 54.9607 50.7411 55.2378C50.7212 55.7623 50.6912 56.2967 50.6713 56.8211C50.252 56.4748 49.8328 56.1284 49.4136 55.7821C48.8845 55.9107 48.3555 56.0394 47.8265 56.168C48.0361 55.6831 48.2457 55.1982 48.4553 54.7134C48.1559 54.2681 47.8664 53.8228 47.5769 53.3676C48.1159 53.417 48.655 53.4665 49.204 53.516C49.5334 53.1103 49.8727 52.7045 50.2121 52.2988Z" fill="#FA8507"/>
<path d="M145.049 52.2988C145.389 52.7045 145.728 53.1103 146.067 53.5259C146.606 53.4764 147.145 53.4269 147.694 53.3774C147.405 53.8227 147.105 54.2681 146.816 54.7233C147.026 55.2082 147.235 55.693 147.445 56.1779C146.916 56.0493 146.387 55.9206 145.858 55.792C145.439 56.1383 145.019 56.4847 144.6 56.831C144.58 56.3066 144.55 55.7722 144.53 55.2477C144.071 54.9707 143.612 54.6936 143.153 54.4165C143.662 54.2285 144.171 54.0405 144.68 53.8524C144.8 53.328 144.929 52.8134 145.049 52.2988Z" fill="#FA8507"/>
<path d="M135.147 54.2979C135.467 54.7234 135.786 55.1489 136.106 55.5645C136.645 55.5447 137.184 55.5249 137.733 55.4952C137.423 55.9306 137.104 56.366 136.794 56.7915C136.984 57.2863 137.164 57.7811 137.353 58.2759C136.834 58.1274 136.305 57.9691 135.786 57.8108C135.357 58.1373 134.918 58.4639 134.479 58.7806C134.479 58.2561 134.479 57.7217 134.488 57.1973C134.039 56.9004 133.59 56.6035 133.151 56.3067C133.67 56.1483 134.179 55.9801 134.698 55.8119C134.848 55.3072 134.998 54.8025 135.147 54.2979Z" fill="#FA8507"/>
<path d="M125.185 55.8311C125.485 56.2665 125.784 56.7118 126.084 57.1472C126.623 57.1472 127.162 57.1571 127.701 57.1571C127.371 57.5727 127.032 57.9883 126.703 58.4138C126.862 58.9185 127.022 59.4232 127.192 59.9179C126.673 59.7398 126.164 59.5617 125.655 59.3836C125.205 59.6903 124.756 59.9971 124.307 60.294C124.337 59.7695 124.357 59.2351 124.387 58.7107C123.958 58.394 123.528 58.0774 123.099 57.7508C123.618 57.6123 124.147 57.4737 124.666 57.3352C124.836 56.8206 125.016 56.3258 125.185 55.8311Z" fill="#FA8507"/>
<path d="M147.784 48.4907H188.819V12.5498H142.604" stroke="#FA8507" stroke-miterlimit="10"/>
<path d="M152.965 53.6264H194V7.42383H142.604" stroke="#FA8507" stroke-width="3" stroke-miterlimit="10"/>
<path d="M48.2158 48.4907H7.18056V12.5498H53.3963" stroke="#FA8507" stroke-miterlimit="10"/>
<path d="M43.0352 53.6264H2V7.42383H53.3963" stroke="#FA8507" stroke-width="3" stroke-miterlimit="10"/>
</svg>
