<svg width="153" height="103" viewBox="0 0 153 103" fill="none" xmlns="http://www.w3.org/2000/svg">
<path d="M63.3898 16.5531C52.8589 17.9823 44.5338 26.888 43.3064 38.0894H52.2007C53.0724 31.0863 56.1053 24.5923 60.8282 19.6169L63.5054 16.7853C63.5854 16.7049 63.5054 16.5442 63.3898 16.5531Z" fill="#FA8507"/>
<path d="M39.9265 43.0215H113.429C117.752 43.0215 121.79 45.1921 124.182 48.8098H29.1733C31.5659 45.1921 35.6039 43.0215 39.9265 43.0215Z" stroke="#FA8507" stroke-width="3" stroke-miterlimit="10" stroke-linecap="round" stroke-linejoin="round"/>
<path d="M84.7539 10.9805H68.6107C51.0534 10.9805 36.8224 25.2725 36.8224 42.9053H116.533C116.542 25.2725 102.311 10.9805 84.7539 10.9805Z" stroke="#FA8507" stroke-width="3" stroke-miterlimit="10" stroke-linecap="round"/>
<path d="M81.4452 6.16454C81.4452 8.46913 79.7197 10.3271 77.594 10.3271C75.4682 10.3271 73.7427 8.4602 73.7427 6.16454C73.7427 3.85995 75.4682 2.00199 77.594 2.00199C79.7197 1.99305 81.4452 3.85995 81.4452 6.16454Z" stroke="#FA8507" stroke-width="3" stroke-miterlimit="10" stroke-linecap="round"/>
<path d="M119.317 57.7398H34.0474C31.3524 57.7398 29.1733 55.5513 29.1733 52.8447H124.191C124.191 55.5513 122.012 57.7398 119.317 57.7398Z" stroke="#FA8507" stroke-width="3" stroke-miterlimit="10" stroke-linecap="round" stroke-linejoin="round"/>
<path d="M8.35178 20.6992L9.44578 22.9234L11.8917 23.2807L10.1218 25.0136L10.5398 27.4522L8.35178 26.2999L6.17267 27.4522L6.59071 25.0136L4.82074 23.2807L7.26668 22.9234L8.35178 20.6992Z" fill="#FA8507"/>
<path d="M144.648 20.6992L145.742 22.9234L148.188 23.2807L146.418 25.0136L146.836 27.4522L144.648 26.2999L142.46 27.4522L142.878 25.0136L141.117 23.2807L143.554 22.9234L144.648 20.6992Z" fill="#FA8507"/>
<path d="M8.35175 51.1934L9.44575 53.4175L11.8917 53.7749L10.1217 55.5078L10.5398 57.9463L8.35175 56.794L6.17264 57.9463L6.59068 55.5078L4.82071 53.7749L7.26665 53.4175L8.35175 51.1934Z" fill="#FA8507"/>
<path d="M144.648 51.1934L145.742 53.4175L148.188 53.7749L146.418 55.5078L146.836 57.9463L144.648 56.794L142.46 57.9463L142.878 55.5078L141.117 53.7749L143.554 53.4175L144.648 51.1934Z" fill="#FA8507"/>
<path d="M138.568 37.5183V43.2891H137.869V38.2509H137.835L136.427 39.1864V38.4763L137.869 37.5183H138.568ZM142.065 37.4394C142.302 37.4413 142.538 37.4864 142.775 37.5747C143.012 37.6629 143.228 37.8095 143.423 38.0142C143.618 38.2171 143.775 38.4942 143.894 38.8455C144.012 39.1967 144.071 39.6373 144.071 40.167C144.071 40.6798 144.022 41.1354 143.925 41.5336C143.829 41.93 143.69 42.2643 143.508 42.5367C143.327 42.8091 143.107 43.0157 142.848 43.1566C142.591 43.2975 142.3 43.368 141.975 43.368C141.652 43.368 141.363 43.3041 141.11 43.1764C140.858 43.0467 140.651 42.8673 140.49 42.6382C140.33 42.4071 140.228 42.1394 140.183 41.8351H140.87C140.932 42.1 141.055 42.3188 141.239 42.4916C141.425 42.6626 141.67 42.7481 141.975 42.7481C142.42 42.7481 142.771 42.5536 143.029 42.1648C143.288 41.7759 143.417 41.2265 143.417 40.5164H143.372C143.267 40.6742 143.142 40.8104 142.998 40.925C142.853 41.0396 142.692 41.1278 142.516 41.1898C142.339 41.2518 142.151 41.2828 141.952 41.2828C141.622 41.2828 141.318 41.2011 141.042 41.0377C140.768 40.8724 140.548 40.646 140.383 40.3586C140.219 40.0693 140.138 39.7387 140.138 39.3667C140.138 39.0136 140.216 38.6905 140.374 38.3974C140.534 38.1025 140.757 37.8677 141.045 37.693C141.334 37.5183 141.674 37.4338 142.065 37.4394ZM142.065 38.0593C141.828 38.0593 141.615 38.1185 141.425 38.2368C141.237 38.3533 141.088 38.5111 140.977 38.7102C140.868 38.9075 140.814 39.1263 140.814 39.3667C140.814 39.6072 140.866 39.826 140.972 40.0233C141.079 40.2186 141.224 40.3746 141.408 40.491C141.594 40.6056 141.806 40.6629 142.042 40.6629C142.221 40.6629 142.387 40.6282 142.541 40.5587C142.695 40.4873 142.829 40.3905 142.944 40.2684C143.061 40.1444 143.152 40.0045 143.217 39.8486C143.283 39.6908 143.316 39.5264 143.316 39.3555C143.316 39.1301 143.262 38.9187 143.153 38.7215C143.046 38.5242 142.897 38.3646 142.707 38.2425C142.52 38.1204 142.305 38.0593 142.065 38.0593ZM145.044 42.1056V41.5308L147.58 37.5183H147.997V38.4087H147.715L145.799 41.4406V41.4857H149.214V42.1056H145.044ZM147.76 43.2891V41.9309V41.6632V37.5183H148.425V43.2891H147.76ZM138.343 53.368C138.012 53.368 137.714 53.3022 137.449 53.1707C137.185 53.0392 136.972 52.8589 136.813 52.6297C136.653 52.4005 136.566 52.1394 136.551 51.8464H137.227C137.253 52.1075 137.371 52.3235 137.582 52.4945C137.794 52.6635 138.048 52.7481 138.343 52.7481C138.579 52.7481 138.79 52.6926 138.974 52.5818C139.16 52.471 139.305 52.3188 139.411 52.1253C139.518 51.93 139.571 51.7092 139.571 51.4632C139.571 51.2114 139.516 50.987 139.405 50.7897C139.296 50.5906 139.146 50.4337 138.954 50.3191C138.763 50.2046 138.544 50.1463 138.298 50.1444C138.121 50.1426 137.94 50.1698 137.754 50.2262C137.568 50.2806 137.415 50.3511 137.294 50.4375L136.641 50.3586L136.99 47.5183H139.988V48.1382H137.576L137.373 49.8401H137.407C137.526 49.7462 137.674 49.6682 137.852 49.6063C138.031 49.5443 138.217 49.5133 138.41 49.5133C138.763 49.5133 139.078 49.5978 139.354 49.7669C139.632 49.9341 139.85 50.1632 140.008 50.4544C140.168 50.7456 140.247 51.0781 140.247 51.4519C140.247 51.8201 140.165 52.1488 140 52.4381C139.836 52.7255 139.611 52.9528 139.323 53.12C139.036 53.2853 138.709 53.368 138.343 53.368Z" fill="#FA8507"/>
<path d="M136.296 32.6338H153" stroke="#FA8507" stroke-miterlimit="10"/>
<path d="M136.296 46.8193H153" stroke="#FA8507" stroke-miterlimit="10"/>
<path d="M1.61347 43.7754V37.4275H5.4445V38.1094H2.38216V40.2543H5.24613V40.9362H2.38216V43.0935H5.4941V43.7754H1.61347ZM10.3015 39.0145C10.2643 38.7004 10.1134 38.4566 9.84895 38.283C9.58445 38.1094 9.26003 38.0226 8.87569 38.0226C8.59467 38.0226 8.34877 38.0681 8.138 38.159C7.9293 38.2499 7.76606 38.375 7.64827 38.5341C7.53256 38.6932 7.4747 38.874 7.4747 39.0765C7.4747 39.2459 7.51499 39.3916 7.59558 39.5135C7.67824 39.6334 7.78362 39.7336 7.91174 39.8142C8.03985 39.8927 8.17416 39.9578 8.31468 40.0095C8.45519 40.059 8.58434 40.0993 8.70212 40.1303L9.34682 40.3039C9.51213 40.3473 9.69604 40.4072 9.89854 40.4837C10.1031 40.5601 10.2984 40.6645 10.4844 40.7967C10.6724 40.9269 10.8274 41.0943 10.9493 41.2989C11.0712 41.5034 11.1322 41.7545 11.1322 42.052C11.1322 42.3951 11.0423 42.705 10.8625 42.9819C10.6848 43.2588 10.4244 43.4789 10.0814 43.6421C9.74046 43.8054 9.32616 43.887 8.8385 43.887C8.3839 43.887 7.99026 43.8136 7.65757 43.6669C7.32696 43.5202 7.06659 43.3156 6.87649 43.0532C6.68845 42.7908 6.58203 42.486 6.55724 42.1388H7.35072C7.37138 42.3785 7.45197 42.5769 7.59248 42.7339C7.73506 42.8889 7.91483 43.0046 8.1318 43.0811C8.35084 43.1555 8.5864 43.1927 8.8385 43.1927C9.13192 43.1927 9.39538 43.1452 9.62888 43.0501C9.86238 42.953 10.0473 42.8187 10.1837 42.6472C10.3201 42.4736 10.3883 42.2711 10.3883 42.0396C10.3883 41.8289 10.3294 41.6574 10.2116 41.5251C10.0938 41.3929 9.93883 41.2854 9.74666 41.2028C9.55449 41.1201 9.34682 41.0478 9.12365 40.9858L8.34257 40.7626C7.84664 40.6201 7.45404 40.4165 7.16475 40.152C6.87546 39.8875 6.73081 39.5414 6.73081 39.1137C6.73081 38.7583 6.8269 38.4483 7.01907 38.1838C7.21331 37.9173 7.47367 37.7106 7.80015 37.5639C8.1287 37.4151 8.49548 37.3407 8.90049 37.3407C9.30963 37.3407 9.67331 37.4141 9.99153 37.5608C10.3097 37.7055 10.5618 37.9038 10.7478 38.1559C10.9359 38.408 11.035 38.6942 11.0454 39.0145H10.3015ZM1.26632 49.1094V48.4275H6.02722V49.1094H4.03111V54.7754H3.26243V49.1094H1.26632Z" fill="#FA8507"/>
<path d="M0 32.6338H16.7035" stroke="#FA8507" stroke-miterlimit="10"/>
<path d="M0 46.8193H16.7035" stroke="#FA8507" stroke-miterlimit="10"/>
<path d="M33.393 72.0508C34.5492 72.3277 35.7144 72.5957 36.8707 72.8547C36.8173 73.087 36.7728 73.3192 36.7195 73.5515C35.83 73.3549 34.9495 73.1495 34.0601 72.944C33.8911 73.6497 33.731 74.3643 33.562 75.07C34.3891 75.2665 35.2163 75.4541 36.0435 75.6417C35.9901 75.8739 35.9456 76.0972 35.8923 76.3295C35.0562 76.1419 34.229 75.9543 33.4019 75.7578C33.1795 76.7225 32.9483 77.6872 32.7259 78.6519C32.4413 78.5804 32.1478 78.5179 31.8632 78.4465C32.3701 76.3027 32.8771 74.1767 33.393 72.0508Z" fill="#FA8507"/>
<path d="M45.009 77.7221C44.6354 79.9552 43.0166 80.8932 41.3 80.5716C39.5123 80.2322 38.5339 78.66 38.943 76.7127C39.3611 74.6672 40.9176 73.6042 42.6431 73.9258C44.413 74.2563 45.3292 75.8016 45.009 77.7221ZM39.8503 76.8735C39.5745 78.2491 40.1082 79.6426 41.469 79.9017C42.8477 80.1607 43.8349 79.0709 44.0929 77.606C44.3152 76.3197 43.8705 74.8548 42.4741 74.5957C41.0866 74.3278 40.1349 75.4622 39.8503 76.8735Z" fill="#FA8507"/>
<path d="M53.7787 79.0179C53.5119 81.2599 51.9465 82.2782 50.2121 82.0371C48.4155 81.787 47.3659 80.2506 47.6772 78.2943C48.0063 76.2309 49.5006 75.0965 51.2439 75.3377C53.0227 75.5789 54.01 77.0795 53.7787 79.0179ZM48.6022 78.4105C48.3888 79.795 48.9847 81.1617 50.3633 81.3582C51.7508 81.5547 52.6847 80.4203 52.8715 78.9464C53.0316 77.6512 52.5246 76.2131 51.1104 76.0166C49.7051 75.8111 48.8157 76.9902 48.6022 78.4105Z" fill="#FA8507"/>
<path d="M57.212 76.2681C57.7367 76.2502 58.3593 76.2502 59.0264 76.3128C60.2449 76.4289 61.0899 76.7862 61.6235 77.3668C62.1661 77.9474 62.4507 78.7335 62.3707 79.7964C62.2906 80.8683 61.8815 81.7169 61.1966 82.2618C60.5118 82.8246 59.4355 83.0657 58.1103 82.9318C57.4877 82.8692 56.9629 82.7888 56.5271 82.6906C56.7584 80.5468 56.9807 78.403 57.212 76.2681ZM57.4699 82.1368C57.6834 82.1993 58.0036 82.2439 58.3504 82.2707C60.2271 82.4494 61.3211 81.5204 61.4634 79.7518C61.5969 78.2065 60.7964 77.1613 58.9997 76.9827C58.5639 76.938 58.2259 76.947 57.9947 76.9738C57.8168 78.6977 57.6478 80.4128 57.4699 82.1368Z" fill="#FA8507"/>
<path d="M73.702 83.7698C73.5152 83.5822 73.3374 83.3946 73.0794 83.1177C72.4835 83.6358 71.8164 83.8413 71.0693 83.8145C69.744 83.7698 69.0058 82.8855 69.0503 81.894C69.0859 81.0007 69.664 80.4112 70.4378 80.0271C70.4378 80.0182 70.4378 80.0092 70.4378 80.0003C70.1087 79.5626 69.913 79.0713 69.9308 78.6068C69.9575 77.8118 70.5712 77.0168 71.6652 77.0436C72.4835 77.0704 73.1061 77.6242 73.0883 78.4728C73.0705 79.1606 72.6614 79.7055 71.5852 80.1879C71.5852 80.1968 71.5852 80.2057 71.5852 80.2147C72.1366 80.8757 72.7592 81.6081 73.1773 82.0816C73.4975 81.626 73.7198 81.0007 73.8621 80.17C74.1289 80.17 74.3958 80.1789 74.6537 80.1789C74.458 81.2062 74.1645 82.028 73.6487 82.5907C74.0044 82.9659 74.3513 83.341 74.7515 83.7698C74.4047 83.7787 74.0578 83.7787 73.702 83.7698ZM72.6525 82.6175C72.2611 82.1798 71.5229 81.358 70.8114 80.5005C70.4467 80.7149 69.9219 81.1168 69.8953 81.8046C69.8686 82.555 70.42 83.1535 71.2383 83.1803C71.8253 83.1981 72.3234 82.948 72.6525 82.6175ZM70.7224 78.5622C70.7046 79.0266 70.9092 79.3929 71.1849 79.7591C71.8698 79.4018 72.3145 79.0624 72.3234 78.4996C72.3323 78.0977 72.1188 77.651 71.5763 77.6332C71.0426 77.6153 70.7402 78.053 70.7224 78.5622Z" fill="#FA8507"/>
<path d="M81.5913 77.2573C82.1072 77.1679 82.7209 77.0876 83.3969 77.0697C84.6154 77.025 85.4959 77.2662 86.1007 77.7754C86.7144 78.2845 87.0969 79.0259 87.1592 80.0799C87.2125 81.1518 86.9279 82.0451 86.3231 82.6793C85.7183 83.3225 84.6776 83.7065 83.3524 83.7512C82.7209 83.7691 82.1961 83.7601 81.7514 83.7155C81.698 81.5627 81.6447 79.41 81.5913 77.2573ZM82.6142 83.0455C82.8365 83.0813 83.1567 83.0813 83.5036 83.0634C85.3803 83.0009 86.3498 81.929 86.2608 80.1603C86.1897 78.615 85.2647 77.6771 83.4591 77.7396C83.0144 77.7575 82.6853 77.8022 82.463 77.8557C82.5074 79.5887 82.5608 81.3126 82.6142 83.0455Z" fill="#FA8507"/>
<path d="M90.0587 76.8554C90.4856 76.7393 91.0904 76.6411 91.6774 76.5964C92.5846 76.5249 93.1806 76.6411 93.6253 76.9716C93.981 77.2306 94.2123 77.6594 94.2568 78.1685C94.3368 79.035 93.8387 79.6603 93.145 79.9461C93.145 79.955 93.145 79.964 93.145 79.9729C93.6786 80.1069 94.0255 80.5446 94.2479 81.2056C94.5503 82.0988 94.7726 82.7152 94.9327 82.9564C94.6303 82.9831 94.3279 83.0099 94.0255 83.0367C93.901 82.8581 93.6964 82.3132 93.4385 81.5093C93.1628 80.625 92.7714 80.3123 91.9887 80.3481C91.713 80.3659 91.4462 80.3927 91.1704 80.4106C91.2416 81.3574 91.3128 82.3043 91.3839 83.2511C91.0904 83.269 90.7969 83.2958 90.5034 83.3136C90.3611 81.1698 90.2099 79.0082 90.0587 76.8554ZM91.126 79.7764C91.4195 79.7585 91.713 79.7317 92.0065 79.7049C92.9315 79.6335 93.4741 79.0796 93.4029 78.3382C93.3318 77.4897 92.6825 77.177 91.7842 77.2395C91.375 77.2753 91.0815 77.3289 90.9481 77.3825C91.0103 78.1864 91.0726 78.9814 91.126 79.7764Z" fill="#FA8507"/>
<path d="M98.0902 76.0264C98.3393 78.2059 98.5794 80.3765 98.8285 82.556C98.535 82.5918 98.2414 82.6186 97.9479 82.6543C97.7078 80.4748 97.4765 78.3042 97.2364 76.1246C97.5299 76.0889 97.8056 76.0621 98.0902 76.0264Z" fill="#FA8507"/>
<path d="M102.377 82.118C102.093 79.9474 101.808 77.7768 101.515 75.6062C101.826 75.5615 102.128 75.5258 102.44 75.4812C103.284 76.4816 104.147 77.4731 105.028 78.4646C105.633 79.1524 106.131 79.7777 106.549 80.394C106.558 80.394 106.558 80.3851 106.566 80.3851C106.353 79.5276 106.211 78.7415 106.051 77.7321C105.908 76.83 105.775 75.9188 105.633 75.0167C105.899 74.972 106.166 74.9363 106.424 74.8916C106.771 77.0533 107.109 79.2149 107.456 81.3766C107.162 81.4213 106.869 81.4659 106.575 81.5195C105.695 80.5369 104.814 79.5365 103.96 78.545C103.391 77.8929 102.849 77.2051 102.422 76.5441C102.413 76.553 102.404 76.553 102.395 76.562C102.555 77.3748 102.68 78.152 102.831 79.2328C102.955 80.1618 103.08 81.0908 103.213 82.0108C102.92 82.0376 102.653 82.0823 102.377 82.118Z" fill="#FA8507"/>
<path d="M109.831 74.3016C110.115 74.248 110.391 74.2033 110.667 74.1497C110.854 75.1859 111.049 76.231 111.236 77.2672C111.245 77.2672 111.254 77.2672 111.263 77.2582C111.396 76.9724 111.53 76.7133 111.654 76.4722C112.179 75.5343 112.686 74.6053 113.193 73.6674C113.54 73.5959 113.887 73.5244 114.233 73.4619C113.637 74.5338 113.024 75.5968 112.401 76.6687C113.495 77.7406 114.607 78.8036 115.728 79.8665C115.39 79.938 115.043 80.0095 114.705 80.072C113.762 79.1609 112.819 78.2497 111.903 77.3297C111.734 77.6066 111.574 77.8835 111.405 78.1604C111.556 78.9822 111.707 79.804 111.859 80.6258C111.565 80.6794 111.28 80.733 110.987 80.7866C110.596 78.616 110.213 76.4632 109.831 74.3016Z" fill="#FA8507"/>
<path d="M118.04 78.313C118.476 78.4559 119.081 78.5184 119.677 78.3844C120.557 78.179 120.966 77.6162 120.815 76.9731C120.673 76.3746 120.246 76.1156 119.276 75.9905C118.12 75.8655 117.338 75.4635 117.142 74.5613C116.928 73.5609 117.604 72.6408 118.858 72.3461C119.517 72.1942 120.033 72.2299 120.362 72.3193C120.335 72.5604 120.317 72.8016 120.29 73.0517C120.05 72.9892 119.579 72.8999 118.992 73.0339C118.111 73.2393 117.889 73.8378 117.987 74.2755C118.12 74.874 118.583 75.0794 119.57 75.2134C120.78 75.3742 121.464 75.7583 121.696 76.6962C121.936 77.6788 121.376 78.7239 119.792 79.0812C119.143 79.233 118.396 79.2062 117.996 79.0544C117.996 78.8043 118.022 78.5542 118.04 78.313Z" fill="#FA8507"/>
<path d="M146.429 80.8305C100.516 91.7371 52.7003 91.7371 6.77892 80.8305C5.99622 80.643 5.7116 79.7408 6.25415 79.2048C8.04191 77.4541 9.79409 75.6854 11.5285 73.8989C11.7775 73.6399 11.8576 73.2736 11.742 72.9431C10.9415 70.5849 10.1765 68.2268 9.43832 65.8686C9.21596 65.154 9.86525 64.4751 10.5946 64.6448C54.0077 74.953 99.2086 74.953 142.622 64.6448C143.36 64.4662 144 65.154 143.778 65.8686C143.04 68.2268 142.266 70.5849 141.474 72.9431C141.359 73.2826 141.439 73.6488 141.688 73.8989C143.422 75.6854 145.174 77.4541 146.962 79.2048C147.496 79.7408 147.202 80.643 146.429 80.8305Z" stroke="#FA8507" stroke-width="2" stroke-miterlimit="10"/>
<path d="M43.426 101.855V96.8188H45.1278C45.523 96.8188 45.846 96.8901 46.0968 97.0328C46.3493 97.1738 46.5362 97.3648 46.6575 97.6058C46.7789 97.8468 46.8395 98.1157 46.8395 98.4124C46.8395 98.7092 46.7789 98.9789 46.6575 99.2216C46.5378 99.4642 46.3526 99.6577 46.1017 99.8019C45.8509 99.9446 45.5295 100.016 45.1377 100.016H43.9179V99.4749H45.118C45.3885 99.4749 45.6058 99.4281 45.7697 99.3347C45.9337 99.2412 46.0525 99.115 46.1263 98.9559C46.2017 98.7953 46.2395 98.6141 46.2395 98.4124C46.2395 98.2108 46.2017 98.0304 46.1263 97.8714C46.0525 97.7124 45.9329 97.5878 45.7673 97.4976C45.6017 97.4058 45.382 97.3599 45.1082 97.3599H44.0359V101.855H43.426ZM47.822 101.855V96.8188H49.5239C49.9173 96.8188 50.2403 96.886 50.4928 97.0205C50.7453 97.1533 50.9322 97.3361 51.0535 97.5689C51.1749 97.8017 51.2355 98.0665 51.2355 98.3633C51.2355 98.66 51.1749 98.9232 51.0535 99.1527C50.9322 99.3822 50.7461 99.5626 50.4953 99.6937C50.2444 99.8233 49.9239 99.888 49.5337 99.888H48.1565V99.3371H49.514C49.7829 99.3371 49.9993 99.2978 50.1633 99.2191C50.3289 99.1404 50.4486 99.0289 50.5223 98.8846C50.5977 98.7387 50.6355 98.5649 50.6355 98.3633C50.6355 98.1616 50.5977 97.9853 50.5223 97.8345C50.4469 97.6837 50.3264 97.5673 50.1608 97.4853C49.9952 97.4017 49.7763 97.3599 49.5042 97.3599H48.4319V101.855H47.822ZM50.1928 99.5929L51.4323 101.855H50.724L49.5042 99.5929H50.1928ZM52.2518 101.855V96.8188H55.2915V97.3599H52.8617V99.0617H55.1341V99.6027H52.8617V101.314H55.3309V101.855H52.2518ZM56.3908 96.8188H57.1188L58.8305 101H58.8895L60.6012 96.8188H61.3291V101.855H60.7586V98.0288H60.7094L59.1354 101.855H58.5845L57.0106 98.0288H56.9614V101.855H56.3908V96.8188ZM63.1619 96.8188V101.855H62.552V96.8188H63.1619ZM67.6901 96.8188H68.3V100.154C68.3 100.498 68.2189 100.805 68.0566 101.076C67.8959 101.345 67.6688 101.557 67.3753 101.713C67.0818 101.867 66.7375 101.944 66.3424 101.944C65.9473 101.944 65.603 101.867 65.3095 101.713C65.016 101.557 64.7881 101.345 64.6258 101.076C64.4651 100.805 64.3848 100.498 64.3848 100.154V96.8188H64.9947V100.104C64.9947 100.35 65.0488 100.569 65.157 100.761C65.2652 100.951 65.4194 101.101 65.6194 101.211C65.821 101.319 66.0621 101.373 66.3424 101.373C66.6228 101.373 66.8638 101.319 67.0655 101.211C67.2671 101.101 67.4212 100.951 67.5278 100.761C67.636 100.569 67.6901 100.35 67.6901 100.104V96.8188ZM69.518 96.8188H70.2459L71.9576 101H72.0166L73.7283 96.8188H74.4563V101.855H73.8857V98.0288H73.8365L72.2626 101.855H71.7117L70.1377 98.0288H70.0886V101.855H69.518V96.8188ZM79.4567 100.282H80.1256L80.6863 101.019L80.8339 101.216L81.67 102.328H81.0011L80.4502 101.59L80.3125 101.403L79.4567 100.282ZM81.8766 99.3371C81.8766 99.8684 81.7807 100.327 81.5889 100.714C81.397 101.101 81.1339 101.4 80.7994 101.61C80.465 101.819 80.083 101.924 79.6534 101.924C79.2238 101.924 78.8418 101.819 78.5074 101.61C78.1729 101.4 77.9098 101.101 77.7179 100.714C77.5261 100.327 77.4302 99.8684 77.4302 99.3371C77.4302 98.8059 77.5261 98.3469 77.7179 97.9599C77.9098 97.573 78.1729 97.2746 78.5074 97.0647C78.8418 96.8549 79.2238 96.75 79.6534 96.75C80.083 96.75 80.465 96.8549 80.7994 97.0647C81.1339 97.2746 81.397 97.573 81.5889 97.9599C81.7807 98.3469 81.8766 98.8059 81.8766 99.3371ZM81.2864 99.3371C81.2864 98.901 81.2134 98.5329 81.0675 98.2329C80.9232 97.9329 80.7273 97.7058 80.4797 97.5517C80.2338 97.3976 79.9584 97.3205 79.6534 97.3205C79.3484 97.3205 79.0722 97.3976 78.8246 97.5517C78.5787 97.7058 78.3828 97.9329 78.2368 98.2329C78.0926 98.5329 78.0204 98.901 78.0204 99.3371C78.0204 99.7733 78.0926 100.141 78.2368 100.441C78.3828 100.741 78.5787 100.968 78.8246 101.123C79.0722 101.277 79.3484 101.354 79.6534 101.354C79.9584 101.354 80.2338 101.277 80.4797 101.123C80.7273 100.968 80.9232 100.741 81.0675 100.441C81.2134 100.141 81.2864 99.7733 81.2864 99.3371ZM86.2074 96.8188H86.8174V100.154C86.8174 100.498 86.7362 100.805 86.5739 101.076C86.4132 101.345 86.1861 101.557 85.8927 101.713C85.5992 101.867 85.2549 101.944 84.8597 101.944C84.4646 101.944 84.1203 101.867 83.8268 101.713C83.5334 101.557 83.3055 101.345 83.1432 101.076C82.9825 100.805 82.9021 100.498 82.9021 100.154V96.8188H83.512V100.104C83.512 100.35 83.5662 100.569 83.6744 100.761C83.7826 100.951 83.9367 101.101 84.1367 101.211C84.3384 101.319 84.5794 101.373 84.8597 101.373C85.1401 101.373 85.3811 101.319 85.5828 101.211C85.7844 101.101 85.9386 100.951 86.0451 100.761C86.1533 100.569 86.2074 100.35 86.2074 100.104V96.8188ZM88.2419 101.855H87.6025L89.4519 96.8188H90.0815L91.9309 101.855H91.2914L89.7863 97.6156H89.747L88.2419 101.855ZM88.478 99.888H91.0553V100.429H88.478V99.888ZM92.7154 101.855V96.8188H93.3253V101.314H95.6665V101.855H92.7154ZM97.2208 96.8188V101.855H96.6109V96.8188H97.2208ZM98.1683 97.3599V96.8188H101.946V97.3599H100.362V101.855H99.7521V97.3599H98.1683ZM102.454 96.8188H103.153L104.55 99.1699H104.609L106.005 96.8188H106.704L104.884 99.7798V101.855H104.274V99.7798L102.454 96.8188Z" fill="#FA8507"/>
</svg>
