<svg width="191" height="100" viewBox="0 0 191 100" fill="none" xmlns="http://www.w3.org/2000/svg">
<path fill-rule="evenodd" clip-rule="evenodd" d="M0.5 61.8292H64.632V62.4609H0.5V61.8292ZM0.5 43.1426H64.632V43.7743H0.5V43.1426Z" fill="#1F1F1F"/>
<path fill-rule="evenodd" clip-rule="evenodd" d="M126.368 61.8292H190.5V62.4609H126.368V61.8292ZM126.368 43.1426H190.5V43.7743H126.368V43.1426Z" fill="#1F1F1F"/>
<path d="M39.779 28.0625L40.0434 28.4282C39.4485 28.8438 38.771 29.3093 38.1761 29.725L37.9117 29.3426L38.1926 28.6776C36.5732 26.3168 34.9373 23.9394 33.3179 21.562L32.6239 21.5787L32.376 21.2295C33.0039 20.7807 33.4997 20.4482 34.1441 19.9993C34.5903 19.6834 34.8216 19.6834 35.2348 20.0658C37.3003 22.1439 38.6719 23.5404 40.5722 25.7183L40.5887 25.7017L37.2838 18.5862C37.069 18.0708 37.1681 17.8879 37.6308 17.572C38.3083 17.0899 38.6719 16.8239 39.3659 16.3584L39.5973 16.7075L39.3494 17.3393C40.9688 19.7 42.5882 22.0608 44.2076 24.4216H44.9843L45.2321 24.7707C44.5546 25.2528 43.6292 25.8846 42.9352 26.3667L42.6873 26.0176L42.9683 25.2861C41.6628 23.3908 40.3739 21.4956 39.0685 19.6003L38.2753 18.37L38.2257 18.4033L42.0429 26.799L41.0514 27.4972C40.8035 27.6801 40.6052 27.6468 40.4069 27.4473C38.3579 25.3193 36.4245 23.3243 34.3424 21.2295L34.2763 21.2628L35.4 22.7757C36.6063 24.538 37.8126 26.2836 39.0189 28.0458L39.779 28.0625Z" fill="#1F1F1F"/>
<path d="M55.1633 16.5594C55.8904 18.039 55.3616 19.5186 53.7587 20.3333C52.1724 21.1313 50.6521 20.6492 49.9416 19.1861L47.6777 14.6142C46.9506 13.1512 47.4794 11.655 49.0823 10.8569C50.6852 10.0589 52.1889 10.5245 52.916 12.0041L55.1633 16.5594ZM51.28 18.4879C51.7923 19.5186 52.4533 19.8678 53.3126 19.4355C54.1884 19.0033 54.2379 18.0722 53.8083 17.2244L51.561 12.6525C51.1313 11.788 50.3712 11.2726 49.4954 11.7215C48.6361 12.1537 48.5039 12.8852 49.0162 13.916L51.28 18.4879Z" fill="#1F1F1F"/>
<path d="M64.9955 13.5823L64.1692 5.58561L63.5578 5.51912L63.4091 5.08688L65.2929 4.43848L65.4416 4.87075L65.045 5.30299L65.987 15.1284L64.5824 15.6105L59.2779 7.33125L58.6665 7.19825L58.5178 6.76601L61.0296 5.90149L61.1452 6.26725L60.7487 6.81588L64.9955 13.5823Z" fill="#1F1F1F"/>
<path d="M76.2819 11.3374L77.0089 11.62L77.1081 12.0357C76.2984 12.2185 75.2243 12.4513 74.398 12.6342L74.2989 12.2185L74.8442 11.6533C74.2328 8.84365 73.6049 6.05063 72.9934 3.25761L72.3655 3.00824L72.2664 2.59262L74.7781 2.02734L74.8772 2.44297L74.4146 2.94173C75.059 5.73475 75.6704 8.52777 76.2819 11.3374Z" fill="#1F1F1F"/>
<path d="M83.5363 10.9069L83.4868 10.4913L84.0982 9.97586C83.7842 7.09972 83.4702 4.2402 83.1728 1.38069L82.5779 1.06481L82.5283 0.682435C84.2965 0.482934 85.9159 0.316689 87.684 0.117188L87.9319 2.41146L87.2048 2.49457L86.643 1.11468L84.6765 1.33081C84.8087 2.59432 84.9574 3.87445 85.0896 5.17121L86.4777 5.02159L86.7752 4.17372L87.2048 4.12384C87.2874 4.83872 87.4031 5.86947 87.4692 6.58435L87.0395 6.63423L86.5768 5.90272L85.1888 6.05234C85.3045 7.13297 85.4201 8.19698 85.5358 9.27761C85.5689 9.51036 85.5193 9.64338 85.2879 9.75975V9.82624C86.1142 9.74312 86.9239 9.64336 87.7501 9.56023L88.0971 8.11386L88.7416 8.04737L88.9895 10.3416C87.1717 10.5079 85.354 10.7074 83.5363 10.9069Z" fill="#1F1F1F"/>
<path d="M104.803 0.415628L104.853 0L107.414 0.266008L107.365 0.681635L106.77 0.997516L106.373 4.78804L108.72 5.0374L109.116 1.24688L108.604 0.814639L108.654 0.399012L111.215 0.665019L111.165 1.08065L110.571 1.39653L109.678 10.0416L110.29 10.4572L110.24 10.8728L107.48 10.5902L107.53 10.1746L108.208 9.89196L108.621 5.86866L106.274 5.61929L105.861 9.64257L106.472 10.0582L106.423 10.4738L103.647 10.1912L103.696 9.77557L104.39 9.49295L105.283 0.847897L104.803 0.415628Z" fill="#1F1F1F"/>
<path d="M123.162 10.8893C122.782 12.5019 121.411 13.2833 119.676 12.8677C117.941 12.452 117.098 11.1054 117.478 9.50939L118.668 4.5385C119.048 2.94249 120.403 2.14448 122.138 2.56011C123.889 2.97574 124.732 4.30575 124.352 5.91839L123.162 10.8893ZM118.949 9.87515C118.684 10.989 118.965 11.6873 119.907 11.92C120.865 12.1528 121.477 11.4712 121.708 10.5402L122.898 5.58587C123.129 4.63823 122.865 3.77374 121.923 3.54098C120.981 3.30823 120.419 3.79036 120.155 4.92087L118.949 9.87515Z" fill="#1F1F1F"/>
<path d="M134.515 14.7637L136.96 8.39633L136.58 7.83108L136.746 7.39884L138.745 8.1802L138.58 8.59582L137.919 8.74547L135.457 15.1295C134.746 16.9583 133.358 17.2409 131.937 16.7089C130.516 16.1603 129.69 14.9134 130.367 13.1511L132.813 6.78369L132.367 6.13531L132.515 5.73633L135.143 6.75046L134.994 7.14945L134.234 7.33232L131.788 13.6997C131.359 14.8302 131.689 15.4786 132.515 15.8111C133.457 16.1935 134.069 15.9109 134.515 14.7637Z" fill="#1F1F1F"/>
<path d="M143.587 21.0644C144.264 21.4301 144.809 21.1475 145.156 20.4991L145.751 19.4019C146.66 17.7061 143.058 16.6255 144.264 14.3645L144.859 13.2672C145.586 11.9206 146.842 11.9538 147.883 12.5191C148.395 12.8017 148.858 13.1841 149.023 13.899L149.073 13.9322L149.436 13.5L150.312 13.9821C149.882 14.7801 149.436 15.5947 149.007 16.4094L147.685 15.6945L148.032 15.0461C148.379 14.3977 148.213 13.8657 147.619 13.5332C147.024 13.2007 146.511 13.4168 146.181 14.032L145.586 15.1292C144.743 16.692 148.395 17.7726 147.106 20.1666L146.511 21.2805C145.735 22.7103 144.264 22.6105 143.058 21.9455C141.818 21.2805 141.091 20.0835 141.835 18.7036L142.215 17.9887L143.669 18.7867L143.273 19.5016C142.843 20.2498 143.008 20.7485 143.587 21.0644Z" fill="#1F1F1F"/>
<path d="M151.105 26.5665L151.353 26.2174L152.147 26.234C153.816 23.8898 155.484 21.5291 157.137 19.1849L156.906 18.5532L157.12 18.2373C158.575 19.2681 159.897 20.2323 161.351 21.2631L160.029 23.1417L159.434 22.7261L159.93 21.313L158.31 20.1492C157.567 21.1966 156.823 22.244 156.079 23.2914L157.22 24.106L157.996 23.6737L158.36 23.9231C157.947 24.505 157.352 25.3529 156.922 25.9347L156.559 25.6854L156.691 24.8375L155.551 24.0229C154.923 24.904 154.311 25.7851 153.683 26.6662C153.551 26.8657 153.419 26.9322 153.171 26.8657L153.121 26.9323C153.799 27.4144 154.46 27.8965 155.137 28.3786L156.36 27.5141L156.889 27.8965L155.567 29.7751C154.08 28.7111 152.593 27.6471 151.105 26.5665Z" fill="#1F1F1F"/>
<path d="M47.6449 79.6178C47.8432 79.0692 47.7936 78.8365 47.3474 78.4375C46.9343 78.9362 46.2568 79.7342 45.8271 80.233L45.9759 80.765L45.7776 80.9977C45.3314 80.6153 44.753 80.1166 44.3069 79.7342L44.5052 79.5015L45.0505 79.568C46.3394 78.0551 47.6614 76.4923 48.9338 74.9794L48.8181 74.5306L49.0164 74.3145L50.6028 75.6611C51.4455 76.376 51.8586 77.2903 51.0489 78.238L50.4375 78.9528C49.8757 79.6178 49.1817 79.6844 48.5868 79.3519C48.719 79.6844 48.6859 79.9171 48.5702 80.233L48.0745 81.563C47.9753 81.8456 47.8597 82.2612 48.1571 82.4275L47.8927 82.7268C47.6779 82.6769 47.4135 82.494 47.2317 82.3444C46.736 81.9287 47.0004 81.5297 47.1822 80.9811L47.6449 79.6178ZM49.6609 75.6777C48.9338 76.5256 48.4381 77.1241 47.7275 77.972L48.2232 78.4042C48.752 78.8531 49.1982 78.7367 49.6113 78.238L50.2227 77.5231C50.6523 77.0243 50.7184 76.5755 50.1731 76.1266L49.6609 75.6777Z" fill="#1F1F1F"/>
<path d="M51.9578 85.819L52.123 85.5696H52.6683C53.7755 83.8738 54.8826 82.1947 55.9898 80.5156L55.808 80.0833L55.9567 79.8672C56.9978 80.5654 57.9562 81.1972 58.9807 81.8788L58.0884 83.2255L57.6588 82.9428L57.9727 81.9453L56.816 81.1806C56.3203 81.9287 55.8245 82.6768 55.3288 83.4416L56.1385 83.9902L56.6673 83.6743L56.9317 83.8406C56.6507 84.2562 56.2542 84.8713 55.9732 85.287L55.7254 85.1207L55.808 84.5222L54.9983 83.9736C54.5852 84.6053 54.1721 85.2371 53.7589 85.8689C53.6763 86.0019 53.5772 86.0517 53.4119 86.0185L53.3789 86.0683C53.8581 86.3842 54.3373 86.7001 54.8331 87.0326L55.6593 86.4008L56.0393 86.6502L55.147 87.9969C54.106 87.2487 53.0319 86.5339 51.9578 85.819Z" fill="#1F1F1F"/>
<path d="M64.9129 85.9195C64.0371 87.6652 63.1613 89.4274 62.269 91.1731L62.5334 91.6552L62.3847 91.9711C61.8559 91.7051 61.1453 91.3393 60.6331 91.0733L60.7818 90.7574L61.3271 90.6743C62.2029 88.9287 63.0787 87.1664 63.971 85.4208L63.2935 85.0716L62.4673 85.9694L62.0377 85.7533L62.8969 84.1406L66.615 86.0193L65.8383 87.6652L65.4087 87.449L65.6235 86.2354L64.9129 85.9195Z" fill="#1F1F1F"/>
<path d="M71.2586 93.2841C71.2586 92.6856 71.1264 92.5027 70.5645 92.2866C70.3497 92.9017 69.9862 93.8826 69.7713 94.4978L70.0853 94.9466L69.9862 95.2292C69.4243 95.0297 68.7138 94.7637 68.1685 94.5642L68.2676 94.2816L68.7964 94.1486C69.4739 92.27 70.1514 90.3415 70.8289 88.4794L70.5645 88.0971L70.6637 87.8145L72.6136 88.5293C73.6546 88.9117 74.3487 89.61 73.9356 90.7903L73.6216 91.6715C73.3241 92.5027 72.6962 92.802 72.0187 92.7022C72.25 92.9682 72.3162 93.1844 72.3162 93.5335V94.9466C72.3162 95.2459 72.3492 95.6781 72.6962 95.728L72.564 96.1104C72.3327 96.1436 72.0352 96.0605 71.8204 95.9774C71.209 95.7613 71.3081 95.2957 71.3081 94.7139L71.2586 93.2841ZM71.7708 88.8951C71.3908 89.9425 71.1264 90.674 70.7463 91.7213L71.3577 91.9375C72.0022 92.1702 72.3822 91.9042 72.5971 91.2891L72.911 90.408C73.1258 89.7928 73.0432 89.344 72.3822 89.1112L71.7708 88.8951Z" fill="#1F1F1F"/>
<path d="M82.0159 96.7412C81.768 97.8717 80.8261 98.4369 79.6033 98.1543C78.3805 97.8883 77.7691 96.9573 78.0335 95.8268L78.8101 92.3356C79.058 91.205 79.9999 90.6398 81.2227 90.9058C82.4455 91.1884 83.0569 92.1028 82.8091 93.2333L82.0159 96.7412ZM79.058 96.0762C78.8762 96.8576 79.0911 97.3563 79.752 97.506C80.413 97.6556 80.8592 97.1735 80.9914 96.5251L81.768 93.0338C81.9167 92.3688 81.735 91.7537 81.0575 91.604C80.3965 91.4544 80.0164 91.8035 79.8346 92.5849L79.058 96.0762Z" fill="#1F1F1F"/>
<path d="M89.0885 99.0025C89.6338 99.0524 89.8982 98.7199 89.9477 98.2045L90.0303 97.34C90.1625 96.01 87.5351 96.2927 87.7169 94.4972L87.7995 93.6326C87.8987 92.552 88.7249 92.2361 89.5511 92.3192C89.9643 92.3525 90.3609 92.4855 90.6583 92.9011H90.6913L90.807 92.5188L91.501 92.5853C91.4349 93.217 91.3689 93.8654 91.3028 94.4972L90.2617 94.3974L90.3113 93.882C90.3609 93.3666 90.113 93.0674 89.6338 93.0175C89.1546 92.9676 88.8737 93.2336 88.8406 93.7324L88.758 94.5969C88.6423 95.8272 91.2862 95.5445 91.1045 97.4398L91.0218 98.3209C90.9062 99.4514 89.9312 99.8006 88.9728 99.7008C87.9978 99.6011 87.2047 99.0358 87.3038 97.9386L87.3534 97.3733L88.4936 97.4897L88.444 98.0549C88.3944 98.6867 88.6423 98.9693 89.0885 99.0025Z" fill="#1F1F1F"/>
<path d="M100.408 95.6785C100.424 96.9586 99.5319 97.3243 98.4083 97.341L97.7803 97.3576C97.7969 98.006 97.7969 98.7209 97.8134 99.3692L98.2761 99.6685V99.9678C97.6977 99.9844 96.9211 100.001 96.3427 100.001V99.7018L96.7889 99.3859C96.7558 97.3909 96.7228 95.346 96.6732 93.351L96.2766 93.0849V92.7857L98.3422 92.7524C99.4493 92.7358 100.358 93.1348 100.391 94.3817L100.408 95.6785ZM97.6977 93.4174C97.7142 94.5313 97.7473 95.6618 97.7638 96.7757L98.4248 96.7591C99.1023 96.7425 99.3667 96.3767 99.3502 95.7117L99.3337 94.4316C99.3171 93.7666 99.0693 93.4008 98.3752 93.4008L97.6977 93.4174Z" fill="#1F1F1F"/>
<path d="M105.811 99.501L105.762 99.2018L106.175 98.8361C105.894 96.8244 105.63 94.8294 105.349 92.8344L104.936 92.6183L104.903 92.3523C106.142 92.186 107.266 92.0198 108.505 91.8535L108.72 93.4495L108.208 93.516L107.794 92.5684L106.423 92.7513C106.539 93.6324 106.671 94.5302 106.786 95.4279L107.761 95.2949L107.943 94.6964L108.241 94.6465C108.307 95.1453 108.406 95.8602 108.472 96.3589L108.174 96.4088L107.844 95.91L106.869 96.043C106.968 96.7912 107.067 97.5393 107.183 98.2874C107.2 98.4537 107.183 98.5534 107.018 98.6366V98.6864C107.596 98.6033 108.158 98.5202 108.736 98.4537L108.951 97.4229L109.397 97.3564L109.612 98.9524C108.356 99.1519 107.084 99.3182 105.811 99.501Z" fill="#1F1F1F"/>
<path d="M117.593 91.8201L116.569 92.0861L116.519 91.9032C116.354 91.2715 116.04 90.806 115.313 90.9889C114.85 91.1053 114.503 91.5375 114.735 92.4186C114.85 92.8343 115.528 95.4444 115.627 95.86C115.842 96.6913 116.271 96.9739 116.85 96.8077C117.577 96.6082 117.676 96.1426 117.478 95.4444L117.379 95.0786L118.403 94.8126L118.502 95.195C118.816 96.4253 118.122 97.1901 117.015 97.4727C115.908 97.7719 114.9 97.4062 114.569 96.1426C114.454 95.727 113.776 93.1169 113.677 92.7013C113.363 91.5209 113.908 90.6564 115.082 90.3571C115.511 90.2407 115.974 90.2241 116.354 90.4735L116.387 90.4569L116.371 90.0579L117.048 89.875L117.593 91.8201Z" fill="#1F1F1F"/>
<path d="M123.922 88.1638C124.633 89.9925 125.36 91.8213 126.071 93.6334L126.599 93.7664L126.732 94.0989C126.186 94.3151 125.443 94.6143 124.897 94.8304L124.765 94.498L125.063 94.0325C124.352 92.2037 123.625 90.3749 122.914 88.5628L122.204 88.8454L122.336 90.059L121.873 90.2419L121.245 88.5295L125.112 86.9834L125.823 88.6625L125.36 88.8454L124.6 87.8811L123.922 88.1638Z" fill="#1F1F1F"/>
<path d="M133.507 90.2068L134.052 90.2733L134.184 90.5393C133.672 90.8053 132.994 91.171 132.466 91.437L132.333 91.171L132.598 90.6889C131.672 88.91 130.747 87.1311 129.822 85.3523L129.359 85.3024L129.227 85.0364L130.83 84.1885L130.962 84.4545L130.747 84.8701C131.639 86.649 132.565 88.4279 133.507 90.2068Z" fill="#1F1F1F"/>
<path d="M140.067 85.5372L138.084 80.267L137.654 80.3335L137.472 80.0675L138.629 79.2861L138.811 79.5521L138.629 79.9179L141.009 86.4017L140.149 86.9836L135.076 82.3285L134.63 82.3618L134.448 82.0958L136.002 81.0484L136.151 81.2645L135.985 81.7134L140.067 85.5372Z" fill="#1F1F1F"/>
<path d="M146.594 82.1947L146.396 81.9786L146.545 81.4466C145.239 79.9171 143.917 78.371 142.628 76.8415L142.165 76.8913L142 76.6918C142.942 75.8772 143.818 75.1291 144.76 74.3145L145.801 75.5281L145.421 75.8606L144.545 75.2787L143.487 76.1931C144.066 76.8747 144.661 77.5563 145.239 78.238L145.983 77.5896L145.817 76.9911L146.049 76.7916C146.379 77.174 146.842 77.7226 147.172 78.105L146.941 78.3045L146.379 78.0717L145.636 78.7201C146.131 79.302 146.611 79.8672 147.106 80.4491C147.205 80.5655 147.239 80.6652 147.156 80.8315L147.189 80.8647C147.635 80.4823 148.065 80.1166 148.511 79.7342L148.131 78.7534L148.478 78.4541L149.519 79.6844C148.544 80.5156 147.569 81.3635 146.594 82.1947Z" fill="#1F1F1F"/>
<path fill-rule="evenodd" clip-rule="evenodd" d="M97.6318 68.496V72.7686H93.385V68.496H97.6318ZM111.81 42.8102V62.7769C111.81 64.3563 110.538 65.6365 108.968 65.6365H82.0326C80.4793 65.6365 79.2069 64.3563 79.2069 62.7769V42.8102C79.2069 41.2474 80.4793 39.9506 82.0326 39.9506H108.968C110.521 39.9506 111.81 41.2474 111.81 42.8102ZM118.188 65.6365V68.4793H114.917V72.752H118.188V75.5949H72.8284V72.752H76.1002V68.4793H72.8284V65.6365C74.3817 65.6365 75.6706 64.3563 75.6706 62.7769V42.8102C75.6706 41.2474 74.3982 39.9506 72.8284 39.9506V37.1078H76.1002V32.8351H72.8284V29.9756H118.188V32.8351H114.917V37.1078H118.188V39.9506C116.635 39.9506 115.363 41.2308 115.363 42.8102V62.7769C115.346 64.3563 116.619 65.6365 118.188 65.6365ZM97.6318 32.8351V37.1078H93.385V32.8351H97.6318ZM79.1903 32.8351V37.1078H83.4372V32.8351H79.1903ZM86.2794 32.8351V37.1078H90.5428V32.8351H86.2794ZM111.81 32.8351V37.1078H107.563V32.8351H111.81ZM104.721 32.8351V37.1078H100.474V32.8351H104.721ZM79.1903 68.496V72.7686H83.4372V68.496H79.1903ZM86.2794 68.496V72.7686H90.5428V68.496H86.2794ZM111.81 68.496V72.7686H107.563V68.496H111.81ZM104.721 68.496V72.7686H100.474V68.496H104.721Z" fill="#1F1F1F"/>
<path d="M7.10988 53.7496H7.0438H5.47394V56.0605H3.39185V47.8477H7.0438C9.20852 47.8477 10.4313 48.8784 10.4313 50.7072C10.4313 51.9707 9.90255 52.8685 8.94412 53.3506L10.6627 56.0605H8.29966L7.10988 53.7496ZM7.06031 52.1037C7.95264 52.1037 8.48143 51.6382 8.48143 50.7737C8.48143 49.9092 7.95264 49.4769 7.06031 49.4769H5.49048V52.0871H7.06031V52.1037Z" fill="#1F1F1F"/>
<path d="M18.5944 49.4936V51.1228H22.4942V52.7687H18.5944V54.4146H23.0395V56.0605H16.5288V47.8477H22.9238V49.4936H18.5944Z" fill="#1F1F1F"/>
<path d="M32.8386 49.5258V56.0595H30.7565V49.5258H28.3274V47.8301H35.3008V49.5258H32.8386Z" fill="#1F1F1F"/>
<path d="M44.5547 53.7496H44.4886H42.9188V56.0605H40.8367V47.8477H44.4886C46.6533 47.8477 47.8761 48.8784 47.8761 50.7072C47.8761 51.9707 47.3474 52.8685 46.4055 53.3506L48.124 56.0605H45.7775L44.5547 53.7496ZM44.5051 52.1037C45.3975 52.1037 45.9263 51.6382 45.9263 50.7737C45.9263 49.9092 45.3975 49.4769 44.5051 49.4769H42.9353V52.0871H44.5051V52.1037Z" fill="#1F1F1F"/>
<path d="M62.2526 51.9375C62.2526 54.3315 60.3688 56.1603 57.8405 56.1603C55.3288 56.1603 53.4285 54.3482 53.4285 51.9375C53.4285 49.5435 55.3123 47.7812 57.8405 47.7812C60.3688 47.7812 62.2526 49.5601 62.2526 51.9375ZM55.5436 51.9541C55.5436 53.334 56.6012 54.4147 57.8571 54.4147C59.1129 54.4147 60.1209 53.3507 60.1209 51.9541C60.1209 50.5743 59.1129 49.5269 57.8571 49.5269C56.6012 49.5269 55.5436 50.5743 55.5436 51.9541Z" fill="#1F1F1F"/>
<path d="M134.283 49.4936V51.3888H137.952V53.0347H134.283V56.0605H132.201V47.8477H138.249V49.4936H134.283Z" fill="#1F1F1F"/>
<path d="M143.917 56.0605V47.8477H145.999V56.0605H143.917Z" fill="#1F1F1F"/>
<path d="M157.831 54.3148V56.0605H152.295V47.8477H154.377V54.3148H157.831Z" fill="#1F1F1F"/>
<path d="M170.637 56.0595L170.621 50.7229L168.654 55.2449H167.299L165.333 50.7229V56.0595H163.482V47.8301H165.763L167.977 52.7179L170.191 47.8301H172.455V56.0595H170.637Z" fill="#1F1F1F"/>
<path d="M185.13 48.6615L184.353 50.2907C183.494 49.792 182.403 49.4262 181.742 49.4262C181.213 49.4262 180.85 49.6257 180.85 50.0247C180.85 51.4379 185.163 50.6399 185.163 53.5991C185.163 55.245 183.709 56.1095 181.891 56.1095C180.519 56.1095 179.131 55.5941 178.156 54.7961L178.966 53.1835C179.809 53.915 181.065 54.4138 181.924 54.4138C182.568 54.4138 182.981 54.1644 182.981 53.6989C182.981 52.2525 178.669 53.117 178.669 50.2076C178.669 48.6947 179.957 47.7305 181.924 47.7305C183.097 47.7471 184.303 48.1128 185.13 48.6615Z" fill="#1F1F1F"/>
</svg>
