<svg width="174" height="104" viewBox="0 0 174 104" fill="none" xmlns="http://www.w3.org/2000/svg">
<path d="M163.878 80.3584L97.8124 100.395C90.7583 102.535 83.2417 102.535 76.1876 100.395L10.1215 80.3584C5.3002 78.8956 2 74.3989 2 69.2972V18.2261C2 9.25976 9.16082 2 17.9851 2H156.015C164.848 2 172 9.26879 172 18.2261V69.2972C171.991 74.3989 168.691 78.8956 163.878 80.3584Z" stroke="#1F1F1F" stroke-width="3" stroke-miterlimit="10"/>
<path d="M86.9866 95.979C83.8999 95.979 80.831 95.5276 77.8688 94.6246L11.8027 74.588C9.50767 73.8928 7.90649 71.7166 7.90649 69.2877V18.2166C7.90649 12.5821 12.4254 7.99512 17.9761 7.99512H156.006C161.557 7.99512 166.076 12.5821 166.076 18.2166V69.2877C166.076 71.7166 164.474 73.8928 162.179 74.588L96.1132 94.6246C93.1511 95.5276 90.0822 95.979 86.9866 95.979Z" stroke="#1F1F1F" stroke-width="2" stroke-miterlimit="10"/>
<path d="M16.9818 52.3246C17.991 53.1151 19.4612 53.6556 21.0188 53.462C23.3234 53.1716 24.6664 51.4292 24.6664 49.1301C24.6664 46.9844 23.7366 45.8227 21.3764 44.6208C18.5314 43.2978 16.7751 41.1279 16.7751 37.5704C16.7751 33.6097 19.0241 31.0444 22.4095 31.5446C24.1975 31.7946 25.4929 32.5045 26.2638 33.1579C26.0572 33.9243 25.8505 34.6987 25.6439 35.4731C25.0717 35.0213 23.9115 34.2227 22.33 34.0533C19.946 33.7791 19.048 35.6747 19.048 37.3607C19.048 39.6517 20.1049 40.8375 22.5128 42.1282C25.4611 43.7012 26.9631 45.4678 26.9631 48.7429C26.9631 52.1552 24.9684 55.3819 20.8519 56.0433C19.1672 56.3015 17.3314 55.8981 16.4016 55.1237C16.6003 54.188 16.791 53.2522 16.9818 52.3246Z" fill="#1F1F1F"/>
<path d="M29.9749 43.1528C29.9749 41.5556 29.9511 40.2407 29.8716 38.95C30.5391 38.9823 31.1987 39.0145 31.8663 39.0468C31.8981 39.8615 31.9378 40.6763 31.9696 41.491C31.9934 41.491 32.0172 41.491 32.049 41.491C32.7484 40.0632 33.9166 38.7967 35.9907 38.9016C37.7073 38.9903 39.0026 40.2165 39.5509 41.8621C39.5668 41.8621 39.5827 41.8621 39.6066 41.8621C39.996 41.0877 40.4887 40.4988 41.0052 40.0874C41.7602 39.4824 42.5867 39.1839 43.7867 39.2323C45.4476 39.313 47.9191 40.5311 47.9191 44.9759C47.9191 47.5008 47.9191 50.0337 47.9191 52.5586C47.1721 52.6232 46.425 52.6877 45.686 52.7522C45.686 50.2677 45.686 47.7912 45.686 45.3066C45.686 42.7898 44.8039 41.249 42.9602 41.2006C41.6648 41.1684 40.6476 42.2009 40.2582 43.4351C40.1549 43.782 40.0755 44.2418 40.0755 44.7016C40.0755 47.5653 40.0755 50.429 40.0755 53.2927C39.3284 53.3653 38.5894 53.446 37.8424 53.5267C37.8424 50.6871 37.8424 47.8476 37.8424 45.0001C37.8424 42.7414 36.9602 41.0796 35.2198 41.0312C33.7894 40.9909 32.7563 42.3219 32.3907 43.7013C32.2636 44.1047 32.208 44.5806 32.208 45.0485C32.208 48.0896 32.208 51.1308 32.208 54.1639C31.461 54.2527 30.7219 54.3414 29.9749 54.4382C29.9749 50.6872 29.9749 46.92 29.9749 43.1528Z" fill="#1F1F1F"/>
<path d="M63.0421 45.7089C63.0421 49.9117 59.8157 51.9364 56.7641 52.1623C53.3548 52.4204 50.7244 50.1537 50.7244 46.1526C50.7244 41.9094 53.4819 39.5459 56.9706 39.6749C60.5944 39.7959 63.0421 42.2321 63.0421 45.7089ZM53.0449 46.0235C53.0449 48.7339 54.6342 50.6699 56.8753 50.5328C59.0607 50.4037 60.7057 48.4274 60.7057 45.8218C60.7057 43.8616 59.6408 41.3609 56.9309 41.3044C54.2131 41.248 53.0449 43.6761 53.0449 46.0235Z" fill="#1F1F1F"/>
<path d="M68.2076 45.2743C68.2235 45.2743 68.2394 45.2743 68.2632 45.2743C68.5731 44.879 69.0182 44.395 69.3838 44.0078C70.6155 42.7332 71.8552 41.4829 73.087 40.2487C74.0088 40.2567 74.9307 40.2729 75.8525 40.2809C74.2313 41.741 72.6022 43.2172 70.9811 44.7338C72.8327 46.8715 74.6844 48.9608 76.536 51.0339C75.6062 51.0581 74.6764 51.0823 73.7466 51.1065C72.2923 49.4125 70.846 47.7023 69.3917 45.9599C69.0023 46.3471 68.6129 46.7343 68.2155 47.1215C68.2155 48.5171 68.2155 49.9046 68.2155 51.3001C67.4606 51.3324 66.7056 51.3647 65.9507 51.3969C65.9507 45.8954 65.9507 40.4019 65.9507 34.9004C66.7056 34.9327 67.4606 34.973 68.2155 35.0053C68.2076 38.4175 68.2076 41.8459 68.2076 45.2743Z" fill="#1F1F1F"/>
<path d="M79.4444 45.9841C79.5001 48.6058 81.4789 49.6545 83.7755 49.6465C85.4205 49.6384 86.4059 49.3964 87.2721 49.0899C87.3993 49.5497 87.5344 50.0095 87.6616 50.4693C86.851 50.7758 85.4682 51.1227 83.4656 51.1388C79.5795 51.1791 77.259 49.0657 77.259 45.8228C77.259 42.58 79.5001 40.0551 83.1795 40.0793C87.304 40.0873 88.3927 43.1204 88.3927 45.0726C88.3927 45.4679 88.345 45.7744 88.3132 45.968C85.349 45.96 82.3927 45.968 79.4444 45.9841ZM86.1676 44.5886C86.1914 43.3624 85.5715 41.4668 82.9888 41.4587C80.6683 41.4506 79.651 43.2495 79.4683 44.5967C81.7013 44.5886 83.9345 44.5886 86.1676 44.5886Z" fill="#1F1F1F"/>
<path d="M93.5742 36.1266C93.5742 38.1916 93.5742 40.2648 93.5742 42.3299C96.4112 42.3218 99.2403 42.3138 102.077 42.3057C102.077 40.1841 102.077 38.0626 102.077 35.933C102.84 35.9088 103.603 35.8846 104.374 35.8604C104.374 40.9908 104.374 46.1132 104.374 51.2437C103.611 51.2114 102.848 51.1872 102.077 51.163C102.077 48.7833 102.077 46.4036 102.077 44.0239C99.2483 44.0159 96.4112 44.0078 93.5742 44.0078C93.5742 46.323 93.5742 48.6462 93.5742 50.9613C92.8192 50.9533 92.0643 50.9371 91.3093 50.9371C91.3093 46.0084 91.3093 41.0876 91.3093 36.1588C92.0643 36.1427 92.8192 36.1346 93.5742 36.1266Z" fill="#1F1F1F"/>
<path d="M119.632 45.8786C119.632 50.4283 116.406 52.1465 113.354 51.9448C109.945 51.719 107.306 49.3796 107.306 45.8544C107.306 42.1195 110.072 39.8689 113.561 39.764C117.184 39.643 119.632 42.1115 119.632 45.8786ZM109.635 45.8141C109.635 48.2987 111.224 50.2347 113.465 50.3557C115.651 50.4767 117.296 48.6133 117.296 45.9028C117.296 43.8619 116.231 41.2967 113.521 41.3532C110.811 41.3935 109.635 43.6603 109.635 45.8141Z" fill="#1F1F1F"/>
<path d="M133.055 49.477C133.055 50.9048 133.078 52.1632 133.158 53.2603C132.482 53.1877 131.807 53.1232 131.131 53.0586C131.092 52.3165 131.044 51.5743 131.004 50.8322C130.988 50.8322 130.972 50.8322 130.957 50.8322C130.361 51.8889 129.033 53.1635 126.8 52.9537C124.822 52.7601 122.453 51.4775 122.453 47.1053C122.453 44.6692 122.453 42.233 122.453 39.7968C123.216 39.7726 123.979 39.7484 124.742 39.7242C124.742 42.0797 124.742 44.4352 124.742 46.7907C124.742 49.2108 125.473 50.8887 127.547 51.05C129.081 51.171 130.146 50.1223 130.559 49.0494C130.686 48.6945 130.766 48.2508 130.766 47.8072C130.766 45.0403 130.766 42.2814 130.766 39.5145C131.529 39.4822 132.292 39.458 133.055 39.4258C133.055 42.7735 133.055 46.1293 133.055 49.477Z" fill="#1F1F1F"/>
<path d="M136.535 50.9538C137.211 51.5104 138.403 52.1638 139.547 52.2767C141.208 52.4461 141.987 51.5184 141.987 50.26C141.987 48.9371 141.335 48.1707 139.65 47.356C137.393 46.3073 136.329 44.8795 136.329 43.1693C136.329 40.8784 137.966 38.9181 140.66 38.7649C141.931 38.7003 143.044 39.0875 143.743 39.5715C143.552 40.2653 143.362 40.951 143.171 41.6286C142.678 41.2575 141.772 40.7735 140.604 40.8058C139.253 40.8461 138.506 41.7738 138.506 42.8547C138.506 44.0647 139.261 44.6052 140.89 45.3877C143.068 46.4283 144.18 47.8481 144.18 50.1632C144.18 52.922 142.472 54.6241 139.484 54.245C138.109 54.0837 136.837 53.5432 135.955 52.8656C136.154 52.2364 136.345 51.5991 136.535 50.9538Z" fill="#1F1F1F"/>
<path d="M148.384 47.4365C148.44 51.4296 150.403 53.3172 152.683 53.6157C154.312 53.8173 155.298 53.5431 156.148 53.1236C156.275 53.9141 156.403 54.7127 156.538 55.5113C155.735 55.9228 154.368 56.2858 152.373 55.9873C148.519 55.3581 146.215 51.841 146.215 47.0735C146.215 42.3141 148.44 38.4179 152.087 38.1436C156.172 37.829 157.261 42.9998 157.261 46.3636C157.261 47.0412 157.213 47.5575 157.181 47.8963C154.249 47.7269 151.317 47.5737 148.384 47.4365ZM155.06 45.4763C155.083 43.4193 154.463 40.2571 151.905 40.362C149.6 40.4588 148.591 43.266 148.408 45.3069C150.625 45.3634 152.842 45.4198 155.06 45.4763Z" fill="#1F1F1F"/>
<path d="M64.1494 78.7874C64.3807 78.8054 64.6831 78.8415 65.0568 78.9318C65.5193 79.0402 65.8306 79.2208 65.9997 79.4646C66.1598 79.6813 66.222 79.9702 66.1598 80.2953C66.0886 80.6204 65.9374 80.8641 65.715 81.0086C65.4037 81.2163 64.9678 81.2615 64.5052 81.1441C64.3629 81.1079 64.2294 81.0718 64.1316 81.0177C64.016 81.4962 63.9093 81.9838 63.7936 82.4624C63.6335 82.4263 63.4733 82.3811 63.3132 82.345C63.589 81.1621 63.8736 79.9702 64.1494 78.7874ZM64.2117 80.6384C64.3095 80.6926 64.4341 80.7287 64.5942 80.7648C65.1635 80.9003 65.5726 80.7016 65.6883 80.205C65.795 79.7264 65.5015 79.4194 64.9856 79.302C64.781 79.2569 64.6209 79.2298 64.5408 79.2388C64.4341 79.6993 64.3273 80.1689 64.2117 80.6384Z" fill="#1F1F1F"/>
<path d="M68.0811 79.6631C68.3302 79.6631 68.6683 79.6992 68.9974 79.7624C69.4955 79.8617 69.8069 80.0062 69.9937 80.25C70.1538 80.4487 70.2072 80.7105 70.1627 80.9904C70.0826 81.469 69.7179 81.7399 69.3087 81.7941C69.3087 81.8031 69.3087 81.8031 69.3087 81.8121C69.5756 81.9656 69.7001 82.2546 69.7268 82.6428C69.7624 83.1756 69.7891 83.5458 69.8425 83.6993C69.6734 83.6722 69.5044 83.6361 69.3354 83.609C69.2909 83.4916 69.2643 83.1665 69.2376 82.688C69.2109 82.1643 69.0508 81.9385 68.6149 81.8392C68.4637 81.8121 68.3124 81.785 68.1612 81.7489C68.0634 82.2726 67.9655 82.7963 67.8677 83.3291C67.7075 83.302 67.5474 83.2659 67.3784 83.2298C67.6186 82.0559 67.8499 80.855 68.0811 79.6631ZM68.2324 81.4148C68.3925 81.4509 68.5615 81.478 68.7216 81.5051C69.2287 81.6044 69.6023 81.3787 69.6734 80.9633C69.7535 80.4938 69.4511 80.2229 68.9529 80.1236C68.7305 80.0784 68.5615 80.0694 68.4814 80.0784C68.4014 80.5209 68.3213 80.9633 68.2324 81.4148Z" fill="#1F1F1F"/>
<path d="M73.7031 82.5438C73.2228 82.4806 72.7335 82.4083 72.2532 82.3361C72.1909 82.7785 72.1198 83.221 72.0575 83.6544C72.6001 83.7357 73.1427 83.8169 73.6942 83.8892C73.6764 84.0246 73.6586 84.151 73.6409 84.2865C72.9292 84.1871 72.2176 84.0878 71.5149 83.9795C71.7017 82.7605 71.8885 81.5415 72.0664 80.3135C72.7247 80.4128 73.3829 80.5121 74.0323 80.6024C74.0145 80.7379 73.9967 80.8643 73.9789 80.9997C73.4807 80.9275 72.9737 80.8643 72.4756 80.783C72.4222 81.1713 72.3599 81.5595 72.3065 81.9388C72.7869 82.011 73.2673 82.0833 73.7476 82.1465C73.7388 82.2819 73.7209 82.4173 73.7031 82.5438Z" fill="#1F1F1F"/>
<path d="M78.7467 83.2119C78.7645 82.6973 78.7734 82.0742 78.8178 81.6137C78.8089 81.6137 78.809 81.6137 78.8001 81.6137C78.64 82.0381 78.4442 82.4806 78.213 82.9772C77.9461 83.5551 77.6703 84.133 77.3857 84.7018C77.2612 84.6928 77.1366 84.6747 77.0121 84.6657C76.8609 84.0607 76.7186 83.4557 76.5762 82.8508C76.4517 82.309 76.3539 81.8214 76.3005 81.3699H76.2916C76.2293 81.8304 76.1403 82.4444 76.0425 82.9952C75.9535 83.5189 75.8646 84.0427 75.7756 84.5664C75.6155 84.5483 75.4643 84.5303 75.3042 84.5122C75.5355 83.2932 75.7578 82.0742 75.9802 80.8643C76.1848 80.8913 76.3805 80.9094 76.5851 80.9275C76.7274 81.5415 76.8786 82.1645 77.0388 82.7785C77.1455 83.2481 77.2434 83.6634 77.2968 84.0607C77.3057 84.0607 77.3056 84.0607 77.3145 84.0607C77.4479 83.6995 77.617 83.3022 77.8216 82.8598C78.0973 82.2819 78.3642 81.713 78.6311 81.1351C78.8357 81.1532 79.0314 81.1713 79.2359 81.1893C79.2182 82.4264 79.2004 83.6634 79.1915 84.9005C79.0314 84.8914 78.8712 84.8734 78.7111 84.8644C78.72 84.2955 78.7289 83.7537 78.7467 83.2119Z" fill="#1F1F1F"/>
<path d="M81.7624 81.3337C81.7002 82.5708 81.6379 83.7988 81.5757 85.0358C81.4155 85.0268 81.2465 85.0178 81.0864 85.0088C81.1576 83.7717 81.2287 82.5437 81.291 81.3066C81.4422 81.3157 81.6023 81.3247 81.7624 81.3337Z" fill="#1F1F1F"/>
<path d="M84.1552 81.4243C84.1374 82.1557 84.1196 82.8871 84.093 83.6185C84.0663 84.4492 84.4399 84.8104 84.9469 84.8194C85.5073 84.8284 85.872 84.4673 85.8809 83.6546C85.8898 82.9232 85.8987 82.1918 85.8987 81.4604C86.0589 81.4604 86.219 81.4604 86.3791 81.4604C86.3791 82.1828 86.3702 82.9052 86.3702 83.6185C86.3702 84.7562 85.7475 85.2258 84.9203 85.2077C84.1375 85.1896 83.5592 84.7382 83.6037 83.5914C83.6304 82.86 83.6482 82.1376 83.6749 81.4062C83.835 81.4153 83.9951 81.4243 84.1552 81.4243Z" fill="#1F1F1F"/>
<path d="M91.5028 83.4284C91.4495 82.9137 91.3872 82.2906 91.3694 81.8301C91.3605 81.8301 91.3605 81.8301 91.3516 81.8301C91.2449 82.2726 91.1114 82.7421 90.9424 83.2568C90.7467 83.8618 90.551 84.4758 90.3464 85.0808C90.2219 85.0808 90.0974 85.0898 89.9728 85.0898C89.7505 84.5119 89.5281 83.925 89.3146 83.3471C89.1278 82.8324 88.9677 82.3538 88.852 81.9204H88.8431C88.8431 82.3809 88.8253 83.004 88.8076 83.5638C88.7809 84.0965 88.7631 84.6203 88.7364 85.153C88.5763 85.153 88.425 85.162 88.2649 85.162C88.3361 83.925 88.4073 82.6879 88.4695 81.4509C88.6741 81.4509 88.8698 81.4419 89.0744 81.4419C89.2968 82.0378 89.5281 82.6247 89.7505 83.2207C89.9195 83.6721 90.0618 84.0785 90.1685 84.4577C90.1774 84.4577 90.1774 84.4577 90.1863 84.4577C90.2664 84.0785 90.3909 83.6722 90.5421 83.1936C90.7378 82.5886 90.9335 81.9836 91.1292 81.3787C91.3338 81.3696 91.5295 81.3606 91.7341 81.3516C91.8764 82.5796 92.0099 83.8076 92.1611 85.0356C92.001 85.0446 91.8409 85.0537 91.6807 85.0627C91.6096 84.5119 91.5562 83.9701 91.5028 83.4284Z" fill="#1F1F1F"/>
<path d="M96.0305 81.0717C96.2351 81.0085 96.5553 80.9453 96.8844 80.9091C97.3559 80.855 97.6673 80.9091 97.9163 81.0626C98.1209 81.18 98.2633 81.3877 98.2988 81.6766C98.3433 82.0288 98.1387 82.3719 97.7651 82.5615V82.5706C98.1298 82.6157 98.5746 82.8595 98.6369 83.4013C98.6724 83.7173 98.5746 83.9702 98.4056 84.1778C98.1654 84.4397 97.7562 84.6022 97.1335 84.6654C96.7955 84.7015 96.5376 84.7015 96.3685 84.7015C96.2529 83.4826 96.1462 82.2726 96.0305 81.0717ZM96.6532 82.5345C96.7955 82.5164 96.9467 82.5074 97.0891 82.4893C97.5961 82.4351 97.8629 82.1372 97.8274 81.785C97.7829 81.3516 97.436 81.2252 96.9556 81.2703C96.7421 81.2974 96.6176 81.3245 96.5376 81.3426C96.5731 81.7399 96.6087 82.1372 96.6532 82.5345ZM96.8222 84.2952C96.92 84.3042 97.0624 84.2952 97.2314 84.2772C97.7384 84.223 98.1832 83.9882 98.1209 83.4555C98.0675 82.9498 97.605 82.7963 97.0802 82.8505C96.9467 82.8686 96.8133 82.8776 96.6799 82.8956C96.7332 83.3561 96.7777 83.8257 96.8222 84.2952Z" fill="#1F1F1F"/>
<path d="M102.24 82.2009C101.759 82.2821 101.279 82.3544 100.79 82.4176C100.852 82.86 100.914 83.3025 100.976 83.7359C101.519 83.6546 102.062 83.5734 102.613 83.4831C102.631 83.6185 102.658 83.7449 102.675 83.8804C101.964 83.9978 101.261 84.1061 100.549 84.2054C100.38 82.9774 100.22 81.7584 100.051 80.5304C100.71 80.4401 101.368 80.3408 102.017 80.2324C102.035 80.3679 102.062 80.4943 102.079 80.6297C101.581 80.711 101.074 80.7832 100.576 80.8555C100.629 81.2437 100.683 81.632 100.736 82.0112C101.217 81.939 101.697 81.8668 102.177 81.7945C102.204 81.939 102.222 82.0745 102.24 82.2009Z" fill="#1F1F1F"/>
<path d="M106.056 81.5146C105.575 81.6139 105.095 81.7042 104.615 81.7945C104.695 82.237 104.775 82.6704 104.855 83.1128C105.397 83.0135 105.94 82.9052 106.483 82.7968C106.509 82.9322 106.536 83.0586 106.563 83.1941C105.86 83.3386 105.148 83.474 104.446 83.6004C104.232 82.3814 104.019 81.1715 103.805 79.9525C104.463 79.8351 105.113 79.7087 105.762 79.5732C105.789 79.7087 105.816 79.8351 105.842 79.9705C105.344 80.0699 104.846 80.1692 104.348 80.2595C104.419 80.6478 104.49 81.027 104.552 81.4153C105.033 81.325 105.504 81.2347 105.985 81.1354C106.002 81.2527 106.029 81.3882 106.056 81.5146Z" fill="#1F1F1F"/>
<path d="M107.515 79.1937C108.164 79.0492 108.813 78.8957 109.454 78.7422C109.481 78.8686 109.516 79.004 109.543 79.1305C109.054 79.2478 108.555 79.3652 108.057 79.4826C108.146 79.8799 108.235 80.2862 108.324 80.6835C108.787 80.5752 109.249 80.4668 109.712 80.3585C109.739 80.4849 109.774 80.6113 109.801 80.7467C109.338 80.8551 108.876 80.9725 108.404 81.0718C108.529 81.6136 108.644 82.1644 108.769 82.7062C108.609 82.7423 108.449 82.7784 108.289 82.8145C108.039 81.6045 107.782 80.4036 107.515 79.1937Z" fill="#1F1F1F"/>
<path d="M92.6245 72.3587L88.0522 67.9794C88.0789 67.9613 88.0967 67.9342 88.1234 67.9162L92.0908 63.889C92.4199 63.5549 92.5978 63.0944 92.5889 62.6158L92.5533 61.6045C92.5444 61.4239 92.4377 61.2704 92.2775 61.2072C92.1174 61.144 91.9307 61.1801 91.8061 61.3065L86.5934 66.5979L86.3265 66.345C86.5311 65.7491 86.4066 65.0628 85.9351 64.5843L84.7521 63.3833L82.7239 61.3246C82.5994 61.1982 82.4126 61.1982 82.288 61.3246C82.1635 61.451 82.1635 61.6406 82.288 61.767L84.3162 63.8258L83.7914 64.3585L81.7632 62.2998C81.6386 62.1734 81.4518 62.1734 81.3273 62.2998C81.2028 62.4262 81.2028 62.6158 81.3273 62.7422L83.3555 64.801L82.8306 65.3337L80.8025 63.275C80.678 63.1486 80.4911 63.1486 80.3666 63.275C80.2421 63.4014 80.2421 63.591 80.3666 63.7174L82.3948 65.7762L83.5779 66.9771C83.907 67.3112 84.3339 67.4737 84.7609 67.4737C84.9833 67.4737 85.1968 67.4286 85.4014 67.3473L85.6238 67.5911L85.5171 67.6995L80.9004 72.3858C80.509 72.7831 80.509 73.4242 80.9004 73.8215C81.0961 74.0202 81.354 74.1195 81.612 74.1195C81.8699 74.1195 82.1279 74.0202 82.3236 73.8215L85.9085 70.1826C86.2109 69.8756 86.3799 69.4512 86.3621 69.0178L86.3443 68.3767L91.2635 73.7854C91.4503 73.975 91.6905 74.0743 91.9573 74.0743C92.2153 74.0743 92.4644 73.975 92.6512 73.7854C93.007 73.379 93.007 72.756 92.6245 72.3587ZM91.9484 62.0379L91.9662 62.6339C91.9751 62.9319 91.8595 63.2298 91.6549 63.4465L87.6875 67.4737C87.483 67.6814 87.2161 67.7898 86.9226 67.7898C86.7446 67.7898 86.5667 67.7446 86.4066 67.6543L86.8247 67.2299L91.9484 62.0379ZM84.0048 66.5256L83.2576 65.7671L84.7521 64.2502L85.4993 65.0087C85.8373 65.3518 85.8907 65.8755 85.6772 66.2818L85.2591 66.7062C84.8499 66.932 84.3429 66.8687 84.0048 66.5256ZM85.9085 66.9861C85.9174 66.9771 85.9173 66.9771 85.9262 66.9681C85.9529 66.941 85.9796 66.9139 85.9974 66.8868L86.1486 67.0313L86.0419 67.1396L85.9085 66.9861ZM85.4548 69.7311L81.8699 73.37C81.7187 73.5235 81.4785 73.5235 81.3273 73.37C81.2562 73.2978 81.2117 73.1985 81.2117 73.0901C81.2117 72.9818 81.2473 72.8915 81.3273 72.8102L85.7127 68.3586L85.7305 69.0178C85.7394 69.2887 85.6327 69.5505 85.4548 69.7311ZM92.1886 73.3249C92.1175 73.3971 92.0285 73.4332 91.9306 73.4332C91.8328 73.4332 91.7438 73.3971 91.6816 73.3339L87.1805 68.3947C87.2872 68.3767 87.3851 68.3496 87.4829 68.3135L92.1797 72.8102C92.3309 72.9547 92.3309 73.1804 92.1886 73.3249Z" fill="#1F1F1F"/>
<path d="M118.323 65.3066L119.071 66.8417L120.743 67.0855L119.533 68.2864L119.818 69.9749L118.323 69.1803L116.829 69.9749L117.114 68.2864L115.904 67.0855L117.576 66.8417L118.323 65.3066Z" fill="#1F1F1F"/>
<path d="M107.747 65.3066L108.494 66.8417L110.166 67.0855L108.956 68.2864L109.241 69.9749L107.747 69.1803L106.252 69.9749L106.537 68.2864L105.327 67.0855L106.999 66.8417L107.747 65.3066Z" fill="#1F1F1F"/>
<path d="M97.17 65.3066L97.9172 66.8417L99.5896 67.0855L98.3798 68.2864L98.6644 69.9749L97.17 69.1803L95.6756 69.9749L95.9602 68.2864L94.7505 67.0855L96.4228 66.8417L97.17 65.3066Z" fill="#1F1F1F"/>
<path d="M76.008 65.3066L76.7551 66.8417L78.4275 67.0855L77.2177 68.2864L77.5024 69.9749L76.008 69.1803L74.5135 69.9749L74.7982 68.2864L73.5884 67.0855L75.2607 66.8417L76.008 65.3066Z" fill="#1F1F1F"/>
<path d="M65.4312 65.3066L66.1785 66.8417L67.8508 67.0855L66.641 68.2864L66.9257 69.9749L65.4312 69.1803L63.9368 69.9749L64.2215 68.2864L63.0117 67.0855L64.6841 66.8417L65.4312 65.3066Z" fill="#1F1F1F"/>
<path d="M54.8546 65.3066L55.6018 66.8417L57.2742 67.0855L56.0644 68.2864L56.349 69.9749L54.8546 69.1803L53.3602 69.9749L53.6448 68.2864L52.4351 67.0855L54.1074 66.8417L54.8546 65.3066Z" fill="#1F1F1F"/>
<path d="M70.7924 22.665V17.1575H74.1163V17.7491H71.4594V19.6101H73.9442V20.2017H71.4594V22.0734H74.1593V22.665H70.7924ZM78.3304 18.5344C78.2981 18.2619 78.1672 18.0503 77.9377 17.8997C77.7082 17.7491 77.4268 17.6738 77.0933 17.6738C76.8495 17.6738 76.6361 17.7133 76.4533 17.7921C76.2722 17.871 76.1306 17.9795 76.0284 18.1175C75.928 18.2556 75.8778 18.4125 75.8778 18.5882C75.8778 18.7352 75.9127 18.8616 75.9827 18.9673C76.0544 19.0713 76.1458 19.1583 76.257 19.2282C76.3681 19.2963 76.4846 19.3528 76.6066 19.3976C76.7285 19.4406 76.8405 19.4756 76.9427 19.5025L77.5021 19.6531C77.6455 19.6907 77.8051 19.7427 77.9808 19.8091C78.1582 19.8754 78.3277 19.9659 78.489 20.0807C78.6522 20.1936 78.7866 20.3388 78.8924 20.5163C78.9982 20.6938 79.0511 20.9117 79.0511 21.1698C79.0511 21.4674 78.9731 21.7364 78.8171 21.9766C78.6629 22.2168 78.437 22.4078 78.1394 22.5494C77.8436 22.691 77.4841 22.7619 77.061 22.7619C76.6666 22.7619 76.3251 22.6982 76.0364 22.5709C75.7496 22.4436 75.5237 22.2661 75.3587 22.0384C75.1956 21.8108 75.1033 21.5463 75.0818 21.2451H75.7702C75.7881 21.4531 75.8581 21.6252 75.98 21.7615C76.1037 21.8959 76.2596 21.9963 76.4479 22.0626C76.6379 22.1272 76.8423 22.1595 77.061 22.1595C77.3156 22.1595 77.5442 22.1182 77.7468 22.0358C77.9494 21.9515 78.1098 21.835 78.2282 21.6862C78.3465 21.5356 78.4057 21.3599 78.4057 21.1591C78.4057 20.9762 78.3546 20.8274 78.2524 20.7127C78.1502 20.5979 78.0157 20.5047 77.849 20.433C77.6823 20.3613 77.5021 20.2985 77.3084 20.2447L76.6308 20.0511C76.2005 19.9274 75.8598 19.7508 75.6088 19.5213C75.3579 19.2918 75.2324 18.9915 75.2324 18.6204C75.2324 18.3121 75.3157 18.0431 75.4825 17.8137C75.651 17.5824 75.8769 17.4031 76.1601 17.2758C76.4452 17.1467 76.7634 17.0822 77.1148 17.0822C77.4698 17.0822 77.7853 17.1458 78.0614 17.2731C78.3375 17.3986 78.5563 17.5707 78.7176 17.7894C78.8808 18.0082 78.9668 18.2565 78.9758 18.5344H78.3304ZM79.8464 17.7491V17.1575H83.9771V17.7491H82.2452V22.665H81.5783V17.7491H79.8464ZM88.9757 17.1575V22.665H88.3088V17.8567H88.2765L86.9319 18.7495V18.0718L88.3088 17.1575H88.9757ZM92.3131 17.0822C92.539 17.084 92.7649 17.127 92.9908 17.2113C93.2166 17.2955 93.4228 17.4354 93.6093 17.6308C93.7957 17.8244 93.9454 18.0888 94.0584 18.4241C94.1713 18.7594 94.2278 19.1798 94.2278 19.6854C94.2278 20.1748 94.1812 20.6096 94.088 20.9896C93.9965 21.3679 93.8639 21.6871 93.69 21.947C93.5178 22.207 93.3081 22.4042 93.0607 22.5386C92.8151 22.6731 92.5372 22.7403 92.227 22.7403C91.9186 22.7403 91.6434 22.6794 91.4014 22.5575C91.1612 22.4338 90.964 22.2625 90.8098 22.0438C90.6574 21.8233 90.5597 21.5678 90.5167 21.2774H91.1728C91.232 21.5302 91.3494 21.739 91.5251 21.904C91.7026 22.0671 91.9366 22.1487 92.227 22.1487C92.6519 22.1487 92.9872 21.9631 93.2328 21.592C93.4802 21.2209 93.6039 20.6965 93.6039 20.0188H93.5609C93.4605 20.1694 93.3412 20.2994 93.2032 20.4088C93.0652 20.5181 92.9119 20.6024 92.7433 20.6616C92.5748 20.7207 92.3955 20.7503 92.2055 20.7503C91.89 20.7503 91.6004 20.6723 91.3369 20.5163C91.0751 20.3586 90.8654 20.1425 90.7076 19.8682C90.5516 19.5921 90.4736 19.2766 90.4736 18.9216C90.4736 18.5846 90.5489 18.2762 90.6995 17.9965C90.8519 17.715 91.0653 17.4909 91.3396 17.3242C91.6157 17.1575 91.9402 17.0768 92.3131 17.0822ZM92.3131 17.6738C92.0872 17.6738 91.8837 17.7303 91.7026 17.8432C91.5233 17.9544 91.3808 18.105 91.275 18.295C91.171 18.4833 91.119 18.6921 91.119 18.9216C91.119 19.1511 91.1692 19.36 91.2696 19.5482C91.3718 19.7347 91.5108 19.8835 91.6865 19.9946C91.864 20.104 92.0657 20.1587 92.2915 20.1587C92.4619 20.1587 92.6205 20.1255 92.7675 20.0592C92.9146 19.991 93.0427 19.8987 93.1521 19.7822C93.2633 19.6638 93.3502 19.5303 93.413 19.3815C93.4757 19.2309 93.5071 19.074 93.5071 18.9109C93.5071 18.6957 93.4551 18.494 93.3511 18.3058C93.2489 18.1175 93.1073 17.9651 92.9262 17.8486C92.7469 17.7321 92.5425 17.6738 92.3131 17.6738ZM95.2853 22.665V22.181L97.1033 20.1909C97.3166 19.9579 97.4923 19.7553 97.6304 19.5832C97.7684 19.4093 97.8706 19.2461 97.9369 19.0937C98.0051 18.9395 98.0391 18.7782 98.0391 18.6097C98.0391 18.416 97.9925 18.2484 97.8993 18.1068C97.8079 17.9651 97.6824 17.8558 97.5228 17.7787C97.3632 17.7016 97.1839 17.6631 96.9849 17.6631C96.7734 17.6631 96.5887 17.707 96.431 17.7948C96.275 17.8809 96.154 18.0019 96.0679 18.1579C95.9837 18.3138 95.9415 18.4967 95.9415 18.7065H95.3069C95.3069 18.3838 95.3813 18.1005 95.5301 17.8567C95.6789 17.6129 95.8815 17.4228 96.1378 17.2866C96.396 17.1503 96.6855 17.0822 97.0065 17.0822C97.3292 17.0822 97.6151 17.1503 97.8643 17.2866C98.1135 17.4228 98.3089 17.6066 98.4506 17.8379C98.5922 18.0691 98.663 18.3264 98.663 18.6097C98.663 18.8123 98.6263 19.0104 98.5528 19.204C98.4811 19.3958 98.3556 19.6101 98.1763 19.8467C97.9988 20.0816 97.7523 20.3684 97.4367 20.7073L96.1997 22.0304V22.0734H98.7598V22.665H95.2853ZM100.043 22.665L102.506 17.7921V17.7491H99.6661V17.1575H103.194V17.7814L100.742 22.665H100.043Z" fill="#1F1F1F"/>
<path d="M122.307 20.2486C122.307 20.2486 113.385 21.296 112.815 21.296C112.246 21.296 111.783 20.8265 111.783 20.2486C111.783 19.6707 112.246 19.2012 112.815 19.2012C113.385 19.2012 122.307 20.2486 122.307 20.2486Z" fill="#1F1F1F"/>
<path d="M61.9693 20.2486C61.9693 20.8265 61.5067 21.296 60.9374 21.296C60.3681 21.296 51.446 20.2486 51.446 20.2486C51.446 20.2486 60.3681 19.2012 60.9374 19.2012C61.5156 19.2012 61.9693 19.6707 61.9693 20.2486Z" fill="#1F1F1F"/>
</svg>
