<svg width="184" height="100" viewBox="0 0 184 100" fill="none" xmlns="http://www.w3.org/2000/svg">
<path fill-rule="evenodd" clip-rule="evenodd" d="M28.1072 64.2372C28.8138 64.2372 29.379 63.5611 29.379 62.7279C29.379 61.8947 28.8138 61.2188 28.1072 61.2188C27.4006 61.2188 26.8353 61.8947 26.8353 62.7279C26.8353 63.5454 27.4163 64.2372 28.1072 64.2372Z" fill="#FA8507"/>
<path d="M28.1072 64.2372C28.8138 64.2372 29.379 63.5611 29.379 62.7279C29.379 61.8947 28.8138 61.2188 28.1072 61.2188C27.4006 61.2188 26.8353 61.8947 26.8353 62.7279C26.8353 63.5454 27.4163 64.2372 28.1072 64.2372Z" stroke="white" stroke-width="0.3737" stroke-miterlimit="22.9256"/>
<path d="M92.2041 0.048137L154.008 19.0546L154.495 19.1961V19.6991V48.5782H153.113V20.2022L91.9843 1.40015L30.8551 20.2022V48.5782H29.4733V19.7149V19.2118L29.96 19.0703L91.7801 0.0638732L91.9843 0.000976562L92.2041 0.048137ZM154.495 76.8285V80.2871V80.7902L154.008 80.9316L92.1884 99.9381L91.9843 100.001L91.7801 99.9381L29.9914 80.7115L29.5047 80.57V80.067V76.8285H30.8865V79.5482L92.0157 98.5704L153.145 79.7683V76.8128H154.495V76.8285Z" fill="#FA8507"/>
<path d="M92 3.19276L32.5509 21.4761V48.6102H31.86V21.2245V20.973L32.1113 20.8944L91.8901 2.51678L91.9843 2.48535L92.0785 2.51678L151.873 20.8944L152.109 20.973V21.2245V48.6102H151.418V21.4761L92 3.19276ZM32.5667 76.829V78.3067L92.0157 96.8101L151.465 78.5268V76.829H152.156V78.7941V79.0456L151.92 79.1242L92.1413 97.5018L92.0314 97.5333L91.9372 97.5018L32.1427 78.9041L31.8915 78.8255V78.574V76.829H32.5667Z" fill="#FA8507"/>
<path fill-rule="evenodd" clip-rule="evenodd" d="M20.4445 74.8313H163.556V50.5898H20.4445V74.8313Z" fill="#FA8507"/>
<path fill-rule="evenodd" clip-rule="evenodd" d="M155.312 61.4531C154.605 61.4531 154.04 62.0191 154.04 62.7108C154.04 63.4183 154.605 63.9842 155.312 63.9842C156.018 63.9842 156.584 63.4183 156.584 62.7108C156.568 62.0191 156.003 61.4531 155.312 61.4531ZM28.6882 61.4531C27.9815 61.4531 27.4163 62.0191 27.4163 62.7108C27.4163 63.4183 27.9815 63.9842 28.6882 63.9842C29.3948 63.9842 29.96 63.4183 29.96 62.7108C29.96 62.0191 29.3948 61.4531 28.6882 61.4531Z" fill="white"/>
<path fill-rule="evenodd" clip-rule="evenodd" d="M92 81.3408L93.0364 83.9348L95.8471 84.1391L93.7116 85.9313L94.3711 88.6667L92.0157 87.1733L89.629 88.6667L90.3042 85.947L88.153 84.1391L90.9323 83.9505L92 81.3408Z" fill="#FA8507"/>
<path fill-rule="evenodd" clip-rule="evenodd" d="M27.4791 38.4863H0L10.2222 50.607L0 62.7278H18.4188V61.423H3.70575H2.59089L3.31319 60.5583L11.7139 50.5913L3.31319 40.6243L2.59089 39.7754H3.70575H27.4791V38.4863ZM27.4791 40.813H4.82062L12.7974 50.2612L13.08 50.5913L12.7974 50.9215L4.82062 60.3696H18.4188V48.5634H27.4634V40.813H27.4791ZM156.521 39.7754H180.294H181.409L180.687 40.6243L172.286 50.5913L180.687 60.5583L181.409 61.423H180.294H165.581V62.7278H184L173.778 50.607L184 38.4863H156.537V39.7754H156.521ZM179.179 40.813H156.521V48.5634H165.565V60.3696H179.164L171.187 50.9215L170.904 50.5913L171.187 50.2612L179.179 40.813Z" fill="#FA8507"/>
<path fill-rule="evenodd" clip-rule="evenodd" d="M92 11.8848C82.8298 11.8848 75.3869 19.3364 75.3869 28.5174C75.3869 37.6983 82.8298 45.15 92 45.15C101.17 45.15 108.613 37.6983 108.613 28.5174C108.613 19.3364 101.186 11.8848 92 11.8848Z" fill="#FA8507"/>
<path fill-rule="evenodd" clip-rule="evenodd" d="M69.7812 41.0332H40.0096V40.3415H69.7812V41.0332ZM69.7812 29.2269H40.0096V28.5352H69.7812V29.2269Z" fill="#FA8507"/>
<path fill-rule="evenodd" clip-rule="evenodd" d="M143.99 41.0332H114.219V40.3415H143.99V41.0332ZM143.99 29.2269H114.219V28.5352H143.99V29.2269Z" fill="#FA8507"/>
<path d="M41.1558 58.0264C42.2707 58.0264 43.2913 58.0264 44.1235 58.7967C44.6417 59.284 44.9872 60.0229 44.9872 60.919C44.9872 62.1452 44.3434 63.0727 43.4641 63.4815L45.1285 67.4117H43.9979L42.4748 63.7644C42.1608 63.8116 41.8467 63.8116 41.1558 63.8116H40.3236V67.4431H39.2872V58.0421H41.1558V58.0264ZM40.3236 62.8212H41.1558C42.2079 62.8212 42.8517 62.8212 43.4012 62.3182C43.7624 61.988 43.9508 61.4535 43.9508 60.9033C43.9508 60.353 43.7624 59.8342 43.4012 59.4884C42.8674 59.001 42.2236 59.001 41.1558 59.001H40.3236V62.8212Z" fill="white"/>
<path d="M55.7747 58.0264V59.0168H51.5979V62.098H54.9268V63.0885H51.5979V66.4527H55.7747V67.4431H50.5615V58.0578H55.7747V58.0264Z" fill="white"/>
<path d="M67.3944 58.0264V59.0168H64.7407V67.4274H63.7044V59.0168H61.0507V58.0264H67.3944Z" fill="white"/>
<path d="M74.5861 58.0264C75.701 58.0264 76.7216 58.0264 77.5539 58.7967C78.072 59.284 78.4175 60.0229 78.4175 60.919C78.4175 62.1452 77.7737 63.0727 76.8943 63.4815L78.5588 67.4117H77.4282L75.9051 63.7644C75.5911 63.8116 75.277 63.8116 74.5861 63.8116H73.7539V67.4431H72.7175V58.0421H74.5861V58.0264ZM73.7539 62.8212H74.5861C75.6382 62.8212 76.282 62.8212 76.8315 62.3182C77.1927 61.988 77.3811 61.4535 77.3811 60.9033C77.3811 60.353 77.1927 59.8342 76.8315 59.4884C76.2977 59.001 75.6539 59.001 74.5861 59.001H73.7539V62.8212Z" fill="white"/>
<path d="M84.2116 59.3308C84.7298 58.4661 85.719 57.9316 86.8967 57.9316C88.0744 57.9316 89.0636 58.4661 89.5818 59.3308C90.0843 60.164 90.0843 61.0444 90.0843 62.7108C90.0843 64.3772 90.0843 65.2733 89.5818 66.0907C89.0636 66.9554 88.0744 67.4899 86.8967 67.4899C85.719 67.4899 84.7298 66.9554 84.2116 66.0907C83.7091 65.2575 83.7091 64.3772 83.7091 62.7108C83.6934 61.0601 83.6934 60.164 84.2116 59.3308ZM85.1067 65.6034C85.4364 66.1693 86.1116 66.4994 86.8967 66.4994C87.6818 66.4994 88.3413 66.1536 88.6868 65.6034C89.0479 65.006 89.0479 64.1571 89.0479 62.7108C89.0479 61.2802 89.0479 60.4312 88.6868 59.8181C88.357 59.2522 87.6818 58.9063 86.8967 58.9063C86.1116 58.9063 85.4521 59.2522 85.1067 59.8181C84.7455 60.4155 84.7455 61.2645 84.7455 62.7108C84.7455 64.1571 84.7455 65.006 85.1067 65.6034Z" fill="white"/>
<path d="M100.683 58.7335L100.15 59.5824C99.6471 59.1737 98.8933 58.9379 98.1553 58.9379C96.8991 58.9379 96.4124 59.6611 96.4124 60.3371C96.4124 60.7615 96.6165 61.1702 96.9776 61.4532C97.3231 61.7362 97.8727 61.9091 98.3281 62.0506C98.9404 62.2393 99.6313 62.4279 100.228 62.931C100.715 63.3554 101.154 64.0786 101.154 64.8961C101.154 66.1852 100.165 67.5215 98.1553 67.5215C97.1661 67.5215 96.1768 67.207 95.3446 66.5625L95.9413 65.7607C96.5851 66.2953 97.3702 66.531 98.1553 66.531C99.5842 66.531 100.118 65.6507 100.118 64.8961C100.118 64.4559 99.8983 63.9686 99.5057 63.6384C99.1289 63.3083 98.5479 63.1511 97.9041 62.9467C97.3859 62.7895 96.8363 62.6323 96.2553 62.1607C95.7686 61.7677 95.376 61.0916 95.376 60.3685C95.376 59.0322 96.4124 57.9632 98.171 57.9632C99.0818 57.9318 100.024 58.2305 100.683 58.7335Z" fill="white"/>
<path d="M111.879 58.0264V59.0168H109.225V67.4274H108.173V59.0168H105.535V58.0264H111.879Z" fill="white"/>
<path d="M117.799 58.0264L119.966 62.7426L122.133 58.0264H123.279L120.484 63.8902V67.4117H119.448V63.8902L116.653 58.0264H117.799Z" fill="white"/>
<path d="M129.356 58.0264V66.437H133.25V67.4274H128.32V58.0421H129.356V58.0264Z" fill="white"/>
<path d="M143.928 58.0264V59.0168H139.751V62.098H143.08V63.0885H139.751V66.4527H143.928V67.4431H138.714V58.0578H143.928V58.0264Z" fill="white"/>
<path d="M47.0442 32.8584H49.4781V33.4086H47.6723V34.5091H49.1483V35.0593H47.6723V36.1912H49.4781V36.7414H47.0442V32.8584Z" fill="#FA8507"/>
<path d="M53.859 33.423C53.859 33.423 53.0739 33.3287 52.7441 33.3287C52.273 33.3287 52.0218 33.5016 52.0218 33.8317C52.0218 34.1933 52.2259 34.2719 52.8854 34.4606C53.702 34.6807 53.9846 34.9007 53.9846 35.561C53.9846 36.4099 53.4507 36.7715 52.697 36.7715C52.1945 36.7715 51.4408 36.6143 51.4408 36.6143L51.5036 36.1112C51.5036 36.1112 52.2573 36.2056 52.6656 36.2056C53.1367 36.2056 53.3722 35.9855 53.3722 35.5925C53.3722 35.2623 53.1995 35.1522 52.6028 35.0108C51.7706 34.7907 51.4094 34.5392 51.4094 33.8632C51.4094 33.0929 51.9276 32.7627 52.697 32.7627C53.1838 32.7627 53.9218 32.9042 53.9218 32.9042L53.859 33.423Z" fill="#FA8507"/>
<path d="M55.7747 32.8584H58.5854V33.4244H57.502V36.7257H56.8739V33.4244H55.7747V32.8584Z" fill="#FA8507"/>
<path d="M60.5953 36.7081V32.8408H61.93C63.1705 32.8408 63.4689 33.5011 63.4689 34.7116C63.4689 35.9378 63.2019 36.7081 61.93 36.7081H60.5953ZM61.93 33.391H61.2234V36.1579H61.93C62.7151 36.1579 62.8251 35.5605 62.8251 34.7116C62.8251 33.8784 62.6994 33.391 61.93 33.391Z" fill="#FA8507"/>
<path d="M121.222 36.7096V36.1751L122.148 35.2319C122.635 34.7445 122.902 34.4458 122.902 34.0528C122.902 33.6283 122.682 33.4868 122.196 33.4868C121.803 33.4868 121.285 33.5812 121.285 33.5812L121.253 33.0781C121.253 33.0781 121.803 32.9209 122.353 32.9209C123.169 32.9209 123.546 33.251 123.546 33.9585C123.546 34.5244 123.31 34.8546 122.729 35.3891L121.929 36.1594H123.609V36.7096H121.222Z" fill="#FA8507"/>
<path d="M128.445 34.9016C128.445 36.3165 127.927 36.7881 127.048 36.7881C126.168 36.7881 125.634 36.3322 125.634 34.9016C125.634 33.4396 126.153 32.9365 127.048 32.9365C127.943 32.9365 128.445 33.4239 128.445 34.9016ZM126.278 34.9016C126.278 35.9235 126.529 36.2379 127.048 36.2379C127.55 36.2379 127.801 35.9235 127.801 34.9016C127.801 33.8012 127.566 33.4867 127.048 33.4867C126.529 33.471 126.278 33.7854 126.278 34.9016Z" fill="#FA8507"/>
<path d="M133.093 34.9016C133.093 36.3165 132.575 36.7881 131.696 36.7881C130.8 36.7881 130.282 36.3322 130.282 34.9016C130.282 33.4396 130.8 32.9365 131.696 32.9365C132.591 32.9365 133.093 33.4239 133.093 34.9016ZM130.926 34.9016C130.926 35.9235 131.177 36.2379 131.696 36.2379C132.198 36.2379 132.449 35.9235 132.449 34.9016C132.449 33.8012 132.214 33.4867 131.696 33.4867C131.177 33.471 130.926 33.7854 130.926 34.9016Z" fill="#FA8507"/>
<path d="M135.087 36.7096V36.1751L135.998 35.2319C136.485 34.7445 136.752 34.4458 136.752 34.0528C136.752 33.6283 136.532 33.4868 136.045 33.4868C135.653 33.4868 135.134 33.5812 135.134 33.5812L135.103 33.0781C135.103 33.0781 135.653 32.9209 136.202 32.9209C137.019 32.9209 137.395 33.251 137.395 33.9585C137.395 34.5244 137.16 34.8546 136.579 35.3891L135.778 36.1594H137.458V36.7096H135.087Z" fill="#FA8507"/>
<path d="M105.787 28.7539C104.829 31.002 102.897 32.6212 101.123 34.0832C99.2545 35.6396 96.6479 37.2588 96.6479 38.3121C96.6479 36.5357 98.7363 34.9479 100.573 33.423C102.615 31.7251 104.719 29.9644 105.331 27.3547C105.363 27.229 105.394 27.0875 105.41 26.946C105.473 26.5687 105.504 26.1914 105.504 25.7827C105.504 22.9215 104.562 21.4123 103.84 20.9878C103.855 21.145 103.855 21.318 103.855 21.4909C103.855 27.512 101.421 30.0744 99.2702 32.3225C97.6999 33.9732 95.2033 36.5357 95.2033 37.7462C95.2033 35.1051 97.0718 33.4073 98.6578 31.7408C100.793 29.4928 102.992 27.1818 102.992 21.5066C102.992 18.8498 101.563 17.2148 100.338 16.6175C100.212 16.5546 100.102 16.5074 99.9925 16.476C100.385 17.3563 100.621 18.5197 100.621 20.0603C100.621 25.3425 98.9718 27.905 97.3859 30.3731C96.0983 32.3697 93.7587 36.1584 93.7587 37.3846C93.7587 34.0046 95.3917 31.898 96.6636 29.9015C98.1867 27.5277 99.757 25.0752 99.757 20.0446C99.757 17.3406 98.9404 15.5641 97.3702 14.9196C96.538 14.5737 95.69 14.6366 95.1876 14.7938C96.0198 16.0515 96.6793 18.1267 96.6793 21.4909C96.6793 25.7041 95.8471 27.622 94.952 29.6657C94.1512 31.505 92.314 36.1741 92.2826 37.2589C92.2826 33.3129 93.3347 31.2378 94.1669 29.3198C95.0148 27.3705 95.8157 25.5312 95.8157 21.4909C95.8157 15.7371 93.743 13.6934 91.9529 13.6934C90.1785 13.6934 88.0901 15.7371 88.0901 21.4909C88.0901 25.5312 88.8909 27.3705 89.7389 29.3198C90.5711 31.222 91.6231 33.3129 91.6231 37.2589C91.6231 36.1741 89.7546 31.505 88.9537 29.6657C88.0744 27.6377 87.2422 25.7198 87.2422 21.4909C87.2422 18.1267 87.9017 16.0515 88.7339 14.7938C88.2314 14.6523 87.3835 14.5894 86.5513 14.9196C84.9968 15.5641 84.1645 17.3406 84.1645 20.0446C84.1645 25.0752 85.7348 27.5277 87.2579 29.9015C88.5298 31.8823 90.1628 34.0046 90.1628 37.3846C90.1628 36.1584 87.8232 32.3697 86.5356 30.3731C84.9496 27.8893 83.3009 25.3268 83.3009 20.0603C83.3009 18.504 83.5521 17.3563 83.9447 16.476C83.8505 16.5074 83.7249 16.5546 83.5993 16.6175C82.3745 17.2148 80.9456 18.8498 80.9456 21.5066C80.9456 27.1818 83.1439 29.5085 85.2794 31.7408C86.8653 33.4073 88.7339 35.1051 88.7339 37.7462C88.7339 36.5357 86.2372 33.9889 84.667 32.3225C82.5315 30.0744 80.0976 27.512 80.0976 21.4909C80.0976 21.318 80.1133 21.145 80.1133 20.9878C79.391 21.428 78.4489 22.9372 78.4489 25.7827C78.4489 26.1914 78.4803 26.5687 78.5431 26.946C78.5588 27.0875 78.6059 27.2132 78.6216 27.3547C79.234 29.9644 81.3381 31.7251 83.3951 33.423C85.2323 34.9322 87.3207 36.5357 87.3207 38.3121C87.3207 37.2588 84.7298 35.6396 82.8455 34.0832C81.0712 32.6212 79.1241 31.002 78.1819 28.7539C77.491 32.1968 80.3332 34.0833 82.8926 35.7811C84.5414 36.8658 85.9546 37.8091 85.9546 39.051C85.9546 39.0667 85.9546 39.0824 85.9546 39.0982C85.9546 40.3087 85.7191 40.686 85.2951 40.9532C85.2794 40.9689 85.2637 40.969 85.248 40.9847C85.2637 40.9847 85.2323 41.0475 85.2323 41.2048C85.2323 41.6764 85.7505 42.2109 86.2372 42.2109C86.41 42.2109 86.8339 42.0851 87.2736 41.9436C88.0116 41.7235 89.0008 41.4248 90.1942 41.2519C90.2099 41.2519 90.2099 41.2519 90.2256 41.2519C90.2413 41.2991 90.2413 41.3463 90.257 41.3934C90.4926 42.1009 91.1678 42.6197 91.9529 42.6197C92.738 42.6197 93.4132 42.1009 93.6487 41.3934C93.6645 41.3463 93.6801 41.2991 93.6801 41.2519C93.6958 41.2519 93.6958 41.2519 93.7115 41.2519C94.8892 41.4248 95.8942 41.7235 96.6322 41.9436C97.0718 42.0851 97.4958 42.2109 97.6685 42.2109C98.1553 42.2109 98.6735 41.6764 98.6735 41.2048C98.6735 41.0318 98.6421 40.9689 98.6421 40.9689C98.6421 40.9689 98.6264 40.9689 98.595 40.9532C98.1867 40.7017 97.9512 40.3244 97.9512 39.0982C97.9512 39.0824 97.9512 39.0667 97.9512 39.051C97.9512 37.8091 99.3644 36.8816 101.013 35.7811C103.62 34.0833 106.478 32.1968 105.787 28.7539Z" fill="white"/>
</svg>
