<svg width="219" height="100" viewBox="0 0 219 100" fill="none" xmlns="http://www.w3.org/2000/svg">
<path fill-rule="evenodd" clip-rule="evenodd" d="M109.547 2.30469C113.721 2.30469 117.497 4.00504 120.236 6.72561C122.974 9.46508 124.655 13.2437 124.655 17.419C124.655 21.5943 122.955 25.3729 120.236 28.1124C117.497 30.8518 113.721 32.5333 109.547 32.5333C105.374 32.5333 101.597 30.8329 98.8588 28.1124C96.1206 25.3729 94.4399 21.5943 94.4399 17.419C94.4399 13.2437 96.1395 9.46508 98.8588 6.72561C101.597 4.00504 105.374 2.30469 109.547 2.30469Z" fill="#1F1F1F"/>
<path fill-rule="evenodd" clip-rule="evenodd" d="M109.547 0C99.9352 0 92.136 7.80276 92.136 17.4192C92.136 27.0357 99.9352 34.8385 109.547 34.8385C119.159 34.8385 126.958 27.0357 126.958 17.4192C126.958 7.80276 119.159 0 109.547 0ZM98.0467 5.91348C100.993 2.96619 105.053 1.15244 109.547 1.15244C114.042 1.15244 118.102 2.96619 121.048 5.91348C123.994 8.86077 125.806 12.9227 125.806 17.4192C125.806 21.9157 123.994 25.9777 121.048 28.925C118.102 31.8723 114.042 33.686 109.547 33.686C105.053 33.686 100.993 31.8723 98.0467 28.925C95.1008 25.9777 93.2879 21.9157 93.2879 17.4192C93.269 12.9227 95.1008 8.86077 98.0467 5.91348Z" fill="#1F1F1F"/>
<path fill-rule="evenodd" clip-rule="evenodd" d="M87.9815 13.5268C88.2459 13.5268 88.4914 13.6024 88.7369 13.7724C88.6802 13.3379 88.5103 13.1112 88.2837 12.8845C88.2648 12.8845 88.1704 12.5066 88.1515 12.4499C88.0004 11.8453 87.3583 11.373 86.5652 11.3352C85.3566 11.2974 84.7334 12.1854 84.0347 12.9978C83.7137 11.9965 82.9583 11.2974 81.8253 11.1652C79.8613 10.9385 78.4261 11.2786 77.4253 9.46484C76.9343 11.7131 78.8227 15.1705 80.8999 15.5294C79.9746 15.9262 78.936 16.0395 77.7085 15.8128C80.7489 18.7034 85.4699 18.1178 87.094 14.1692C87.245 13.7913 87.415 13.5268 87.9815 13.5268ZM131.037 13.5268C130.773 13.5268 130.528 13.6024 130.282 13.7724C130.339 13.3379 130.509 13.1112 130.735 12.8845C130.754 12.8845 130.849 12.5066 130.868 12.4499C131.019 11.8453 131.661 11.373 132.454 11.3352C133.662 11.2974 134.286 12.1854 134.984 12.9978C135.305 11.9965 136.061 11.2974 137.194 11.1652C139.158 10.9385 140.593 11.2786 141.594 9.46484C142.085 11.7131 140.196 15.1705 138.119 15.5294C139.063 15.9262 140.083 16.0395 141.31 15.8128C138.289 18.7034 133.549 18.1178 131.925 14.1692C131.755 13.7913 131.585 13.5268 131.037 13.5268Z" fill="#1F1F1F"/>
<path fill-rule="evenodd" clip-rule="evenodd" d="M32.8584 90.1197H186.16L187.218 87.7393H31.782L32.8584 90.1197Z" fill="#1F1F1F"/>
<path fill-rule="evenodd" clip-rule="evenodd" d="M187.766 86.5298L199.153 61.0811H19.8662L31.3856 86.851L31.2534 86.5298H187.766Z" fill="#1F1F1F"/>
<path fill-rule="evenodd" clip-rule="evenodd" d="M199.512 60.2864L200.758 57.4902H18.261L19.5074 60.2864H199.512Z" fill="#1F1F1F"/>
<path fill-rule="evenodd" clip-rule="evenodd" d="M20.9802 55.6968L36.843 45.249L44.3589 55.6968H20.9802ZM198.038 55.6968L182.176 45.249L174.66 55.6968H198.038Z" fill="#1F1F1F"/>
<path fill-rule="evenodd" clip-rule="evenodd" d="M128.62 31.9668H170.033V32.6281H128.62V31.9668Z" fill="#1F1F1F"/>
<path fill-rule="evenodd" clip-rule="evenodd" d="M128.62 22.1416H170.033V22.784H128.62V22.1416Z" fill="#1F1F1F"/>
<path fill-rule="evenodd" clip-rule="evenodd" d="M49.0422 22.1416H90.4553V22.784H49.0422V22.1416Z" fill="#1F1F1F"/>
<path fill-rule="evenodd" clip-rule="evenodd" d="M49.0422 31.9668H90.4553V32.6281H49.0422V31.9668Z" fill="#1F1F1F"/>
<path fill-rule="evenodd" clip-rule="evenodd" d="M2.02062 48.8385H28.1374L16.0138 56.8301L23.8318 74.306H2.03947L1.37857 75.4963H24.3795L25.4559 77.8957H0.0377476L9.15885 61.5723L2.02062 48.8385ZM33.5761 45.2488H0L1.81287 48.4984L1.34076 47.6482H29.9503L28.5529 48.5739L33.5761 45.2488Z" fill="#1F1F1F"/>
<path fill-rule="evenodd" clip-rule="evenodd" d="M217.206 74.6842L219 77.8771H193.582L194.658 75.4776H217.659L217.206 74.6842ZM216.998 48.8387L209.879 61.5725L216.998 74.3063H195.187L203.005 56.8304L190.881 48.8387H216.998ZM185.424 45.249H219L217.263 48.3664L217.678 47.6485H189.068L190.485 48.5742L185.424 45.249Z" fill="#1F1F1F"/>
<path fill-rule="evenodd" clip-rule="evenodd" d="M103.825 21.5562H115.231C115.515 21.5562 115.741 21.7829 115.741 22.0663V23.4833C115.741 23.7667 115.515 23.9934 115.231 23.9934H103.825C103.542 23.9934 103.316 23.7667 103.316 23.4833V22.0663C103.334 21.7641 103.561 21.5562 103.825 21.5562ZM118.423 13.6212C119.31 13.6212 120.047 14.3392 120.047 15.246C120.047 16.134 119.329 16.8708 118.423 16.8708C118.196 16.8708 117.97 16.8141 117.762 16.7385L116.402 19.7803C116.232 20.0826 115.93 20.2337 115.534 20.2904H109.547H103.542C103.146 20.2526 102.862 20.0826 102.673 19.7803L101.314 16.7385C101.106 16.833 100.898 16.8897 100.653 16.8897C99.7653 16.8897 99.0288 16.1717 99.0288 15.2649C99.0288 14.3769 99.7464 13.6401 100.653 13.6401C101.54 13.6401 102.277 14.358 102.277 15.2649C102.277 15.5672 102.201 15.8317 102.069 16.0773L105.884 17.6076L108.735 11.6186C108.263 11.3352 107.923 10.9573 107.923 10.2205C107.923 9.4837 108.641 8.5957 109.547 8.5957C110.435 8.5957 111.171 9.46481 111.171 10.2205C111.171 10.9573 110.85 11.3352 110.359 11.6186L113.211 17.6076L117.025 16.0773C116.893 15.8317 116.799 15.5672 116.799 15.2649C116.799 14.358 117.516 13.6212 118.423 13.6212Z" fill="white"/>
<path d="M55.6518 46.684C55.4252 46.0794 55.2174 45.9094 54.5565 45.9094C54.5565 46.6273 54.5565 47.7608 54.5565 48.4977L55.0475 48.8378V49.1589C54.3866 49.1589 53.5556 49.1589 52.9136 49.1589V48.8378L53.4046 48.4977C53.4046 46.3061 53.4046 44.0767 53.4046 41.8852L52.9891 41.5829V41.2617H55.2741C56.4827 41.2617 57.4836 41.7152 57.4836 43.0943V44.1146C57.4836 45.0781 56.9359 45.626 56.2183 45.7771C56.5582 45.9661 56.7093 46.1739 56.8226 46.5139L57.3514 47.9687C57.4647 48.271 57.6724 48.7055 58.0312 48.6299V49.0645C57.8046 49.1778 57.4647 49.2156 57.2003 49.2156C56.4827 49.2156 56.4261 48.7055 56.1995 48.1198L55.6518 46.684ZM54.5376 41.9607C54.5376 43.1888 54.5376 44.039 54.5376 45.267H55.2553C56.0106 45.267 56.3128 44.8513 56.3128 44.1334V43.1132C56.3128 42.3953 56.0484 41.9797 55.2741 41.9797H54.5376V41.9607Z" fill="#1F1F1F"/>
<path d="M65.4526 49.1589V48.8378L65.9625 48.4977C65.9625 46.2683 65.9625 44.0579 65.9625 41.8474L65.5282 41.5451V41.2617C66.9067 41.2617 68.172 41.2617 69.5316 41.2617V43.0377H68.9651L68.6441 41.9418H67.1145C67.1145 42.9243 67.1145 43.9067 67.1145 44.908H68.1908L68.4741 44.2846H68.814C68.814 44.8325 68.814 45.6448 68.814 46.1927H68.4741L68.1908 45.5882H67.1145C67.1145 46.4195 67.1145 47.2507 67.1145 48.082C67.1145 48.2709 67.0767 48.3655 66.869 48.4221V48.4788C67.511 48.4788 68.1342 48.4788 68.7762 48.4788L69.1539 47.4019H69.6449V49.1778C68.2664 49.1589 66.869 49.1589 65.4526 49.1589Z" fill="#1F1F1F"/>
<path d="M80.1068 41.9793C80.1068 44.1331 80.1068 46.2868 80.1068 48.4406L80.5978 48.7996V49.1775C79.9369 49.1775 79.0682 49.1775 78.4262 49.1775V48.7996L78.9172 48.4406C78.9172 46.2868 78.9172 44.1331 78.9172 41.9793H78.0674L77.7085 43.2829H77.1609L77.1987 41.2803H81.7875L81.8253 43.2829H81.3154L80.9377 41.9793H80.1068Z" fill="#1F1F1F"/>
<path d="M92.0983 46.684C91.8717 46.0794 91.664 45.9094 91.003 45.9094C91.003 46.6273 91.003 47.7608 91.003 48.4977L91.494 48.8378V49.1589C90.8331 49.1589 90.0022 49.1589 89.3601 49.1589V48.8378L89.8511 48.4977C89.8511 46.3061 89.8511 44.0767 89.8511 41.8852L89.4356 41.5829V41.2617H91.7206C92.9481 41.2617 93.9301 41.7152 93.9301 43.0943V44.1146C93.9301 45.0781 93.3824 45.626 92.6648 45.7771C93.0048 45.9661 93.1558 46.1739 93.2691 46.5139L93.7978 47.9687C93.9112 48.271 94.1189 48.7055 94.4777 48.6299V49.0645C94.2511 49.1778 93.9112 49.2156 93.6468 49.2156C92.9292 49.2156 92.8725 48.7055 92.6459 48.1198L92.0983 46.684ZM90.9841 41.9607C90.9841 43.1888 90.9841 44.039 90.9841 45.267H91.7017C92.4571 45.267 92.7592 44.8513 92.7592 44.1334V43.1132C92.7592 42.3953 92.4949 41.9797 91.7206 41.9797H90.9841V41.9607Z" fill="#1F1F1F"/>
<path d="M106.62 47.1747C106.62 48.4405 105.733 49.2906 104.354 49.2906C102.976 49.2906 102.107 48.4405 102.107 47.1747V43.2449C102.107 41.9791 102.976 41.1289 104.354 41.1289C105.733 41.1289 106.62 41.9602 106.62 43.2449V47.1747ZM103.278 47.1747C103.278 48.0437 103.618 48.5349 104.354 48.5349C105.11 48.5349 105.468 47.9115 105.468 47.1747V43.2449C105.468 42.5081 105.128 41.8846 104.354 41.8846C103.618 41.8846 103.278 42.3569 103.278 43.2449V47.1747Z" fill="#1F1F1F"/>
<path d="M116.648 48.5176C117.252 48.5176 117.497 48.1209 117.497 47.5541V46.5906C117.497 45.1169 114.646 45.7215 114.646 43.7377V42.7742C114.646 41.5839 115.515 41.1494 116.421 41.1494C116.874 41.1494 117.327 41.2439 117.705 41.6595H117.743L117.837 41.225H118.612C118.612 41.924 118.612 42.642 118.612 43.341H117.46V42.7742C117.46 42.2074 117.157 41.9051 116.629 41.9051C116.1 41.9051 115.836 42.2263 115.836 42.7742V43.7377C115.836 45.098 118.706 44.4934 118.706 46.5717V47.5352C118.706 48.7821 117.667 49.2545 116.591 49.2545C115.515 49.2545 114.57 48.7254 114.57 47.5163V46.8929H115.836V47.5163C115.854 48.2531 116.157 48.5176 116.648 48.5176Z" fill="#1F1F1F"/>
<path d="M129.244 41.9793C129.244 44.1331 129.244 46.2868 129.244 48.4406L129.735 48.7996V49.1775C129.074 49.1775 128.205 49.1775 127.563 49.1775V48.7996L128.054 48.4406C128.054 46.2868 128.054 44.1331 128.054 41.9793H127.204L126.845 43.2829H126.298L126.335 41.2803H130.924L130.962 43.2829H130.414L130.037 41.9793H129.244Z" fill="#1F1F1F"/>
<path d="M139.951 45.7012L138.308 41.7148L137.987 41.6014V41.2803H139.007C139.422 41.2803 139.498 41.3936 139.63 41.7337L140.706 44.5299L141.783 41.8093L141.348 41.6014V41.2803H142.972V41.6014L142.557 41.8093L141.103 45.55V48.4406L141.594 48.7996V49.1775C140.933 49.1775 140.064 49.1775 139.422 49.1775V48.7996L139.913 48.4406V45.7012H139.951Z" fill="#1F1F1F"/>
<path d="M150.299 49.1589V48.8378L150.809 48.4977C150.809 46.2872 150.809 44.0956 150.809 41.8852L150.375 41.5829V41.2617H152.395V41.5829L151.961 41.8852C151.961 43.9445 151.961 46.0038 151.961 48.082C151.961 48.2709 151.923 48.3655 151.716 48.4221V48.4788C152.358 48.4788 152.868 48.4788 153.51 48.4788L153.887 47.4019H154.378V49.1778C153 49.1589 151.697 49.1589 150.299 49.1589Z" fill="#1F1F1F"/>
<path d="M161.913 49.1589V48.8378L162.423 48.4977C162.423 46.2683 162.423 44.0579 162.423 41.8474L161.989 41.5451V41.2617C163.367 41.2617 164.632 41.2617 165.992 41.2617V43.0377H165.426L165.105 41.9418H163.575C163.575 42.9243 163.575 43.9067 163.575 44.908H164.651L164.953 44.2846H165.293C165.293 44.8325 165.293 45.6448 165.293 46.1927H164.953L164.651 45.5882H163.575C163.575 46.4195 163.575 47.2507 163.575 48.082C163.575 48.2709 163.537 48.3655 163.329 48.4221V48.4788C163.971 48.4788 164.595 48.4788 165.237 48.4788L165.614 47.4019H166.105V49.1778C164.727 49.1589 163.329 49.1589 161.913 49.1589Z" fill="#1F1F1F"/>
<path d="M64.414 98.1675L63.602 96.1837L63.4509 96.1271V95.957H63.9608C64.1685 95.957 64.2063 96.0137 64.2818 96.1837L64.8294 97.5818L65.3771 96.2215L65.1694 96.1081V95.957H65.9814V96.1081L65.7736 96.2215L65.0561 98.0919V99.5467L65.3015 99.7167V99.9056C64.9805 99.9056 64.5462 99.9056 64.2063 99.9056V99.7167L64.4518 99.5467V98.1675H64.414Z" fill="#1F1F1F"/>
<path d="M71.8921 98.9047C71.8921 99.5471 71.4578 99.9627 70.759 99.9627C70.0792 99.9627 69.626 99.5471 69.626 98.9047V96.9398C69.626 96.3164 70.0603 95.8818 70.759 95.8818C71.4578 95.8818 71.8921 96.2975 71.8921 96.9398V98.9047ZM70.2303 98.9047C70.2303 99.3392 70.4003 99.5848 70.7779 99.5848C71.1556 99.5848 71.3255 99.2826 71.3255 98.9047V96.9398C71.3255 96.562 71.1556 96.2597 70.7779 96.2597C70.4003 96.2597 70.2303 96.4864 70.2303 96.9398V98.9047Z" fill="#1F1F1F"/>
<path d="M77.8029 98.8842V96.258L77.5952 96.1069V95.9369H78.4261V96.1069L78.2183 96.258V98.8842C78.2183 99.6399 77.7651 99.9422 77.1797 99.9422C76.5943 99.9422 76.1222 99.6021 76.1222 98.8842V96.258L75.8767 96.088V95.918H76.972V96.088L76.7265 96.258V98.8842C76.7265 99.3565 76.9342 99.5454 77.2741 99.5454C77.6329 99.5643 77.8029 99.3565 77.8029 98.8842Z" fill="#1F1F1F"/>
<path d="M83.6002 98.6591C83.4869 98.3568 83.3925 98.2812 83.0526 98.2812C83.0526 98.6401 83.0526 99.2069 83.0526 99.5659L83.298 99.736V99.906C82.977 99.906 82.5616 99.906 82.2217 99.906V99.736L82.4671 99.5659C82.4671 98.4701 82.4671 97.3554 82.4671 96.2596L82.2594 96.1085V95.9385H83.4113C84.0156 95.9385 84.5067 96.1652 84.5067 96.8642V97.3744C84.5067 97.8656 84.2423 98.1301 83.8646 98.2056C84.0346 98.3001 84.1101 98.3945 84.1667 98.5835L84.4311 99.3014C84.4878 99.4526 84.5822 99.6793 84.771 99.6415V99.8682C84.6577 99.9248 84.4877 99.9438 84.3555 99.9438C83.9967 99.9438 83.959 99.6981 83.8457 99.3958L83.6002 98.6591ZM83.0526 96.2974C83.0526 96.9209 83.0526 97.3366 83.0526 97.96H83.4113C83.789 97.96 83.9401 97.7522 83.9401 97.3932V96.8831C83.9401 96.5242 83.8079 96.3164 83.4302 96.3164H83.0526V96.2974Z" fill="#1F1F1F"/>
<path d="M94.0814 99.5848C94.3837 99.5848 94.5159 99.377 94.5159 99.1125V98.6401C94.5159 97.9033 93.0801 98.2056 93.0801 97.2232V96.7509C93.0801 96.1652 93.5147 95.9385 93.9681 95.9385C94.1948 95.9385 94.4215 95.9763 94.6104 96.1841H94.6293L94.6671 95.9762H95.0449C95.0449 96.3163 95.0449 96.6753 95.0449 97.0342H94.4593V96.7509C94.4593 96.4675 94.3081 96.3164 94.0436 96.3164C93.7791 96.3164 93.6469 96.4864 93.6469 96.7509V97.2232C93.6469 97.9033 95.0828 97.601 95.0828 98.6401V99.1314C95.0828 99.7548 94.5538 100 94.0248 100C93.4769 100 93.0234 99.736 93.0234 99.1314V98.8102H93.6658V99.1314C93.6847 99.4337 93.8358 99.5848 94.0814 99.5848Z" fill="#1F1F1F"/>
<path d="M99.0476 99.906V99.736L99.2932 99.5659C99.2932 98.4701 99.2932 97.3554 99.2932 96.2596L99.0854 96.1085V95.9385H100.106V96.1085L99.8978 96.2596C99.8978 97.2987 99.8978 98.319 99.8978 99.3581C99.8978 99.4525 99.8789 99.4903 99.7844 99.5281V99.547C100.106 99.547 100.37 99.547 100.691 99.547L100.88 98.9991H101.126V99.8871C100.389 99.906 99.7466 99.906 99.0476 99.906Z" fill="#1F1F1F"/>
<path d="M107.206 98.9047C107.206 99.5471 106.771 99.9627 106.072 99.9627C105.374 99.9627 104.939 99.5471 104.939 98.9047V96.9398C104.939 96.3164 105.374 95.8818 106.072 95.8818C106.771 95.8818 107.206 96.2975 107.206 96.9398V98.9047ZM105.544 98.9047C105.544 99.3392 105.714 99.5848 106.091 99.5848C106.469 99.5848 106.639 99.2826 106.639 98.9047V96.9398C106.639 96.562 106.469 96.2597 106.091 96.2597C105.714 96.2597 105.544 96.4864 105.544 96.9398V98.9047Z" fill="#1F1F1F"/>
<path d="M111.889 98.9047C111.889 99.377 112.078 99.5848 112.418 99.5848C112.814 99.5848 112.946 99.3203 112.946 98.9802V98.5457L112.625 98.3568V98.1867H113.551C113.551 98.7535 113.551 99.3392 113.551 99.906H113.192L113.135 99.6226C113.003 99.8493 112.72 99.9627 112.455 99.9627C111.794 99.9627 111.322 99.6226 111.322 98.9047C111.322 98.2623 111.322 97.6199 111.322 96.9776C111.322 96.2407 111.889 95.9385 112.418 95.9385C112.663 95.9385 112.927 95.9952 113.097 96.1841H113.116L113.154 95.9762H113.551V97.0721H112.965V96.7698C112.965 96.4297 112.701 96.3164 112.436 96.3164C112.153 96.3164 111.927 96.5053 111.927 96.9965C111.889 97.601 111.889 98.2623 111.889 98.9047Z" fill="#1F1F1F"/>
<path d="M117.856 99.621L118.064 99.7155V99.8855H117.29V99.7155L117.498 99.6021C117.781 98.4307 118.102 97.0704 118.385 95.918H118.971L119.877 99.6021L120.085 99.7344V99.9044H119.084V99.7532L119.292 99.621L119.103 98.8275H118.064L117.856 99.621ZM118.121 98.5063H119.008L118.574 96.5981L118.121 98.5063Z" fill="#1F1F1F"/>
<path d="M124.598 99.736V99.906C124.315 99.906 123.994 99.906 123.71 99.906V99.736L123.956 99.5848C123.956 98.4701 123.956 97.3743 123.956 96.2596L123.748 96.1085V95.9385C124.013 95.9385 124.145 95.9385 124.409 95.9385C124.655 95.9385 124.711 95.9574 124.768 96.1841L125.316 97.9411L125.561 99.0369H125.58C125.58 98.7535 125.561 98.3756 125.561 98.0922V96.2596L125.353 96.1085V95.9385C125.637 95.9385 125.901 95.9385 126.184 95.9385V96.1085L125.977 96.2596C125.977 97.4688 125.977 98.6779 125.977 99.8871H125.486C125.353 99.8871 125.278 99.8115 125.24 99.6981L124.315 96.5431H124.296L124.371 97.1098C124.371 97.9222 124.371 98.7535 124.371 99.5659L124.598 99.736Z" fill="#1F1F1F"/>
<path d="M134.588 96.1085V95.9385H135.588V96.1085L135.381 96.2596V97.7333H136.287V96.2596L136.079 96.1085V95.9385H137.08V96.1085L136.873 96.2596V99.6037L137.118 99.736V99.906H136.042V99.736L136.287 99.6037V98.0545H135.381V99.6037L135.626 99.736V99.906H134.55V99.736L134.795 99.6037V96.2596L134.588 96.1085Z" fill="#1F1F1F"/>
<path d="M140.99 99.906V99.736L141.235 99.5659C141.235 98.4512 141.235 97.3554 141.235 96.2408L141.027 96.0896V95.9385C141.707 95.9385 142.35 95.9385 143.03 95.9385V96.8264H142.747L142.595 96.2785H141.821C141.821 96.7697 141.821 97.261 141.821 97.7522H142.369L142.52 97.4499H142.69C142.69 97.7333 142.69 98.13 142.69 98.3945H142.52L142.369 98.0922H141.821C141.821 98.5079 141.821 98.9235 141.821 99.3392C141.821 99.4336 141.802 99.4714 141.707 99.5092V99.5281C142.029 99.5281 142.35 99.5281 142.671 99.5281L142.86 98.9802H143.105V99.8682C142.406 99.906 141.689 99.906 140.99 99.906Z" fill="#1F1F1F"/>
<path d="M148.317 98.6591C148.203 98.3568 148.109 98.2812 147.769 98.2812C147.769 98.6401 147.769 99.2069 147.769 99.5659L148.014 99.736V99.906C147.693 99.906 147.278 99.906 146.938 99.906V99.736L147.183 99.5659C147.183 98.4701 147.183 97.3554 147.183 96.2596L146.976 96.1085V95.9385H148.128C148.732 95.9385 149.223 96.1652 149.223 96.8642V97.3744C149.223 97.8656 148.959 98.1301 148.581 98.2056C148.751 98.3001 148.826 98.3945 148.883 98.5835L149.147 99.3014C149.204 99.4526 149.299 99.6793 149.487 99.6415V99.8682C149.374 99.9248 149.204 99.9438 149.072 99.9438C148.713 99.9438 148.675 99.6981 148.562 99.3958L148.317 98.6591ZM147.769 96.2974C147.769 96.9209 147.769 97.3366 147.769 97.96H148.128C148.505 97.96 148.656 97.7522 148.656 97.3932V96.8831C148.656 96.5242 148.524 96.3164 148.147 96.3164H147.769V96.2974Z" fill="#1F1F1F"/>
<path d="M153.226 99.906V99.736L153.472 99.5659C153.472 98.4512 153.472 97.3554 153.472 96.2408L153.264 96.0896V95.9385C153.944 95.9385 154.587 95.9385 155.267 95.9385V96.8264H154.983L154.832 96.2785H154.058C154.058 96.7697 154.058 97.261 154.058 97.7522H154.606L154.757 97.4499H154.927C154.927 97.7333 154.927 98.13 154.927 98.3945H154.757L154.606 98.0922H154.058C154.058 98.5079 154.058 98.9235 154.058 99.3392C154.058 99.4336 154.039 99.4714 153.944 99.5092V99.5281C154.265 99.5281 154.587 99.5281 154.908 99.5281L155.097 98.9802H155.342V99.8682C154.643 99.906 153.944 99.906 153.226 99.906Z" fill="#1F1F1F"/>
<path d="M49.1179 72.7371C49.1179 73.3606 48.6646 73.8328 48.0603 73.9462V73.984C48.6646 74.0785 49.1179 74.5508 49.1179 75.1931V78.3105C49.1179 79.8975 48.2491 80.7477 46.6629 80.7477H42.6028C42.4328 80.7477 42.3384 80.6532 42.3384 80.4832V67.5038C42.3384 67.3149 42.4328 67.2393 42.6028 67.2393H46.6629C48.2491 67.2393 49.1179 68.0895 49.1179 69.6765V72.7371ZM46.8517 70.111C46.8517 69.6764 46.6251 69.4308 46.1719 69.4308H44.6423V72.8504H46.1719C46.6063 72.8504 46.8517 72.6048 46.8517 72.1892V70.111ZM46.8517 75.76C46.8517 75.3254 46.6251 75.0798 46.1719 75.0798H44.6423V78.4994H46.1719C46.6063 78.4994 46.8517 78.2727 46.8517 77.8193V75.76Z" fill="white"/>
<path d="M64.4705 73.7574C64.4705 74.8909 64.0551 75.6277 63.243 75.9867L64.4139 80.4076C64.4705 80.6155 64.3573 80.7099 64.1684 80.7099H62.4121C62.2422 80.7099 62.1667 80.6343 62.1289 80.4643L60.9958 76.1756H59.825V80.4265C59.825 80.5966 59.7306 80.691 59.5607 80.691H57.8044C57.6344 80.691 57.54 80.5966 57.54 80.4265V67.4471C57.54 67.2771 57.6344 67.1826 57.8044 67.1826H62.0533C63.6396 67.1826 64.4894 68.0328 64.4894 69.6198V73.7574H64.4705ZM61.5057 73.9652C61.9401 73.9652 62.1855 73.7196 62.1855 73.285V70.111C62.1855 69.6765 61.9401 69.4309 61.5057 69.4309H59.825V73.9652H61.5057Z" fill="white"/>
<path d="M78.8225 80.7295C78.6714 80.7295 78.577 80.6539 78.5582 80.4838L78.0861 78.0089H75.0835L74.6302 80.4838C74.5924 80.635 74.5169 80.7295 74.3659 80.7295H72.5529C72.3641 80.7295 72.2886 80.6349 72.3263 80.446L75.1212 67.4477C75.159 67.2777 75.2534 67.2021 75.4045 67.2021H77.7461C77.8972 67.2021 77.9916 67.2777 78.0294 67.4477L80.8431 80.446C80.8809 80.6349 80.8054 80.7295 80.5976 80.7295H78.8225ZM76.5753 70.1494L75.4989 76.044H77.6706L76.5753 70.1494Z" fill="white"/>
<path d="M95.8939 67.2015C96.0639 67.2015 96.1583 67.296 96.1583 67.466V80.4454C96.1583 80.6154 96.0639 80.7099 95.8939 80.7099H94.2132C94.0622 80.7099 93.9678 80.6344 93.9111 80.4832L91.3239 73.2661H91.2296V80.4265C91.2296 80.5966 91.154 80.691 90.9651 80.691H89.2089C89.039 80.691 88.9446 80.5966 88.9446 80.4265V67.4471C88.9446 67.2771 89.039 67.1826 89.2089 67.1826H90.8707C91.0218 67.1826 91.1162 67.2582 91.1729 67.4093L93.7411 74.5887H93.8356V67.4471C93.8356 67.2771 93.9111 67.1826 94.0999 67.1826H95.8939V67.2015Z" fill="white"/>
<path d="M104.6 67.4666C104.6 67.2966 104.675 67.2021 104.864 67.2021H108.924C110.51 67.2021 111.36 68.0712 111.36 69.6582V78.2923C111.36 79.8793 110.51 80.7295 108.924 80.7295H104.864C104.675 80.7295 104.6 80.6539 104.6 80.4649V67.4666ZM108.452 78.5001C108.886 78.5001 109.132 78.2734 109.132 77.8199V70.1305C109.132 69.6771 108.886 69.4315 108.452 69.4315H106.903V78.5001H108.452Z" fill="white"/>
<path d="M126.77 67.2015C126.94 67.2015 127.034 67.296 127.034 67.466V80.4454C127.034 80.6154 126.94 80.7099 126.77 80.7099H125.089C124.938 80.7099 124.843 80.6344 124.787 80.4832L122.2 73.2661H122.105V80.4265C122.105 80.5966 122.03 80.691 121.841 80.691H120.085C119.915 80.691 119.82 80.5966 119.82 80.4265V67.4471C119.82 67.2771 119.915 67.1826 120.085 67.1826H121.765C121.916 67.1826 122.011 67.2582 122.067 67.4093L124.636 74.5887H124.749V67.4471C124.749 67.2771 124.825 67.1826 125.013 67.1826H126.77V67.2015Z" fill="white"/>
<path d="M141.858 80.7295C141.707 80.7295 141.613 80.6539 141.594 80.4838L141.122 78.0089H138.119L137.666 80.4838C137.628 80.635 137.553 80.7295 137.402 80.7295H135.589C135.4 80.7295 135.324 80.6349 135.362 80.446L138.176 67.4477C138.213 67.2777 138.308 67.2021 138.459 67.2021H140.801C140.952 67.2021 141.046 67.2777 141.084 67.4477L143.898 80.446C143.935 80.6349 143.86 80.7295 143.652 80.7295H141.858ZM139.611 70.1494L138.535 76.044H140.706L139.611 70.1494Z" fill="white"/>
<path d="M161.158 67.2021C161.384 67.2021 161.498 67.3155 161.498 67.5422V80.3893C161.498 80.6161 161.384 80.7295 161.158 80.7295H159.59C159.364 80.7295 159.25 80.6161 159.25 80.3893V72.7755H159.137L157.457 80.4083C157.4 80.6161 157.287 80.7105 157.079 80.7105H156.248C156.04 80.7105 155.927 80.6161 155.87 80.4083L154.19 72.7755H154.076V80.3893C154.076 80.6161 153.963 80.7295 153.736 80.7295H152.188C151.961 80.7295 151.848 80.6161 151.848 80.3893V67.5422C151.848 67.3155 151.961 67.2021 152.188 67.2021H154.416C154.624 67.2021 154.737 67.2966 154.794 67.5044L156.663 75.9306L158.533 67.5044C158.59 67.2966 158.703 67.2021 158.911 67.2021H161.158Z" fill="white"/>
<path d="M176.699 69.1667C176.699 69.3367 176.624 69.4501 176.435 69.4501H172.205V72.8319H175.434C175.604 72.8319 175.698 72.9263 175.698 73.1153V74.7968C175.698 74.9857 175.604 75.0801 175.434 75.0801H172.205V78.4998H176.435C176.643 78.4998 176.699 78.5754 176.699 78.7643V80.4646C176.699 80.6347 176.624 80.7292 176.435 80.7292H170.222C170.071 80.7292 169.977 80.6347 169.977 80.4646V67.4852C169.977 67.3152 170.071 67.2207 170.222 67.2207H176.435C176.643 67.2207 176.699 67.3152 176.699 67.4852V69.1667Z" fill="white"/>
<path d="M52.0825 26.1291C52.0825 25.6567 52.3281 25.4111 52.8005 25.4111H53.4428C53.8962 25.4111 54.1607 25.6567 54.1607 26.1291V26.6392C54.1607 26.6959 54.1229 26.7147 54.0852 26.7147H53.594C53.5373 26.7147 53.5184 26.677 53.5184 26.6392V26.2613C53.5184 26.1291 53.4428 26.0724 53.3295 26.0724H52.9705C52.8382 26.0724 52.7816 26.148 52.7816 26.2613V28.5096C52.7816 28.6418 52.8571 28.6985 52.9705 28.6985H53.3295C53.4617 28.6985 53.5184 28.6418 53.5184 28.5096V27.8483H53.2728C53.2161 27.8483 53.1972 27.8105 53.1972 27.7727V27.2816C53.1972 27.2249 53.2161 27.206 53.2728 27.206H54.1041C54.1608 27.206 54.1797 27.2249 54.1797 27.2816V28.6607C54.1797 29.133 53.934 29.3786 53.4617 29.3786H52.8194C52.3659 29.3786 52.1014 29.133 52.1014 28.6607V26.1291H52.0825Z" fill="#1F1F1F"/>
<path d="M57.7299 25.4111C57.7865 25.4111 57.8243 25.449 57.8243 25.5056V28.6419C57.8243 29.1142 57.5787 29.3598 57.1064 29.3598H56.5585C56.1051 29.3598 55.8406 29.1142 55.8406 28.6419V25.5056C55.8406 25.449 55.8783 25.4111 55.935 25.4111H56.4073C56.464 25.4111 56.5018 25.449 56.5018 25.5056V28.5096C56.5018 28.6418 56.5774 28.6985 56.6907 28.6985H56.9552C57.0875 28.6985 57.1442 28.6418 57.1442 28.5096V25.5245C57.1442 25.4679 57.182 25.43 57.2386 25.43H57.7299V25.4111Z" fill="#1F1F1F"/>
<path d="M61.2036 29.3594C61.1658 29.3594 61.128 29.3405 61.128 29.2839L60.9958 28.5659H60.1271L59.9949 29.2839C59.9761 29.3216 59.9572 29.3594 59.9194 29.3594H59.3907C59.334 29.3594 59.3151 29.3216 59.334 29.2839L60.146 25.5053C60.1649 25.4486 60.1838 25.4297 60.2215 25.4297H60.9014C60.9392 25.4297 60.977 25.4486 60.977 25.5053L61.789 29.2839C61.789 29.3405 61.7701 29.3594 61.7134 29.3594H61.2036ZM60.5426 26.2799L60.2215 27.9991H60.8447L60.5426 26.2799Z" fill="#1F1F1F"/>
<path d="M65.4346 27.3193C65.4346 27.6405 65.3024 27.8672 65.0757 27.9617L65.4157 29.2464C65.4346 29.3031 65.3969 29.3409 65.3402 29.3409H64.8301C64.7734 29.3409 64.7545 29.322 64.7545 29.2653L64.4144 28.0184H64.0743V29.2653C64.0743 29.322 64.0365 29.3409 63.9988 29.3409H63.4887C63.432 29.3409 63.4131 29.3031 63.4131 29.2653V25.4867C63.4131 25.43 63.4509 25.4111 63.4887 25.4111H64.7167C65.189 25.4111 65.4346 25.6567 65.4346 26.1291V27.3193ZM64.5656 27.376C64.6978 27.376 64.7545 27.3004 64.7545 27.1871V26.2613C64.7545 26.1291 64.6789 26.0724 64.5656 26.0724H64.0743V27.3949H64.5656V27.376Z" fill="#1F1F1F"/>
<path d="M68.833 29.3594C68.7952 29.3594 68.7574 29.3405 68.7574 29.2839L68.6252 28.5659H67.7565L67.6243 29.2839C67.6055 29.3216 67.5866 29.3594 67.5488 29.3594H67.02C66.9634 29.3594 66.9445 29.3216 66.9634 29.2839L67.7754 25.5053C67.7943 25.4486 67.8132 25.4297 67.8509 25.4297H68.5308C68.5686 25.4297 68.6063 25.4486 68.6063 25.5053L69.4184 29.2839C69.4184 29.3405 69.3995 29.3594 69.3428 29.3594H68.833ZM68.172 26.2799L67.8509 27.9991H68.4742L68.172 26.2799Z" fill="#1F1F1F"/>
<path d="M73.0261 25.4111C73.0828 25.4111 73.1017 25.43 73.1017 25.4867V29.2653C73.1017 29.322 73.0639 29.3409 73.0261 29.3409H72.535C72.4972 29.3409 72.4594 29.322 72.4405 29.2842L71.6848 27.1871H71.6659V29.2842C71.6659 29.3409 71.647 29.3598 71.5903 29.3598H71.0802C71.0235 29.3598 71.0046 29.322 71.0046 29.2842V25.5056C71.0046 25.449 71.0424 25.43 71.0802 25.43H71.5714C71.6092 25.43 71.647 25.4489 71.6659 25.4867L72.4216 27.5839H72.4405V25.5056C72.4405 25.449 72.4594 25.43 72.516 25.43H73.0261V25.4111Z" fill="#1F1F1F"/>
<path d="M76.5762 25.4111C76.6329 25.4111 76.6518 25.43 76.6518 25.4867V25.978C76.6518 26.0346 76.6329 26.0535 76.5762 26.0535H76.0094V29.2653C76.0094 29.322 75.9905 29.3409 75.9338 29.3409H75.4237C75.3671 29.3409 75.3482 29.322 75.3482 29.2653V26.0535H74.7814C74.7247 26.0535 74.7058 26.0157 74.7058 25.978V25.4867C74.7058 25.43 74.7436 25.4111 74.7814 25.4111H76.5762Z" fill="#1F1F1F"/>
<path d="M80.1643 25.9783C80.1643 26.0349 80.1454 26.0538 80.0888 26.0538H78.8607V27.0362H79.8054C79.862 27.0362 79.8809 27.0741 79.8809 27.1118V27.603C79.8809 27.6597 79.8432 27.6786 79.8054 27.6786H78.8607V28.6799H80.0888C80.1454 28.6799 80.1643 28.6988 80.1643 28.7555V29.2467C80.1643 29.3034 80.1454 29.3223 80.0888 29.3223H78.2751C78.2373 29.3223 78.1995 29.2845 78.1995 29.2467V25.4682C78.1995 25.4115 78.2373 25.3926 78.2751 25.3926H80.0888C80.1454 25.3926 80.1643 25.4115 80.1643 25.4682V25.9783Z" fill="#1F1F1F"/>
<path d="M83.8279 25.9783C83.8279 26.0349 83.809 26.0538 83.7523 26.0538H82.5243V27.0362H83.4689C83.5256 27.0362 83.5445 27.0741 83.5445 27.1118V27.603C83.5445 27.6597 83.5067 27.6786 83.4689 27.6786H82.5243V28.6799H83.7523C83.809 28.6799 83.8279 28.6988 83.8279 28.7555V29.2467C83.8279 29.3034 83.809 29.3223 83.7523 29.3223H81.9386C81.9008 29.3223 81.863 29.2845 81.863 29.2467V25.4682C81.863 25.4115 81.8819 25.3926 81.9386 25.3926H83.7523C83.809 25.3926 83.8279 25.4115 83.8279 25.4682V25.9783Z" fill="#1F1F1F"/>
<path d="M85.4321 25.4867C85.4321 25.43 85.451 25.4111 85.5077 25.4111H86.698C87.1514 25.4111 87.4159 25.6567 87.4159 26.1291V28.6419C87.4159 29.1142 87.1703 29.3598 86.698 29.3598H85.5077C85.451 29.3598 85.4321 29.3409 85.4321 29.2842V25.4867ZM86.5657 28.6985C86.698 28.6985 86.7547 28.6418 86.7547 28.5096V26.2613C86.7547 26.1291 86.6791 26.0535 86.5657 26.0535H86.1123V28.6985H86.5657Z" fill="#1F1F1F"/>
<path d="M131.151 25.4111C131.624 25.4111 131.869 25.6567 131.869 26.1291V26.6581C131.869 26.7147 131.85 26.7337 131.794 26.7337H131.284C131.227 26.7337 131.208 26.7147 131.208 26.6581V26.2802C131.208 26.148 131.132 26.0913 131 26.0913H130.755C130.622 26.0913 130.566 26.1669 130.566 26.2802V26.9604L131.737 27.3382C131.813 27.376 131.869 27.4327 131.869 27.5272V28.6607C131.869 29.133 131.624 29.3786 131.151 29.3786H130.603C130.15 29.3786 129.885 29.133 129.885 28.6607V28.1506C129.885 28.0939 129.923 28.075 129.961 28.075H130.471C130.528 28.075 130.547 28.0939 130.547 28.1506V28.5285C130.547 28.6608 130.622 28.7174 130.736 28.7174H130.981C131.114 28.7174 131.189 28.6608 131.189 28.5285V27.8672L130.018 27.4894C129.923 27.4516 129.885 27.3949 129.885 27.3004V26.1291C129.885 25.6567 130.131 25.4111 130.603 25.4111H131.151Z" fill="#1F1F1F"/>
<path d="M135.286 29.3594C135.249 29.3594 135.211 29.3405 135.211 29.2839L135.079 28.5659H134.191L134.059 29.2839C134.059 29.3216 134.021 29.3594 133.983 29.3594H133.455C133.398 29.3594 133.379 29.3216 133.398 29.2839L134.21 25.5053C134.229 25.4486 134.248 25.4297 134.286 25.4297H134.965C135.003 25.4297 135.041 25.4486 135.041 25.5053L135.853 29.2839C135.872 29.3405 135.853 29.3594 135.777 29.3594H135.286ZM134.625 26.2799L134.304 27.9991H134.928L134.625 26.2799Z" fill="#1F1F1F"/>
<path d="M138.894 25.4111C138.951 25.4111 138.97 25.43 138.97 25.4867V25.978C138.97 26.0346 138.951 26.0535 138.894 26.0535H138.327V29.2653C138.327 29.322 138.308 29.3409 138.252 29.3409H137.742C137.685 29.3409 137.666 29.322 137.666 29.2653V26.0535H137.099C137.043 26.0535 137.024 26.0157 137.024 25.978V25.4867C137.024 25.43 137.061 25.4111 137.099 25.4111H138.894Z" fill="#1F1F1F"/>
<path d="M141.141 25.4111C141.197 25.4111 141.216 25.43 141.216 25.4867V29.2653C141.216 29.322 141.178 29.3409 141.141 29.3409H140.631C140.574 29.3409 140.555 29.3031 140.555 29.2653V25.4867C140.555 25.43 140.574 25.4111 140.631 25.4111H141.141Z" fill="#1F1F1F"/>
<path d="M144.144 25.4111C144.616 25.4111 144.862 25.6567 144.862 26.1291V26.6581C144.862 26.7147 144.843 26.7337 144.786 26.7337H144.276C144.219 26.7337 144.2 26.7147 144.2 26.6581V26.2802C144.2 26.148 144.144 26.0913 143.993 26.0913H143.766C143.634 26.0913 143.577 26.1669 143.577 26.2802V26.9604L144.748 27.3382C144.824 27.376 144.881 27.4327 144.881 27.5272V28.6607C144.881 29.133 144.635 29.3786 144.163 29.3786H143.615C143.161 29.3786 142.897 29.133 142.897 28.6607V28.1506C142.897 28.0939 142.916 28.075 142.972 28.075H143.483C143.539 28.075 143.558 28.0939 143.558 28.1506V28.5285C143.558 28.6608 143.634 28.7174 143.747 28.7174H143.974C144.106 28.7174 144.182 28.6608 144.182 28.5285V27.8672L143.01 27.4894C142.916 27.4516 142.878 27.3949 142.878 27.3004V26.1291C142.878 25.6567 143.124 25.4111 143.596 25.4111H144.144Z" fill="#1F1F1F"/>
<path d="M148.487 25.9783C148.487 26.0349 148.45 26.0538 148.412 26.0538H147.184V27.0362H148.109C148.166 27.0362 148.185 27.0741 148.185 27.1118V27.603C148.185 27.6597 148.166 27.6786 148.109 27.6786H147.184V29.2467C147.184 29.3034 147.146 29.3223 147.108 29.3223H146.598C146.541 29.3223 146.522 29.2845 146.522 29.2467V25.4682C146.522 25.4115 146.541 25.3926 146.598 25.3926H148.412C148.468 25.3926 148.487 25.4115 148.487 25.4682V25.9783Z" fill="#1F1F1F"/>
<path d="M151.546 29.3594C151.508 29.3594 151.47 29.3405 151.47 29.2839L151.338 28.5659H150.469L150.337 29.2839C150.337 29.3216 150.299 29.3594 150.261 29.3594H149.733C149.676 29.3594 149.657 29.3216 149.676 29.2839L150.488 25.5053C150.507 25.4486 150.526 25.4297 150.564 25.4297H151.243C151.281 25.4297 151.319 25.4486 151.319 25.5053L152.131 29.2839C152.131 29.3405 152.112 29.3594 152.055 29.3594H151.546ZM150.903 26.2799L150.582 27.9991H151.206L150.903 26.2799Z" fill="#1F1F1F"/>
<path d="M155.644 26.6581C155.644 26.7147 155.607 26.7337 155.569 26.7337H155.078C155.021 26.7337 155.002 26.7147 155.002 26.6581V26.2613C155.002 26.1291 154.926 26.0724 154.813 26.0724H154.549C154.416 26.0724 154.36 26.148 154.36 26.2613V28.5096C154.36 28.6418 154.435 28.6985 154.549 28.6985H154.813C154.945 28.6985 155.002 28.6418 155.002 28.5096V28.1129C155.002 28.0562 155.021 28.0373 155.078 28.0373H155.569C155.626 28.0373 155.644 28.0751 155.644 28.1129V28.6419C155.644 29.1142 155.399 29.3598 154.926 29.3598H154.379C153.906 29.3598 153.661 29.1142 153.661 28.6419V26.1291C153.661 25.6567 153.906 25.4111 154.379 25.4111H154.926C155.38 25.4111 155.644 25.6567 155.644 26.1291V26.6581Z" fill="#1F1F1F"/>
<path d="M158.968 25.4111C159.025 25.4111 159.044 25.43 159.044 25.4867V25.978C159.044 26.0346 159.025 26.0535 158.968 26.0535H158.401V29.2653C158.401 29.322 158.382 29.3409 158.326 29.3409H157.816C157.759 29.3409 157.74 29.322 157.74 29.2653V26.0535H157.173C157.117 26.0535 157.098 26.0157 157.098 25.978V25.4867C157.098 25.43 157.135 25.4111 157.173 25.4111H158.968Z" fill="#1F1F1F"/>
<path d="M161.234 25.4111C161.29 25.4111 161.309 25.43 161.309 25.4867V29.2653C161.309 29.322 161.271 29.3409 161.234 29.3409H160.723C160.667 29.3409 160.648 29.3031 160.648 29.2653V25.4867C160.648 25.43 160.667 25.4111 160.723 25.4111H161.234Z" fill="#1F1F1F"/>
<path d="M162.99 26.1291C162.99 25.6567 163.235 25.4111 163.707 25.4111H164.255C164.728 25.4111 164.973 25.6567 164.973 26.1291V28.6419C164.973 29.1142 164.728 29.3598 164.255 29.3598H163.707C163.235 29.3598 162.99 29.1142 162.99 28.6419V26.1291ZM164.123 28.7174C164.255 28.7174 164.312 28.6608 164.312 28.5285V26.2424C164.312 26.1102 164.236 26.0535 164.123 26.0535H163.84C163.707 26.0535 163.651 26.1291 163.651 26.2424V28.5096C163.651 28.6418 163.726 28.6985 163.84 28.6985H164.123V28.7174Z" fill="#1F1F1F"/>
<path d="M168.656 25.4111C168.712 25.4111 168.731 25.43 168.731 25.4867V29.2653C168.731 29.322 168.693 29.3409 168.656 29.3409H168.164C168.127 29.3409 168.089 29.322 168.07 29.2842L167.314 27.1871H167.295V29.2842C167.295 29.3409 167.276 29.3598 167.22 29.3598H166.71C166.653 29.3598 166.634 29.322 166.634 29.2842V25.5056C166.634 25.449 166.672 25.43 166.71 25.43H167.201C167.239 25.43 167.276 25.4489 167.295 25.4867L168.051 27.5839H168.07V25.5056C168.07 25.449 168.089 25.43 168.145 25.43H168.656V25.4111Z" fill="#1F1F1F"/>
</svg>
