<svg width="156" height="50" viewBox="0 0 156 50" fill="none" xmlns="http://www.w3.org/2000/svg">
<path d="M49.4668 35.7301C49.4521 35.6634 49.4374 35.6224 49.4374 35.6224C48.6341 33.4929 46.9442 31.1735 44.5882 28.8696C47.1499 31.7431 48.2912 34.4884 47.4389 36.5409C45.5629 41.0615 34.7379 40.492 23.2663 35.2632C11.7898 30.0344 4.01149 22.1322 5.8875 17.6116C6.73979 15.554 9.45339 14.5534 13.2348 14.5636C10.5065 14.3635 8.0966 14.538 6.1863 15.0973C6.1765 15.0973 6.17649 15.0973 6.17649 15.0973C3.26207 15.9799 1.8367 18.5404 1.52811 19.1715C1.48402 19.269 1.45954 19.3152 1.45954 19.3152C1.43505 19.3716 1.40566 19.4281 1.38117 19.4948C-2.36106 28.5104 5.31442 40.6921 18.5053 46.7008C31.7108 52.7095 45.4405 50.2875 49.1827 41.2719C49.2268 41.1693 49.266 41.0615 49.3051 40.9538C49.3443 40.8563 49.3835 40.7536 49.4129 40.6459C49.4374 40.5792 49.4521 40.5176 49.4668 40.4612C50.1133 38.2701 49.6039 36.2176 49.4668 35.7301Z" fill="white"/>
<path d="M28.5661 21.2035C30.1727 22.6967 31.7205 24.2771 33.2389 25.9397C33.0675 26.6786 32.4944 30.9375 35.1982 33.9034C37.9902 36.9719 42.0704 37.8237 43.6574 36.7872C41.9626 36.7359 40.4393 36.0739 39.3127 35.3761C39.1217 35.2632 38.9356 35.14 38.7494 35.0169C38.0049 34.514 37.5053 34.0522 37.3192 33.8829C37.3045 33.8675 37.2898 33.8521 37.2751 33.8316C37.2506 33.8059 37.2457 33.8008 37.2457 33.8008C36.6187 33.2004 36.0554 32.5231 35.5901 31.7739C34.9337 30.7271 34.4831 29.5726 34.2774 28.3821C34.7084 29.5059 35.2913 30.5424 36.0015 31.4609C36.7069 32.3845 37.5396 33.1799 38.4457 33.8572C39.3568 34.5397 40.3462 35.0887 41.3896 35.4941C41.9137 35.6788 42.4476 35.8327 42.9913 35.9148C43.5105 35.9867 44.0983 35.997 44.4509 35.7763C44.4754 35.7507 44.5048 35.725 44.5293 35.7045C45.4257 33.7135 44.4852 30.2038 41.9088 27.3764C39.2392 24.4516 35.2031 24.6312 34.4341 24.7646C34.2921 24.4824 34.1549 24.2002 34.008 23.9231C33.141 22.3067 32.1271 20.7776 31.0103 19.3255C30.927 19.2177 30.8486 19.1048 30.7654 19.0022C28.331 15.908 25.3724 13.2398 22.0808 11.1205C18.7795 9.01158 15.1156 7.52352 11.344 6.73844C7.56749 6.00467 3.69302 5.93795 -0.000225067 6.75895C3.68322 7.62614 7.19033 8.54977 10.5407 9.80693C13.8862 11.0897 17.0602 12.6651 20.0677 14.579C20.7583 15.0203 21.4392 15.4821 22.1151 15.9593C24.3536 17.5398 26.5137 19.2844 28.5661 21.2035Z" fill="#FA8507"/>
<path d="M37.7599 11.7978C38.0734 12.2185 38.3819 12.629 38.7052 13.0241C38.8914 13.2397 38.9697 13.3731 39.0873 13.527C39.1999 13.6809 39.3273 13.8246 39.4057 13.994C39.8073 14.6302 40.0522 15.3589 40.1551 16.1953C40.3706 17.8681 40.013 19.8231 39.4253 21.8448C41.0613 20.5722 42.2858 18.6172 42.5797 16.2158C42.7218 15.0253 42.5307 13.7066 41.9919 12.5623C41.8842 12.2596 41.7127 12.003 41.5462 11.7362C41.3846 11.4796 41.1984 11.182 41.0711 11.0127C40.7821 10.6227 40.4931 10.2327 40.2237 9.84275C39.1314 8.29824 38.0783 6.8153 37.7109 5.28104C37.5248 4.51649 37.5101 3.69036 37.7158 2.79239C37.9019 1.88415 38.3232 0.986181 38.7395 0.000976562C37.8334 0.488447 37.0202 1.18117 36.3492 2.09967C35.6879 3.01816 35.2863 4.26506 35.2912 5.51709C35.2863 6.77426 35.6439 7.95957 36.1043 8.98582C36.5745 10.0326 37.1525 10.946 37.7599 11.7978Z" fill="#FA8507"/>
<path d="M71.8889 45.0009C70.5261 45.0009 69.3305 44.5896 68.302 43.7671C67.2992 42.918 66.1807 41.4055 64.9465 39.2298L61.0896 32.4636H58.3897V44.6029H54.9185V23.1103C54.9185 21.7571 54.7385 20.7621 54.3785 20.1253C54.0185 19.4619 53.2986 19.1302 52.2186 19.1302H51.4473V18.3342H61.4753C63.918 18.3342 66.1293 18.8384 68.1091 19.8467C70.1147 20.8284 71.1175 22.7123 71.1175 25.4984C71.1175 29.0274 69.0605 31.2828 64.9465 32.2646L68.9962 39.2298C69.9476 40.8749 70.7961 42.0291 71.5418 42.6924C72.3132 43.3293 73.2003 43.7007 74.2031 43.8069V44.6029C73.9717 44.709 73.6374 44.8019 73.2003 44.8815C72.7889 44.9611 72.3518 45.0009 71.8889 45.0009ZM61.2824 31.0705C62.0795 31.0705 62.9409 30.8715 63.8665 30.4735C64.8179 30.0755 65.615 29.452 66.2578 28.6029C66.9264 27.7538 67.2606 26.719 67.2606 25.4984C67.2606 24.1982 66.9264 23.1236 66.2578 22.2745C65.615 21.3989 64.8179 20.7621 63.8665 20.3641C62.9409 19.9395 62.0795 19.7273 61.2824 19.7273C60.3825 19.7273 59.4182 19.8599 58.3897 20.1253V30.6725C59.4182 30.9379 60.3825 31.0705 61.2824 31.0705Z" fill="white"/>
<path d="M83.3398 45.0009C81.5913 45.0009 80.1128 44.5764 78.9043 43.7273C77.6958 42.8516 76.783 41.6841 76.1659 40.2248C75.5488 38.7389 75.2402 37.0805 75.2402 35.2497C75.2402 33.4453 75.5488 31.8002 76.1659 30.3143C76.783 28.8284 77.6701 27.6609 78.8272 26.8118C80.0099 25.9362 81.3856 25.4984 82.9541 25.4984C85.5511 25.4984 87.4795 26.2546 88.7394 27.7671C90.0251 29.253 90.6679 31.4155 90.6679 34.2546L90.5908 35.8467H78.9043C78.9043 38.0755 79.3671 39.8931 80.2928 41.2994C81.2184 42.7057 82.4912 43.4089 84.1111 43.4089C85.3196 43.4089 86.3353 43.1435 87.1581 42.6128C88.0066 42.0822 88.7909 41.2861 89.5108 40.2248L90.2822 40.8218C89.4337 42.2812 88.4437 43.3425 87.3124 44.0059C86.181 44.6692 84.8568 45.0009 83.3398 45.0009ZM87.0038 34.2546C87.0038 31.9196 86.6696 30.1419 86.001 28.9213C85.3325 27.7007 84.3168 27.0904 82.9541 27.0904C82.1827 27.0904 81.4884 27.4089 80.8713 28.0457C80.2542 28.656 79.7657 29.505 79.4057 30.5929C79.0714 31.6808 78.9043 32.9014 78.9043 34.2546H87.0038Z" fill="white"/>
<path d="M101.17 45.0009C98.2126 45.0009 96.2198 44.4702 95.1913 43.4089C94.7542 42.9578 94.4842 42.4536 94.3814 41.8964C94.2785 41.3127 94.2271 40.4238 94.2271 39.2298H94.9985C95.2299 40.5565 95.7827 41.5913 96.657 42.3342C97.5569 43.0506 98.804 43.4089 100.398 43.4089C101.812 43.4089 102.867 43.1568 103.561 42.6526C104.281 42.1485 104.641 41.4719 104.641 40.6228C104.641 39.8533 104.358 39.19 103.792 38.6327C103.252 38.0755 102.378 37.5448 101.17 37.0407L98.8554 36.0457C97.3126 35.4089 96.1556 34.6659 95.3842 33.8168C94.6128 32.9677 94.2271 31.9196 94.2271 30.6725C94.2271 29.054 94.8185 27.7936 96.0013 26.8914C97.1841 25.9628 98.714 25.4984 100.591 25.4984C103.419 25.4984 105.348 26.0291 106.376 27.0904C106.814 27.5415 107.083 28.0457 107.186 28.6029C107.289 29.1601 107.341 30.049 107.341 31.2696H106.569C106.364 29.9429 105.824 28.9213 104.949 28.2049C104.075 27.4619 102.879 27.0904 101.362 27.0904C100.154 27.0904 99.2025 27.3558 98.5083 27.8865C97.8397 28.3906 97.5055 29.054 97.5055 29.8765C97.5055 31.2563 98.534 32.384 100.591 33.2596L102.905 34.2546C104.654 34.9976 105.926 35.7936 106.724 36.6427C107.521 37.4652 107.919 38.5266 107.919 39.8268C107.919 41.4453 107.289 42.719 106.029 43.6477C104.769 44.5498 103.149 45.0009 101.17 45.0009Z" fill="white"/>
<path d="M117.688 45.0009C116.248 45.0009 115.117 44.5764 114.294 43.7273C113.471 42.8782 113.06 41.578 113.06 39.8268V27.4885H110.36V25.8964H113.06V22.3143L114.988 19.9263H116.531V25.8964H121.16V27.4885H116.531V39.8268C116.531 42.2148 117.431 43.4089 119.231 43.4089C119.848 43.4089 120.362 43.3425 120.774 43.2099C121.211 43.0772 121.661 42.8782 122.124 42.6128L122.509 43.4089C121.918 43.8599 121.262 44.2447 120.542 44.5631C119.822 44.855 118.871 45.0009 117.688 45.0009Z" fill="white"/>
<path d="M129.679 45.0009C128.856 45.0009 128.021 44.8284 127.172 44.4835C126.324 44.112 125.591 43.515 124.974 42.6924C124.382 41.8699 124.087 40.782 124.087 39.4288C124.087 37.4122 124.987 35.9793 126.786 35.1302C128.612 34.2812 130.99 33.8566 133.922 33.8566H135.079C135.079 31.2563 134.732 29.4785 134.037 28.5233C133.343 27.5681 132.34 27.0904 131.029 27.0904C129.872 27.0904 128.946 27.3425 128.252 27.8467C127.558 28.3508 127.069 29.2264 126.786 30.4735H125.051C125.051 29.5714 125.102 28.8682 125.205 28.3641C125.308 27.8334 125.578 27.3425 126.015 26.8914C126.478 26.4138 127.236 26.0689 128.291 25.8566C129.371 25.6178 130.54 25.4984 131.8 25.4984C133.883 25.4984 135.529 26.0822 136.737 27.2497C137.946 28.3906 138.55 30.5929 138.55 33.8566V44.6029H136.622L135.272 42.8118H135.079C134.616 43.4221 133.935 43.9395 133.035 44.3641C132.135 44.7886 131.016 45.0009 129.679 45.0009ZM131.415 43.2099C132.263 43.2099 132.97 42.9976 133.536 42.573C134.102 42.1485 134.616 41.5647 135.079 40.8218V35.4487H133.922C132.019 35.4487 130.515 35.8201 129.409 36.5631C128.303 37.2795 127.751 38.2347 127.751 39.4288C127.751 40.6493 128.098 41.5913 128.792 42.2546C129.512 42.8914 130.386 43.2099 131.415 43.2099Z" fill="white"/>
<path d="M144.237 30.6725C144.237 29.3193 144.057 28.3243 143.697 27.6875C143.337 27.0241 142.617 26.6924 141.537 26.6924H141.151V25.8964H144.237C145.214 25.8964 145.947 26.0424 146.435 26.3342C146.95 26.5996 147.31 27.0506 147.515 27.6875H147.708C148.171 27.0772 148.788 26.5598 149.559 26.1352C150.356 25.7107 151.282 25.4984 152.336 25.4984C153.365 25.4984 154.136 25.6974 154.651 26.0954C155.088 26.4404 155.538 27.0374 156 27.8865L154.458 29.0805C154.175 28.6825 153.763 28.3906 153.223 28.2049C152.684 27.9926 152.066 27.8865 151.372 27.8865C150.601 27.8865 149.894 28.0722 149.251 28.4437C148.608 28.7886 148.094 29.2662 147.708 29.8765V44.6029H144.237V30.6725Z" fill="white"/>
</svg>
