<svg width="188" height="60" viewBox="0 0 188 60" fill="none" xmlns="http://www.w3.org/2000/svg">
<path d="M59.614 42.8749C59.5962 42.7948 59.5785 42.7456 59.5785 42.7456C58.6105 40.1902 56.5739 37.407 53.7346 34.6423C56.8219 38.0905 58.1973 41.3847 57.1701 43.8478C54.9093 49.2725 41.8638 48.5891 28.039 42.3145C14.2084 36.04 4.83451 26.5574 7.09534 21.1326C8.12246 18.6635 11.3927 17.4628 15.9498 17.4751C12.6618 17.2349 9.75759 17.4443 7.45543 18.1154C7.44363 18.1154 7.44361 18.1154 7.44361 18.1154C3.93136 19.1745 2.2136 22.2472 1.84172 23.0045C1.78859 23.1215 1.75908 23.1769 1.75908 23.1769C1.72957 23.2447 1.69415 23.3124 1.66463 23.3925C-2.84523 34.2112 6.40471 48.8292 22.3014 56.0397C38.2157 63.2501 54.7617 60.3438 59.2716 49.525C59.3247 49.4018 59.3719 49.2725 59.4192 49.1432C59.4664 49.0262 59.5136 48.9031 59.549 48.7738C59.5785 48.6937 59.5962 48.6199 59.614 48.5521C60.3931 45.9229 59.7792 43.4598 59.614 42.8749Z" fill="#1F1F1F"/>
<path d="M34.4258 25.4429C36.362 27.2347 38.2273 29.1313 40.0572 31.1263C39.8506 32.013 39.16 37.1237 42.4184 40.6828C45.7831 44.365 50.7003 45.3871 52.6128 44.1433C50.5704 44.0817 48.7346 43.2874 47.3769 42.45C47.1467 42.3145 46.9224 42.1667 46.698 42.019C45.8008 41.4155 45.1987 40.8613 44.9744 40.6581C44.9567 40.6397 44.939 40.6212 44.9213 40.5966C44.8918 40.5658 44.8858 40.5596 44.8858 40.5596C44.1303 39.8392 43.4514 39.0264 42.8906 38.1274C42.0997 36.8713 41.5566 35.4858 41.3087 34.0573C41.8281 35.4058 42.5306 36.6496 43.3865 37.7518C44.2365 38.8601 45.24 39.8146 46.3321 40.6273C47.43 41.4463 48.6224 42.1052 49.8797 42.5916C50.5114 42.8133 51.1548 42.998 51.81 43.0965C52.4357 43.1827 53.1441 43.195 53.5691 42.9303C53.5986 42.8995 53.634 42.8687 53.6635 42.8441C54.7438 40.4549 53.6104 36.2432 50.5055 32.8504C47.2883 29.3406 42.4243 29.5561 41.4975 29.7162C41.3264 29.3775 41.1611 29.0389 40.984 28.7064C39.9392 26.7668 38.7173 24.9318 37.3714 23.1892C37.271 23.0599 37.1766 22.9245 37.0762 22.8013C34.1425 19.0883 30.5771 15.8864 26.6103 13.3433C22.6317 10.8126 18.2163 9.02694 13.671 8.08483C9.11983 7.20431 4.45059 7.12425 -0.000244141 8.10945C4.43878 9.15007 8.66529 10.2584 12.7029 11.767C16.7346 13.3064 20.5598 15.1968 24.1842 17.4935C25.0165 18.0231 25.837 18.5773 26.6516 19.1499C29.3493 21.0464 31.9525 23.14 34.4258 25.4429Z" fill="#FA8507"/>
<path d="M45.506 14.1561C45.8838 14.6611 46.2557 15.1537 46.6453 15.6278C46.8696 15.8864 46.9641 16.0465 47.1057 16.2312C47.2415 16.416 47.395 16.5884 47.4895 16.7916C47.9735 17.5551 48.2686 18.4295 48.3926 19.4332C48.6523 21.4405 48.2214 23.7865 47.513 26.2126C49.4846 24.6855 50.9604 22.3395 51.3146 19.4578C51.4857 18.0292 51.2555 16.4467 50.6062 15.0736C50.4763 14.7103 50.2697 14.4025 50.069 14.0823C49.8742 13.7744 49.6499 13.4172 49.4965 13.214C49.1482 12.7461 48.7999 12.2781 48.4752 11.8101C47.1589 9.95672 45.8897 8.17718 45.447 6.33608C45.2227 5.41861 45.205 4.42726 45.4529 3.3497C45.6772 2.25981 46.1849 1.18225 46.6866 0C45.5946 0.584965 44.6147 1.41623 43.806 2.51843C43.0091 3.62062 42.525 5.1169 42.531 6.61934C42.525 8.12794 42.956 9.55031 43.5108 10.7818C44.0775 12.038 44.7741 13.134 45.506 14.1561Z" fill="#FA8507"/>
<path d="M86.6348 54C84.9925 54 83.5516 53.5065 82.3121 52.5194C81.1036 51.5005 79.7557 49.6856 78.2683 47.0746L73.6202 38.9552H70.3665V53.5224H66.1833V27.7313C66.1833 26.1075 65.9664 24.9134 65.5325 24.1493C65.0987 23.3532 64.2311 22.9552 62.9296 22.9552H62V22H74.085C77.0288 22 79.6937 22.605 82.0797 23.8149C84.4967 24.993 85.7052 27.2537 85.7052 30.597C85.7052 34.8318 83.2262 37.5383 78.2683 38.7164L83.1488 47.0746C84.2953 49.0488 85.3179 50.4338 86.2165 51.2299C87.1461 51.994 88.2152 52.4398 89.4237 52.5672V53.5224C89.1448 53.6498 88.742 53.7612 88.2152 53.8567C87.7194 53.9522 87.1926 54 86.6348 54ZM73.8526 37.2836C74.8132 37.2836 75.8513 37.0448 76.9668 36.5672C78.1133 36.0896 79.0739 35.3413 79.8486 34.3224C80.6543 33.3035 81.0571 32.0617 81.0571 30.597C81.0571 29.0368 80.6543 27.7473 79.8486 26.7284C79.0739 25.6776 78.1133 24.9134 76.9668 24.4358C75.8513 23.9264 74.8132 23.6716 73.8526 23.6716C72.7681 23.6716 71.606 23.8308 70.3665 24.1493V36.806C71.606 37.1244 72.7681 37.2836 73.8526 37.2836Z" fill="#1F1F1F"/>
<path d="M100.435 54C98.3274 54 96.5456 53.4905 95.0892 52.4716C93.6328 51.4209 92.5328 50.0199 91.7891 48.2687C91.0454 46.4856 90.6736 44.4955 90.6736 42.2985C90.6736 40.1333 91.0454 38.1592 91.7891 36.3761C92.5328 34.593 93.6019 33.192 94.9963 32.1731C96.4217 31.1224 98.0795 30.597 99.9697 30.597C103.099 30.597 105.423 31.5045 106.942 33.3194C108.491 35.1025 109.266 37.6975 109.266 41.1045L109.173 43.0149H95.0892C95.0892 45.6896 95.647 47.8706 96.7626 49.5582C97.8781 51.2458 99.412 52.0896 101.364 52.0896C102.821 52.0896 104.045 51.7711 105.036 51.1343C106.059 50.4975 107.004 49.5423 107.871 48.2687L108.801 48.9851C107.778 50.7363 106.585 52.01 105.222 52.806C103.859 53.602 102.263 54 100.435 54ZM104.85 41.1045C104.85 38.3025 104.447 36.1692 103.642 34.7045C102.836 33.2398 101.612 32.5075 99.9697 32.5075C99.0401 32.5075 98.2035 32.8896 97.4598 33.6537C96.7161 34.3861 96.1273 35.405 95.6935 36.7104C95.2907 38.0159 95.0892 39.4806 95.0892 41.1045H104.85Z" fill="#1F1F1F"/>
<path d="M121.922 54C118.358 54 115.957 53.3632 114.717 52.0896C114.19 51.5483 113.865 50.9433 113.741 50.2746C113.617 49.5741 113.555 48.5075 113.555 47.0746H114.485C114.764 48.6667 115.43 49.9085 116.483 50.8C117.568 51.6597 119.071 52.0896 120.992 52.0896C122.696 52.0896 123.967 51.7871 124.804 51.1821C125.671 50.5771 126.105 49.7652 126.105 48.7463C126.105 47.8229 125.764 47.0269 125.082 46.3582C124.432 45.6896 123.378 45.0527 121.922 44.4478L119.133 43.2537C117.274 42.4896 115.879 41.598 114.95 40.5791C114.02 39.5602 113.555 38.3025 113.555 36.806C113.555 34.8637 114.268 33.3512 115.693 32.2687C117.119 31.1542 118.962 30.597 121.225 30.597C124.633 30.597 126.957 31.2338 128.197 32.5075C128.723 33.0488 129.049 33.6537 129.173 34.3224C129.297 34.991 129.359 36.0577 129.359 37.5224H128.429C128.181 35.9303 127.53 34.7045 126.477 33.8448C125.423 32.9532 123.982 32.5075 122.154 32.5075C120.698 32.5075 119.551 32.8259 118.715 33.4627C117.909 34.0677 117.506 34.8637 117.506 35.8507C117.506 37.5065 118.746 38.8597 121.225 39.9104L124.013 41.1045C126.12 41.996 127.654 42.9512 128.615 43.9701C129.576 44.9572 130.056 46.2308 130.056 47.791C130.056 49.7333 129.297 51.2617 127.778 52.3761C126.26 53.4587 124.308 54 121.922 54Z" fill="#1F1F1F"/>
<path d="M141.829 54C140.094 54 138.73 53.4905 137.739 52.4716C136.747 51.4527 136.251 49.8925 136.251 47.791V32.9851H132.998V31.0746H136.251V26.7761L138.575 23.9104H140.435V31.0746H146.012V32.9851H140.435V47.791C140.435 50.6567 141.519 52.0896 143.688 52.0896C144.432 52.0896 145.052 52.01 145.547 51.8507C146.074 51.6915 146.616 51.4527 147.174 51.1343L147.639 52.0896C146.926 52.6308 146.136 53.0925 145.269 53.4746C144.401 53.8249 143.254 54 141.829 54Z" fill="#1F1F1F"/>
<path d="M156.279 54C155.288 54 154.281 53.793 153.258 53.3791C152.236 52.9333 151.352 52.2169 150.609 51.2299C149.896 50.2428 149.54 48.9373 149.54 47.3134C149.54 44.8935 150.624 43.1741 152.793 42.1552C154.993 41.1363 157.86 40.6269 161.392 40.6269H162.787C162.787 37.5065 162.368 35.3731 161.532 34.2269C160.695 33.0806 159.487 32.5075 157.906 32.5075C156.512 32.5075 155.396 32.81 154.56 33.4149C153.723 34.0199 153.134 35.0706 152.793 36.5672H150.702C150.702 35.4846 150.764 34.6408 150.888 34.0358C151.012 33.399 151.337 32.8099 151.864 32.2687C152.421 31.6955 153.336 31.2816 154.606 31.0269C155.908 30.7403 157.317 30.597 158.836 30.597C161.346 30.597 163.329 31.2975 164.785 32.6985C166.242 34.0677 166.97 36.7104 166.97 40.6269V53.5224H164.646L163.019 51.3731H162.787C162.229 52.1055 161.408 52.7264 160.323 53.2358C159.239 53.7453 157.891 54 156.279 54ZM158.371 51.8507C159.394 51.8507 160.246 51.596 160.927 51.0866C161.609 50.5771 162.229 49.8766 162.787 48.9851V42.5373H161.392C159.099 42.5373 157.286 42.9831 155.954 43.8746C154.622 44.7343 153.955 45.8806 153.955 47.3134C153.955 48.7781 154.374 49.9085 155.21 50.7045C156.078 51.4687 157.132 51.8507 158.371 51.8507Z" fill="#1F1F1F"/>
<path d="M173.823 36.806C173.823 35.1821 173.606 33.9881 173.173 33.2239C172.739 32.4279 171.871 32.0299 170.57 32.0299H170.105V31.0746H173.823C175.001 31.0746 175.884 31.2498 176.473 31.6C177.092 31.9184 177.526 32.4597 177.774 33.2239H178.007C178.564 32.4915 179.308 31.8706 180.238 31.3612C181.198 30.8517 182.314 30.597 183.584 30.597C184.824 30.597 185.753 30.8358 186.373 31.3134C186.9 31.7274 187.442 32.4438 188 33.4627L186.141 34.8955C185.8 34.4179 185.304 34.0677 184.653 33.8448C184.003 33.59 183.259 33.4627 182.422 33.4627C181.493 33.4627 180.641 33.6856 179.866 34.1313C179.091 34.5453 178.471 35.1184 178.007 35.8507V53.5224H173.823V36.806Z" fill="#1F1F1F"/>
</svg>
