<svg width="94" height="101" viewBox="0 0 94 101" fill="none" xmlns="http://www.w3.org/2000/svg">
<path fill-rule="evenodd" clip-rule="evenodd" d="M69.5045 21.1797C74.8373 21.5678 80.8079 21.9825 84.8284 25.205C86.8201 26.8046 88.3636 29.2299 87.7998 31.6491C87.1713 34.3603 84.2369 36.7292 80.8449 36.3471L80.9142 37.4611C84.8607 36.1806 87.8784 39.5953 89.4034 42.1367C91.1687 45.0756 92.4441 48.3965 92.5828 51.7352C92.6318 53.4037 92.3453 55.0649 91.7407 56.6185C91.1361 58.1722 90.2258 59.586 89.0649 60.7747C87.904 61.9634 86.5165 62.9023 84.9862 63.5346C83.4558 64.167 81.8144 64.4798 80.161 64.454C79.5602 64.454 79.2044 65.2349 79.7127 65.5269C85.9098 69.0816 88.9413 75.6889 87.5087 81.9665C86.6402 85.6476 84.3598 88.8302 81.1684 90.8153C77.171 93.3283 71.6256 93.5928 68.2152 90.4258C68.1071 90.3469 67.9808 90.2974 67.8484 90.282C67.7159 90.2667 67.5817 90.2859 67.4588 90.338C67.3358 90.39 67.2281 90.4731 67.1461 90.5792C67.0641 90.6853 67.0106 90.811 66.9906 90.944C66.8889 95.7745 60.8628 98.6458 55.8165 99.4369C50.5837 100.244 45.2319 99.5847 40.3447 97.5318C30.2104 93.1977 25.7048 83.0748 29.032 73.9004C29.0461 73.8184 29.043 73.7343 29.0228 73.6536C29.0026 73.573 28.9658 73.4975 28.9148 73.4321C28.8638 73.3667 28.7997 73.3129 28.7268 73.2741C28.6538 73.2354 28.5736 73.2126 28.4913 73.2072C18.6389 71.3818 12.2617 63.0811 12.5389 54.7888C12.8393 45.6666 10.3765 37.6393 19.4572 32.9879C19.5487 32.9453 19.6274 32.8791 19.6854 32.7959C19.7434 32.7127 19.7787 32.6155 19.7876 32.5142C19.7965 32.4129 19.7787 32.311 19.7361 32.2188C19.6935 32.1266 19.6276 32.0474 19.545 31.9892C11.4255 26.5928 11.8689 18.5851 18.8192 9.21564C24.9792 0.904675 39.3835 1.54983 44.5962 9.83841C44.9705 10.435 45.9549 9.98348 45.9734 9.42696C46.1998 2.42123 56.1492 -0.477996 62.6374 2.40164C69.9204 5.63488 73.4371 13.735 70.1052 20.2383C69.7263 20.9782 71.0433 21.5188 71.4223 20.7762C75.244 13.3156 70.9324 3.84263 62.0505 0.784325C54.5734 -1.79023 44.7164 2.19218 44.4761 9.52912L45.8486 9.11815C40.4371 0.499296 25.5199 -0.573163 18.3663 7.56474C14.9004 11.5075 13.9392 16.5213 16.028 20.9996C18.3894 26.0573 13.6159 29.6763 18.5375 32.9501C18.5652 32.6171 18.5976 32.2845 18.6254 31.9514C8.90235 36.9312 10.9955 45.6834 11.074 55.4536C11.1387 64.0864 17.9688 72.4701 28.1909 74.3706L27.6503 73.6774C23.8794 84.0409 29.7853 95.3785 41.6941 99.3889C47.0131 101.18 53.261 101.597 58.8434 100.032C63.7419 98.6593 68.3538 95.4135 68.4554 90.8419L67.2355 91.3602C74.4631 98.0776 85.5631 91.2202 88.2943 84.3246C91.1409 77.1308 88.0494 68.7723 80.6832 64.5921L80.2395 65.665C82.1259 65.6899 83.9969 65.3178 85.733 64.5724C87.4691 63.8271 89.0324 62.7248 90.3232 61.3359C91.614 59.947 92.6039 58.3018 93.2301 56.5053C93.8562 54.7089 94.1048 52.8004 93.9599 50.9016C93.5116 46.0379 89.103 33.5309 80.4752 36.3686C80.3366 36.3885 80.2107 36.4605 80.1226 36.5702C80.0344 36.68 79.9907 36.8193 80 36.9602C80.0094 37.1011 80.0712 37.2333 80.173 37.3302C80.2748 37.427 80.4092 37.4815 80.5491 37.4825C87.0419 38.1883 90.8036 31.9584 88.2989 27.4806C84.9809 21.5538 76.5148 20.8592 69.5599 20.5891C69.5213 20.5845 69.4822 20.5878 69.4448 20.5987C69.4075 20.6096 69.3727 20.6279 69.3425 20.6526C69.3122 20.6773 69.2871 20.7078 69.2687 20.7424C69.2503 20.7769 69.239 20.8149 69.2353 20.8539C69.2316 20.893 69.2356 20.9324 69.2472 20.9699C69.2588 21.0073 69.2777 21.0421 69.3028 21.0721C69.3279 21.1021 69.3587 21.1267 69.3933 21.1446C69.4279 21.1624 69.4657 21.1731 69.5045 21.176V21.1797ZM17.345 80.226C16.8089 78.5 14.4429 77.532 12.4142 78.2056C11.9481 78.3435 11.5175 78.5827 11.1527 78.9065C10.7879 79.2302 10.4978 79.6307 10.3027 80.0797C10.1076 80.5287 10.0122 81.0154 10.0233 81.5056C10.0344 81.9958 10.1517 82.4776 10.367 82.9172C12.7839 87.3955 21.3146 83.7237 19.48 79.2935C19.4223 79.1922 19.335 79.1115 19.2301 79.0623C19.1251 79.0131 19.0077 78.9978 18.8939 79.0186C18.78 79.0394 18.6753 79.0952 18.5941 79.1784C18.5129 79.2616 18.4591 79.3681 18.4402 79.4833C18.4772 81.0018 18.3571 82.5286 16.6796 83.5063C15.1823 84.3768 12.7931 84.2299 11.6933 82.9932C11.4779 82.7376 11.3147 82.4416 11.2129 82.1221C11.1112 81.8027 11.073 81.4661 11.1004 81.1317C11.1279 80.7973 11.2206 80.4717 11.3731 80.1735C11.5256 79.8753 11.7349 79.6105 11.989 79.3942C13.5325 78.0554 16.2267 78.7384 16.8967 80.3641C16.9938 80.6039 17.4189 80.4709 17.345 80.2283V80.226ZM8.19505 86.0571C8.0102 85.3107 7.10905 84.8036 6.22178 84.7682C6.02476 84.7632 5.82868 84.7977 5.64492 84.8697C5.46117 84.9416 5.29337 85.0495 5.15116 85.1873C5.00895 85.325 4.8952 85.4898 4.81641 85.6722C4.73763 85.8545 4.69537 86.0508 4.69214 86.2498C4.68443 86.6231 4.80999 86.9868 5.04584 87.2744C5.28168 87.5621 5.6121 87.7545 5.97685 87.8167C6.75321 88.0089 7.82996 87.841 8.2967 87.2289C8.50927 86.9514 8.02867 86.5954 7.72367 86.8119C7.54108 86.9919 7.31744 87.1238 7.07246 87.196C6.82749 87.2683 6.56867 87.2786 6.31881 87.2261C6.10409 87.1847 5.91074 87.0681 5.77292 86.8968C5.6351 86.7255 5.56167 86.5105 5.56555 86.2899C5.55834 86.1896 5.57158 86.0889 5.60448 85.994C5.63737 85.8991 5.68927 85.812 5.75684 85.7382C5.82442 85.6643 5.90628 85.6053 5.99738 85.5646C6.08849 85.524 6.18689 85.5027 6.28649 85.502C6.54835 85.5288 6.80012 85.6181 7.02107 85.7625C7.24203 85.9068 7.42585 86.1022 7.55732 86.3323C7.60758 86.3918 7.67534 86.4335 7.75075 86.4514C7.82616 86.4692 7.90523 86.4623 7.97645 86.4316C8.04767 86.4008 8.10733 86.3479 8.14664 86.2805C8.18596 86.2132 8.20293 86.1349 8.19505 86.0571ZM19.7714 35.8629C18.3112 36.9078 16.916 38.0424 15.5938 39.2603C14.2657 40.4692 23.0155 41.7625 21.8507 43.1322C20.6827 44.4917 19.6402 45.9561 18.736 47.5069C17.8294 49.0463 17.1536 50.7126 16.7304 52.4517C16.3211 54.1769 16.2943 55.9721 16.6518 57.709C17.0251 59.435 17.7404 61.067 18.7545 62.5069C19.2506 63.2402 19.8005 63.9348 20.3996 64.5851C21.0078 65.2349 21.6478 65.8534 22.3174 66.4384C22.9782 67.0323 23.6853 67.5804 24.4016 68.1178L25.4875 68.9038C25.8619 69.1511 26.2316 69.4025 26.6013 69.6572L26.5689 69.7151C26.1761 69.5028 25.7787 69.2878 25.3859 69.068L24.2306 68.3683C23.4773 67.8734 22.7333 67.3602 22.0216 66.7981C20.5797 65.6798 19.2983 64.3651 18.2138 62.8917C17.6808 62.1376 17.2182 61.3352 16.832 60.4949C15.7041 57.9237 15.4871 55.039 16.2174 52.3253C16.682 50.5475 17.4062 48.8496 18.3663 47.2872C19.3102 45.7327 20.393 44.2687 21.6012 42.9134C22.8074 41.5642 14.0978 40.2942 15.4645 39.1111C16.8192 37.9225 18.2452 36.8195 19.7345 35.8083L19.7714 35.8629ZM70.7892 87.8825C72.7137 87.7294 74.6129 87.3424 76.4455 86.7298C78.2767 86.183 79.9537 85.2064 81.3394 83.88C81.9883 83.2064 82.4822 82.3966 82.7858 81.5084C82.8652 81.2904 82.9286 81.0668 82.9753 80.8394C83.0324 80.6144 83.071 80.3851 83.0908 80.1537L83.137 79.808C83.1509 79.6923 83.1463 79.5748 83.1509 79.4577C83.1463 79.2244 83.174 78.9912 83.1463 78.7547L83.0908 78.0489C83.0769 77.8124 83.0123 77.5824 82.9799 77.3459C82.9198 76.871 82.7627 76.4166 82.6564 75.9464C82.5317 75.4799 82.3514 75.0312 82.2035 74.5684C82.0325 74.1145 81.8385 73.6681 81.6675 73.2058L81.7276 73.1741C81.9864 73.5893 82.2313 74.0138 82.4808 74.4425C82.6842 74.8908 82.9106 75.3288 83.0908 75.7953C83.2782 76.2583 83.4311 76.7349 83.5483 77.2209C83.6038 77.4662 83.6777 77.7074 83.71 77.9584L83.8071 78.7127C83.8395 78.9646 83.8163 79.2221 83.8256 79.4768C83.8209 79.6046 83.8302 79.7329 83.8164 79.8603L83.7701 80.2428C83.7478 80.4994 83.6998 80.7531 83.6269 80.9999C83.5701 81.2511 83.4944 81.4975 83.4004 81.737C83.0298 82.6935 82.4537 83.5552 81.7137 84.2602C80.9907 84.9499 80.1699 85.5269 79.2783 85.9722C78.4007 86.4147 77.485 86.7757 76.5425 87.0507C74.6679 87.5844 72.736 87.8866 70.7892 87.9506V87.8839V87.8825ZM67.0922 17.5653C66.9439 15.6195 66.5638 13.6988 65.96 11.8448C65.4258 9.99391 64.4644 8.29725 63.1549 6.89393C62.4911 6.23808 61.6907 5.74005 60.812 5.43615C60.597 5.35589 60.376 5.29272 60.1512 5.24723C59.9299 5.18937 59.7042 5.15067 59.4765 5.13154L59.1345 5.08488C59.019 5.07229 58.9035 5.07882 58.7879 5.07462C58.5569 5.07789 58.3258 5.05176 58.0948 5.07742L57.3969 5.13386C57.1613 5.15066 56.9348 5.21597 56.6991 5.25096C56.2333 5.33696 55.7721 5.44704 55.3174 5.58076C54.8553 5.70672 54.4116 5.88911 53.9541 6.04026C53.5059 6.21612 53.0623 6.41344 52.6094 6.58371L52.577 6.52494C52.9883 6.26184 53.4089 6.0118 53.8294 5.76176C54.273 5.55557 54.7074 5.32186 55.1695 5.13946C55.6272 4.94881 56.0983 4.79288 56.579 4.67298C56.8193 4.61746 57.0596 4.54142 57.3045 4.50877L58.0532 4.40848C58.3027 4.37769 58.5568 4.39867 58.8064 4.39168C58.9312 4.39168 59.0606 4.38608 59.1853 4.39728L59.5643 4.44393C59.8177 4.46779 60.0683 4.51558 60.3129 4.58668C60.5599 4.64486 60.8025 4.72126 61.0385 4.81525C61.9833 5.1895 62.8341 5.7709 63.5293 6.51747C64.211 7.24825 64.7796 8.0786 65.216 8.98053C65.6517 9.8688 66.0073 10.7948 66.2789 11.7473C66.8008 13.6442 67.0956 15.5975 67.1569 17.5653H67.0922ZM65.655 20.1861C65.5067 18.2402 65.1266 16.3195 64.5229 14.4655C63.9886 12.6146 63.0272 10.918 61.7178 9.51466C61.0549 8.85991 60.2562 8.36199 59.3795 8.05689C59.164 7.97784 58.9431 7.91469 58.7186 7.86796C58.4957 7.81064 58.2685 7.77209 58.0393 7.75273L57.6973 7.70609C57.5818 7.69303 57.4663 7.69955 57.3507 7.69535C57.1197 7.69862 56.8886 7.6725 56.6576 7.69816L55.9598 7.75507C55.7241 7.77139 55.4976 7.8367 55.2666 7.87169C54.7991 7.95716 54.3363 8.06725 53.8802 8.2015C53.4227 8.32745 52.9744 8.50985 52.5169 8.66099C52.0687 8.83685 51.6297 9.03418 51.1722 9.20444L51.1398 9.14567C51.5511 8.88257 51.9716 8.63253 52.3968 8.38249C52.8358 8.17631 53.2748 7.9426 53.7323 7.7602C54.1902 7.57022 54.6613 7.41431 55.1418 7.29371C55.3821 7.2382 55.6224 7.16216 55.8673 7.1295L56.6159 7.02921C56.8655 6.99842 57.1196 7.01941 57.3692 7.01242C57.4986 7.01475 57.6234 7.00682 57.7482 7.01801L58.1271 7.06466C58.3805 7.08694 58.6312 7.13381 58.8757 7.20461C59.1227 7.26301 59.3652 7.3394 59.6013 7.43319C60.5462 7.80743 61.3969 8.38884 62.0921 9.13541C62.7738 9.86619 63.3424 10.6965 63.7788 11.5985C64.2164 12.4859 64.5722 13.412 64.8417 14.3652C65.3637 16.2622 65.6585 18.2155 65.7197 20.1833L65.655 20.1861ZM2.81134 90.2947C2.43489 90.5406 1.9865 90.6492 1.54051 90.6026C1.3081 90.579 1.08301 90.5071 0.879424 90.3915C0.67584 90.2759 0.498133 90.1191 0.357452 89.9308C0.0696217 89.5305 -0.0514642 89.0323 0.0201136 88.543C0.09804 88.0408 0.368623 87.5897 0.773371 87.2872C1.19073 86.9774 1.7111 86.8436 2.22444 86.914C2.48338 86.9521 2.73106 87.0464 2.95045 87.1904C3.16983 87.3344 3.35571 87.5247 3.49527 87.7481C3.63026 87.966 3.71491 88.2118 3.74291 88.4672C3.77091 88.7227 3.74154 88.9812 3.657 89.2236C3.50118 89.6658 3.20357 90.0427 2.81134 90.2947ZM2.77433 90.2396C2.9408 90.1143 3.07597 89.9514 3.16904 89.764C3.26211 89.5766 3.31051 89.3698 3.31041 89.1602C3.30778 88.7855 3.18086 88.4226 2.94994 88.1292C2.73859 87.8518 2.44061 87.6545 2.10428 87.5695C1.93059 87.5251 1.74987 87.5166 1.57283 87.5442C1.39579 87.5719 1.22606 87.6352 1.07376 87.7304C0.755428 87.9327 0.529457 88.2541 0.445284 88.6242C0.401712 88.8139 0.395572 89.0105 0.427289 89.2026C0.459007 89.3947 0.527971 89.5786 0.630144 89.7438C0.840775 90.0962 1.17601 90.3548 1.5682 90.4673C1.77323 90.5237 1.98824 90.5325 2.19713 90.4931C2.40602 90.4537 2.60335 90.367 2.77433 90.2396Z" fill="#C59D5F"/>
</svg>
